<?xml version="1.0" encoding="utf-8"?>
<svg xmlns="http://www.w3.org/2000/svg" xmlns:xlink="http://www.w3.org/1999/xlink" width="600" height="400" viewBox="0 0 2400 1600">
<defs>
  <clipPath id="clip090">
    <rect x="0" y="0" width="2400" height="1600"/>
  </clipPath>
</defs>
<path clip-path="url(#clip090)" d="M0 1600 L2400 1600 L2400 0 L0 0  Z" fill="#ffffff" fill-rule="evenodd" fill-opacity="1"/>
<defs>
  <clipPath id="clip091">
    <rect x="480" y="0" width="1681" height="1600"/>
  </clipPath>
</defs>
<path clip-path="url(#clip090)" d="M260.725 1423.57 L2352.76 1423.57 L2352.76 123.185 L260.725 123.185  Z" fill="#ffffff" fill-rule="evenodd" fill-opacity="1"/>
<defs>
  <clipPath id="clip092">
    <rect x="260" y="123" width="2093" height="1301"/>
  </clipPath>
</defs>
<polyline clip-path="url(#clip092)" style="stroke:#000000; stroke-linecap:round; stroke-linejoin:round; stroke-width:2; stroke-opacity:0.1; fill:none" points="314.57,1423.57 314.57,123.185 "/>
<polyline clip-path="url(#clip092)" style="stroke:#000000; stroke-linecap:round; stroke-linejoin:round; stroke-width:2; stroke-opacity:0.1; fill:none" points="636.355,1423.57 636.355,123.185 "/>
<polyline clip-path="url(#clip092)" style="stroke:#000000; stroke-linecap:round; stroke-linejoin:round; stroke-width:2; stroke-opacity:0.1; fill:none" points="958.14,1423.57 958.14,123.185 "/>
<polyline clip-path="url(#clip092)" style="stroke:#000000; stroke-linecap:round; stroke-linejoin:round; stroke-width:2; stroke-opacity:0.1; fill:none" points="1279.93,1423.57 1279.93,123.185 "/>
<polyline clip-path="url(#clip092)" style="stroke:#000000; stroke-linecap:round; stroke-linejoin:round; stroke-width:2; stroke-opacity:0.1; fill:none" points="1601.71,1423.57 1601.71,123.185 "/>
<polyline clip-path="url(#clip092)" style="stroke:#000000; stroke-linecap:round; stroke-linejoin:round; stroke-width:2; stroke-opacity:0.1; fill:none" points="1923.49,1423.57 1923.49,123.185 "/>
<polyline clip-path="url(#clip092)" style="stroke:#000000; stroke-linecap:round; stroke-linejoin:round; stroke-width:2; stroke-opacity:0.1; fill:none" points="2245.28,1423.57 2245.28,123.185 "/>
<polyline clip-path="url(#clip092)" style="stroke:#000000; stroke-linecap:round; stroke-linejoin:round; stroke-width:2; stroke-opacity:0.1; fill:none" points="260.725,1229.4 2352.76,1229.4 "/>
<polyline clip-path="url(#clip092)" style="stroke:#000000; stroke-linecap:round; stroke-linejoin:round; stroke-width:2; stroke-opacity:0.1; fill:none" points="260.725,987.595 2352.76,987.595 "/>
<polyline clip-path="url(#clip092)" style="stroke:#000000; stroke-linecap:round; stroke-linejoin:round; stroke-width:2; stroke-opacity:0.1; fill:none" points="260.725,745.792 2352.76,745.792 "/>
<polyline clip-path="url(#clip092)" style="stroke:#000000; stroke-linecap:round; stroke-linejoin:round; stroke-width:2; stroke-opacity:0.1; fill:none" points="260.725,503.988 2352.76,503.988 "/>
<polyline clip-path="url(#clip092)" style="stroke:#000000; stroke-linecap:round; stroke-linejoin:round; stroke-width:2; stroke-opacity:0.1; fill:none" points="260.725,262.184 2352.76,262.184 "/>
<polyline clip-path="url(#clip090)" style="stroke:#000000; stroke-linecap:round; stroke-linejoin:round; stroke-width:4; stroke-opacity:1; fill:none" points="260.725,1423.57 2352.76,1423.57 "/>
<polyline clip-path="url(#clip090)" style="stroke:#000000; stroke-linecap:round; stroke-linejoin:round; stroke-width:4; stroke-opacity:1; fill:none" points="314.57,1423.57 314.57,1404.67 "/>
<polyline clip-path="url(#clip090)" style="stroke:#000000; stroke-linecap:round; stroke-linejoin:round; stroke-width:4; stroke-opacity:1; fill:none" points="636.355,1423.57 636.355,1404.67 "/>
<polyline clip-path="url(#clip090)" style="stroke:#000000; stroke-linecap:round; stroke-linejoin:round; stroke-width:4; stroke-opacity:1; fill:none" points="958.14,1423.57 958.14,1404.67 "/>
<polyline clip-path="url(#clip090)" style="stroke:#000000; stroke-linecap:round; stroke-linejoin:round; stroke-width:4; stroke-opacity:1; fill:none" points="1279.93,1423.57 1279.93,1404.67 "/>
<polyline clip-path="url(#clip090)" style="stroke:#000000; stroke-linecap:round; stroke-linejoin:round; stroke-width:4; stroke-opacity:1; fill:none" points="1601.71,1423.57 1601.71,1404.67 "/>
<polyline clip-path="url(#clip090)" style="stroke:#000000; stroke-linecap:round; stroke-linejoin:round; stroke-width:4; stroke-opacity:1; fill:none" points="1923.49,1423.57 1923.49,1404.67 "/>
<polyline clip-path="url(#clip090)" style="stroke:#000000; stroke-linecap:round; stroke-linejoin:round; stroke-width:4; stroke-opacity:1; fill:none" points="2245.28,1423.57 2245.28,1404.67 "/>
<g clip-path="url(#clip090)">
<text style="fill:#000000; fill-opacity:1; font-family:Courier,Courier New,Lucida Sans Typewriter,Lucida Typewriter,monospace; font-size:60px; text-anchor:middle;" transform="rotate(0, 314.57, 1486.07)" x="314.57" y="1486.07">0</text>
</g>
<g clip-path="url(#clip090)">
<text style="fill:#000000; fill-opacity:1; font-family:Courier,Courier New,Lucida Sans Typewriter,Lucida Typewriter,monospace; font-size:60px; text-anchor:middle;" transform="rotate(0, 636.355, 1486.07)" x="636.355" y="1486.07">2</text>
</g>
<g clip-path="url(#clip090)">
<text style="fill:#000000; fill-opacity:1; font-family:Courier,Courier New,Lucida Sans Typewriter,Lucida Typewriter,monospace; font-size:60px; text-anchor:middle;" transform="rotate(0, 958.14, 1486.07)" x="958.14" y="1486.07">4</text>
</g>
<g clip-path="url(#clip090)">
<text style="fill:#000000; fill-opacity:1; font-family:Courier,Courier New,Lucida Sans Typewriter,Lucida Typewriter,monospace; font-size:60px; text-anchor:middle;" transform="rotate(0, 1279.93, 1486.07)" x="1279.93" y="1486.07">6</text>
</g>
<g clip-path="url(#clip090)">
<text style="fill:#000000; fill-opacity:1; font-family:Courier,Courier New,Lucida Sans Typewriter,Lucida Typewriter,monospace; font-size:60px; text-anchor:middle;" transform="rotate(0, 1601.71, 1486.07)" x="1601.71" y="1486.07">8</text>
</g>
<g clip-path="url(#clip090)">
<text style="fill:#000000; fill-opacity:1; font-family:Courier,Courier New,Lucida Sans Typewriter,Lucida Typewriter,monospace; font-size:60px; text-anchor:middle;" transform="rotate(0, 1923.49, 1486.07)" x="1923.49" y="1486.07">10</text>
</g>
<g clip-path="url(#clip090)">
<text style="fill:#000000; fill-opacity:1; font-family:Courier,Courier New,Lucida Sans Typewriter,Lucida Typewriter,monospace; font-size:60px; text-anchor:middle;" transform="rotate(0, 2245.28, 1486.07)" x="2245.28" y="1486.07">12</text>
</g>
<g clip-path="url(#clip090)">
<text style="fill:#000000; fill-opacity:1; font-family:Courier,Courier New,Lucida Sans Typewriter,Lucida Typewriter,monospace; font-size:82px; text-anchor:middle;" transform="rotate(0, 1306.74, 1572.51)" x="1306.74" y="1572.51">Time (Frame)</text>
</g>
<polyline clip-path="url(#clip090)" style="stroke:#000000; stroke-linecap:round; stroke-linejoin:round; stroke-width:4; stroke-opacity:1; fill:none" points="260.725,1423.57 260.725,123.185 "/>
<polyline clip-path="url(#clip090)" style="stroke:#000000; stroke-linecap:round; stroke-linejoin:round; stroke-width:4; stroke-opacity:1; fill:none" points="260.725,1229.4 279.623,1229.4 "/>
<polyline clip-path="url(#clip090)" style="stroke:#000000; stroke-linecap:round; stroke-linejoin:round; stroke-width:4; stroke-opacity:1; fill:none" points="260.725,987.595 279.623,987.595 "/>
<polyline clip-path="url(#clip090)" style="stroke:#000000; stroke-linecap:round; stroke-linejoin:round; stroke-width:4; stroke-opacity:1; fill:none" points="260.725,745.792 279.623,745.792 "/>
<polyline clip-path="url(#clip090)" style="stroke:#000000; stroke-linecap:round; stroke-linejoin:round; stroke-width:4; stroke-opacity:1; fill:none" points="260.725,503.988 279.623,503.988 "/>
<polyline clip-path="url(#clip090)" style="stroke:#000000; stroke-linecap:round; stroke-linejoin:round; stroke-width:4; stroke-opacity:1; fill:none" points="260.725,262.184 279.623,262.184 "/>
<g clip-path="url(#clip090)">
<text style="fill:#000000; fill-opacity:1; font-family:Courier,Courier New,Lucida Sans Typewriter,Lucida Typewriter,monospace; font-size:60px; text-anchor:middle;" transform="rotate(0, 187.828, 1246.9)" x="187.828" y="1246.9">20</text>
</g>
<g clip-path="url(#clip090)">
<text style="fill:#000000; fill-opacity:1; font-family:Courier,Courier New,Lucida Sans Typewriter,Lucida Typewriter,monospace; font-size:60px; text-anchor:middle;" transform="rotate(0, 187.828, 1005.1)" x="187.828" y="1005.1">40</text>
</g>
<g clip-path="url(#clip090)">
<text style="fill:#000000; fill-opacity:1; font-family:Courier,Courier New,Lucida Sans Typewriter,Lucida Typewriter,monospace; font-size:60px; text-anchor:middle;" transform="rotate(0, 187.828, 763.292)" x="187.828" y="763.292">60</text>
</g>
<g clip-path="url(#clip090)">
<text style="fill:#000000; fill-opacity:1; font-family:Courier,Courier New,Lucida Sans Typewriter,Lucida Typewriter,monospace; font-size:60px; text-anchor:middle;" transform="rotate(0, 187.828, 521.488)" x="187.828" y="521.488">80</text>
</g>
<g clip-path="url(#clip090)">
<text style="fill:#000000; fill-opacity:1; font-family:Courier,Courier New,Lucida Sans Typewriter,Lucida Typewriter,monospace; font-size:60px; text-anchor:middle;" transform="rotate(0, 169.38, 279.684)" x="169.38" y="279.684">100</text>
</g>
<g clip-path="url(#clip090)">
<text style="fill:#000000; fill-opacity:1; font-family:Courier,Courier New,Lucida Sans Typewriter,Lucida Typewriter,monospace; font-size:82px; text-anchor:middle;" transform="rotate(-90, 64.6929, 773.377)" x="64.6929" y="773.377">Joint Angle (Degrees)</text>
</g>
<g clip-path="url(#clip090)">
<text style="fill:#000000; fill-opacity:1; font-family:Courier,Courier New,Lucida Sans Typewriter,Lucida Typewriter,monospace; font-size:105px; text-anchor:middle;" transform="rotate(0, 1306.74, 73.2)" x="1306.74" y="73.2">Joint Angles Over Time</text>
</g>
<polyline clip-path="url(#clip092)" style="stroke:#ff4747; stroke-linecap:round; stroke-linejoin:round; stroke-width:8; stroke-opacity:1; fill:none" points="319.933,1279.25 325.297,1245.52 330.66,1216.09 336.023,1203.39 341.386,1216.68 346.749,1238.59 352.112,1252.86 357.475,1263.89 362.838,1270.67 368.201,1270.94 373.564,1263.84 378.927,1256.96 384.29,1251.62 389.654,1244.92 395.017,1230.71 400.38,1203.34 405.743,1173.2 411.106,1145.83 416.469,1126.64 421.832,1122.85 427.195,1129.92 432.558,1151.45 437.921,1187.22 443.284,1216.27 448.647,1249.13 454.011,1282.58 459.374,1299.82 464.737,1308.7 470.1,1311.48 475.463,1319.16 480.826,1330.12 486.189,1331.92 491.552,1336.84 496.915,1341.76 502.278,1334.18 507.641,1325.83 513.004,1321.65 518.368,1319.5 523.731,1318.65 529.094,1321.29 534.457,1318.58 539.82,1329.17 545.183,1330.85 550.546,1318.56 555.909,1303.18 561.272,1281.31 566.635,1257.99 571.998,1224.8 577.361,1191.11 582.724,1175.52 588.088,1146.83 593.451,1111.08 598.814,1087.15 604.177,1072.51 609.54,1071.23 614.903,1074.29 620.266,1084.58 625.629,1096.82 630.992,1095.63 636.355,1082.48 641.718,1074.82 647.081,1072.33 652.445,1079.83 657.808,1094.02 663.171,1106.69 668.534,1117.84 673.897,1126.11 679.26,1132.56 684.623,1142.67 689.986,1150.75 695.349,1158.69 700.712,1162.55 706.075,1162.48 711.438,1160.07 716.802,1155.96 722.165,1153.37 727.528,1151.06 732.891,1148.21 738.254,1147.29 743.617,1143.82 748.98,1138.25 754.343,1132.95 759.706,1129.46 765.069,1131.08 770.432,1137.08 775.795,1136.7 781.158,1132.98 786.522,1124.2 791.885,1124.65 797.248,1120.65 802.611,1147 807.974,1191.1 813.337,1240.52 818.7,1278.04 824.063,1308.95 829.426,1324.56 834.789,1340.79 840.152,1335.49 845.515,1333.08 850.879,1327.36 856.242,1318.92 861.605,1310.76 866.968,1303.01 872.331,1299.09 877.694,1306.63 883.057,1307.54 888.42,1302.04 893.783,1299.74 899.146,1296.24 904.509,1291.35 909.872,1293.28 915.236,1284.7 920.599,1288.17 925.962,1298.54 931.325,1317.52 936.688,1332.12 942.051,1332.81 947.414,1323.76 952.777,1310.3 958.14,1275.87 963.503,1245.22 968.866,1226.33 974.229,1224.04 979.593,1224.99 984.956,1224.97 990.319,1230.08 995.682,1239.64 1001.04,1249.73 1006.41,1251.89 1011.77,1259.46 1017.13,1272.84 1022.5,1284.32 1027.86,1294.43 1033.22,1305.86 1038.59,1311.43 1043.95,1310.85 1049.31,1305.46 1054.68,1296.58 1060.04,1290.47 1065.4,1284.83 1070.76,1286.07 1076.13,1289.83 1081.49,1288.51 1086.85,1285.32 1092.22,1281.8 1097.58,1278.42 1102.94,1278.64 1108.31,1276.96 1113.67,1273.04 1119.03,1264.83 1124.4,1255.33 1129.76,1244.53 1135.12,1234.65 1140.48,1234.26 1145.85,1245.28 1151.21,1258.66 1156.57,1265.09 1161.94,1267.81 1167.3,1266.56 1172.66,1259.28 1178.03,1248.03 1183.39,1235.81 1188.75,1226.4 1194.12,1220.07 1199.48,1219.39 1204.84,1224.33 1210.21,1236.93 1215.57,1256.27 1220.93,1278.32 1226.29,1293.08 1231.66,1303.2 1237.02,1313.33 1242.38,1323.73 1247.75,1324.84 1253.11,1324.74 1258.47,1322.18 1263.84,1315.35 1269.2,1305.32 1274.56,1297.14 1279.93,1292.8 1285.29,1288.73 1290.65,1285.36 1296.01,1286.08 1301.38,1288.56 1306.74,1290.73 1312.1,1291.6 1317.47,1299.14 1322.83,1306.59 1328.19,1316.46 1333.56,1331.91 1338.92,1343.73 1344.28,1353.07 1349.65,1349.55 1355.01,1332.53 1360.37,1312.39 1365.73,1287.67 1371.1,1265.2 1376.46,1249.33 1381.82,1231.54 1387.19,1218.49 1392.55,1206 1397.91,1198.63 1403.28,1195.56 1408.64,1197.65 1414,1203.92 1419.37,1209.84 1424.73,1213.34 1430.09,1219.47 1435.45,1227.66 1440.82,1236.81 1446.18,1244.69 1451.54,1249.56 1456.91,1251.73 1462.27,1250.23 1467.63,1251.55 1473,1252.3 1478.36,1253.46 1483.72,1254.06 1489.09,1254.17 1494.45,1249.71 1499.81,1241.3 1505.17,1234.45 1510.54,1232.93 1515.9,1233.7 1521.26,1243.52 1526.63,1257.87 1531.99,1282.2 1537.35,1306.1 1542.72,1321.57 1548.08,1325.79 1553.44,1319.92 1558.81,1302.81 1564.17,1279.76 1569.53,1251.7 1574.89,1239.19 1580.26,1230.73 1585.62,1220.51 1590.98,1205.77 1596.35,1193.4 1601.71,1182.56 1607.07,1197.39 1612.44,1235.79 1617.8,1288.98 1623.16,1338.75 1628.53,1374.23 1633.89,1386.77 1639.25,1377.31 1644.61,1358.65 1649.98,1349.07 1655.34,1344.37 1660.7,1335.31 1666.07,1325.68 1671.43,1317.42 1676.79,1310.16 1682.16,1307.55 1687.52,1311.98 1692.88,1314.15 1698.25,1318.12 1703.61,1313.13 1708.97,1303.44 1714.33,1294.48 1719.7,1291.63 1725.06,1289.57 1730.42,1291.11 1735.79,1294.22 1741.15,1302.11 1746.51,1305.92 1751.88,1300.6 1757.24,1283.22 1762.6,1261.46 1767.97,1226.92 1773.33,1198.43 1778.69,1176.82 1784.05,1169.55 1789.42,1174.22 1794.78,1181.32 1800.14,1187.78 1805.51,1179.45 1810.87,1174.42 1816.23,1179.89 1821.6,1187.83 1826.96,1185.49 1832.32,1176.56 1837.69,1166.94 1843.05,1154.94 1848.41,1131.78 1853.77,1135.64 1859.14,1149.12 1864.5,1161.55 1869.86,1169.33 1875.23,1172.46 1880.59,1175.06 1885.95,1179.23 1891.32,1183.21 1896.68,1204.53 1902.04,1223.75 1907.41,1236.08 1912.77,1239.86 1918.13,1232.33 1923.49,1210.53 1928.86,1197.09 1934.22,1195.1 1939.58,1211.95 1944.95,1246.04 1950.31,1270.07 1955.67,1260.91 1961.04,1215.63 1966.4,1148.81 1971.76,1097.26 1977.13,1076.28 1982.49,1079.12 1987.85,1109.24 1993.21,1165.04 1998.58,1221.65 2003.94,1256.83 2009.3,1287.88 2014.67,1316.34 2020.03,1338.49 2025.39,1339.73 2030.76,1328.19 2036.12,1328.3 2041.48,1323.47 2046.85,1311.96 2052.21,1303.3 2057.57,1296.93 2062.93,1300.85 2068.3,1327.75 2073.66,1317.9 2079.02,1317.92 2084.39,1306.1 2089.75,1289.31 2095.11,1251.53 2100.48,1211.89 2105.84,1206.78 2111.2,1231 2116.57,1236.79 2121.93,1269.09 2127.29,1291.67 2132.66,1309.26 2138.02,1298.31 2143.38,1271.3 2148.74,1255.32 2154.11,1239.1 2159.47,1222.33 2164.83,1200.5 2170.2,1185.16 2175.56,1175.38 2180.92,1162.98 2186.29,1153.03 2191.65,1140.45 2197.01,1127.69 2202.38,1120.98 2207.74,1117.02 2213.1,1117.56 2218.46,1116.97 2223.83,1117.39 2229.19,1120.89 2234.55,1115.81 2239.92,1115.08 2245.28,1122.9 2250.64,1131.19 2256.01,1135.16 2261.37,1139.8 2266.73,1146.76 2272.1,1158.81 2277.46,1171.78 2282.82,1179.22 2288.18,1184.72 2293.55,1185.28 "/>
<polyline clip-path="url(#clip092)" style="stroke:#00bcb4; stroke-linecap:round; stroke-linejoin:round; stroke-width:8; stroke-opacity:1; fill:none" points="319.933,639.311 325.297,620.081 330.66,610.087 336.023,614.575 341.386,635.381 346.749,664.6 352.112,686.561 357.475,698.89 362.838,703.23 368.201,696.463 373.564,682.56 378.927,666.594 384.29,649.464 389.654,641.8 395.017,626.025 400.38,609.517 405.743,604.245 411.106,614.928 416.469,620.509 421.832,631.396 427.195,636.163 432.558,651.378 437.921,673.786 443.284,705.479 448.647,749.663 454.011,796.886 459.374,810.118 464.737,806.192 470.1,790.121 475.463,778.13 480.826,769.114 486.189,764.041 491.552,764.836 496.915,764.433 502.278,759.223 507.641,764.073 513.004,783.819 518.368,806.37 523.731,818.55 529.094,824.877 534.457,811.42 539.82,801.222 545.183,795.558 550.546,790.738 555.909,784.18 561.272,771.097 566.635,748.27 571.998,720.53 577.361,678.976 582.724,651.151 588.088,625.233 593.451,600.074 598.814,582.423 604.177,568.848 609.54,564.469 614.903,572.641 620.266,579.685 625.629,583.48 630.992,576.913 636.355,567.38 641.718,559.593 647.081,551.946 652.445,548.191 657.808,551.693 663.171,556.272 668.534,555.981 673.897,553.621 679.26,553.323 684.623,554.245 689.986,551.191 695.349,547.13 700.712,543.912 706.075,540.817 711.438,537.762 716.802,532.796 722.165,532.755 727.528,532.887 732.891,530.971 738.254,528.279 743.617,524.61 748.98,521.627 754.343,521.115 759.706,517.182 765.069,513.892 770.432,507.972 775.795,509.845 781.158,514.267 786.522,508.439 791.885,521.55 797.248,539.389 802.611,579.942 807.974,631.998 813.337,688.927 818.7,748.511 824.063,791.232 829.426,810.522 834.789,828.507 840.152,821.566 845.515,820.101 850.879,815.808 856.242,810.059 861.605,803.615 866.968,791.558 872.331,789.913 877.694,793.93 883.057,792.06 888.42,798.274 893.783,803.367 899.146,806.29 904.509,810.344 909.872,813.802 915.236,830.991 920.599,844.735 925.962,850.438 931.325,863.432 936.688,860.041 942.051,845.424 947.414,826.254 952.777,799.528 958.14,779.268 963.503,746.972 968.866,728.529 974.229,734.184 979.593,743.106 984.956,750.29 990.319,759.039 995.682,769.31 1001.04,778.914 1006.41,778.826 1011.77,785.267 1017.13,794.003 1022.5,796.805 1027.86,791.203 1033.22,785.404 1038.59,774.875 1043.95,757.467 1049.31,735.9 1054.68,715.088 1060.04,701.028 1065.4,692.589 1070.76,697.381 1076.13,702.527 1081.49,697.447 1086.85,685.852 1092.22,671.715 1097.58,659.9 1102.94,654.455 1108.31,651.171 1113.67,645.216 1119.03,631.798 1124.4,615.689 1129.76,599.677 1135.12,586.217 1140.48,587.909 1145.85,607.369 1151.21,624.203 1156.57,625.112 1161.94,620.77 1167.3,605.578 1172.66,584.173 1178.03,570.567 1183.39,573.988 1188.75,596.193 1194.12,625.328 1199.48,659.712 1204.84,696.864 1210.21,733.098 1215.57,771 1220.93,801.5 1226.29,816.721 1231.66,823.193 1237.02,830.501 1242.38,834.964 1247.75,832.522 1253.11,835.961 1258.47,842.781 1263.84,841.845 1269.2,839.574 1274.56,838.751 1279.93,845.676 1285.29,851.272 1290.65,849.726 1296.01,840.356 1301.38,838.098 1306.74,842.215 1312.1,851.689 1317.47,865.863 1322.83,877.678 1328.19,886.579 1333.56,893.819 1338.92,892.659 1344.28,898.312 1349.65,898.865 1355.01,892.254 1360.37,879.076 1365.73,857.944 1371.1,833.463 1376.46,805.712 1381.82,772.552 1387.19,747.219 1392.55,726.524 1397.91,711.404 1403.28,706.174 1408.64,709.32 1414,715.452 1419.37,717.471 1424.73,715.324 1430.09,716.215 1435.45,717.513 1440.82,714.667 1446.18,712.953 1451.54,708.979 1456.91,702.445 1462.27,706.111 1467.63,711.434 1473,714.242 1478.36,716.066 1483.72,707.883 1489.09,692.627 1494.45,667.591 1499.81,644.609 1505.17,640.457 1510.54,637.942 1515.9,639.485 1521.26,658.819 1526.63,680.853 1531.99,701.553 1537.35,714.283 1542.72,723.852 1548.08,725.245 1553.44,710.267 1558.81,688.313 1564.17,673.693 1569.53,655.064 1574.89,650.979 1580.26,645.323 1585.62,635.051 1590.98,624.292 1596.35,615.404 1601.71,613.438 1607.07,643.736 1612.44,691.936 1617.8,761.063 1623.16,817.333 1628.53,846.103 1633.89,847.152 1639.25,824.145 1644.61,798.293 1649.98,794.457 1655.34,789.675 1660.7,779.456 1666.07,762.153 1671.43,745.51 1676.79,740.676 1682.16,752.458 1687.52,781.581 1692.88,815.614 1698.25,837.096 1703.61,842.234 1708.97,836.342 1714.33,835.483 1719.7,842.669 1725.06,848.644 1730.42,850.891 1735.79,848.208 1741.15,835.169 1746.51,814.336 1751.88,788.484 1757.24,760.735 1762.6,733.337 1767.97,702.588 1773.33,680.643 1778.69,669.29 1784.05,662.441 1789.42,660.309 1794.78,663.783 1800.14,664.782 1805.51,649.389 1810.87,649.992 1816.23,658.931 1821.6,669.315 1826.96,667.165 1832.32,655.099 1837.69,643.549 1843.05,626.531 1848.41,603.098 1853.77,617.499 1859.14,634.993 1864.5,647.523 1869.86,641.105 1875.23,624.723 1880.59,607.358 1885.95,591.025 1891.32,578.473 1896.68,603.282 1902.04,628.741 1907.41,653.206 1912.77,661.083 1918.13,653.127 1923.49,623.371 1928.86,605.742 1934.22,609.939 1939.58,648.027 1944.95,705.41 1950.31,762.717 1955.67,780.934 1961.04,757.748 1966.4,697.071 1971.76,636.509 1977.13,608.206 1982.49,595.431 1987.85,627.807 1993.21,678.702 1998.58,733.718 2003.94,782.646 2009.3,817.272 2014.67,837.586 2020.03,860.272 2025.39,860.832 2030.76,859.705 2036.12,857.067 2041.48,862.347 2046.85,860.362 2052.21,858.631 2057.57,862.618 2062.93,869.558 2068.3,890.447 2073.66,904.716 2079.02,915.018 2084.39,921.127 2089.75,911.231 2095.11,893.894 2100.48,873.069 2105.84,852.717 2111.2,850.835 2116.57,847.902 2121.93,849.432 2127.29,856.034 2132.66,865.054 2138.02,864.304 2143.38,846.097 2148.74,826.303 2154.11,804.867 2159.47,774.18 2164.83,747.392 2170.2,726.415 2175.56,712.774 2180.92,699.488 2186.29,687.17 2191.65,677.259 2197.01,663.086 2202.38,645.123 2207.74,635.642 2213.1,624.332 2218.46,616.772 2223.83,618.801 2229.19,625.759 2234.55,630.409 2239.92,638.274 2245.28,646.77 2250.64,653.939 2256.01,655.936 2261.37,659.538 2266.73,664.998 2272.1,669.154 2277.46,672.937 2282.82,670.891 2288.18,663.846 2293.55,651.016 "/>
<polyline clip-path="url(#clip092)" style="stroke:#ffb547; stroke-linecap:round; stroke-linejoin:round; stroke-width:8; stroke-opacity:1; fill:none" points="319.933,962.98 325.297,928.226 330.66,898.4 336.023,878.673 341.386,878.458 346.749,885.48 352.112,887.067 357.475,892.421 362.838,898.214 368.201,902.658 373.564,905.558 378.927,906.767 384.29,907.157 389.654,909.135 395.017,912.186 400.38,908.969 405.743,899.315 411.106,870.308 416.469,854.486 421.832,833.781 427.195,802.18 432.558,783.875 437.921,769.215 443.284,692.937 448.647,657.019 454.011,627.228 459.374,646.078 464.737,652.011 470.1,635.074 475.463,612.478 480.826,571.222 486.189,488.998 491.552,460.93 496.915,446.677 502.278,470.411 507.641,495.818 513.004,543.913 518.368,603.108 523.731,685.214 529.094,748.233 534.457,738.4 539.82,716.043 545.183,668.711 550.546,623.917 555.909,614.448 561.272,615.271 566.635,641.126 571.998,660.457 577.361,660.697 582.724,691.5 588.088,717.087 593.451,756.085 598.814,799.298 604.177,823.563 609.54,840.562 614.903,858.886 620.266,876.909 625.629,895.511 630.992,909.724 636.355,920.69 641.718,932.748 647.081,936.651 652.445,946.779 657.808,945.93 663.171,936.44 668.534,928.437 673.897,920.256 679.26,912.904 684.623,910.476 689.986,915.11 695.349,931.082 700.712,935.9 706.075,939.203 711.438,944.034 716.802,947.546 722.165,948.374 727.528,944.538 732.891,945.056 738.254,948.132 743.617,951.285 748.98,952.891 754.343,954.48 759.706,957.239 765.069,958.993 770.432,961.788 775.795,962.145 781.158,960.48 786.522,955.646 791.885,937.286 797.248,904.485 802.611,871.483 807.974,836.598 813.337,771.173 818.7,695.249 824.063,656.062 829.426,663.158 834.789,681.295 840.152,693.55 845.515,693.997 850.879,667.776 856.242,588.506 861.605,506.54 866.968,452.036 872.331,439.689 877.694,443.195 883.057,460.963 888.42,486.006 893.783,547.728 899.146,583.73 904.509,604.925 909.872,577.067 915.236,574.892 920.599,586.555 925.962,609.241 931.325,653.905 936.688,724.941 942.051,755.302 947.414,758.594 952.777,731.247 958.14,742.724 963.503,769.283 968.866,796.68 974.229,832.021 979.593,857.008 984.956,872.545 990.319,876.89 995.682,883.205 1001.04,898.549 1006.41,917.274 1011.77,933.423 1017.13,943.198 1022.5,943.484 1027.86,940.49 1033.22,932.088 1038.59,925.198 1043.95,920.069 1049.31,916.201 1054.68,916.062 1060.04,916.382 1065.4,918.369 1070.76,922.596 1076.13,925.039 1081.49,928.973 1086.85,933.273 1092.22,936.756 1097.58,939.769 1102.94,942.942 1108.31,946.198 1113.67,948.302 1119.03,949.259 1124.4,949.923 1129.76,952.474 1135.12,953.773 1140.48,955.669 1145.85,956.668 1151.21,958.033 1156.57,958.912 1161.94,962.042 1167.3,966.792 1172.66,972.963 1178.03,965.815 1183.39,949.387 1188.75,910.376 1194.12,861.532 1199.48,812.299 1204.84,759.282 1210.21,715.506 1215.57,656.277 1220.93,612.307 1226.29,605.179 1231.66,624.231 1237.02,650.762 1242.38,660.608 1247.75,648.662 1253.11,625.136 1258.47,572.004 1263.84,538.634 1269.2,528.481 1274.56,544.525 1279.93,554.72 1285.29,547.277 1290.65,556.624 1296.01,592.25 1301.38,630.143 1306.74,674.302 1312.1,726.092 1317.47,745.048 1322.83,738.555 1328.19,691.936 1333.56,683.511 1338.92,690.467 1344.28,694.106 1349.65,705.435 1355.01,734.758 1360.37,742.356 1365.73,755.899 1371.1,763.002 1376.46,815.999 1381.82,867.973 1387.19,905.414 1392.55,924.782 1397.91,934.481 1403.28,930.407 1408.64,926.211 1414,929.734 1419.37,928.759 1424.73,924.971 1430.09,918.71 1435.45,914.393 1440.82,910.783 1446.18,907.396 1451.54,908.252 1456.91,915.808 1462.27,907.449 1467.63,900.636 1473,896.046 1478.36,894.259 1483.72,898.146 1489.09,904.782 1494.45,913.761 1499.81,927.132 1505.17,937.066 1510.54,946.037 1515.9,950.869 1521.26,956.938 1526.63,961.29 1531.99,961.283 1537.35,961.25 1542.72,961.143 1548.08,960.727 1553.44,958.007 1558.81,955.067 1564.17,950.65 1569.53,945.639 1574.89,931.988 1580.26,917.928 1585.62,902.765 1590.98,882.036 1596.35,854.469 1601.71,822.65 1607.07,779.486 1612.44,731.566 1617.8,671.322 1623.16,590.529 1628.53,540.247 1633.89,523.432 1639.25,500.157 1644.61,493.871 1649.98,508.325 1655.34,507.99 1660.7,496.24 1666.07,447.564 1671.43,425.778 1676.79,421.186 1682.16,391.733 1687.52,390.147 1692.88,414.111 1698.25,434.945 1703.61,473.371 1708.97,506.943 1714.33,582.857 1719.7,611.729 1725.06,632.584 1730.42,642.176 1735.79,644.476 1741.15,608.056 1746.51,573.584 1751.88,565.094 1757.24,607.985 1762.6,628.442 1767.97,690.43 1773.33,757.67 1778.69,826.263 1784.05,857.889 1789.42,883.148 1794.78,906.143 1800.14,919.017 1805.51,922.909 1810.87,921.789 1816.23,922.504 1821.6,921.607 1826.96,920.356 1832.32,922.77 1837.69,916.858 1843.05,900.06 1848.41,877.352 1853.77,857.477 1859.14,850.953 1864.5,850.888 1869.86,861.516 1875.23,878.869 1880.59,887.471 1885.95,890.48 1891.32,890.315 1896.68,897.223 1902.04,911.436 1907.41,918.755 1912.77,934.325 1918.13,945.088 1923.49,951.225 1928.86,942.257 1934.22,928.082 1939.58,912.747 1944.95,889.537 1950.31,865.701 1955.67,868.324 1961.04,884.279 1966.4,895.027 1971.76,892.698 1977.13,862.493 1982.49,807.587 1987.85,717.513 1993.21,632.722 1998.58,602.536 2003.94,586.421 2009.3,604.269 2014.67,589.992 2020.03,573.766 2025.39,550.501 2030.76,454.333 2036.12,373.963 2041.48,339.38 2046.85,332.366 2052.21,378.57 2057.57,446.166 2062.93,462.149 2068.3,377.271 2073.66,248 2079.02,178.869 2084.39,159.988 2089.75,211.686 2095.11,325.455 2100.48,517.426 2105.84,631.475 2111.2,663.6 2116.57,691.071 2121.93,710.581 2127.29,687.335 2132.66,638.179 2138.02,604.894 2143.38,624.546 2148.74,675.319 2154.11,734.367 2159.47,804.206 2164.83,870.08 2170.2,902.582 2175.56,908.481 2180.92,923.677 2186.29,934.67 2191.65,937.076 2197.01,939.101 2202.38,943.918 2207.74,951.325 2213.1,956.306 2218.46,956.52 2223.83,960.417 2229.19,960.504 2234.55,955.871 2239.92,952.883 2245.28,953.925 2250.64,957.888 2256.01,958.253 2261.37,954.67 2266.73,949.583 2272.1,946.098 2277.46,942.933 2282.82,944.05 2288.18,950.052 2293.55,959.858 "/>
<path clip-path="url(#clip090)" d="M330.459 372.907 L945.527 372.907 L945.527 166.531 L330.459 166.531  Z" fill="#ffffff" fill-rule="evenodd" fill-opacity="1"/>
<polyline clip-path="url(#clip090)" style="stroke:#000000; stroke-linecap:round; stroke-linejoin:round; stroke-width:4; stroke-opacity:1; fill:none" points="330.459,372.907 945.527,372.907 945.527,166.531 330.459,166.531 330.459,372.907 "/>
<polyline clip-path="url(#clip090)" style="stroke:#ff4747; stroke-linecap:round; stroke-linejoin:round; stroke-width:8; stroke-opacity:1; fill:none" points="353.704,218.125 493.173,218.125 "/>
<g clip-path="url(#clip090)">
<text style="fill:#000000; fill-opacity:1; font-family:Courier,Courier New,Lucida Sans Typewriter,Lucida Typewriter,monospace; font-size:60px; text-anchor:start;" transform="rotate(0, 516.418, 235.625)" x="516.418" y="235.625">Knee Angle</text>
</g>
<polyline clip-path="url(#clip090)" style="stroke:#00bcb4; stroke-linecap:round; stroke-linejoin:round; stroke-width:8; stroke-opacity:1; fill:none" points="353.704,269.719 493.173,269.719 "/>
<g clip-path="url(#clip090)">
<text style="fill:#000000; fill-opacity:1; font-family:Courier,Courier New,Lucida Sans Typewriter,Lucida Typewriter,monospace; font-size:60px; text-anchor:start;" transform="rotate(0, 516.418, 287.219)" x="516.418" y="287.219">Hip Angle</text>
</g>
<polyline clip-path="url(#clip090)" style="stroke:#ffb547; stroke-linecap:round; stroke-linejoin:round; stroke-width:8; stroke-opacity:1; fill:none" points="353.704,321.313 493.173,321.313 "/>
<g clip-path="url(#clip090)">
<text style="fill:#000000; fill-opacity:1; font-family:Courier,Courier New,Lucida Sans Typewriter,Lucida Typewriter,monospace; font-size:60px; text-anchor:start;" transform="rotate(0, 516.418, 338.813)" x="516.418" y="338.813">Elbow Angle</text>
</g>
</svg>
