<?xml version="1.0" encoding="utf-8"?>
<svg xmlns="http://www.w3.org/2000/svg" xmlns:xlink="http://www.w3.org/1999/xlink" width="600" height="400" viewBox="0 0 2400 1600">
<defs>
  <clipPath id="clip040">
    <rect x="0" y="0" width="2400" height="1600"/>
  </clipPath>
</defs>
<path clip-path="url(#clip040)" d="M0 1600 L2400 1600 L2400 0 L0 0  Z" fill="#ffffff" fill-rule="evenodd" fill-opacity="1"/>
<defs>
  <clipPath id="clip041">
    <rect x="480" y="0" width="1681" height="1600"/>
  </clipPath>
</defs>
<path clip-path="url(#clip040)" d="M225.362 1423.18 L2352.76 1423.18 L2352.76 123.472 L225.362 123.472  Z" fill="#ffffff" fill-rule="evenodd" fill-opacity="1"/>
<defs>
  <clipPath id="clip042">
    <rect x="225" y="123" width="2128" height="1301"/>
  </clipPath>
</defs>
<polyline clip-path="url(#clip042)" style="stroke:#000000; stroke-linecap:round; stroke-linejoin:round; stroke-width:2; stroke-opacity:0.1; fill:none" points="280.117,1423.18 280.117,123.472 "/>
<polyline clip-path="url(#clip042)" style="stroke:#000000; stroke-linecap:round; stroke-linejoin:round; stroke-width:2; stroke-opacity:0.1; fill:none" points="607.342,1423.18 607.342,123.472 "/>
<polyline clip-path="url(#clip042)" style="stroke:#000000; stroke-linecap:round; stroke-linejoin:round; stroke-width:2; stroke-opacity:0.1; fill:none" points="934.566,1423.18 934.566,123.472 "/>
<polyline clip-path="url(#clip042)" style="stroke:#000000; stroke-linecap:round; stroke-linejoin:round; stroke-width:2; stroke-opacity:0.1; fill:none" points="1261.79,1423.18 1261.79,123.472 "/>
<polyline clip-path="url(#clip042)" style="stroke:#000000; stroke-linecap:round; stroke-linejoin:round; stroke-width:2; stroke-opacity:0.1; fill:none" points="1589.01,1423.18 1589.01,123.472 "/>
<polyline clip-path="url(#clip042)" style="stroke:#000000; stroke-linecap:round; stroke-linejoin:round; stroke-width:2; stroke-opacity:0.1; fill:none" points="1916.24,1423.18 1916.24,123.472 "/>
<polyline clip-path="url(#clip042)" style="stroke:#000000; stroke-linecap:round; stroke-linejoin:round; stroke-width:2; stroke-opacity:0.1; fill:none" points="2243.46,1423.18 2243.46,123.472 "/>
<polyline clip-path="url(#clip042)" style="stroke:#000000; stroke-linecap:round; stroke-linejoin:round; stroke-width:2; stroke-opacity:0.1; fill:none" points="225.362,1229.11 2352.76,1229.11 "/>
<polyline clip-path="url(#clip042)" style="stroke:#000000; stroke-linecap:round; stroke-linejoin:round; stroke-width:2; stroke-opacity:0.1; fill:none" points="225.362,987.433 2352.76,987.433 "/>
<polyline clip-path="url(#clip042)" style="stroke:#000000; stroke-linecap:round; stroke-linejoin:round; stroke-width:2; stroke-opacity:0.1; fill:none" points="225.362,745.755 2352.76,745.755 "/>
<polyline clip-path="url(#clip042)" style="stroke:#000000; stroke-linecap:round; stroke-linejoin:round; stroke-width:2; stroke-opacity:0.1; fill:none" points="225.362,504.077 2352.76,504.077 "/>
<polyline clip-path="url(#clip042)" style="stroke:#000000; stroke-linecap:round; stroke-linejoin:round; stroke-width:2; stroke-opacity:0.1; fill:none" points="225.362,262.399 2352.76,262.399 "/>
<polyline clip-path="url(#clip040)" style="stroke:#000000; stroke-linecap:round; stroke-linejoin:round; stroke-width:4; stroke-opacity:1; fill:none" points="225.362,1423.18 2352.76,1423.18 "/>
<polyline clip-path="url(#clip040)" style="stroke:#000000; stroke-linecap:round; stroke-linejoin:round; stroke-width:4; stroke-opacity:1; fill:none" points="280.117,1423.18 280.117,1404.28 "/>
<polyline clip-path="url(#clip040)" style="stroke:#000000; stroke-linecap:round; stroke-linejoin:round; stroke-width:4; stroke-opacity:1; fill:none" points="607.342,1423.18 607.342,1404.28 "/>
<polyline clip-path="url(#clip040)" style="stroke:#000000; stroke-linecap:round; stroke-linejoin:round; stroke-width:4; stroke-opacity:1; fill:none" points="934.566,1423.18 934.566,1404.28 "/>
<polyline clip-path="url(#clip040)" style="stroke:#000000; stroke-linecap:round; stroke-linejoin:round; stroke-width:4; stroke-opacity:1; fill:none" points="1261.79,1423.18 1261.79,1404.28 "/>
<polyline clip-path="url(#clip040)" style="stroke:#000000; stroke-linecap:round; stroke-linejoin:round; stroke-width:4; stroke-opacity:1; fill:none" points="1589.01,1423.18 1589.01,1404.28 "/>
<polyline clip-path="url(#clip040)" style="stroke:#000000; stroke-linecap:round; stroke-linejoin:round; stroke-width:4; stroke-opacity:1; fill:none" points="1916.24,1423.18 1916.24,1404.28 "/>
<polyline clip-path="url(#clip040)" style="stroke:#000000; stroke-linecap:round; stroke-linejoin:round; stroke-width:4; stroke-opacity:1; fill:none" points="2243.46,1423.18 2243.46,1404.28 "/>
<path clip-path="url(#clip040)" d="M291.024 1470.84 Q291.024 1478.55 288.389 1482.3 Q285.755 1486.05 280.153 1486.05 Q274.622 1486.05 271.964 1482.4 Q269.305 1478.72 269.21 1471.43 L269.21 1465.57 Q269.21 1457.95 271.845 1454.25 Q274.48 1450.55 280.105 1450.55 Q285.683 1450.55 288.318 1454.13 Q290.953 1457.69 291.024 1465.14 L291.024 1470.84 M286.633 1464.83 Q286.633 1459.26 285.066 1456.72 Q283.5 1454.15 280.105 1454.15 Q276.735 1454.15 275.192 1456.69 Q273.649 1459.23 273.602 1464.5 L273.602 1471.53 Q273.602 1477.13 275.216 1479.81 Q276.853 1482.47 280.153 1482.47 Q283.405 1482.47 284.971 1479.95 Q286.562 1477.44 286.633 1472.03 L286.633 1464.83 Z" fill="#000000" fill-rule="nonzero" fill-opacity="1" /><path clip-path="url(#clip040)" d="M618.996 1485.58 L596.352 1485.58 L596.352 1482.42 L608.315 1469.13 Q610.973 1466.12 611.97 1464.24 Q612.991 1462.34 612.991 1460.32 Q612.991 1457.62 611.353 1455.89 Q609.715 1454.15 606.985 1454.15 Q603.71 1454.15 601.882 1456.03 Q600.078 1457.88 600.078 1461.2 L595.687 1461.2 Q595.687 1456.43 598.749 1453.49 Q601.835 1450.55 606.985 1450.55 Q611.804 1450.55 614.605 1453.08 Q617.406 1455.6 617.406 1459.8 Q617.406 1464.91 610.902 1471.96 L601.645 1482 L618.996 1482 L618.996 1485.58 Z" fill="#000000" fill-rule="nonzero" fill-opacity="1" /><path clip-path="url(#clip040)" d="M942.244 1473.97 L947.039 1473.97 L947.039 1477.56 L942.244 1477.56 L942.244 1485.58 L937.83 1485.58 L937.83 1477.56 L922.092 1477.56 L922.092 1474.97 L937.568 1451.02 L942.244 1451.02 L942.244 1473.97 M927.077 1473.97 L937.83 1473.97 L937.83 1457.03 L937.307 1457.97 L927.077 1473.97 Z" fill="#000000" fill-rule="nonzero" fill-opacity="1" /><path clip-path="url(#clip040)" d="M1267.84 1451 L1267.84 1454.72 L1267.04 1454.72 Q1261.91 1454.82 1258.87 1457.76 Q1255.83 1460.7 1255.36 1466.04 Q1258.09 1462.91 1262.81 1462.91 Q1267.32 1462.91 1270 1466.09 Q1272.71 1469.27 1272.71 1474.31 Q1272.71 1479.65 1269.79 1482.85 Q1266.89 1486.05 1262 1486.05 Q1257.04 1486.05 1253.96 1482.26 Q1250.87 1478.44 1250.87 1472.43 L1250.87 1470.74 Q1250.87 1461.2 1254.93 1456.17 Q1259.01 1451.11 1267.06 1451 L1267.84 1451 M1262.07 1466.57 Q1259.82 1466.57 1257.92 1467.92 Q1256.02 1469.27 1255.29 1471.31 L1255.29 1472.93 Q1255.29 1477.2 1257.21 1479.81 Q1259.13 1482.42 1262 1482.42 Q1264.97 1482.42 1266.66 1480.24 Q1268.37 1478.06 1268.37 1474.52 Q1268.37 1470.96 1266.63 1468.77 Q1264.92 1466.57 1262.07 1466.57 Z" fill="#000000" fill-rule="nonzero" fill-opacity="1" /><path clip-path="url(#clip040)" d="M1599.2 1460.04 Q1599.2 1462.63 1597.82 1464.64 Q1596.47 1466.66 1594.14 1467.8 Q1596.85 1468.96 1598.41 1471.2 Q1600 1473.43 1600 1476.25 Q1600 1480.74 1596.97 1483.4 Q1593.95 1486.05 1589.01 1486.05 Q1584.03 1486.05 1581.02 1483.4 Q1578.02 1480.71 1578.02 1476.25 Q1578.02 1473.45 1579.54 1471.2 Q1581.09 1468.94 1583.79 1467.78 Q1581.49 1466.64 1580.16 1464.62 Q1578.83 1462.6 1578.83 1460.04 Q1578.83 1455.67 1581.63 1453.11 Q1584.43 1450.55 1589.01 1450.55 Q1593.57 1450.55 1596.37 1453.11 Q1599.2 1455.67 1599.2 1460.04 M1595.61 1476.16 Q1595.61 1473.26 1593.76 1471.43 Q1591.93 1469.61 1588.97 1469.61 Q1586 1469.61 1584.2 1471.41 Q1582.42 1473.21 1582.42 1476.16 Q1582.42 1479.1 1584.15 1480.79 Q1585.9 1482.47 1589.01 1482.47 Q1592.1 1482.47 1593.86 1480.79 Q1595.61 1479.08 1595.61 1476.16 M1589.01 1454.15 Q1586.43 1454.15 1584.81 1455.77 Q1583.22 1457.36 1583.22 1460.11 Q1583.22 1462.75 1584.79 1464.38 Q1586.38 1466 1589.01 1466 Q1591.65 1466 1593.22 1464.38 Q1594.81 1462.75 1594.81 1460.11 Q1594.81 1457.48 1593.17 1455.81 Q1591.53 1454.15 1589.01 1454.15 Z" fill="#000000" fill-rule="nonzero" fill-opacity="1" /><path clip-path="url(#clip040)" d="M1905.6 1485.58 L1901.19 1485.58 L1901.19 1456.31 L1892.34 1459.56 L1892.34 1455.58 L1904.92 1450.85 L1905.6 1450.85 L1905.6 1485.58 Z" fill="#000000" fill-rule="nonzero" fill-opacity="1" /><path clip-path="url(#clip040)" d="M1940.14 1470.84 Q1940.14 1478.55 1937.51 1482.3 Q1934.87 1486.05 1929.27 1486.05 Q1923.74 1486.05 1921.08 1482.4 Q1918.42 1478.72 1918.33 1471.43 L1918.33 1465.57 Q1918.33 1457.95 1920.96 1454.25 Q1923.6 1450.55 1929.22 1450.55 Q1934.8 1450.55 1937.44 1454.13 Q1940.07 1457.69 1940.14 1465.14 L1940.14 1470.84 M1935.75 1464.83 Q1935.75 1459.26 1934.18 1456.72 Q1932.62 1454.15 1929.22 1454.15 Q1925.85 1454.15 1924.31 1456.69 Q1922.77 1459.23 1922.72 1464.5 L1922.72 1471.53 Q1922.72 1477.13 1924.33 1479.81 Q1925.97 1482.47 1929.27 1482.47 Q1932.52 1482.47 1934.09 1479.95 Q1935.68 1477.44 1935.75 1472.03 L1935.75 1464.83 Z" fill="#000000" fill-rule="nonzero" fill-opacity="1" /><path clip-path="url(#clip040)" d="M2232.34 1485.58 L2227.93 1485.58 L2227.93 1456.31 L2219.07 1459.56 L2219.07 1455.58 L2231.65 1450.85 L2232.34 1450.85 L2232.34 1485.58 Z" fill="#000000" fill-rule="nonzero" fill-opacity="1" /><path clip-path="url(#clip040)" d="M2267.85 1485.58 L2245.21 1485.58 L2245.21 1482.42 L2257.17 1469.13 Q2259.83 1466.12 2260.83 1464.24 Q2261.85 1462.34 2261.85 1460.32 Q2261.85 1457.62 2260.21 1455.89 Q2258.57 1454.15 2255.84 1454.15 Q2252.57 1454.15 2250.74 1456.03 Q2248.93 1457.88 2248.93 1461.2 L2244.54 1461.2 Q2244.54 1456.43 2247.6 1453.49 Q2250.69 1450.55 2255.84 1450.55 Q2260.66 1450.55 2263.46 1453.08 Q2266.26 1455.6 2266.26 1459.8 Q2266.26 1464.91 2259.76 1471.96 L2250.5 1482 L2267.85 1482 L2267.85 1485.58 Z" fill="#000000" fill-rule="nonzero" fill-opacity="1" /><path clip-path="url(#clip040)" d="M1127.65 1525.68 L1112.38 1525.68 L1112.38 1568.04 L1106.14 1568.04 L1106.14 1525.68 L1090.9 1525.68 L1090.9 1520.52 L1127.65 1520.52 L1127.65 1525.68 Z" fill="#000000" fill-rule="nonzero" fill-opacity="1" /><path clip-path="url(#clip040)" d="M1140.31 1568.04 L1134.28 1568.04 L1134.28 1532.73 L1140.31 1532.73 L1140.31 1568.04 M1133.79 1523.36 Q1133.79 1521.89 1134.67 1520.88 Q1135.58 1519.87 1137.34 1519.87 Q1139.11 1519.87 1140.02 1520.88 Q1140.93 1521.89 1140.93 1523.36 Q1140.93 1524.83 1140.02 1525.81 Q1139.11 1526.79 1137.34 1526.79 Q1135.58 1526.79 1134.67 1525.81 Q1133.79 1524.83 1133.79 1523.36 Z" fill="#000000" fill-rule="nonzero" fill-opacity="1" /><path clip-path="url(#clip040)" d="M1155.65 1532.73 L1155.82 1536.65 Q1159.7 1532.08 1166.29 1532.08 Q1173.7 1532.08 1176.38 1537.76 Q1178.14 1535.21 1180.95 1533.64 Q1183.79 1532.08 1187.64 1532.08 Q1199.26 1532.08 1199.45 1544.38 L1199.45 1568.04 L1193.42 1568.04 L1193.42 1544.74 Q1193.42 1540.95 1191.69 1539.09 Q1189.96 1537.2 1185.88 1537.2 Q1182.51 1537.2 1180.29 1539.23 Q1178.08 1541.22 1177.72 1544.61 L1177.72 1568.04 L1171.65 1568.04 L1171.65 1544.9 Q1171.65 1537.2 1164.11 1537.2 Q1158.17 1537.2 1155.98 1542.26 L1155.98 1568.04 L1149.94 1568.04 L1149.94 1532.73 L1155.65 1532.73 Z" fill="#000000" fill-rule="nonzero" fill-opacity="1" /><path clip-path="url(#clip040)" d="M1223.21 1568.7 Q1216.03 1568.7 1211.53 1564 Q1207.02 1559.26 1207.02 1551.37 L1207.02 1550.26 Q1207.02 1545 1209.02 1540.89 Q1211.04 1536.74 1214.63 1534.43 Q1218.25 1532.08 1222.46 1532.08 Q1229.35 1532.08 1233.17 1536.61 Q1236.99 1541.15 1236.99 1549.6 L1236.99 1552.12 L1213.06 1552.12 Q1213.19 1557.34 1216.1 1560.57 Q1219.04 1563.77 1223.54 1563.77 Q1226.74 1563.77 1228.96 1562.46 Q1231.18 1561.16 1232.84 1559 L1236.53 1561.88 Q1232.09 1568.7 1223.21 1568.7 M1222.46 1537.04 Q1218.81 1537.04 1216.33 1539.71 Q1213.85 1542.36 1213.26 1547.16 L1230.95 1547.16 L1230.95 1546.7 Q1230.69 1542.1 1228.47 1539.58 Q1226.25 1537.04 1222.46 1537.04 Z" fill="#000000" fill-rule="nonzero" fill-opacity="1" /><path clip-path="url(#clip040)" d="M1260.29 1548.76 Q1260.29 1541.38 1262.25 1534.59 Q1264.24 1527.8 1268.15 1522.25 Q1272.07 1516.71 1276.28 1514.42 L1277.52 1518.4 Q1272.76 1522.06 1269.69 1529.56 Q1266.65 1537.07 1266.36 1546.37 L1266.33 1549.15 Q1266.33 1561.74 1270.93 1571.01 Q1273.7 1576.56 1277.52 1579.7 L1276.28 1583.38 Q1271.94 1580.97 1267.99 1575.29 Q1260.29 1564.19 1260.29 1548.76 Z" fill="#000000" fill-rule="nonzero" fill-opacity="1" /><path clip-path="url(#clip040)" d="M1310.52 1547.06 L1290.58 1547.06 L1290.58 1568.04 L1284.31 1568.04 L1284.31 1520.52 L1313.75 1520.52 L1313.75 1525.68 L1290.58 1525.68 L1290.58 1541.93 L1310.52 1541.93 L1310.52 1547.06 Z" fill="#000000" fill-rule="nonzero" fill-opacity="1" /><path clip-path="url(#clip040)" d="M1337.38 1538.15 Q1336.01 1537.92 1334.41 1537.92 Q1328.47 1537.92 1326.35 1542.98 L1326.35 1568.04 L1320.31 1568.04 L1320.31 1532.73 L1326.18 1532.73 L1326.28 1536.81 Q1329.25 1532.08 1334.7 1532.08 Q1336.46 1532.08 1337.38 1532.53 L1337.38 1538.15 Z" fill="#000000" fill-rule="nonzero" fill-opacity="1" /><path clip-path="url(#clip040)" d="M1364.73 1568.04 Q1364.21 1567 1363.88 1564.32 Q1359.67 1568.7 1353.83 1568.7 Q1348.61 1568.7 1345.24 1565.76 Q1341.92 1562.79 1341.92 1558.25 Q1341.92 1552.74 1346.09 1549.7 Q1350.3 1546.63 1357.91 1546.63 L1363.78 1546.63 L1363.78 1543.86 Q1363.78 1540.69 1361.89 1538.83 Q1360 1536.94 1356.31 1536.94 Q1353.08 1536.94 1350.89 1538.57 Q1348.7 1540.2 1348.7 1542.52 L1342.63 1542.52 Q1342.63 1539.88 1344.49 1537.43 Q1346.39 1534.95 1349.58 1533.51 Q1352.82 1532.08 1356.67 1532.08 Q1362.77 1532.08 1366.23 1535.15 Q1369.69 1538.18 1369.82 1543.53 L1369.82 1559.79 Q1369.82 1564.65 1371.06 1567.52 L1371.06 1568.04 L1364.73 1568.04 M1354.71 1563.44 Q1357.55 1563.44 1360.09 1561.97 Q1362.64 1560.5 1363.78 1558.15 L1363.78 1550.91 L1359.05 1550.91 Q1347.95 1550.91 1347.95 1557.4 Q1347.95 1560.24 1349.85 1561.84 Q1351.74 1563.44 1354.71 1563.44 Z" fill="#000000" fill-rule="nonzero" fill-opacity="1" /><path clip-path="url(#clip040)" d="M1384.96 1532.73 L1385.13 1536.65 Q1389.01 1532.08 1395.6 1532.08 Q1403.01 1532.08 1405.69 1537.76 Q1407.45 1535.21 1410.26 1533.64 Q1413.1 1532.08 1416.95 1532.08 Q1428.57 1532.08 1428.76 1544.38 L1428.76 1568.04 L1422.73 1568.04 L1422.73 1544.74 Q1422.73 1540.95 1421 1539.09 Q1419.27 1537.2 1415.19 1537.2 Q1411.82 1537.2 1409.6 1539.23 Q1407.39 1541.22 1407.03 1544.61 L1407.03 1568.04 L1400.96 1568.04 L1400.96 1544.9 Q1400.96 1537.2 1393.42 1537.2 Q1387.48 1537.2 1385.29 1542.26 L1385.29 1568.04 L1379.25 1568.04 L1379.25 1532.73 L1384.96 1532.73 Z" fill="#000000" fill-rule="nonzero" fill-opacity="1" /><path clip-path="url(#clip040)" d="M1452.52 1568.7 Q1445.34 1568.7 1440.84 1564 Q1436.33 1559.26 1436.33 1551.37 L1436.33 1550.26 Q1436.33 1545 1438.33 1540.89 Q1440.35 1536.74 1443.94 1534.43 Q1447.56 1532.08 1451.77 1532.08 Q1458.66 1532.08 1462.48 1536.61 Q1466.3 1541.15 1466.3 1549.6 L1466.3 1552.12 L1442.37 1552.12 Q1442.5 1557.34 1445.41 1560.57 Q1448.35 1563.77 1452.85 1563.77 Q1456.05 1563.77 1458.27 1562.46 Q1460.49 1561.16 1462.15 1559 L1465.84 1561.88 Q1461.4 1568.7 1452.52 1568.7 M1451.77 1537.04 Q1448.12 1537.04 1445.64 1539.71 Q1443.16 1542.36 1442.57 1547.16 L1460.26 1547.16 L1460.26 1546.7 Q1460 1542.1 1457.78 1539.58 Q1455.56 1537.04 1451.77 1537.04 Z" fill="#000000" fill-rule="nonzero" fill-opacity="1" /><path clip-path="url(#clip040)" d="M1487.22 1549.08 Q1487.22 1556.36 1485.29 1563.05 Q1483.4 1569.71 1479.45 1575.35 Q1475.53 1581 1471.22 1583.38 L1469.95 1579.7 Q1474.98 1575.84 1478.01 1567.75 Q1481.08 1559.62 1481.15 1549.73 L1481.15 1548.69 Q1481.15 1541.84 1479.71 1535.96 Q1478.27 1530.05 1475.7 1525.39 Q1473.15 1520.72 1469.95 1518.11 L1471.22 1514.42 Q1475.53 1516.8 1479.42 1522.38 Q1483.33 1527.97 1485.26 1534.69 Q1487.22 1541.41 1487.22 1549.08 Z" fill="#000000" fill-rule="nonzero" fill-opacity="1" /><polyline clip-path="url(#clip040)" style="stroke:#000000; stroke-linecap:round; stroke-linejoin:round; stroke-width:4; stroke-opacity:1; fill:none" points="225.362,1423.18 225.362,123.472 "/>
<polyline clip-path="url(#clip040)" style="stroke:#000000; stroke-linecap:round; stroke-linejoin:round; stroke-width:4; stroke-opacity:1; fill:none" points="225.362,1229.11 244.259,1229.11 "/>
<polyline clip-path="url(#clip040)" style="stroke:#000000; stroke-linecap:round; stroke-linejoin:round; stroke-width:4; stroke-opacity:1; fill:none" points="225.362,987.433 244.259,987.433 "/>
<polyline clip-path="url(#clip040)" style="stroke:#000000; stroke-linecap:round; stroke-linejoin:round; stroke-width:4; stroke-opacity:1; fill:none" points="225.362,745.755 244.259,745.755 "/>
<polyline clip-path="url(#clip040)" style="stroke:#000000; stroke-linecap:round; stroke-linejoin:round; stroke-width:4; stroke-opacity:1; fill:none" points="225.362,504.077 244.259,504.077 "/>
<polyline clip-path="url(#clip040)" style="stroke:#000000; stroke-linecap:round; stroke-linejoin:round; stroke-width:4; stroke-opacity:1; fill:none" points="225.362,262.399 244.259,262.399 "/>
<path clip-path="url(#clip040)" d="M163.038 1246.39 L140.394 1246.39 L140.394 1243.23 L152.357 1229.94 Q155.015 1226.93 156.012 1225.05 Q157.033 1223.15 157.033 1221.14 Q157.033 1218.43 155.395 1216.7 Q153.757 1214.96 151.028 1214.96 Q147.752 1214.96 145.924 1216.84 Q144.12 1218.69 144.12 1222.01 L139.729 1222.01 Q139.729 1217.24 142.791 1214.3 Q145.877 1211.36 151.028 1211.36 Q155.846 1211.36 158.647 1213.9 Q161.448 1216.41 161.448 1220.61 Q161.448 1225.72 154.944 1232.77 L145.687 1242.81 L163.038 1242.81 L163.038 1246.39 Z" fill="#000000" fill-rule="nonzero" fill-opacity="1" /><path clip-path="url(#clip040)" d="M189.362 1231.65 Q189.362 1239.36 186.727 1243.11 Q184.092 1246.87 178.49 1246.87 Q172.96 1246.87 170.301 1243.21 Q167.643 1239.53 167.548 1232.24 L167.548 1226.38 Q167.548 1218.76 170.183 1215.06 Q172.818 1211.36 178.443 1211.36 Q184.021 1211.36 186.656 1214.94 Q189.29 1218.5 189.362 1225.95 L189.362 1231.65 M184.97 1225.64 Q184.97 1220.07 183.404 1217.53 Q181.837 1214.96 178.443 1214.96 Q175.072 1214.96 173.53 1217.5 Q171.987 1220.04 171.939 1225.31 L171.939 1232.34 Q171.939 1237.94 173.553 1240.62 Q175.191 1243.28 178.49 1243.28 Q181.742 1243.28 183.309 1240.76 Q184.899 1238.25 184.97 1232.84 L184.97 1225.64 Z" fill="#000000" fill-rule="nonzero" fill-opacity="1" /><path clip-path="url(#clip040)" d="M158.932 993.106 L163.727 993.106 L163.727 996.69 L158.932 996.69 L158.932 1004.71 L154.517 1004.71 L154.517 996.69 L138.78 996.69 L138.78 994.102 L154.256 970.153 L158.932 970.153 L158.932 993.106 M143.764 993.106 L154.517 993.106 L154.517 976.158 L153.995 977.107 L143.764 993.106 Z" fill="#000000" fill-rule="nonzero" fill-opacity="1" /><path clip-path="url(#clip040)" d="M189.362 989.972 Q189.362 997.687 186.727 1001.44 Q184.092 1005.19 178.49 1005.19 Q172.96 1005.19 170.301 1001.53 Q167.643 997.853 167.548 990.566 L167.548 984.703 Q167.548 977.084 170.183 973.381 Q172.818 969.678 178.443 969.678 Q184.021 969.678 186.656 973.262 Q189.29 976.822 189.362 984.276 L189.362 989.972 M184.97 983.967 Q184.97 978.389 183.404 975.849 Q181.837 973.286 178.443 973.286 Q175.072 973.286 173.53 975.826 Q171.987 978.365 171.939 983.635 L171.939 990.661 Q171.939 996.262 173.553 998.945 Q175.191 1001.6 178.49 1001.6 Q181.742 1001.6 183.309 999.087 Q184.899 996.571 184.97 991.159 L184.97 983.967 Z" fill="#000000" fill-rule="nonzero" fill-opacity="1" /><path clip-path="url(#clip040)" d="M157.626 728.451 L157.626 732.178 L156.819 732.178 Q151.692 732.272 148.654 735.216 Q145.616 738.159 145.141 743.5 Q147.871 740.367 152.594 740.367 Q157.104 740.367 159.786 743.547 Q162.492 746.728 162.492 751.76 Q162.492 757.101 159.573 760.305 Q156.677 763.509 151.787 763.509 Q146.826 763.509 143.741 759.712 Q140.655 755.89 140.655 749.885 L140.655 748.199 Q140.655 738.658 144.714 733.625 Q148.796 728.57 156.843 728.451 L157.626 728.451 M151.858 744.022 Q149.603 744.022 147.705 745.375 Q145.806 746.728 145.07 748.769 L145.07 750.383 Q145.07 754.656 146.992 757.267 Q148.915 759.878 151.787 759.878 Q154.754 759.878 156.439 757.694 Q158.149 755.51 158.149 751.974 Q158.149 748.413 156.416 746.229 Q154.707 744.022 151.858 744.022 Z" fill="#000000" fill-rule="nonzero" fill-opacity="1" /><path clip-path="url(#clip040)" d="M189.362 748.294 Q189.362 756.009 186.727 759.759 Q184.092 763.509 178.49 763.509 Q172.96 763.509 170.301 759.854 Q167.643 756.175 167.548 748.888 L167.548 743.025 Q167.548 735.406 170.183 731.703 Q172.818 728 178.443 728 Q184.021 728 186.656 731.584 Q189.29 735.145 189.362 742.598 L189.362 748.294 M184.97 742.289 Q184.97 736.711 183.404 734.171 Q181.837 731.608 178.443 731.608 Q175.072 731.608 173.53 734.148 Q171.987 736.687 171.939 741.957 L171.939 748.983 Q171.939 754.585 173.553 757.267 Q175.191 759.925 178.49 759.925 Q181.742 759.925 183.309 757.409 Q184.899 754.893 184.97 749.481 L184.97 742.289 Z" fill="#000000" fill-rule="nonzero" fill-opacity="1" /><path clip-path="url(#clip040)" d="M161.353 495.817 Q161.353 498.404 159.976 500.421 Q158.623 502.439 156.297 503.578 Q159.003 504.741 160.57 506.973 Q162.16 509.204 162.16 512.028 Q162.16 516.515 159.122 519.173 Q156.107 521.832 151.17 521.832 Q146.185 521.832 143.171 519.173 Q140.18 516.491 140.18 512.028 Q140.18 509.228 141.699 506.973 Q143.242 504.718 145.948 503.555 Q143.646 502.415 142.316 500.398 Q140.987 498.38 140.987 495.817 Q140.987 491.449 143.788 488.886 Q146.589 486.322 151.17 486.322 Q155.727 486.322 158.528 488.886 Q161.353 491.449 161.353 495.817 M157.769 511.933 Q157.769 509.038 155.917 507.21 Q154.09 505.382 151.123 505.382 Q148.156 505.382 146.352 507.186 Q144.571 508.99 144.571 511.933 Q144.571 514.877 146.304 516.562 Q148.061 518.247 151.17 518.247 Q154.256 518.247 156.012 516.562 Q157.769 514.853 157.769 511.933 M151.17 489.93 Q148.583 489.93 146.969 491.544 Q145.378 493.134 145.378 495.888 Q145.378 498.522 146.945 500.16 Q148.535 501.774 151.17 501.774 Q153.805 501.774 155.371 500.16 Q156.962 498.522 156.962 495.888 Q156.962 493.253 155.324 491.592 Q153.686 489.93 151.17 489.93 Z" fill="#000000" fill-rule="nonzero" fill-opacity="1" /><path clip-path="url(#clip040)" d="M189.362 506.617 Q189.362 514.331 186.727 518.081 Q184.092 521.832 178.49 521.832 Q172.96 521.832 170.301 518.176 Q167.643 514.497 167.548 507.21 L167.548 501.347 Q167.548 493.728 170.183 490.025 Q172.818 486.322 178.443 486.322 Q184.021 486.322 186.656 489.906 Q189.29 493.467 189.362 500.92 L189.362 506.617 M184.97 500.611 Q184.97 495.033 183.404 492.493 Q181.837 489.93 178.443 489.93 Q175.072 489.93 173.53 492.47 Q171.987 495.01 171.939 500.279 L171.939 507.305 Q171.939 512.907 173.553 515.589 Q175.191 518.247 178.49 518.247 Q181.742 518.247 183.309 515.731 Q184.899 513.215 184.97 507.803 L184.97 500.611 Z" fill="#000000" fill-rule="nonzero" fill-opacity="1" /><path clip-path="url(#clip040)" d="M127.529 279.679 L123.114 279.679 L123.114 250.412 L114.26 253.664 L114.26 249.676 L126.84 244.953 L127.529 244.953 L127.529 279.679 Z" fill="#000000" fill-rule="nonzero" fill-opacity="1" /><path clip-path="url(#clip040)" d="M162.065 264.939 Q162.065 272.653 159.43 276.403 Q156.796 280.154 151.194 280.154 Q145.663 280.154 143.005 276.498 Q140.346 272.819 140.251 265.532 L140.251 259.669 Q140.251 252.05 142.886 248.347 Q145.521 244.644 151.146 244.644 Q156.724 244.644 159.359 248.228 Q161.994 251.789 162.065 259.242 L162.065 264.939 M157.674 258.933 Q157.674 253.355 156.107 250.816 Q154.541 248.252 151.146 248.252 Q147.776 248.252 146.233 250.792 Q144.69 253.332 144.643 258.601 L144.643 265.627 Q144.643 271.229 146.257 273.911 Q147.894 276.569 151.194 276.569 Q154.446 276.569 156.012 274.053 Q157.603 271.537 157.674 266.125 L157.674 258.933 Z" fill="#000000" fill-rule="nonzero" fill-opacity="1" /><path clip-path="url(#clip040)" d="M189.362 264.939 Q189.362 272.653 186.727 276.403 Q184.092 280.154 178.49 280.154 Q172.96 280.154 170.301 276.498 Q167.643 272.819 167.548 265.532 L167.548 259.669 Q167.548 252.05 170.183 248.347 Q172.818 244.644 178.443 244.644 Q184.021 244.644 186.656 248.228 Q189.29 251.789 189.362 259.242 L189.362 264.939 M184.97 258.933 Q184.97 253.355 183.404 250.816 Q181.837 248.252 178.443 248.252 Q175.072 248.252 173.53 250.792 Q171.987 253.332 171.939 258.601 L171.939 265.627 Q171.939 271.229 173.553 273.911 Q175.191 276.569 178.49 276.569 Q181.742 276.569 183.309 274.053 Q184.899 271.537 184.97 266.125 L184.97 258.933 Z" fill="#000000" fill-rule="nonzero" fill-opacity="1" /><path clip-path="url(#clip040)" d="M16.4842 1068.09 L16.4842 1061.79 L50.1333 1061.79 Q56.9545 1061.79 60.8057 1065.9 Q64.6569 1069.98 64.6569 1076.8 Q64.6569 1083.89 61.0342 1087.84 Q57.4114 1091.79 50.8839 1091.79 L50.8839 1085.52 Q54.9636 1085.52 57.2482 1083.3 Q59.5328 1081.05 59.5328 1076.8 Q59.5328 1072.92 57.085 1070.54 Q54.6372 1068.12 50.2312 1068.09 L16.4842 1068.09 Z" fill="#000000" fill-rule="nonzero" fill-opacity="1" /><path clip-path="url(#clip040)" d="M46.021 1053.66 Q40.8316 1053.66 36.6867 1051.64 Q32.5417 1049.58 30.2898 1045.96 Q28.0378 1042.31 28.0378 1037.64 Q28.0378 1030.43 33.0313 1025.99 Q38.0248 1021.52 46.3147 1021.52 L46.739 1021.52 Q51.8957 1021.52 56.008 1023.51 Q60.0877 1025.47 62.3723 1029.15 Q64.6569 1032.81 64.6569 1037.57 Q64.6569 1044.75 59.6634 1049.23 Q54.6699 1053.66 46.4453 1053.66 L46.021 1053.66 M46.739 1047.59 Q52.6137 1047.59 56.1712 1044.89 Q59.7287 1042.14 59.7287 1037.57 Q59.7287 1032.97 56.1386 1030.26 Q52.5158 1027.55 46.021 1027.55 Q40.2115 1027.55 36.6214 1030.33 Q32.9987 1033.07 32.9987 1037.64 Q32.9987 1042.11 36.5561 1044.85 Q40.1136 1047.59 46.739 1047.59 Z" fill="#000000" fill-rule="nonzero" fill-opacity="1" /><path clip-path="url(#clip040)" d="M64.0042 1007.38 L64.0042 1013.42 L28.6905 1013.42 L28.6905 1007.38 L64.0042 1007.38 M19.3236 1013.91 Q17.8549 1013.91 16.8432 1013.03 Q15.8314 1012.12 15.8314 1010.35 Q15.8314 1008.59 16.8432 1007.68 Q17.8549 1006.76 19.3236 1006.76 Q20.7923 1006.76 21.7714 1007.68 Q22.7505 1008.59 22.7505 1010.35 Q22.7505 1012.12 21.7714 1013.03 Q20.7923 1013.91 19.3236 1013.91 Z" fill="#000000" fill-rule="nonzero" fill-opacity="1" /><path clip-path="url(#clip040)" d="M28.6905 992.013 L33.1292 991.817 Q28.0378 987.77 28.0378 981.242 Q28.0378 970.048 40.6684 969.95 L64.0042 969.95 L64.0042 975.988 L40.6358 975.988 Q36.8172 976.02 34.9895 977.75 Q33.1618 979.447 33.1618 983.07 Q33.1618 986.007 34.7284 988.227 Q36.295 990.446 38.8408 991.686 L64.0042 991.686 L64.0042 997.724 L28.6905 997.724 L28.6905 992.013 Z" fill="#000000" fill-rule="nonzero" fill-opacity="1" /><path clip-path="url(#clip040)" d="M20.1395 952.652 L28.6905 952.652 L28.6905 946.059 L33.3577 946.059 L33.3577 952.652 L55.2573 952.652 Q57.3788 952.652 58.4558 951.771 Q59.5002 950.89 59.5002 948.768 Q59.5002 947.724 59.1086 945.896 L64.0042 945.896 Q64.6569 948.279 64.6569 950.531 Q64.6569 954.578 62.2091 956.634 Q59.7613 958.69 55.2573 958.69 L33.3577 958.69 L33.3577 965.119 L28.6905 965.119 L28.6905 958.69 L20.1395 958.69 L20.1395 952.652 Z" fill="#000000" fill-rule="nonzero" fill-opacity="1" /><path clip-path="url(#clip040)" d="M51.602 895.275 L51.602 915.184 L64.0042 919.656 L64.0042 926.118 L16.4842 907.971 L16.4842 902.488 L64.0042 884.309 L64.0042 890.739 L51.602 895.275 M46.4453 913.291 L46.4453 897.136 L24.2192 905.23 L46.4453 913.291 Z" fill="#000000" fill-rule="nonzero" fill-opacity="1" /><path clip-path="url(#clip040)" d="M28.6905 873.147 L33.1292 872.952 Q28.0378 868.905 28.0378 862.377 Q28.0378 851.182 40.6684 851.085 L64.0042 851.085 L64.0042 857.122 L40.6358 857.122 Q36.8172 857.155 34.9895 858.885 Q33.1618 860.582 33.1618 864.205 Q33.1618 867.142 34.7284 869.361 Q36.295 871.581 38.8408 872.821 L64.0042 872.821 L64.0042 878.859 L28.6905 878.859 L28.6905 873.147 Z" fill="#000000" fill-rule="nonzero" fill-opacity="1" /><path clip-path="url(#clip040)" d="M46.0536 843.415 Q37.7964 843.415 32.9334 839.596 Q28.0378 835.778 28.0378 829.479 Q28.0378 823.016 32.607 819.394 L28.6905 819.1 L28.6905 813.584 L63.1556 813.584 Q70.0094 813.584 73.9586 817.664 Q77.9077 821.711 77.9077 828.565 Q77.9077 832.383 76.2758 836.039 Q74.6439 839.694 71.8045 841.62 L68.1817 838.486 Q72.9794 834.603 72.9794 828.989 Q72.9794 824.583 70.499 822.135 Q68.0186 819.655 63.5146 819.655 L60.4793 819.655 Q64.6569 823.277 64.6569 829.544 Q64.6569 835.745 59.6634 839.596 Q54.6699 843.415 46.0536 843.415 M46.739 837.344 Q52.7116 837.344 56.1386 834.896 Q59.5328 832.449 59.5328 828.043 Q59.5328 822.331 54.3435 819.655 L38.2206 819.655 Q33.1618 822.429 33.1618 827.977 Q33.1618 832.383 36.5888 834.864 Q40.0157 837.344 46.739 837.344 Z" fill="#000000" fill-rule="nonzero" fill-opacity="1" /><path clip-path="url(#clip040)" d="M64.0042 797.918 L64.0042 803.956 L13.8732 803.956 L13.8732 797.918 L64.0042 797.918 Z" fill="#000000" fill-rule="nonzero" fill-opacity="1" /><path clip-path="url(#clip040)" d="M64.6569 773.603 Q64.6569 780.784 59.9571 785.288 Q55.2247 789.792 47.3265 789.792 L46.2168 789.792 Q40.9622 789.792 36.8499 787.801 Q32.7049 785.777 30.3877 782.187 Q28.0378 778.564 28.0378 774.354 Q28.0378 767.468 32.5744 763.649 Q37.111 759.83 45.564 759.83 L48.0771 759.83 L48.0771 783.754 Q53.2991 783.623 56.5302 780.718 Q59.7287 777.781 59.7287 773.277 Q59.7287 770.079 58.4232 767.859 Q57.1177 765.64 54.9636 763.975 L57.8357 760.287 Q64.6569 764.726 64.6569 773.603 M32.9987 774.354 Q32.9987 778.009 35.6749 780.49 Q38.3186 782.97 43.1162 783.558 L43.1162 765.868 L42.6593 765.868 Q38.0575 766.129 35.5444 768.349 Q32.9987 770.568 32.9987 774.354 Z" fill="#000000" fill-rule="nonzero" fill-opacity="1" /><path clip-path="url(#clip040)" d="M44.7155 736.527 Q37.3394 736.527 30.5509 734.569 Q23.7623 732.578 18.2139 728.662 Q12.6656 724.745 10.381 720.535 L14.3627 719.295 Q18.0181 724.06 25.5247 727.128 Q33.0313 730.163 42.3329 730.457 L45.1071 730.489 Q57.7051 730.489 66.9742 725.888 Q72.5225 723.113 75.6557 719.295 L79.3437 720.535 Q76.9286 724.876 71.2497 728.825 Q60.1529 736.527 44.7155 736.527 Z" fill="#000000" fill-rule="nonzero" fill-opacity="1" /><path clip-path="url(#clip040)" d="M64.0042 712.506 L16.4842 712.506 L16.4842 699.092 Q16.4842 692.891 19.2257 688.126 Q21.9672 683.361 27.026 680.783 Q32.0848 678.172 38.6449 678.139 L41.6802 678.139 Q48.4035 678.139 53.4623 680.75 Q58.5211 683.328 61.23 688.159 Q63.9389 692.956 64.0042 699.353 L64.0042 712.506 M21.6409 706.24 L58.8801 706.24 L58.8801 699.647 Q58.8801 692.402 54.3761 688.387 Q49.8722 684.34 41.5497 684.34 L38.7755 684.34 Q30.6814 684.34 26.2101 688.159 Q21.7061 691.945 21.6409 698.929 L21.6409 706.24 Z" fill="#000000" fill-rule="nonzero" fill-opacity="1" /><path clip-path="url(#clip040)" d="M64.6569 654.967 Q64.6569 662.147 59.9571 666.651 Q55.2247 671.155 47.3265 671.155 L46.2168 671.155 Q40.9622 671.155 36.8499 669.164 Q32.7049 667.14 30.3877 663.55 Q28.0378 659.927 28.0378 655.717 Q28.0378 648.831 32.5744 645.012 Q37.111 641.194 45.564 641.194 L48.0771 641.194 L48.0771 665.117 Q53.2991 664.986 56.5302 662.082 Q59.7287 659.144 59.7287 654.64 Q59.7287 651.442 58.4232 649.222 Q57.1177 647.003 54.9636 645.339 L57.8357 641.651 Q64.6569 646.089 64.6569 654.967 M32.9987 655.717 Q32.9987 659.373 35.6749 661.853 Q38.3186 664.334 43.1162 664.921 L43.1162 647.232 L42.6593 647.232 Q38.0575 647.493 35.5444 649.712 Q32.9987 651.931 32.9987 655.717 Z" fill="#000000" fill-rule="nonzero" fill-opacity="1" /><path clip-path="url(#clip040)" d="M46.0536 635.645 Q37.7964 635.645 32.9334 631.827 Q28.0378 628.008 28.0378 621.709 Q28.0378 615.247 32.607 611.624 L28.6905 611.33 L28.6905 605.815 L63.1556 605.815 Q70.0094 605.815 73.9586 609.894 Q77.9077 613.941 77.9077 620.795 Q77.9077 624.614 76.2758 628.269 Q74.6439 631.925 71.8045 633.85 L68.1817 630.717 Q72.9794 626.833 72.9794 621.22 Q72.9794 616.814 70.499 614.366 Q68.0186 611.885 63.5146 611.885 L60.4793 611.885 Q64.6569 615.508 64.6569 621.774 Q64.6569 627.975 59.6634 631.827 Q54.6699 635.645 46.0536 635.645 M46.739 629.575 Q52.7116 629.575 56.1386 627.127 Q59.5328 624.679 59.5328 620.273 Q59.5328 614.562 54.3435 611.885 L38.2206 611.885 Q33.1618 614.659 33.1618 620.208 Q33.1618 624.614 36.5888 627.094 Q40.0157 629.575 46.739 629.575 Z" fill="#000000" fill-rule="nonzero" fill-opacity="1" /><path clip-path="url(#clip040)" d="M34.1083 579.64 Q33.8799 581.01 33.8799 582.61 Q33.8799 588.55 38.9387 590.671 L64.0042 590.671 L64.0042 596.709 L28.6905 596.709 L28.6905 590.834 L32.7702 590.736 Q28.0378 587.766 28.0378 582.316 Q28.0378 580.553 28.4947 579.64 L34.1083 579.64 Z" fill="#000000" fill-rule="nonzero" fill-opacity="1" /><path clip-path="url(#clip040)" d="M64.6569 559.437 Q64.6569 566.617 59.9571 571.121 Q55.2247 575.625 47.3265 575.625 L46.2168 575.625 Q40.9622 575.625 36.8499 573.634 Q32.7049 571.611 30.3877 568.021 Q28.0378 564.398 28.0378 560.188 Q28.0378 553.301 32.5744 549.483 Q37.111 545.664 45.564 545.664 L48.0771 545.664 L48.0771 569.587 Q53.2991 569.457 56.5302 566.552 Q59.7287 563.615 59.7287 559.111 Q59.7287 555.912 58.4232 553.693 Q57.1177 551.474 54.9636 549.809 L57.8357 546.121 Q64.6569 550.56 64.6569 559.437 M32.9987 560.188 Q32.9987 563.843 35.6749 566.324 Q38.3186 568.804 43.1162 569.391 L43.1162 551.702 L42.6593 551.702 Q38.0575 551.963 35.5444 554.182 Q32.9987 556.402 32.9987 560.188 Z" fill="#000000" fill-rule="nonzero" fill-opacity="1" /><path clip-path="url(#clip040)" d="M64.6569 524.025 Q64.6569 531.206 59.9571 535.71 Q55.2247 540.214 47.3265 540.214 L46.2168 540.214 Q40.9622 540.214 36.8499 538.223 Q32.7049 536.199 30.3877 532.609 Q28.0378 528.986 28.0378 524.776 Q28.0378 517.89 32.5744 514.071 Q37.111 510.253 45.564 510.253 L48.0771 510.253 L48.0771 534.176 Q53.2991 534.045 56.5302 531.14 Q59.7287 528.203 59.7287 523.699 Q59.7287 520.501 58.4232 518.281 Q57.1177 516.062 54.9636 514.397 L57.8357 510.709 Q64.6569 515.148 64.6569 524.025 M32.9987 524.776 Q32.9987 528.432 35.6749 530.912 Q38.3186 533.392 43.1162 533.98 L43.1162 516.29 L42.6593 516.29 Q38.0575 516.552 35.5444 518.771 Q32.9987 520.99 32.9987 524.776 Z" fill="#000000" fill-rule="nonzero" fill-opacity="1" /><path clip-path="url(#clip040)" d="M54.6372 482.707 Q52.1894 482.707 50.8513 484.567 Q49.4805 486.395 48.5014 490.996 Q47.5223 495.566 46.1515 498.275 Q44.7808 500.951 42.8878 502.256 Q40.9948 503.529 38.3838 503.529 Q34.0431 503.529 31.0404 499.874 Q28.0378 496.186 28.0378 490.474 Q28.0378 484.469 31.1383 480.748 Q34.2389 476.995 39.0692 476.995 L39.0692 483.066 Q36.5888 483.066 34.7937 485.187 Q32.9987 487.276 32.9987 490.474 Q32.9987 493.771 34.4347 495.631 Q35.8708 497.491 38.188 497.491 Q40.3747 497.491 41.4844 495.762 Q42.594 494.032 43.6058 489.528 Q44.6176 484.991 46.021 482.184 Q47.4244 479.378 49.4153 478.039 Q51.3735 476.669 54.2129 476.669 Q58.9454 476.669 61.8175 480.455 Q64.6569 484.241 64.6569 490.278 Q64.6569 494.521 63.1556 497.785 Q61.6543 501.049 58.978 502.909 Q56.2691 504.737 53.1359 504.737 L53.1359 498.699 Q56.1712 498.536 57.9662 496.284 Q59.7287 493.999 59.7287 490.278 Q59.7287 486.852 58.3579 484.795 Q56.9545 482.707 54.6372 482.707 Z" fill="#000000" fill-rule="nonzero" fill-opacity="1" /><path clip-path="url(#clip040)" d="M45.0418 454.867 Q52.32 454.867 59.0106 456.793 Q65.6687 458.685 71.3149 462.635 Q76.9612 466.551 79.3437 470.859 L75.6557 472.132 Q71.8045 467.106 63.7104 464.071 Q55.5837 461.003 45.6946 460.937 L44.6502 460.937 Q37.7964 460.937 31.9216 462.374 Q26.0143 463.81 21.3471 466.388 Q16.68 468.934 14.069 472.132 L10.381 470.859 Q12.7635 466.551 18.3445 462.667 Q23.9255 458.751 30.6488 456.825 Q37.3721 454.867 45.0418 454.867 Z" fill="#000000" fill-rule="nonzero" fill-opacity="1" /><path clip-path="url(#clip040)" d="M882.688 12.096 L890.705 12.096 L890.705 54.9222 Q890.705 63.6037 885.471 68.5052 Q880.279 73.4068 871.597 73.4068 Q862.583 73.4068 857.557 68.796 Q852.531 64.1852 852.531 55.8775 L860.506 55.8775 Q860.506 61.0698 863.331 63.9775 Q866.197 66.8852 871.597 66.8852 Q876.54 66.8852 879.573 63.7698 Q882.646 60.6545 882.688 55.0468 L882.688 12.096 Z" fill="#000000" fill-rule="nonzero" fill-opacity="1" /><path clip-path="url(#clip040)" d="M901.048 49.6883 Q901.048 43.0837 903.623 37.8083 Q906.24 32.5329 910.851 29.6668 Q915.503 26.8006 921.443 26.8006 Q930.623 26.8006 936.273 33.156 Q941.963 39.5114 941.963 50.0622 L941.963 50.6022 Q941.963 57.1652 939.43 62.3991 Q936.937 67.5914 932.243 70.4991 Q927.591 73.4068 921.526 73.4068 Q912.388 73.4068 906.697 67.0514 Q901.048 60.696 901.048 50.2283 L901.048 49.6883 M908.774 50.6022 Q908.774 58.0791 912.222 62.6068 Q915.711 67.1345 921.526 67.1345 Q927.383 67.1345 930.831 62.5652 Q934.279 57.9545 934.279 49.6883 Q934.279 42.2945 930.748 37.7252 Q927.259 33.1145 921.443 33.1145 Q915.753 33.1145 912.263 37.6422 Q908.774 42.1698 908.774 50.6022 Z" fill="#000000" fill-rule="nonzero" fill-opacity="1" /><path clip-path="url(#clip040)" d="M959.95 72.576 L952.265 72.576 L952.265 27.6314 L959.95 27.6314 L959.95 72.576 M951.642 15.7098 Q951.642 13.8406 952.763 12.5529 Q953.926 11.2652 956.17 11.2652 Q958.413 11.2652 959.576 12.5529 Q960.739 13.8406 960.739 15.7098 Q960.739 17.5791 959.576 18.8252 Q958.413 20.0714 956.17 20.0714 Q953.926 20.0714 952.763 18.8252 Q951.642 17.5791 951.642 15.7098 Z" fill="#000000" fill-rule="nonzero" fill-opacity="1" /><path clip-path="url(#clip040)" d="M979.514 27.6314 L979.763 33.2806 Q984.914 26.8006 993.222 26.8006 Q1007.47 26.8006 1007.59 42.876 L1007.59 72.576 L999.91 72.576 L999.91 42.8345 Q999.868 37.9745 997.666 35.6483 Q995.506 33.3222 990.896 33.3222 Q987.157 33.3222 984.333 35.316 Q981.508 37.3098 979.93 40.5498 L979.93 72.576 L972.245 72.576 L972.245 27.6314 L979.514 27.6314 Z" fill="#000000" fill-rule="nonzero" fill-opacity="1" /><path clip-path="url(#clip040)" d="M1029.61 16.7483 L1029.61 27.6314 L1038 27.6314 L1038 33.5714 L1029.61 33.5714 L1029.61 61.4437 Q1029.61 64.1437 1030.73 65.5145 Q1031.85 66.8437 1034.55 66.8437 Q1035.88 66.8437 1038.21 66.3452 L1038.21 72.576 Q1035.18 73.4068 1032.31 73.4068 Q1027.16 73.4068 1024.54 70.2914 Q1021.92 67.176 1021.92 61.4437 L1021.92 33.5714 L1013.74 33.5714 L1013.74 27.6314 L1021.92 27.6314 L1021.92 16.7483 L1029.61 16.7483 Z" fill="#000000" fill-rule="nonzero" fill-opacity="1" /><path clip-path="url(#clip040)" d="M1102.63 56.7914 L1077.3 56.7914 L1071.6 72.576 L1063.38 72.576 L1086.48 12.096 L1093.45 12.096 L1116.59 72.576 L1108.41 72.576 L1102.63 56.7914 M1079.7 50.2283 L1100.27 50.2283 L1089.96 21.9406 L1079.7 50.2283 Z" fill="#000000" fill-rule="nonzero" fill-opacity="1" /><path clip-path="url(#clip040)" d="M1130.8 27.6314 L1131.05 33.2806 Q1136.2 26.8006 1144.5 26.8006 Q1158.75 26.8006 1158.88 42.876 L1158.88 72.576 L1151.19 72.576 L1151.19 42.8345 Q1151.15 37.9745 1148.95 35.6483 Q1146.79 33.3222 1142.18 33.3222 Q1138.44 33.3222 1135.62 35.316 Q1132.79 37.3098 1131.21 40.5498 L1131.21 72.576 L1123.53 72.576 L1123.53 27.6314 L1130.8 27.6314 Z" fill="#000000" fill-rule="nonzero" fill-opacity="1" /><path clip-path="url(#clip040)" d="M1168.64 49.7298 Q1168.64 39.2206 1173.5 33.0314 Q1178.36 26.8006 1186.38 26.8006 Q1194.6 26.8006 1199.21 32.616 L1199.58 27.6314 L1206.6 27.6314 L1206.6 71.496 Q1206.6 80.2191 1201.41 85.2452 Q1196.26 90.2714 1187.54 90.2714 Q1182.68 90.2714 1178.03 88.1945 Q1173.37 86.1175 1170.92 82.5037 L1174.91 77.8929 Q1179.85 83.9991 1187 83.9991 Q1192.61 83.9991 1195.72 80.8422 Q1198.88 77.6852 1198.88 71.9529 L1198.88 68.0898 Q1194.27 73.4068 1186.29 73.4068 Q1178.4 73.4068 1173.5 67.0514 Q1168.64 60.696 1168.64 49.7298 M1176.36 50.6022 Q1176.36 58.2037 1179.48 62.5652 Q1182.6 66.8852 1188.2 66.8852 Q1195.47 66.8852 1198.88 60.2806 L1198.88 39.7606 Q1195.35 33.3222 1188.29 33.3222 Q1182.68 33.3222 1179.52 37.6837 Q1176.36 42.0452 1176.36 50.6022 Z" fill="#000000" fill-rule="nonzero" fill-opacity="1" /><path clip-path="url(#clip040)" d="M1226.54 72.576 L1218.86 72.576 L1218.86 8.77292 L1226.54 8.77292 L1226.54 72.576 Z" fill="#000000" fill-rule="nonzero" fill-opacity="1" /><path clip-path="url(#clip040)" d="M1257.49 73.4068 Q1248.35 73.4068 1242.62 67.4252 Q1236.89 61.4022 1236.89 51.3498 L1236.89 49.9375 Q1236.89 43.2498 1239.42 38.016 Q1242 32.7406 1246.56 29.7914 Q1251.18 26.8006 1256.53 26.8006 Q1265.3 26.8006 1270.16 32.5745 Q1275.02 38.3483 1275.02 49.1068 L1275.02 52.3052 L1244.57 52.3052 Q1244.74 58.9514 1248.43 63.0637 Q1252.17 67.1345 1257.9 67.1345 Q1261.98 67.1345 1264.8 65.4729 Q1267.62 63.8114 1269.74 61.0698 L1274.44 64.7252 Q1268.79 73.4068 1257.49 73.4068 M1256.53 33.1145 Q1251.88 33.1145 1248.72 36.5206 Q1245.57 39.8852 1244.82 45.9914 L1267.33 45.9914 L1267.33 45.4098 Q1267 39.5529 1264.18 36.3545 Q1261.35 33.1145 1256.53 33.1145 Z" fill="#000000" fill-rule="nonzero" fill-opacity="1" /><path clip-path="url(#clip040)" d="M1310.08 60.6545 Q1310.08 57.5391 1307.71 55.836 Q1305.38 54.0914 1299.53 52.8452 Q1293.71 51.5991 1290.26 49.8545 Q1286.86 48.1098 1285.2 45.7006 Q1283.58 43.2914 1283.58 39.9683 Q1283.58 34.4437 1288.23 30.6222 Q1292.92 26.8006 1300.19 26.8006 Q1307.83 26.8006 1312.57 30.7468 Q1317.35 34.6929 1317.35 40.8406 L1309.62 40.8406 Q1309.62 37.6837 1306.92 35.3991 Q1304.26 33.1145 1300.19 33.1145 Q1296 33.1145 1293.63 34.9422 Q1291.26 36.7698 1291.26 39.7191 Q1291.26 42.5022 1293.46 43.9145 Q1295.66 45.3268 1301.4 46.6145 Q1307.17 47.9022 1310.74 49.6883 Q1314.31 51.4745 1316.02 54.0083 Q1317.76 56.5006 1317.76 60.1145 Q1317.76 66.1375 1312.94 69.7929 Q1308.12 73.4068 1300.44 73.4068 Q1295.04 73.4068 1290.89 71.496 Q1286.73 69.5852 1284.36 66.1791 Q1282.04 62.7314 1282.04 58.7437 L1289.72 58.7437 Q1289.93 62.6068 1292.8 64.8914 Q1295.7 67.1345 1300.44 67.1345 Q1304.8 67.1345 1307.42 65.3898 Q1310.08 63.6037 1310.08 60.6545 Z" fill="#000000" fill-rule="nonzero" fill-opacity="1" /><path clip-path="url(#clip040)" d="M1396.56 44.2883 Q1396.56 53.1775 1393.57 59.8237 Q1390.58 66.4283 1385.1 69.9175 Q1379.61 73.4068 1372.3 73.4068 Q1365.16 73.4068 1359.63 69.9175 Q1354.11 66.3868 1351.03 59.9068 Q1348 53.3852 1347.92 44.8283 L1347.92 40.4668 Q1347.92 31.7437 1350.95 25.056 Q1353.98 18.3683 1359.51 14.8375 Q1365.07 11.2652 1372.22 11.2652 Q1379.49 11.2652 1385.01 14.796 Q1390.58 18.2852 1393.57 24.9729 Q1396.56 31.6191 1396.56 40.4668 L1396.56 44.2883 M1388.63 40.3837 Q1388.63 29.6252 1384.31 23.8929 Q1379.99 18.1191 1372.22 18.1191 Q1364.66 18.1191 1360.3 23.8929 Q1355.98 29.6252 1355.85 39.8437 L1355.85 44.2883 Q1355.85 54.7145 1360.21 60.696 Q1364.62 66.636 1372.3 66.636 Q1380.03 66.636 1384.26 61.0283 Q1388.5 55.3791 1388.63 44.8698 L1388.63 40.3837 Z" fill="#000000" fill-rule="nonzero" fill-opacity="1" /><path clip-path="url(#clip040)" d="M1422.15 62.1498 L1433.28 27.6314 L1441.13 27.6314 L1425.01 72.576 L1419.16 72.576 L1402.87 27.6314 L1410.72 27.6314 L1422.15 62.1498 Z" fill="#000000" fill-rule="nonzero" fill-opacity="1" /><path clip-path="url(#clip040)" d="M1467.18 73.4068 Q1458.04 73.4068 1452.3 67.4252 Q1446.57 61.4022 1446.57 51.3498 L1446.57 49.9375 Q1446.57 43.2498 1449.11 38.016 Q1451.68 32.7406 1456.25 29.7914 Q1460.86 26.8006 1466.22 26.8006 Q1474.98 26.8006 1479.84 32.5745 Q1484.7 38.3483 1484.7 49.1068 L1484.7 52.3052 L1454.26 52.3052 Q1454.42 58.9514 1458.12 63.0637 Q1461.86 67.1345 1467.59 67.1345 Q1471.66 67.1345 1474.49 65.4729 Q1477.31 63.8114 1479.43 61.0698 L1484.12 64.7252 Q1478.47 73.4068 1467.18 73.4068 M1466.22 33.1145 Q1461.57 33.1145 1458.41 36.5206 Q1455.25 39.8852 1454.51 45.9914 L1477.02 45.9914 L1477.02 45.4098 Q1476.69 39.5529 1473.86 36.3545 Q1471.04 33.1145 1466.22 33.1145 Z" fill="#000000" fill-rule="nonzero" fill-opacity="1" /><path clip-path="url(#clip040)" d="M1515.32 34.5268 Q1513.57 34.236 1511.54 34.236 Q1503.98 34.236 1501.28 40.6745 L1501.28 72.576 L1493.59 72.576 L1493.59 27.6314 L1501.07 27.6314 L1501.2 32.8237 Q1504.98 26.8006 1511.91 26.8006 Q1514.16 26.8006 1515.32 27.3822 L1515.32 34.5268 Z" fill="#000000" fill-rule="nonzero" fill-opacity="1" /><path clip-path="url(#clip040)" d="M1586.43 18.6591 L1566.99 18.6591 L1566.99 72.576 L1559.06 72.576 L1559.06 18.6591 L1539.66 18.6591 L1539.66 12.096 L1586.43 12.096 L1586.43 18.6591 Z" fill="#000000" fill-rule="nonzero" fill-opacity="1" /><path clip-path="url(#clip040)" d="M1602.55 72.576 L1594.86 72.576 L1594.86 27.6314 L1602.55 27.6314 L1602.55 72.576 M1594.24 15.7098 Q1594.24 13.8406 1595.36 12.5529 Q1596.53 11.2652 1598.77 11.2652 Q1601.01 11.2652 1602.18 12.5529 Q1603.34 13.8406 1603.34 15.7098 Q1603.34 17.5791 1602.18 18.8252 Q1601.01 20.0714 1598.77 20.0714 Q1596.53 20.0714 1595.36 18.8252 Q1594.24 17.5791 1594.24 15.7098 Z" fill="#000000" fill-rule="nonzero" fill-opacity="1" /><path clip-path="url(#clip040)" d="M1622.07 27.6314 L1622.28 32.616 Q1627.22 26.8006 1635.61 26.8006 Q1645.04 26.8006 1648.45 34.0283 Q1650.69 30.7883 1654.26 28.7945 Q1657.88 26.8006 1662.78 26.8006 Q1677.57 26.8006 1677.82 42.4606 L1677.82 72.576 L1670.13 72.576 L1670.13 42.9175 Q1670.13 38.0991 1667.93 35.7314 Q1665.73 33.3222 1660.54 33.3222 Q1656.26 33.3222 1653.43 35.8975 Q1650.61 38.4314 1650.15 42.7514 L1650.15 72.576 L1642.43 72.576 L1642.43 43.1252 Q1642.43 33.3222 1632.83 33.3222 Q1625.27 33.3222 1622.49 39.7606 L1622.49 72.576 L1614.8 72.576 L1614.8 27.6314 L1622.07 27.6314 Z" fill="#000000" fill-rule="nonzero" fill-opacity="1" /><path clip-path="url(#clip040)" d="M1708.06 73.4068 Q1698.92 73.4068 1693.19 67.4252 Q1687.45 61.4022 1687.45 51.3498 L1687.45 49.9375 Q1687.45 43.2498 1689.99 38.016 Q1692.56 32.7406 1697.13 29.7914 Q1701.74 26.8006 1707.1 26.8006 Q1715.87 26.8006 1720.73 32.5745 Q1725.59 38.3483 1725.59 49.1068 L1725.59 52.3052 L1695.14 52.3052 Q1695.3 58.9514 1699 63.0637 Q1702.74 67.1345 1708.47 67.1345 Q1712.54 67.1345 1715.37 65.4729 Q1718.19 63.8114 1720.31 61.0698 L1725 64.7252 Q1719.36 73.4068 1708.06 73.4068 M1707.1 33.1145 Q1702.45 33.1145 1699.29 36.5206 Q1696.14 39.8852 1695.39 45.9914 L1717.9 45.9914 L1717.9 45.4098 Q1717.57 39.5529 1714.74 36.3545 Q1711.92 33.1145 1707.1 33.1145 Z" fill="#000000" fill-rule="nonzero" fill-opacity="1" /><polyline clip-path="url(#clip042)" style="stroke:#ff4747; stroke-linecap:round; stroke-linejoin:round; stroke-width:8; stroke-opacity:1; fill:none" points="285.571,1278.93 291.025,1245.22 296.478,1215.81 301.932,1203.12 307.386,1216.4 312.84,1238.3 318.293,1252.56 323.747,1263.59 329.201,1270.36 334.655,1270.63 340.108,1263.53 345.562,1256.66 351.016,1251.32 356.47,1244.63 361.923,1230.42 367.377,1203.07 372.831,1172.94 378.285,1145.58 383.738,1126.4 389.192,1122.62 394.646,1129.68 400.099,1151.2 405.553,1186.96 411.007,1215.99 416.461,1248.83 421.914,1282.27 427.368,1299.5 432.822,1308.37 438.276,1311.15 443.729,1318.83 449.183,1329.78 454.637,1331.58 460.091,1336.49 465.544,1341.41 470.998,1333.84 476.452,1325.5 481.906,1321.31 487.359,1319.17 492.813,1318.31 498.267,1320.96 503.72,1318.24 509.174,1328.83 514.628,1330.51 520.082,1318.23 525.535,1302.85 530.989,1280.99 536.443,1257.69 541.897,1224.51 547.35,1190.84 552.804,1175.26 558.258,1146.58 563.712,1110.85 569.165,1086.94 574.619,1072.31 580.073,1071.02 585.527,1074.09 590.98,1084.37 596.434,1096.61 601.888,1095.41 607.342,1082.27 612.795,1074.61 618.249,1072.12 623.703,1079.62 629.156,1093.81 634.61,1106.47 640.064,1117.61 645.518,1125.87 650.971,1132.33 656.425,1142.43 661.879,1150.5 667.333,1158.44 672.786,1162.29 678.24,1162.22 683.694,1159.82 689.148,1155.71 694.601,1153.12 700.055,1150.82 705.509,1147.96 710.963,1147.05 716.416,1143.58 721.87,1138.01 727.324,1132.71 732.778,1129.22 738.231,1130.84 743.685,1136.84 749.139,1136.46 754.592,1132.74 760.046,1123.96 765.5,1124.42 770.954,1120.42 776.407,1146.75 781.861,1190.83 787.315,1240.22 792.769,1277.73 798.222,1308.62 803.676,1324.22 809.13,1340.44 814.584,1335.14 820.037,1332.74 825.491,1327.02 830.945,1318.59 836.399,1310.43 841.852,1302.68 847.306,1298.76 852.76,1306.3 858.213,1307.21 863.667,1301.71 869.121,1299.42 874.575,1295.91 880.028,1291.03 885.482,1292.95 890.936,1284.38 896.39,1287.85 901.843,1298.21 907.297,1317.18 912.751,1331.78 918.205,1332.47 923.658,1323.42 929.112,1309.97 934.566,1275.56 940.02,1244.92 945.473,1226.04 950.927,1223.75 956.381,1224.7 961.835,1224.69 967.288,1229.79 972.742,1239.34 978.196,1249.43 983.649,1251.59 989.103,1259.15 994.557,1272.53 1000.01,1284 1005.46,1294.11 1010.92,1305.53 1016.37,1311.1 1021.83,1310.52 1027.28,1305.13 1032.73,1296.25 1038.19,1290.15 1043.64,1284.51 1049.09,1285.75 1054.55,1289.51 1060,1288.19 1065.46,1285 1070.91,1281.48 1076.36,1278.11 1081.82,1278.33 1087.27,1276.65 1092.72,1272.73 1098.18,1264.53 1103.63,1255.03 1109.09,1244.23 1114.54,1234.36 1119.99,1233.96 1125.45,1244.98 1130.9,1258.36 1136.35,1264.78 1141.81,1267.5 1147.26,1266.25 1152.72,1258.97 1158.17,1247.74 1163.62,1235.52 1169.08,1226.11 1174.53,1219.79 1179.98,1219.11 1185.44,1224.05 1190.89,1236.64 1196.35,1255.97 1201.8,1278 1207.25,1292.75 1212.71,1302.87 1218.16,1313 1223.61,1323.39 1229.07,1324.5 1234.52,1324.41 1239.98,1321.85 1245.43,1315.01 1250.88,1305 1256.34,1296.81 1261.79,1292.48 1267.24,1288.42 1272.7,1285.04 1278.15,1285.76 1283.61,1288.24 1289.06,1290.41 1294.51,1291.28 1299.97,1298.82 1305.42,1306.26 1310.87,1316.12 1316.33,1331.57 1321.78,1343.38 1327.23,1352.71 1332.69,1349.2 1338.14,1332.19 1343.6,1312.06 1349.05,1287.35 1354.5,1264.89 1359.96,1249.03 1365.41,1231.25 1370.86,1218.21 1376.32,1205.73 1381.77,1198.35 1387.23,1195.29 1392.68,1197.38 1398.13,1203.64 1403.59,1209.56 1409.04,1213.06 1414.49,1219.19 1419.95,1227.37 1425.4,1236.52 1430.86,1244.4 1436.31,1249.26 1441.76,1251.43 1447.22,1249.94 1452.67,1251.25 1458.12,1252 1463.58,1253.16 1469.03,1253.76 1474.49,1253.87 1479.94,1249.42 1485.39,1241 1490.85,1234.16 1496.3,1232.64 1501.75,1233.41 1507.21,1243.23 1512.66,1257.57 1518.12,1281.88 1523.57,1305.77 1529.02,1321.23 1534.48,1325.45 1539.93,1319.59 1545.38,1302.49 1550.84,1279.45 1556.29,1251.4 1561.75,1238.9 1567.2,1230.44 1572.65,1220.23 1578.11,1205.49 1583.56,1193.13 1589.01,1182.29 1594.47,1197.12 1599.92,1235.49 1605.38,1288.66 1610.83,1338.4 1616.28,1373.87 1621.74,1386.4 1627.19,1376.95 1632.64,1358.29 1638.1,1348.72 1643.55,1344.03 1649.01,1334.97 1654.46,1325.34 1659.91,1317.09 1665.37,1309.83 1670.82,1307.22 1676.27,1311.65 1681.73,1313.82 1687.18,1317.79 1692.64,1312.8 1698.09,1303.11 1703.54,1294.15 1709,1291.31 1714.45,1289.25 1719.9,1290.79 1725.36,1293.89 1730.81,1301.78 1736.27,1305.59 1741.72,1300.28 1747.17,1282.9 1752.63,1261.15 1758.08,1226.63 1763.53,1198.15 1768.99,1176.55 1774.44,1169.3 1779.9,1173.96 1785.35,1181.06 1790.8,1187.51 1796.26,1179.18 1801.71,1174.16 1807.16,1179.63 1812.62,1187.56 1818.07,1185.23 1823.53,1176.3 1828.98,1166.69 1834.43,1154.69 1839.89,1131.54 1845.34,1135.4 1850.79,1148.87 1856.25,1161.3 1861.7,1169.07 1867.16,1172.2 1872.61,1174.8 1878.06,1178.96 1883.52,1182.95 1888.97,1204.25 1894.42,1223.46 1899.88,1235.79 1905.33,1239.57 1910.78,1232.04 1916.24,1210.25 1921.69,1196.81 1927.15,1194.83 1932.6,1211.67 1938.05,1245.75 1943.51,1269.76 1948.96,1260.6 1954.41,1215.35 1959.87,1148.57 1965.32,1097.04 1970.78,1076.07 1976.23,1078.91 1981.68,1109.01 1987.14,1164.79 1992.59,1221.37 1998.04,1256.53 2003.5,1287.56 2008.95,1316 2014.41,1338.15 2019.86,1339.39 2025.31,1327.85 2030.77,1327.96 2036.22,1323.13 2041.67,1311.63 2047.13,1302.98 2052.58,1296.61 2058.04,1300.52 2063.49,1327.41 2068.94,1317.57 2074.4,1317.59 2079.85,1305.77 2085.3,1288.99 2090.76,1251.23 2096.21,1211.61 2101.67,1206.5 2107.12,1230.71 2112.57,1236.5 2118.03,1268.78 2123.48,1291.35 2128.93,1308.93 2134.39,1297.99 2139.84,1270.99 2145.3,1255.02 2150.75,1238.81 2156.2,1222.04 2161.66,1200.22 2167.11,1184.9 2172.56,1175.12 2178.02,1162.72 2183.47,1152.78 2188.93,1140.21 2194.38,1127.46 2199.83,1120.75 2205.29,1116.79 2210.74,1117.32 2216.19,1116.74 2221.65,1117.16 2227.1,1120.66 2232.56,1115.58 2238.01,1114.85 2243.46,1122.67 2248.92,1130.95 2254.37,1134.92 2259.82,1139.56 2265.28,1146.52 2270.73,1158.55 2276.19,1171.53 2281.64,1178.95 2287.09,1184.46 2292.55,1185.01 "/>
<polyline clip-path="url(#clip042)" style="stroke:#00bcb4; stroke-linecap:round; stroke-linejoin:round; stroke-width:8; stroke-opacity:1; fill:none" points="285.571,639.33 291.025,620.109 296.478,610.121 301.932,614.607 307.386,635.402 312.84,664.605 318.293,686.555 323.747,698.877 329.201,703.216 334.655,696.452 340.108,682.556 345.562,666.598 351.016,649.477 356.47,641.817 361.923,626.05 367.377,609.551 372.831,604.281 378.285,614.959 383.738,620.537 389.192,631.419 394.646,636.183 400.099,651.39 405.553,673.786 411.007,705.463 416.461,749.625 421.914,796.823 427.368,810.047 432.822,806.124 438.276,790.061 443.729,778.076 449.183,769.064 454.637,763.995 460.091,764.789 465.544,764.386 470.998,759.179 476.452,764.026 481.906,783.762 487.359,806.302 492.813,818.476 498.267,824.799 503.72,811.349 509.174,801.156 514.628,795.495 520.082,790.678 525.535,784.123 530.989,771.047 536.443,748.232 541.897,720.506 547.35,678.974 552.804,651.164 558.258,625.259 563.712,600.113 569.165,582.471 574.619,568.903 580.073,564.527 585.527,572.694 590.98,579.734 596.434,583.528 601.888,576.964 607.342,567.435 612.795,559.653 618.249,552.01 623.703,548.257 629.156,551.757 634.61,556.334 640.064,556.043 645.518,553.684 650.971,553.386 656.425,554.307 661.879,551.255 667.333,547.196 672.786,543.98 678.24,540.887 683.694,537.834 689.148,532.87 694.601,532.829 700.055,532.961 705.509,531.046 710.963,528.355 716.416,524.688 721.87,521.706 727.324,521.195 732.778,517.264 738.231,513.976 743.685,508.059 749.139,509.931 754.592,514.35 760.046,508.526 765.5,521.63 770.954,539.459 776.407,579.992 781.861,632.021 787.315,688.919 792.769,748.473 798.222,791.172 803.676,810.451 809.13,828.427 814.584,821.49 820.037,820.026 825.491,815.735 830.945,809.988 836.399,803.548 841.852,791.497 847.306,789.853 852.76,793.869 858.213,791.999 863.667,798.21 869.121,803.301 874.575,806.222 880.028,810.273 885.482,813.73 890.936,830.91 896.39,844.647 901.843,850.347 907.297,863.334 912.751,859.945 918.205,845.335 923.658,826.175 929.112,799.463 934.566,779.214 940.02,746.935 945.473,728.501 950.927,734.153 956.381,743.07 961.835,750.25 967.288,758.995 972.742,769.261 978.196,778.86 983.649,778.772 989.103,785.209 994.557,793.941 1000.01,796.742 1005.46,791.142 1010.92,785.347 1016.37,774.823 1021.83,757.424 1027.28,735.868 1032.73,715.067 1038.19,701.015 1043.64,692.58 1049.09,697.37 1054.55,702.513 1060,697.435 1065.46,685.847 1070.91,671.717 1076.36,659.908 1081.82,654.465 1087.27,651.184 1092.72,645.231 1098.18,631.82 1103.63,615.72 1109.09,599.717 1114.54,586.263 1119.99,587.955 1125.45,607.404 1130.9,624.23 1136.35,625.138 1141.81,620.798 1147.26,605.614 1152.72,584.22 1158.17,570.621 1163.62,574.041 1169.08,596.234 1174.53,625.353 1179.98,659.719 1185.44,696.853 1190.89,733.068 1196.35,770.95 1201.8,801.434 1207.25,816.647 1212.71,823.116 1218.16,830.42 1223.61,834.881 1229.07,832.44 1234.52,835.877 1239.98,842.694 1245.43,841.759 1250.88,839.489 1256.34,838.666 1261.79,845.587 1267.24,851.18 1272.7,849.635 1278.15,840.27 1283.61,838.013 1289.06,842.128 1294.51,851.597 1299.97,865.763 1305.42,877.573 1310.87,886.469 1316.33,893.705 1321.78,892.546 1327.23,898.196 1332.69,898.748 1338.14,892.141 1343.6,878.97 1349.05,857.848 1354.5,833.381 1359.96,805.644 1365.41,772.501 1370.86,747.181 1376.32,726.497 1381.77,711.385 1387.23,706.158 1392.68,709.302 1398.13,715.431 1403.59,717.449 1409.04,715.303 1414.49,716.193 1419.95,717.491 1425.4,714.647 1430.86,712.934 1436.31,708.962 1441.76,702.431 1447.22,706.094 1452.67,711.415 1458.12,714.221 1463.58,716.044 1469.03,707.866 1474.49,692.617 1479.94,667.594 1485.39,644.625 1490.85,640.475 1496.3,637.962 1501.75,639.504 1507.21,658.827 1512.66,680.85 1518.12,701.539 1523.57,714.263 1529.02,723.827 1534.48,725.219 1539.93,710.249 1545.38,688.306 1550.84,673.694 1556.29,655.074 1561.75,650.992 1567.2,645.339 1572.65,635.072 1578.11,624.318 1583.56,615.435 1589.01,613.47 1594.47,643.752 1599.92,691.927 1605.38,761.019 1610.83,817.259 1616.28,846.013 1621.74,847.062 1627.19,824.068 1632.64,798.229 1638.1,794.395 1643.55,789.615 1649.01,779.402 1654.46,762.108 1659.91,745.473 1665.37,740.642 1670.82,752.418 1676.27,781.525 1681.73,815.541 1687.18,837.012 1692.64,842.147 1698.09,836.258 1703.54,835.4 1709,842.582 1714.45,848.553 1719.9,850.799 1725.36,848.117 1730.81,835.086 1736.27,814.263 1741.72,788.425 1747.17,760.691 1752.63,733.307 1758.08,702.574 1763.53,680.64 1768.99,669.293 1774.44,662.447 1779.9,660.317 1785.35,663.789 1790.8,664.788 1796.26,649.402 1801.71,650.005 1807.16,658.94 1812.62,669.318 1818.07,667.169 1823.53,655.109 1828.98,643.565 1834.43,626.557 1839.89,603.136 1845.34,617.529 1850.79,635.014 1856.25,647.537 1861.7,641.122 1867.16,624.749 1872.61,607.393 1878.06,591.069 1883.52,578.523 1888.97,603.319 1894.42,628.765 1899.88,653.218 1905.33,661.09 1910.78,653.139 1916.24,623.397 1921.69,605.778 1927.15,609.973 1932.6,648.041 1938.05,705.394 1943.51,762.672 1948.96,780.879 1954.41,757.705 1959.87,697.06 1965.32,636.529 1970.78,608.241 1976.23,595.473 1981.68,627.831 1987.14,678.7 1992.59,733.687 1998.04,782.589 2003.5,817.198 2008.95,837.502 2014.41,860.176 2019.86,860.735 2025.31,859.609 2030.77,856.973 2036.22,862.249 2041.67,860.265 2047.13,858.536 2052.58,862.52 2058.04,869.456 2063.49,890.335 2068.94,904.597 2074.4,914.893 2079.85,920.999 2085.3,911.108 2090.76,893.78 2096.21,872.966 2101.67,852.625 2107.12,850.743 2112.57,847.812 2118.03,849.342 2123.48,855.939 2128.93,864.955 2134.39,864.206 2139.84,846.008 2145.3,826.224 2150.75,804.799 2156.2,774.129 2161.66,747.355 2167.11,726.388 2172.56,712.754 2178.02,699.476 2183.47,687.164 2188.93,677.258 2194.38,663.092 2199.83,645.139 2205.29,635.663 2210.74,624.359 2216.19,616.802 2221.65,618.831 2227.1,625.785 2232.56,630.432 2238.01,638.293 2243.46,646.784 2248.92,653.95 2254.37,655.946 2259.82,659.546 2265.28,665.003 2270.73,669.157 2276.19,672.938 2281.64,670.893 2287.09,663.852 2292.55,651.028 "/>
<polyline clip-path="url(#clip042)" style="stroke:#ffb547; stroke-linecap:round; stroke-linejoin:round; stroke-width:8; stroke-opacity:1; fill:none" points="285.571,962.83 291.025,928.094 296.478,898.283 301.932,878.567 307.386,878.352 312.84,885.371 318.293,886.957 323.747,892.308 329.201,898.098 334.655,902.539 340.108,905.438 345.562,906.646 351.016,907.036 356.47,909.013 361.923,912.062 367.377,908.847 372.831,899.198 378.285,870.206 383.738,854.393 389.192,833.698 394.646,802.114 400.099,783.819 405.553,769.166 411.007,692.927 416.461,657.029 421.914,627.252 427.368,646.093 432.822,652.023 438.276,635.094 443.729,612.511 449.183,571.276 454.637,489.095 460.091,461.041 465.544,446.796 470.998,470.517 476.452,495.911 481.906,543.981 487.359,603.145 492.813,685.209 498.267,748.195 503.72,738.367 509.174,716.022 514.628,668.714 520.082,623.944 525.535,614.479 530.989,615.302 536.443,641.143 541.897,660.464 547.35,660.705 552.804,691.491 558.258,717.065 563.712,756.043 569.165,799.233 574.619,823.486 580.073,840.476 585.527,858.79 590.98,876.804 596.434,895.396 601.888,909.601 607.342,920.562 612.795,932.614 618.249,936.515 623.703,946.638 629.156,945.789 634.61,936.304 640.064,928.305 645.518,920.128 650.971,912.78 656.425,910.353 661.879,914.985 667.333,930.949 672.786,935.765 678.24,939.065 683.694,943.894 689.148,947.404 694.601,948.231 700.055,944.397 705.509,944.916 710.963,947.99 716.416,951.141 721.87,952.747 727.324,954.334 732.778,957.092 738.231,958.845 743.685,961.639 749.139,961.995 754.592,960.332 760.046,955.5 765.5,937.15 770.954,904.365 776.407,871.381 781.861,836.514 787.315,771.122 792.769,695.238 798.222,656.072 803.676,663.164 809.13,681.292 814.584,693.54 820.037,693.987 825.491,667.78 830.945,588.551 836.399,506.628 841.852,452.152 847.306,439.811 852.76,443.315 858.213,461.075 863.667,486.105 869.121,547.794 874.575,583.778 880.028,604.962 885.482,577.118 890.936,574.944 896.39,586.6 901.843,609.275 907.297,653.916 912.751,724.915 918.205,755.26 923.658,758.551 929.112,731.218 934.566,742.689 940.02,769.234 945.473,796.617 950.927,831.939 956.381,856.914 961.835,872.442 967.288,876.785 972.742,883.097 978.196,898.433 983.649,917.148 989.103,933.289 994.557,943.058 1000.01,943.344 1005.46,940.352 1010.92,931.954 1016.37,925.068 1021.83,919.942 1027.28,916.075 1032.73,915.936 1038.19,916.256 1043.64,918.242 1049.09,922.467 1054.55,924.909 1060,928.841 1065.46,933.139 1070.91,936.62 1076.36,939.631 1081.82,942.803 1087.27,946.057 1092.72,948.16 1098.18,949.117 1103.63,949.78 1109.09,952.33 1114.54,953.628 1119.99,955.523 1125.45,956.522 1130.9,957.886 1136.35,958.764 1141.81,961.893 1147.26,966.64 1152.72,972.808 1158.17,965.663 1163.62,949.244 1169.08,910.254 1174.53,861.435 1179.98,812.227 1185.44,759.238 1190.89,715.485 1196.35,656.287 1201.8,612.339 1207.25,605.216 1212.71,624.257 1218.16,650.775 1223.61,660.615 1229.07,648.676 1234.52,625.162 1239.98,572.058 1245.43,538.705 1250.88,528.557 1256.34,544.593 1261.79,554.783 1267.24,547.344 1272.7,556.685 1278.15,592.293 1283.61,630.166 1289.06,674.302 1294.51,726.065 1299.97,745.011 1305.42,738.522 1310.87,691.927 1316.33,683.506 1321.78,690.459 1327.23,694.096 1332.69,705.419 1338.14,734.727 1343.6,742.321 1349.05,755.857 1354.5,762.956 1359.96,815.926 1365.41,867.873 1370.86,905.295 1376.32,924.652 1381.77,934.346 1387.23,930.274 1392.68,926.08 1398.13,929.601 1403.59,928.627 1409.04,924.841 1414.49,918.583 1419.95,914.268 1425.4,910.66 1430.86,907.275 1436.31,908.13 1441.76,915.683 1447.22,907.328 1452.67,900.518 1458.12,895.931 1463.58,894.145 1469.03,898.03 1474.49,904.662 1479.94,913.637 1485.39,927.001 1490.85,936.93 1496.3,945.896 1501.75,950.726 1507.21,956.792 1512.66,961.141 1518.12,961.134 1523.57,961.101 1529.02,960.994 1534.48,960.578 1539.93,957.86 1545.38,954.921 1550.84,950.507 1556.29,945.498 1561.75,931.854 1567.2,917.801 1572.65,902.646 1578.11,881.928 1583.56,854.376 1589.01,822.573 1594.47,779.432 1599.92,731.537 1605.38,671.324 1610.83,590.573 1616.28,540.317 1621.74,523.511 1627.19,500.248 1632.64,493.966 1638.1,508.412 1643.55,508.077 1649.01,496.333 1654.46,447.683 1659.91,425.907 1665.37,421.318 1670.82,391.88 1676.27,390.295 1681.73,414.246 1687.18,435.069 1692.64,473.476 1698.09,507.03 1703.54,582.904 1709,611.762 1714.45,632.606 1719.9,642.193 1725.36,644.491 1730.81,608.091 1736.27,573.637 1741.72,565.152 1747.17,608.02 1752.63,628.467 1758.08,690.422 1763.53,757.627 1768.99,826.185 1774.44,857.793 1779.9,883.04 1785.35,906.022 1790.8,918.89 1796.26,922.78 1801.71,921.661 1807.16,922.375 1812.62,921.478 1818.07,920.229 1823.53,922.641 1828.98,916.732 1834.43,899.943 1839.89,877.247 1845.34,857.382 1850.79,850.861 1856.25,850.797 1861.7,861.419 1867.16,878.763 1872.61,887.36 1878.06,890.368 1883.52,890.202 1888.97,897.107 1894.42,911.313 1899.88,918.628 1905.33,934.19 1910.78,944.947 1916.24,951.081 1921.69,942.117 1927.15,927.95 1932.6,912.623 1938.05,889.426 1943.51,865.602 1948.96,868.223 1954.41,884.17 1959.87,894.913 1965.32,892.585 1970.78,862.396 1976.23,807.518 1981.68,717.49 1987.14,632.744 1992.59,602.574 1998.04,586.467 2003.5,604.305 2008.95,590.036 2014.41,573.819 2019.86,550.566 2025.31,454.448 2030.77,374.119 2036.22,339.554 2041.67,332.544 2047.13,378.724 2052.58,446.285 2058.04,462.259 2063.49,377.426 2068.94,248.222 2074.4,179.127 2079.85,160.256 2085.3,211.927 2090.76,325.637 2096.21,517.508 2101.67,631.497 2107.12,663.606 2112.57,691.063 2118.03,710.562 2123.48,687.328 2128.93,638.198 2134.39,604.93 2139.84,624.573 2145.3,675.319 2150.75,734.336 2156.2,804.139 2161.66,869.978 2167.11,902.464 2172.56,908.359 2178.02,923.548 2183.47,934.534 2188.93,936.94 2194.38,938.964 2199.83,943.778 2205.29,951.182 2210.74,956.159 2216.19,956.374 2221.65,960.269 2227.1,960.355 2232.56,955.725 2238.01,952.738 2243.46,953.78 2248.92,957.74 2254.37,958.106 2259.82,954.525 2265.28,949.44 2270.73,945.957 2276.19,942.793 2281.64,943.91 2287.09,949.909 2292.55,959.71 "/>
<path clip-path="url(#clip040)" d="M296.275 374.156 L769.591 374.156 L769.591 166.796 L296.275 166.796  Z" fill="#ffffff" fill-rule="evenodd" fill-opacity="1"/>
<polyline clip-path="url(#clip040)" style="stroke:#000000; stroke-linecap:round; stroke-linejoin:round; stroke-width:4; stroke-opacity:1; fill:none" points="296.275,374.156 769.591,374.156 769.591,166.796 296.275,166.796 296.275,374.156 "/>
<polyline clip-path="url(#clip040)" style="stroke:#ff4747; stroke-linecap:round; stroke-linejoin:round; stroke-width:8; stroke-opacity:1; fill:none" points="319.913,218.636 461.739,218.636 "/>
<path clip-path="url(#clip040)" d="M494.159 219.846 L489.934 224.237 L489.934 235.916 L485.377 235.916 L485.377 201.356 L489.934 201.356 L489.934 218.446 L505.291 201.356 L510.798 201.356 L497.197 216.618 L511.866 235.916 L506.407 235.916 L494.159 219.846 Z" fill="#000000" fill-rule="nonzero" fill-opacity="1" /><path clip-path="url(#clip040)" d="M519.319 210.233 L519.462 213.461 Q522.405 209.758 527.152 209.758 Q535.294 209.758 535.365 218.944 L535.365 235.916 L530.974 235.916 L530.974 218.921 Q530.95 216.143 529.692 214.814 Q528.458 213.485 525.823 213.485 Q523.687 213.485 522.073 214.624 Q520.459 215.764 519.557 217.615 L519.557 235.916 L515.166 235.916 L515.166 210.233 L519.319 210.233 Z" fill="#000000" fill-rule="nonzero" fill-opacity="1" /><path clip-path="url(#clip040)" d="M552.645 236.39 Q547.423 236.39 544.148 232.972 Q540.872 229.531 540.872 223.786 L540.872 222.979 Q540.872 219.158 542.32 216.167 Q543.791 213.153 546.402 211.467 Q549.037 209.758 552.099 209.758 Q557.108 209.758 559.885 213.058 Q562.662 216.357 562.662 222.505 L562.662 224.332 L545.263 224.332 Q545.358 228.13 547.471 230.48 Q549.607 232.806 552.882 232.806 Q555.209 232.806 556.823 231.857 Q558.437 230.907 559.647 229.341 L562.33 231.43 Q559.101 236.39 552.645 236.39 M552.099 213.366 Q549.441 213.366 547.637 215.313 Q545.833 217.235 545.406 220.725 L558.271 220.725 L558.271 220.392 Q558.081 217.045 556.467 215.218 Q554.853 213.366 552.099 213.366 Z" fill="#000000" fill-rule="nonzero" fill-opacity="1" /><path clip-path="url(#clip040)" d="M578.399 236.39 Q573.177 236.39 569.901 232.972 Q566.626 229.531 566.626 223.786 L566.626 222.979 Q566.626 219.158 568.074 216.167 Q569.545 213.153 572.156 211.467 Q574.791 209.758 577.853 209.758 Q582.861 209.758 585.639 213.058 Q588.416 216.357 588.416 222.505 L588.416 224.332 L571.017 224.332 Q571.112 228.13 573.224 230.48 Q575.361 232.806 578.636 232.806 Q580.962 232.806 582.577 231.857 Q584.191 230.907 585.401 229.341 L588.083 231.43 Q584.855 236.39 578.399 236.39 M577.853 213.366 Q575.195 213.366 573.391 215.313 Q571.587 217.235 571.159 220.725 L584.024 220.725 L584.024 220.392 Q583.835 217.045 582.22 215.218 Q580.606 213.366 577.853 213.366 Z" fill="#000000" fill-rule="nonzero" fill-opacity="1" /><path clip-path="url(#clip040)" d="M625.302 226.896 L610.823 226.896 L607.571 235.916 L602.871 235.916 L616.068 201.356 L620.056 201.356 L633.277 235.916 L628.601 235.916 L625.302 226.896 M612.199 223.146 L623.949 223.146 L618.062 206.981 L612.199 223.146 Z" fill="#000000" fill-rule="nonzero" fill-opacity="1" /><path clip-path="url(#clip040)" d="M641.395 210.233 L641.537 213.461 Q644.481 209.758 649.228 209.758 Q657.37 209.758 657.441 218.944 L657.441 235.916 L653.05 235.916 L653.05 218.921 Q653.026 216.143 651.768 214.814 Q650.533 213.485 647.899 213.485 Q645.762 213.485 644.148 214.624 Q642.534 215.764 641.632 217.615 L641.632 235.916 L637.241 235.916 L637.241 210.233 L641.395 210.233 Z" fill="#000000" fill-rule="nonzero" fill-opacity="1" /><path clip-path="url(#clip040)" d="M663.019 222.861 Q663.019 216.855 665.796 213.319 Q668.573 209.758 673.154 209.758 Q677.854 209.758 680.489 213.081 L680.702 210.233 L684.714 210.233 L684.714 235.299 Q684.714 240.283 681.747 243.155 Q678.803 246.027 673.819 246.027 Q671.042 246.027 668.383 244.841 Q665.725 243.654 664.324 241.589 L666.603 238.954 Q669.428 242.443 673.51 242.443 Q676.715 242.443 678.495 240.639 Q680.299 238.835 680.299 235.56 L680.299 233.352 Q677.664 236.39 673.107 236.39 Q668.597 236.39 665.796 232.759 Q663.019 229.127 663.019 222.861 M667.434 223.359 Q667.434 227.703 669.214 230.195 Q670.994 232.664 674.199 232.664 Q678.352 232.664 680.299 228.89 L680.299 217.164 Q678.281 213.485 674.246 213.485 Q671.042 213.485 669.238 215.977 Q667.434 218.47 667.434 223.359 Z" fill="#000000" fill-rule="nonzero" fill-opacity="1" /><path clip-path="url(#clip040)" d="M696.107 235.916 L691.716 235.916 L691.716 199.457 L696.107 199.457 L696.107 235.916 Z" fill="#000000" fill-rule="nonzero" fill-opacity="1" /><path clip-path="url(#clip040)" d="M713.791 236.39 Q708.569 236.39 705.293 232.972 Q702.017 229.531 702.017 223.786 L702.017 222.979 Q702.017 219.158 703.465 216.167 Q704.937 213.153 707.548 211.467 Q710.183 209.758 713.245 209.758 Q718.253 209.758 721.03 213.058 Q723.807 216.357 723.807 222.505 L723.807 224.332 L706.409 224.332 Q706.504 228.13 708.616 230.48 Q710.752 232.806 714.028 232.806 Q716.354 232.806 717.968 231.857 Q719.582 230.907 720.793 229.341 L723.475 231.43 Q720.247 236.39 713.791 236.39 M713.245 213.366 Q710.586 213.366 708.782 215.313 Q706.978 217.235 706.551 220.725 L719.416 220.725 L719.416 220.392 Q719.226 217.045 717.612 215.218 Q715.998 213.366 713.245 213.366 Z" fill="#000000" fill-rule="nonzero" fill-opacity="1" /><polyline clip-path="url(#clip040)" style="stroke:#00bcb4; stroke-linecap:round; stroke-linejoin:round; stroke-width:8; stroke-opacity:1; fill:none" points="319.913,270.476 461.739,270.476 "/>
<path clip-path="url(#clip040)" d="M511.937 287.756 L507.356 287.756 L507.356 271.781 L489.934 271.781 L489.934 287.756 L485.377 287.756 L485.377 253.196 L489.934 253.196 L489.934 268.055 L507.356 268.055 L507.356 253.196 L511.937 253.196 L511.937 287.756 Z" fill="#000000" fill-rule="nonzero" fill-opacity="1" /><path clip-path="url(#clip040)" d="M524.114 287.756 L519.723 287.756 L519.723 262.073 L524.114 262.073 L524.114 287.756 M519.367 255.261 Q519.367 254.193 520.008 253.457 Q520.672 252.721 521.954 252.721 Q523.236 252.721 523.9 253.457 Q524.565 254.193 524.565 255.261 Q524.565 256.329 523.9 257.041 Q523.236 257.753 521.954 257.753 Q520.672 257.753 520.008 257.041 Q519.367 256.329 519.367 255.261 Z" fill="#000000" fill-rule="nonzero" fill-opacity="1" /><path clip-path="url(#clip040)" d="M552.835 275.199 Q552.835 281.062 550.153 284.646 Q547.471 288.23 542.89 288.23 Q538.213 288.23 535.531 285.263 L535.531 297.63 L531.14 297.63 L531.14 262.073 L535.151 262.073 L535.365 264.921 Q538.047 261.598 542.818 261.598 Q547.447 261.598 550.129 265.088 Q552.835 268.577 552.835 274.796 L552.835 275.199 M548.444 274.701 Q548.444 270.357 546.592 267.841 Q544.741 265.325 541.513 265.325 Q537.525 265.325 535.531 268.862 L535.531 281.133 Q537.501 284.646 541.56 284.646 Q544.717 284.646 546.569 282.154 Q548.444 279.638 548.444 274.701 Z" fill="#000000" fill-rule="nonzero" fill-opacity="1" /><path clip-path="url(#clip040)" d="M590.22 278.736 L575.74 278.736 L572.489 287.756 L567.789 287.756 L580.986 253.196 L584.974 253.196 L598.195 287.756 L593.519 287.756 L590.22 278.736 M577.117 274.986 L588.867 274.986 L582.98 258.821 L577.117 274.986 Z" fill="#000000" fill-rule="nonzero" fill-opacity="1" /><path clip-path="url(#clip040)" d="M606.313 262.073 L606.455 265.301 Q609.399 261.598 614.146 261.598 Q622.287 261.598 622.359 270.784 L622.359 287.756 L617.967 287.756 L617.967 270.761 Q617.944 267.983 616.686 266.654 Q615.451 265.325 612.817 265.325 Q610.68 265.325 609.066 266.464 Q607.452 267.604 606.55 269.455 L606.55 287.756 L602.159 287.756 L602.159 262.073 L606.313 262.073 Z" fill="#000000" fill-rule="nonzero" fill-opacity="1" /><path clip-path="url(#clip040)" d="M627.937 274.701 Q627.937 268.695 630.714 265.159 Q633.491 261.598 638.072 261.598 Q642.772 261.598 645.406 264.921 L645.62 262.073 L649.631 262.073 L649.631 287.139 Q649.631 292.123 646.664 294.995 Q643.721 297.867 638.737 297.867 Q635.959 297.867 633.301 296.681 Q630.642 295.494 629.242 293.429 L631.521 290.794 Q634.345 294.283 638.428 294.283 Q641.632 294.283 643.413 292.479 Q645.217 290.675 645.217 287.4 L645.217 285.192 Q642.582 288.23 638.024 288.23 Q633.515 288.23 630.714 284.599 Q627.937 280.967 627.937 274.701 M632.351 275.199 Q632.351 279.543 634.132 282.035 Q635.912 284.504 639.116 284.504 Q643.27 284.504 645.217 280.73 L645.217 269.004 Q643.199 265.325 639.164 265.325 Q635.959 265.325 634.155 267.817 Q632.351 270.31 632.351 275.199 Z" fill="#000000" fill-rule="nonzero" fill-opacity="1" /><path clip-path="url(#clip040)" d="M661.025 287.756 L656.634 287.756 L656.634 251.297 L661.025 251.297 L661.025 287.756 Z" fill="#000000" fill-rule="nonzero" fill-opacity="1" /><path clip-path="url(#clip040)" d="M678.708 288.23 Q673.486 288.23 670.211 284.812 Q666.935 281.371 666.935 275.626 L666.935 274.819 Q666.935 270.998 668.383 268.007 Q669.855 264.993 672.466 263.307 Q675.1 261.598 678.162 261.598 Q683.171 261.598 685.948 264.898 Q688.725 268.197 688.725 274.345 L688.725 276.172 L671.326 276.172 Q671.421 279.97 673.534 282.32 Q675.67 284.646 678.946 284.646 Q681.272 284.646 682.886 283.697 Q684.5 282.747 685.711 281.181 L688.393 283.27 Q685.165 288.23 678.708 288.23 M678.162 265.206 Q675.504 265.206 673.7 267.153 Q671.896 269.075 671.469 272.565 L684.334 272.565 L684.334 272.232 Q684.144 268.885 682.53 267.058 Q680.916 265.206 678.162 265.206 Z" fill="#000000" fill-rule="nonzero" fill-opacity="1" /><polyline clip-path="url(#clip040)" style="stroke:#ffb547; stroke-linecap:round; stroke-linejoin:round; stroke-width:8; stroke-opacity:1; fill:none" points="319.913,322.316 461.739,322.316 "/>
<path clip-path="url(#clip040)" d="M504.911 323.621 L489.934 323.621 L489.934 335.869 L507.333 335.869 L507.333 339.596 L485.377 339.596 L485.377 305.036 L507.095 305.036 L507.095 308.786 L489.934 308.786 L489.934 319.895 L504.911 319.895 L504.911 323.621 Z" fill="#000000" fill-rule="nonzero" fill-opacity="1" /><path clip-path="url(#clip040)" d="M517.088 339.596 L512.697 339.596 L512.697 303.137 L517.088 303.137 L517.088 339.596 Z" fill="#000000" fill-rule="nonzero" fill-opacity="1" /><path clip-path="url(#clip040)" d="M545.857 327.039 Q545.857 332.926 543.151 336.51 Q540.445 340.07 535.887 340.07 Q531.021 340.07 528.363 336.629 L528.149 339.596 L524.114 339.596 L524.114 303.137 L528.505 303.137 L528.505 316.738 Q531.164 313.438 535.84 313.438 Q540.516 313.438 543.174 316.975 Q545.857 320.512 545.857 326.659 L545.857 327.039 M541.465 326.541 Q541.465 322.055 539.733 319.61 Q538 317.165 534.748 317.165 Q530.404 317.165 528.505 321.2 L528.505 332.309 Q530.523 336.344 534.795 336.344 Q537.952 336.344 539.709 333.899 Q541.465 331.454 541.465 326.541 Z" fill="#000000" fill-rule="nonzero" fill-opacity="1" /><path clip-path="url(#clip040)" d="M550.224 326.517 Q550.224 322.743 551.696 319.728 Q553.191 316.714 555.826 315.076 Q558.484 313.438 561.879 313.438 Q567.124 313.438 570.352 317.07 Q573.604 320.702 573.604 326.731 L573.604 327.039 Q573.604 330.79 572.156 333.78 Q570.732 336.747 568.05 338.409 Q565.391 340.07 561.926 340.07 Q556.704 340.07 553.452 336.439 Q550.224 332.807 550.224 326.826 L550.224 326.517 M554.639 327.039 Q554.639 331.312 556.609 333.899 Q558.603 336.486 561.926 336.486 Q565.273 336.486 567.243 333.875 Q569.213 331.241 569.213 326.517 Q569.213 322.292 567.195 319.681 Q565.202 317.046 561.879 317.046 Q558.627 317.046 556.633 319.634 Q554.639 322.221 554.639 327.039 Z" fill="#000000" fill-rule="nonzero" fill-opacity="1" /><path clip-path="url(#clip040)" d="M601.85 333.543 L606.788 313.913 L611.179 313.913 L603.702 339.596 L600.141 339.596 L593.899 320.132 L587.822 339.596 L584.262 339.596 L576.809 313.913 L581.176 313.913 L586.232 333.139 L592.213 313.913 L595.75 313.913 L601.85 333.543 Z" fill="#000000" fill-rule="nonzero" fill-opacity="1" /><path clip-path="url(#clip040)" d="M647.448 330.576 L632.969 330.576 L629.717 339.596 L625.017 339.596 L638.214 305.036 L642.202 305.036 L655.423 339.596 L650.747 339.596 L647.448 330.576 M634.345 326.826 L646.095 326.826 L640.208 310.661 L634.345 326.826 Z" fill="#000000" fill-rule="nonzero" fill-opacity="1" /><path clip-path="url(#clip040)" d="M663.541 313.913 L663.683 317.141 Q666.627 313.438 671.374 313.438 Q679.515 313.438 679.587 322.624 L679.587 339.596 L675.195 339.596 L675.195 322.601 Q675.172 319.823 673.914 318.494 Q672.679 317.165 670.045 317.165 Q667.908 317.165 666.294 318.304 Q664.68 319.444 663.778 321.295 L663.778 339.596 L659.387 339.596 L659.387 313.913 L663.541 313.913 Z" fill="#000000" fill-rule="nonzero" fill-opacity="1" /><path clip-path="url(#clip040)" d="M685.165 326.541 Q685.165 320.535 687.942 316.999 Q690.719 313.438 695.3 313.438 Q700 313.438 702.635 316.761 L702.848 313.913 L706.86 313.913 L706.86 338.979 Q706.86 343.963 703.893 346.835 Q700.949 349.707 695.965 349.707 Q693.188 349.707 690.529 348.521 Q687.871 347.334 686.47 345.269 L688.749 342.634 Q691.573 346.123 695.656 346.123 Q698.86 346.123 700.641 344.319 Q702.445 342.515 702.445 339.24 L702.445 337.032 Q699.81 340.07 695.253 340.07 Q690.743 340.07 687.942 336.439 Q685.165 332.807 685.165 326.541 M689.58 327.039 Q689.58 331.383 691.36 333.875 Q693.14 336.344 696.344 336.344 Q700.498 336.344 702.445 332.57 L702.445 320.844 Q700.427 317.165 696.392 317.165 Q693.188 317.165 691.384 319.657 Q689.58 322.15 689.58 327.039 Z" fill="#000000" fill-rule="nonzero" fill-opacity="1" /><path clip-path="url(#clip040)" d="M718.253 339.596 L713.862 339.596 L713.862 303.137 L718.253 303.137 L718.253 339.596 Z" fill="#000000" fill-rule="nonzero" fill-opacity="1" /><path clip-path="url(#clip040)" d="M735.937 340.07 Q730.715 340.07 727.439 336.652 Q724.163 333.211 724.163 327.466 L724.163 326.659 Q724.163 322.838 725.611 319.847 Q727.083 316.833 729.694 315.147 Q732.329 313.438 735.391 313.438 Q740.399 313.438 743.176 316.738 Q745.953 320.037 745.953 326.185 L745.953 328.012 L728.555 328.012 Q728.65 331.81 730.762 334.16 Q732.898 336.486 736.174 336.486 Q738.5 336.486 740.114 335.537 Q741.728 334.587 742.939 333.021 L745.621 335.11 Q742.393 340.07 735.937 340.07 M735.391 317.046 Q732.732 317.046 730.928 318.993 Q729.124 320.915 728.697 324.405 L741.562 324.405 L741.562 324.072 Q741.372 320.725 739.758 318.898 Q738.144 317.046 735.391 317.046 Z" fill="#000000" fill-rule="nonzero" fill-opacity="1" /></svg>
