<?xml version="1.0" encoding="utf-8"?>
<svg xmlns="http://www.w3.org/2000/svg" xmlns:xlink="http://www.w3.org/1999/xlink" width="600" height="400" viewBox="0 0 2400 1600">
<defs>
  <clipPath id="clip070">
    <rect x="0" y="0" width="2400" height="1600"/>
  </clipPath>
</defs>
<path clip-path="url(#clip070)" d="M0 1600 L2400 1600 L2400 0 L0 0  Z" fill="#ffffff" fill-rule="evenodd" fill-opacity="1"/>
<defs>
  <clipPath id="clip071">
    <rect x="480" y="0" width="1681" height="1600"/>
  </clipPath>
</defs>
<path clip-path="url(#clip070)" d="M225.362 1423.18 L2352.76 1423.18 L2352.76 123.472 L225.362 123.472  Z" fill="#ffffff" fill-rule="evenodd" fill-opacity="1"/>
<defs>
  <clipPath id="clip072">
    <rect x="225" y="123" width="2128" height="1301"/>
  </clipPath>
</defs>
<polyline clip-path="url(#clip072)" style="stroke:#000000; stroke-linecap:round; stroke-linejoin:round; stroke-width:2; stroke-opacity:0.1; fill:none" points="277.379,1423.18 277.379,123.472 "/>
<polyline clip-path="url(#clip072)" style="stroke:#000000; stroke-linecap:round; stroke-linejoin:round; stroke-width:2; stroke-opacity:0.1; fill:none" points="768.883,1423.18 768.883,123.472 "/>
<polyline clip-path="url(#clip072)" style="stroke:#000000; stroke-linecap:round; stroke-linejoin:round; stroke-width:2; stroke-opacity:0.1; fill:none" points="1260.39,1423.18 1260.39,123.472 "/>
<polyline clip-path="url(#clip072)" style="stroke:#000000; stroke-linecap:round; stroke-linejoin:round; stroke-width:2; stroke-opacity:0.1; fill:none" points="1751.89,1423.18 1751.89,123.472 "/>
<polyline clip-path="url(#clip072)" style="stroke:#000000; stroke-linecap:round; stroke-linejoin:round; stroke-width:2; stroke-opacity:0.1; fill:none" points="2243.4,1423.18 2243.4,123.472 "/>
<polyline clip-path="url(#clip072)" style="stroke:#000000; stroke-linecap:round; stroke-linejoin:round; stroke-width:2; stroke-opacity:0.1; fill:none" points="225.362,1296.19 2352.76,1296.19 "/>
<polyline clip-path="url(#clip072)" style="stroke:#000000; stroke-linecap:round; stroke-linejoin:round; stroke-width:2; stroke-opacity:0.1; fill:none" points="225.362,1027.71 2352.76,1027.71 "/>
<polyline clip-path="url(#clip072)" style="stroke:#000000; stroke-linecap:round; stroke-linejoin:round; stroke-width:2; stroke-opacity:0.1; fill:none" points="225.362,759.237 2352.76,759.237 "/>
<polyline clip-path="url(#clip072)" style="stroke:#000000; stroke-linecap:round; stroke-linejoin:round; stroke-width:2; stroke-opacity:0.1; fill:none" points="225.362,490.762 2352.76,490.762 "/>
<polyline clip-path="url(#clip072)" style="stroke:#000000; stroke-linecap:round; stroke-linejoin:round; stroke-width:2; stroke-opacity:0.1; fill:none" points="225.362,222.287 2352.76,222.287 "/>
<polyline clip-path="url(#clip070)" style="stroke:#000000; stroke-linecap:round; stroke-linejoin:round; stroke-width:4; stroke-opacity:1; fill:none" points="225.362,1423.18 2352.76,1423.18 "/>
<polyline clip-path="url(#clip070)" style="stroke:#000000; stroke-linecap:round; stroke-linejoin:round; stroke-width:4; stroke-opacity:1; fill:none" points="277.379,1423.18 277.379,1404.28 "/>
<polyline clip-path="url(#clip070)" style="stroke:#000000; stroke-linecap:round; stroke-linejoin:round; stroke-width:4; stroke-opacity:1; fill:none" points="768.883,1423.18 768.883,1404.28 "/>
<polyline clip-path="url(#clip070)" style="stroke:#000000; stroke-linecap:round; stroke-linejoin:round; stroke-width:4; stroke-opacity:1; fill:none" points="1260.39,1423.18 1260.39,1404.28 "/>
<polyline clip-path="url(#clip070)" style="stroke:#000000; stroke-linecap:round; stroke-linejoin:round; stroke-width:4; stroke-opacity:1; fill:none" points="1751.89,1423.18 1751.89,1404.28 "/>
<polyline clip-path="url(#clip070)" style="stroke:#000000; stroke-linecap:round; stroke-linejoin:round; stroke-width:4; stroke-opacity:1; fill:none" points="2243.4,1423.18 2243.4,1404.28 "/>
<path clip-path="url(#clip070)" d="M288.286 1470.84 Q288.286 1478.55 285.651 1482.3 Q283.017 1486.05 277.415 1486.05 Q271.884 1486.05 269.226 1482.4 Q266.567 1478.72 266.472 1471.43 L266.472 1465.57 Q266.472 1457.95 269.107 1454.25 Q271.742 1450.55 277.367 1450.55 Q282.945 1450.55 285.58 1454.13 Q288.215 1457.69 288.286 1465.14 L288.286 1470.84 M283.895 1464.83 Q283.895 1459.26 282.328 1456.72 Q280.762 1454.15 277.367 1454.15 Q273.997 1454.15 272.454 1456.69 Q270.911 1459.23 270.864 1464.5 L270.864 1471.53 Q270.864 1477.13 272.478 1479.81 Q274.115 1482.47 277.415 1482.47 Q280.667 1482.47 282.233 1479.95 Q283.824 1477.44 283.895 1472.03 L283.895 1464.83 Z" fill="#000000" fill-rule="nonzero" fill-opacity="1" /><path clip-path="url(#clip070)" d="M780.538 1485.58 L757.894 1485.58 L757.894 1482.42 L769.857 1469.13 Q772.515 1466.12 773.512 1464.24 Q774.533 1462.34 774.533 1460.32 Q774.533 1457.62 772.895 1455.89 Q771.257 1454.15 768.527 1454.15 Q765.252 1454.15 763.424 1456.03 Q761.62 1457.88 761.62 1461.2 L757.229 1461.2 Q757.229 1456.43 760.291 1453.49 Q763.377 1450.55 768.527 1450.55 Q773.346 1450.55 776.147 1453.08 Q778.948 1455.6 778.948 1459.8 Q778.948 1464.91 772.444 1471.96 L763.187 1482 L780.538 1482 L780.538 1485.58 Z" fill="#000000" fill-rule="nonzero" fill-opacity="1" /><path clip-path="url(#clip070)" d="M1268.07 1473.97 L1272.86 1473.97 L1272.86 1477.56 L1268.07 1477.56 L1268.07 1485.58 L1263.65 1485.58 L1263.65 1477.56 L1247.91 1477.56 L1247.91 1474.97 L1263.39 1451.02 L1268.07 1451.02 L1268.07 1473.97 M1252.9 1473.97 L1263.65 1473.97 L1263.65 1457.03 L1263.13 1457.97 L1252.9 1473.97 Z" fill="#000000" fill-rule="nonzero" fill-opacity="1" /><path clip-path="url(#clip070)" d="M1757.94 1451 L1757.94 1454.72 L1757.14 1454.72 Q1752.01 1454.82 1748.97 1457.76 Q1745.93 1460.7 1745.46 1466.04 Q1748.19 1462.91 1752.91 1462.91 Q1757.42 1462.91 1760.1 1466.09 Q1762.81 1469.27 1762.81 1474.31 Q1762.81 1479.65 1759.89 1482.85 Q1757 1486.05 1752.11 1486.05 Q1747.14 1486.05 1744.06 1482.26 Q1740.97 1478.44 1740.97 1472.43 L1740.97 1470.74 Q1740.97 1461.2 1745.03 1456.17 Q1749.11 1451.11 1757.16 1451 L1757.94 1451 M1752.18 1466.57 Q1749.92 1466.57 1748.02 1467.92 Q1746.12 1469.27 1745.39 1471.31 L1745.39 1472.93 Q1745.39 1477.2 1747.31 1479.81 Q1749.23 1482.42 1752.11 1482.42 Q1755.07 1482.42 1756.76 1480.24 Q1758.47 1478.06 1758.47 1474.52 Q1758.47 1470.96 1756.73 1468.77 Q1755.03 1466.57 1752.18 1466.57 Z" fill="#000000" fill-rule="nonzero" fill-opacity="1" /><path clip-path="url(#clip070)" d="M2253.58 1460.04 Q2253.58 1462.63 2252.2 1464.64 Q2250.85 1466.66 2248.52 1467.8 Q2251.23 1468.96 2252.8 1471.2 Q2254.39 1473.43 2254.39 1476.25 Q2254.39 1480.74 2251.35 1483.4 Q2248.33 1486.05 2243.4 1486.05 Q2238.41 1486.05 2235.4 1483.4 Q2232.41 1480.71 2232.41 1476.25 Q2232.41 1473.45 2233.93 1471.2 Q2235.47 1468.94 2238.17 1467.78 Q2235.87 1466.64 2234.54 1464.62 Q2233.21 1462.6 2233.21 1460.04 Q2233.21 1455.67 2236.01 1453.11 Q2238.82 1450.55 2243.4 1450.55 Q2247.95 1450.55 2250.75 1453.11 Q2253.58 1455.67 2253.58 1460.04 M2249.99 1476.16 Q2249.99 1473.26 2248.14 1471.43 Q2246.32 1469.61 2243.35 1469.61 Q2240.38 1469.61 2238.58 1471.41 Q2236.8 1473.21 2236.8 1476.16 Q2236.8 1479.1 2238.53 1480.79 Q2240.29 1482.47 2243.4 1482.47 Q2246.48 1482.47 2248.24 1480.79 Q2249.99 1479.08 2249.99 1476.16 M2243.4 1454.15 Q2240.81 1454.15 2239.19 1455.77 Q2237.6 1457.36 2237.6 1460.11 Q2237.6 1462.75 2239.17 1464.38 Q2240.76 1466 2243.4 1466 Q2246.03 1466 2247.6 1464.38 Q2249.19 1462.75 2249.19 1460.11 Q2249.19 1457.48 2247.55 1455.81 Q2245.91 1454.15 2243.4 1454.15 Z" fill="#000000" fill-rule="nonzero" fill-opacity="1" /><path clip-path="url(#clip070)" d="M1127.65 1525.68 L1112.38 1525.68 L1112.38 1568.04 L1106.14 1568.04 L1106.14 1525.68 L1090.9 1525.68 L1090.9 1520.52 L1127.65 1520.52 L1127.65 1525.68 Z" fill="#000000" fill-rule="nonzero" fill-opacity="1" /><path clip-path="url(#clip070)" d="M1140.31 1568.04 L1134.28 1568.04 L1134.28 1532.73 L1140.31 1532.73 L1140.31 1568.04 M1133.79 1523.36 Q1133.79 1521.89 1134.67 1520.88 Q1135.58 1519.87 1137.34 1519.87 Q1139.11 1519.87 1140.02 1520.88 Q1140.93 1521.89 1140.93 1523.36 Q1140.93 1524.83 1140.02 1525.81 Q1139.11 1526.79 1137.34 1526.79 Q1135.58 1526.79 1134.67 1525.81 Q1133.79 1524.83 1133.79 1523.36 Z" fill="#000000" fill-rule="nonzero" fill-opacity="1" /><path clip-path="url(#clip070)" d="M1155.65 1532.73 L1155.82 1536.65 Q1159.7 1532.08 1166.29 1532.08 Q1173.7 1532.08 1176.38 1537.76 Q1178.14 1535.21 1180.95 1533.64 Q1183.79 1532.08 1187.64 1532.08 Q1199.26 1532.08 1199.45 1544.38 L1199.45 1568.04 L1193.42 1568.04 L1193.42 1544.74 Q1193.42 1540.95 1191.69 1539.09 Q1189.96 1537.2 1185.88 1537.2 Q1182.51 1537.2 1180.29 1539.23 Q1178.08 1541.22 1177.72 1544.61 L1177.72 1568.04 L1171.65 1568.04 L1171.65 1544.9 Q1171.65 1537.2 1164.11 1537.2 Q1158.17 1537.2 1155.98 1542.26 L1155.98 1568.04 L1149.94 1568.04 L1149.94 1532.73 L1155.65 1532.73 Z" fill="#000000" fill-rule="nonzero" fill-opacity="1" /><path clip-path="url(#clip070)" d="M1223.21 1568.7 Q1216.03 1568.7 1211.53 1564 Q1207.02 1559.26 1207.02 1551.37 L1207.02 1550.26 Q1207.02 1545 1209.02 1540.89 Q1211.04 1536.74 1214.63 1534.43 Q1218.25 1532.08 1222.46 1532.08 Q1229.35 1532.08 1233.17 1536.61 Q1236.99 1541.15 1236.99 1549.6 L1236.99 1552.12 L1213.06 1552.12 Q1213.19 1557.34 1216.1 1560.57 Q1219.04 1563.77 1223.54 1563.77 Q1226.74 1563.77 1228.96 1562.46 Q1231.18 1561.16 1232.84 1559 L1236.53 1561.88 Q1232.09 1568.7 1223.21 1568.7 M1222.46 1537.04 Q1218.81 1537.04 1216.33 1539.71 Q1213.85 1542.36 1213.26 1547.16 L1230.95 1547.16 L1230.95 1546.7 Q1230.69 1542.1 1228.47 1539.58 Q1226.25 1537.04 1222.46 1537.04 Z" fill="#000000" fill-rule="nonzero" fill-opacity="1" /><path clip-path="url(#clip070)" d="M1260.29 1548.76 Q1260.29 1541.38 1262.25 1534.59 Q1264.24 1527.8 1268.15 1522.25 Q1272.07 1516.71 1276.28 1514.42 L1277.52 1518.4 Q1272.76 1522.06 1269.69 1529.56 Q1266.65 1537.07 1266.36 1546.37 L1266.33 1549.15 Q1266.33 1561.74 1270.93 1571.01 Q1273.7 1576.56 1277.52 1579.7 L1276.28 1583.38 Q1271.94 1580.97 1267.99 1575.29 Q1260.29 1564.19 1260.29 1548.76 Z" fill="#000000" fill-rule="nonzero" fill-opacity="1" /><path clip-path="url(#clip070)" d="M1310.52 1547.06 L1290.58 1547.06 L1290.58 1568.04 L1284.31 1568.04 L1284.31 1520.52 L1313.75 1520.52 L1313.75 1525.68 L1290.58 1525.68 L1290.58 1541.93 L1310.52 1541.93 L1310.52 1547.06 Z" fill="#000000" fill-rule="nonzero" fill-opacity="1" /><path clip-path="url(#clip070)" d="M1337.38 1538.15 Q1336.01 1537.92 1334.41 1537.92 Q1328.47 1537.92 1326.35 1542.98 L1326.35 1568.04 L1320.31 1568.04 L1320.31 1532.73 L1326.18 1532.73 L1326.28 1536.81 Q1329.25 1532.08 1334.7 1532.08 Q1336.46 1532.08 1337.38 1532.53 L1337.38 1538.15 Z" fill="#000000" fill-rule="nonzero" fill-opacity="1" /><path clip-path="url(#clip070)" d="M1364.73 1568.04 Q1364.21 1567 1363.88 1564.32 Q1359.67 1568.7 1353.83 1568.7 Q1348.61 1568.7 1345.24 1565.76 Q1341.92 1562.79 1341.92 1558.25 Q1341.92 1552.74 1346.09 1549.7 Q1350.3 1546.63 1357.91 1546.63 L1363.78 1546.63 L1363.78 1543.86 Q1363.78 1540.69 1361.89 1538.83 Q1360 1536.94 1356.31 1536.94 Q1353.08 1536.94 1350.89 1538.57 Q1348.7 1540.2 1348.7 1542.52 L1342.63 1542.52 Q1342.63 1539.88 1344.49 1537.43 Q1346.39 1534.95 1349.58 1533.51 Q1352.82 1532.08 1356.67 1532.08 Q1362.77 1532.08 1366.23 1535.15 Q1369.69 1538.18 1369.82 1543.53 L1369.82 1559.79 Q1369.82 1564.65 1371.06 1567.52 L1371.06 1568.04 L1364.73 1568.04 M1354.71 1563.44 Q1357.55 1563.44 1360.09 1561.97 Q1362.64 1560.5 1363.78 1558.15 L1363.78 1550.91 L1359.05 1550.91 Q1347.95 1550.91 1347.95 1557.4 Q1347.95 1560.24 1349.85 1561.84 Q1351.74 1563.44 1354.71 1563.44 Z" fill="#000000" fill-rule="nonzero" fill-opacity="1" /><path clip-path="url(#clip070)" d="M1384.96 1532.73 L1385.13 1536.65 Q1389.01 1532.08 1395.6 1532.08 Q1403.01 1532.08 1405.69 1537.76 Q1407.45 1535.21 1410.26 1533.64 Q1413.1 1532.08 1416.95 1532.08 Q1428.57 1532.08 1428.76 1544.38 L1428.76 1568.04 L1422.73 1568.04 L1422.73 1544.74 Q1422.73 1540.95 1421 1539.09 Q1419.27 1537.2 1415.19 1537.2 Q1411.82 1537.2 1409.6 1539.23 Q1407.39 1541.22 1407.03 1544.61 L1407.03 1568.04 L1400.96 1568.04 L1400.96 1544.9 Q1400.96 1537.2 1393.42 1537.2 Q1387.48 1537.2 1385.29 1542.26 L1385.29 1568.04 L1379.25 1568.04 L1379.25 1532.73 L1384.96 1532.73 Z" fill="#000000" fill-rule="nonzero" fill-opacity="1" /><path clip-path="url(#clip070)" d="M1452.52 1568.7 Q1445.34 1568.7 1440.84 1564 Q1436.33 1559.26 1436.33 1551.37 L1436.33 1550.26 Q1436.33 1545 1438.33 1540.89 Q1440.35 1536.74 1443.94 1534.43 Q1447.56 1532.08 1451.77 1532.08 Q1458.66 1532.08 1462.48 1536.61 Q1466.3 1541.15 1466.3 1549.6 L1466.3 1552.12 L1442.37 1552.12 Q1442.5 1557.34 1445.41 1560.57 Q1448.35 1563.77 1452.85 1563.77 Q1456.05 1563.77 1458.27 1562.46 Q1460.49 1561.16 1462.15 1559 L1465.84 1561.88 Q1461.4 1568.7 1452.52 1568.7 M1451.77 1537.04 Q1448.12 1537.04 1445.64 1539.71 Q1443.16 1542.36 1442.57 1547.16 L1460.26 1547.16 L1460.26 1546.7 Q1460 1542.1 1457.78 1539.58 Q1455.56 1537.04 1451.77 1537.04 Z" fill="#000000" fill-rule="nonzero" fill-opacity="1" /><path clip-path="url(#clip070)" d="M1487.22 1549.08 Q1487.22 1556.36 1485.29 1563.05 Q1483.4 1569.71 1479.45 1575.35 Q1475.53 1581 1471.22 1583.38 L1469.95 1579.7 Q1474.98 1575.84 1478.01 1567.75 Q1481.08 1559.62 1481.15 1549.73 L1481.15 1548.69 Q1481.15 1541.84 1479.71 1535.96 Q1478.27 1530.05 1475.7 1525.39 Q1473.15 1520.72 1469.95 1518.11 L1471.22 1514.42 Q1475.53 1516.8 1479.42 1522.38 Q1483.33 1527.97 1485.26 1534.69 Q1487.22 1541.41 1487.22 1549.08 Z" fill="#000000" fill-rule="nonzero" fill-opacity="1" /><polyline clip-path="url(#clip070)" style="stroke:#000000; stroke-linecap:round; stroke-linejoin:round; stroke-width:4; stroke-opacity:1; fill:none" points="225.362,1423.18 225.362,123.472 "/>
<polyline clip-path="url(#clip070)" style="stroke:#000000; stroke-linecap:round; stroke-linejoin:round; stroke-width:4; stroke-opacity:1; fill:none" points="225.362,1296.19 244.259,1296.19 "/>
<polyline clip-path="url(#clip070)" style="stroke:#000000; stroke-linecap:round; stroke-linejoin:round; stroke-width:4; stroke-opacity:1; fill:none" points="225.362,1027.71 244.259,1027.71 "/>
<polyline clip-path="url(#clip070)" style="stroke:#000000; stroke-linecap:round; stroke-linejoin:round; stroke-width:4; stroke-opacity:1; fill:none" points="225.362,759.237 244.259,759.237 "/>
<polyline clip-path="url(#clip070)" style="stroke:#000000; stroke-linecap:round; stroke-linejoin:round; stroke-width:4; stroke-opacity:1; fill:none" points="225.362,490.762 244.259,490.762 "/>
<polyline clip-path="url(#clip070)" style="stroke:#000000; stroke-linecap:round; stroke-linejoin:round; stroke-width:4; stroke-opacity:1; fill:none" points="225.362,222.287 244.259,222.287 "/>
<path clip-path="url(#clip070)" d="M158.932 1301.86 L163.727 1301.86 L163.727 1305.45 L158.932 1305.45 L158.932 1313.47 L154.517 1313.47 L154.517 1305.45 L138.78 1305.45 L138.78 1302.86 L154.256 1278.91 L158.932 1278.91 L158.932 1301.86 M143.764 1301.86 L154.517 1301.86 L154.517 1284.91 L153.995 1285.86 L143.764 1301.86 Z" fill="#000000" fill-rule="nonzero" fill-opacity="1" /><path clip-path="url(#clip070)" d="M189.362 1298.73 Q189.362 1306.44 186.727 1310.19 Q184.092 1313.94 178.49 1313.94 Q172.96 1313.94 170.301 1310.29 Q167.643 1306.61 167.548 1299.32 L167.548 1293.46 Q167.548 1285.84 170.183 1282.14 Q172.818 1278.43 178.443 1278.43 Q184.021 1278.43 186.656 1282.02 Q189.29 1285.58 189.362 1293.03 L189.362 1298.73 M184.97 1292.72 Q184.97 1287.14 183.404 1284.6 Q181.837 1282.04 178.443 1282.04 Q175.072 1282.04 173.53 1284.58 Q171.987 1287.12 171.939 1292.39 L171.939 1299.42 Q171.939 1305.02 173.553 1307.7 Q175.191 1310.36 178.49 1310.36 Q181.742 1310.36 183.309 1307.84 Q184.899 1305.33 184.97 1299.91 L184.97 1292.72 Z" fill="#000000" fill-rule="nonzero" fill-opacity="1" /><path clip-path="url(#clip070)" d="M157.626 1010.41 L157.626 1014.14 L156.819 1014.14 Q151.692 1014.23 148.654 1017.17 Q145.616 1020.12 145.141 1025.46 Q147.871 1022.32 152.594 1022.32 Q157.104 1022.32 159.786 1025.51 Q162.492 1028.69 162.492 1033.72 Q162.492 1039.06 159.573 1042.26 Q156.677 1045.47 151.787 1045.47 Q146.826 1045.47 143.741 1041.67 Q140.655 1037.85 140.655 1031.84 L140.655 1030.16 Q140.655 1020.62 144.714 1015.58 Q148.796 1010.53 156.843 1010.41 L157.626 1010.41 M151.858 1025.98 Q149.603 1025.98 147.705 1027.33 Q145.806 1028.69 145.07 1030.73 L145.07 1032.34 Q145.07 1036.61 146.992 1039.22 Q148.915 1041.84 151.787 1041.84 Q154.754 1041.84 156.439 1039.65 Q158.149 1037.47 158.149 1033.93 Q158.149 1030.37 156.416 1028.19 Q154.707 1025.98 151.858 1025.98 Z" fill="#000000" fill-rule="nonzero" fill-opacity="1" /><path clip-path="url(#clip070)" d="M189.362 1030.25 Q189.362 1037.97 186.727 1041.72 Q184.092 1045.47 178.49 1045.47 Q172.96 1045.47 170.301 1041.81 Q167.643 1038.13 167.548 1030.85 L167.548 1024.98 Q167.548 1017.36 170.183 1013.66 Q172.818 1009.96 178.443 1009.96 Q184.021 1009.96 186.656 1013.54 Q189.29 1017.1 189.362 1024.56 L189.362 1030.25 M184.97 1024.25 Q184.97 1018.67 183.404 1016.13 Q181.837 1013.57 178.443 1013.57 Q175.072 1013.57 173.53 1016.11 Q171.987 1018.65 171.939 1023.91 L171.939 1030.94 Q171.939 1036.54 173.553 1039.22 Q175.191 1041.88 178.49 1041.88 Q181.742 1041.88 183.309 1039.37 Q184.899 1036.85 184.97 1031.44 L184.97 1024.25 Z" fill="#000000" fill-rule="nonzero" fill-opacity="1" /><path clip-path="url(#clip070)" d="M161.353 750.977 Q161.353 753.564 159.976 755.582 Q158.623 757.6 156.297 758.739 Q159.003 759.902 160.57 762.133 Q162.16 764.364 162.16 767.189 Q162.16 771.675 159.122 774.334 Q156.107 776.992 151.17 776.992 Q146.185 776.992 143.171 774.334 Q140.18 771.651 140.18 767.189 Q140.18 764.388 141.699 762.133 Q143.242 759.878 145.948 758.715 Q143.646 757.576 142.316 755.558 Q140.987 753.541 140.987 750.977 Q140.987 746.61 143.788 744.046 Q146.589 741.483 151.17 741.483 Q155.727 741.483 158.528 744.046 Q161.353 746.61 161.353 750.977 M157.769 767.094 Q157.769 764.198 155.917 762.371 Q154.09 760.543 151.123 760.543 Q148.156 760.543 146.352 762.347 Q144.571 764.151 144.571 767.094 Q144.571 770.037 146.304 771.723 Q148.061 773.408 151.17 773.408 Q154.256 773.408 156.012 771.723 Q157.769 770.014 157.769 767.094 M151.17 745.091 Q148.583 745.091 146.969 746.705 Q145.378 748.295 145.378 751.048 Q145.378 753.683 146.945 755.321 Q148.535 756.935 151.17 756.935 Q153.805 756.935 155.371 755.321 Q156.962 753.683 156.962 751.048 Q156.962 748.414 155.324 746.752 Q153.686 745.091 151.17 745.091 Z" fill="#000000" fill-rule="nonzero" fill-opacity="1" /><path clip-path="url(#clip070)" d="M189.362 761.777 Q189.362 769.491 186.727 773.242 Q184.092 776.992 178.49 776.992 Q172.96 776.992 170.301 773.337 Q167.643 769.658 167.548 762.371 L167.548 756.508 Q167.548 748.888 170.183 745.185 Q172.818 741.483 178.443 741.483 Q184.021 741.483 186.656 745.067 Q189.29 748.627 189.362 756.08 L189.362 761.777 M184.97 755.772 Q184.97 750.194 183.404 747.654 Q181.837 745.091 178.443 745.091 Q175.072 745.091 173.53 747.63 Q171.987 750.17 171.939 755.44 L171.939 762.465 Q171.939 768.067 173.553 770.749 Q175.191 773.408 178.49 773.408 Q181.742 773.408 183.309 770.892 Q184.899 768.376 184.97 762.964 L184.97 755.772 Z" fill="#000000" fill-rule="nonzero" fill-opacity="1" /><path clip-path="url(#clip070)" d="M127.529 508.042 L123.114 508.042 L123.114 478.775 L114.26 482.027 L114.26 478.039 L126.84 473.316 L127.529 473.316 L127.529 508.042 Z" fill="#000000" fill-rule="nonzero" fill-opacity="1" /><path clip-path="url(#clip070)" d="M162.065 493.302 Q162.065 501.016 159.43 504.766 Q156.796 508.517 151.194 508.517 Q145.663 508.517 143.005 504.861 Q140.346 501.182 140.251 493.895 L140.251 488.032 Q140.251 480.413 142.886 476.71 Q145.521 473.007 151.146 473.007 Q156.724 473.007 159.359 476.591 Q161.994 480.152 162.065 487.605 L162.065 493.302 M157.674 487.297 Q157.674 481.718 156.107 479.179 Q154.541 476.615 151.146 476.615 Q147.776 476.615 146.233 479.155 Q144.69 481.695 144.643 486.964 L144.643 493.99 Q144.643 499.592 146.257 502.274 Q147.894 504.933 151.194 504.933 Q154.446 504.933 156.012 502.417 Q157.603 499.9 157.674 494.489 L157.674 487.297 Z" fill="#000000" fill-rule="nonzero" fill-opacity="1" /><path clip-path="url(#clip070)" d="M189.362 493.302 Q189.362 501.016 186.727 504.766 Q184.092 508.517 178.49 508.517 Q172.96 508.517 170.301 504.861 Q167.643 501.182 167.548 493.895 L167.548 488.032 Q167.548 480.413 170.183 476.71 Q172.818 473.007 178.443 473.007 Q184.021 473.007 186.656 476.591 Q189.29 480.152 189.362 487.605 L189.362 493.302 M184.97 487.297 Q184.97 481.718 183.404 479.179 Q181.837 476.615 178.443 476.615 Q175.072 476.615 173.53 479.155 Q171.987 481.695 171.939 486.964 L171.939 493.99 Q171.939 499.592 173.553 502.274 Q175.191 504.933 178.49 504.933 Q181.742 504.933 183.309 502.417 Q184.899 499.9 184.97 494.489 L184.97 487.297 Z" fill="#000000" fill-rule="nonzero" fill-opacity="1" /><path clip-path="url(#clip070)" d="M127.529 239.567 L123.114 239.567 L123.114 210.3 L114.26 213.552 L114.26 209.564 L126.84 204.841 L127.529 204.841 L127.529 239.567 Z" fill="#000000" fill-rule="nonzero" fill-opacity="1" /><path clip-path="url(#clip070)" d="M163.038 239.567 L140.394 239.567 L140.394 236.41 L152.357 223.117 Q155.015 220.103 156.012 218.228 Q157.033 216.329 157.033 214.311 Q157.033 211.605 155.395 209.873 Q153.757 208.14 151.028 208.14 Q147.752 208.14 145.924 210.015 Q144.12 211.866 144.12 215.19 L139.729 215.19 Q139.729 210.419 142.791 207.475 Q145.877 204.532 151.028 204.532 Q155.846 204.532 158.647 207.072 Q161.448 209.588 161.448 213.789 Q161.448 218.892 154.944 225.942 L145.687 235.983 L163.038 235.983 L163.038 239.567 Z" fill="#000000" fill-rule="nonzero" fill-opacity="1" /><path clip-path="url(#clip070)" d="M189.362 224.826 Q189.362 232.541 186.727 236.291 Q184.092 240.041 178.49 240.041 Q172.96 240.041 170.301 236.386 Q167.643 232.707 167.548 225.42 L167.548 219.557 Q167.548 211.938 170.183 208.235 Q172.818 204.532 178.443 204.532 Q184.021 204.532 186.656 208.116 Q189.29 211.677 189.362 219.13 L189.362 224.826 M184.97 218.821 Q184.97 213.243 183.404 210.703 Q181.837 208.14 178.443 208.14 Q175.072 208.14 173.53 210.68 Q171.987 213.219 171.939 218.489 L171.939 225.515 Q171.939 231.117 173.553 233.799 Q175.191 236.457 178.49 236.457 Q181.742 236.457 183.309 233.941 Q184.899 231.425 184.97 226.013 L184.97 218.821 Z" fill="#000000" fill-rule="nonzero" fill-opacity="1" /><path clip-path="url(#clip070)" d="M16.4842 1068.09 L16.4842 1061.79 L50.1333 1061.79 Q56.9545 1061.79 60.8057 1065.9 Q64.6569 1069.98 64.6569 1076.8 Q64.6569 1083.89 61.0342 1087.84 Q57.4114 1091.79 50.8839 1091.79 L50.8839 1085.52 Q54.9636 1085.52 57.2482 1083.3 Q59.5328 1081.05 59.5328 1076.8 Q59.5328 1072.92 57.085 1070.54 Q54.6372 1068.12 50.2312 1068.09 L16.4842 1068.09 Z" fill="#000000" fill-rule="nonzero" fill-opacity="1" /><path clip-path="url(#clip070)" d="M46.021 1053.66 Q40.8316 1053.66 36.6867 1051.64 Q32.5417 1049.58 30.2898 1045.96 Q28.0378 1042.31 28.0378 1037.64 Q28.0378 1030.43 33.0313 1025.99 Q38.0248 1021.52 46.3147 1021.52 L46.739 1021.52 Q51.8957 1021.52 56.008 1023.51 Q60.0877 1025.47 62.3723 1029.15 Q64.6569 1032.81 64.6569 1037.57 Q64.6569 1044.75 59.6634 1049.23 Q54.6699 1053.66 46.4453 1053.66 L46.021 1053.66 M46.739 1047.59 Q52.6137 1047.59 56.1712 1044.89 Q59.7287 1042.14 59.7287 1037.57 Q59.7287 1032.97 56.1386 1030.26 Q52.5158 1027.55 46.021 1027.55 Q40.2115 1027.55 36.6214 1030.33 Q32.9987 1033.07 32.9987 1037.64 Q32.9987 1042.11 36.5561 1044.85 Q40.1136 1047.59 46.739 1047.59 Z" fill="#000000" fill-rule="nonzero" fill-opacity="1" /><path clip-path="url(#clip070)" d="M64.0042 1007.38 L64.0042 1013.42 L28.6905 1013.42 L28.6905 1007.38 L64.0042 1007.38 M19.3236 1013.91 Q17.8549 1013.91 16.8432 1013.03 Q15.8314 1012.12 15.8314 1010.35 Q15.8314 1008.59 16.8432 1007.68 Q17.8549 1006.76 19.3236 1006.76 Q20.7923 1006.76 21.7714 1007.68 Q22.7505 1008.59 22.7505 1010.35 Q22.7505 1012.12 21.7714 1013.03 Q20.7923 1013.91 19.3236 1013.91 Z" fill="#000000" fill-rule="nonzero" fill-opacity="1" /><path clip-path="url(#clip070)" d="M28.6905 992.013 L33.1292 991.817 Q28.0378 987.77 28.0378 981.242 Q28.0378 970.048 40.6684 969.95 L64.0042 969.95 L64.0042 975.988 L40.6358 975.988 Q36.8172 976.02 34.9895 977.75 Q33.1618 979.447 33.1618 983.07 Q33.1618 986.007 34.7284 988.227 Q36.295 990.446 38.8408 991.686 L64.0042 991.686 L64.0042 997.724 L28.6905 997.724 L28.6905 992.013 Z" fill="#000000" fill-rule="nonzero" fill-opacity="1" /><path clip-path="url(#clip070)" d="M20.1395 952.652 L28.6905 952.652 L28.6905 946.059 L33.3577 946.059 L33.3577 952.652 L55.2573 952.652 Q57.3788 952.652 58.4558 951.771 Q59.5002 950.89 59.5002 948.768 Q59.5002 947.724 59.1086 945.896 L64.0042 945.896 Q64.6569 948.279 64.6569 950.531 Q64.6569 954.578 62.2091 956.634 Q59.7613 958.69 55.2573 958.69 L33.3577 958.69 L33.3577 965.119 L28.6905 965.119 L28.6905 958.69 L20.1395 958.69 L20.1395 952.652 Z" fill="#000000" fill-rule="nonzero" fill-opacity="1" /><path clip-path="url(#clip070)" d="M51.602 895.275 L51.602 915.184 L64.0042 919.656 L64.0042 926.118 L16.4842 907.971 L16.4842 902.488 L64.0042 884.309 L64.0042 890.739 L51.602 895.275 M46.4453 913.291 L46.4453 897.136 L24.2192 905.23 L46.4453 913.291 Z" fill="#000000" fill-rule="nonzero" fill-opacity="1" /><path clip-path="url(#clip070)" d="M28.6905 873.147 L33.1292 872.952 Q28.0378 868.905 28.0378 862.377 Q28.0378 851.182 40.6684 851.085 L64.0042 851.085 L64.0042 857.122 L40.6358 857.122 Q36.8172 857.155 34.9895 858.885 Q33.1618 860.582 33.1618 864.205 Q33.1618 867.142 34.7284 869.361 Q36.295 871.581 38.8408 872.821 L64.0042 872.821 L64.0042 878.859 L28.6905 878.859 L28.6905 873.147 Z" fill="#000000" fill-rule="nonzero" fill-opacity="1" /><path clip-path="url(#clip070)" d="M46.0536 843.415 Q37.7964 843.415 32.9334 839.596 Q28.0378 835.778 28.0378 829.479 Q28.0378 823.016 32.607 819.394 L28.6905 819.1 L28.6905 813.584 L63.1556 813.584 Q70.0094 813.584 73.9586 817.664 Q77.9077 821.711 77.9077 828.565 Q77.9077 832.383 76.2758 836.039 Q74.6439 839.694 71.8045 841.62 L68.1817 838.486 Q72.9794 834.603 72.9794 828.989 Q72.9794 824.583 70.499 822.135 Q68.0186 819.655 63.5146 819.655 L60.4793 819.655 Q64.6569 823.277 64.6569 829.544 Q64.6569 835.745 59.6634 839.596 Q54.6699 843.415 46.0536 843.415 M46.739 837.344 Q52.7116 837.344 56.1386 834.896 Q59.5328 832.449 59.5328 828.043 Q59.5328 822.331 54.3435 819.655 L38.2206 819.655 Q33.1618 822.429 33.1618 827.977 Q33.1618 832.383 36.5888 834.864 Q40.0157 837.344 46.739 837.344 Z" fill="#000000" fill-rule="nonzero" fill-opacity="1" /><path clip-path="url(#clip070)" d="M64.0042 797.918 L64.0042 803.956 L13.8732 803.956 L13.8732 797.918 L64.0042 797.918 Z" fill="#000000" fill-rule="nonzero" fill-opacity="1" /><path clip-path="url(#clip070)" d="M64.6569 773.603 Q64.6569 780.784 59.9571 785.288 Q55.2247 789.792 47.3265 789.792 L46.2168 789.792 Q40.9622 789.792 36.8499 787.801 Q32.7049 785.777 30.3877 782.187 Q28.0378 778.564 28.0378 774.354 Q28.0378 767.468 32.5744 763.649 Q37.111 759.83 45.564 759.83 L48.0771 759.83 L48.0771 783.754 Q53.2991 783.623 56.5302 780.718 Q59.7287 777.781 59.7287 773.277 Q59.7287 770.079 58.4232 767.859 Q57.1177 765.64 54.9636 763.975 L57.8357 760.287 Q64.6569 764.726 64.6569 773.603 M32.9987 774.354 Q32.9987 778.009 35.6749 780.49 Q38.3186 782.97 43.1162 783.558 L43.1162 765.868 L42.6593 765.868 Q38.0575 766.129 35.5444 768.349 Q32.9987 770.568 32.9987 774.354 Z" fill="#000000" fill-rule="nonzero" fill-opacity="1" /><path clip-path="url(#clip070)" d="M44.7155 736.527 Q37.3394 736.527 30.5509 734.569 Q23.7623 732.578 18.2139 728.662 Q12.6656 724.745 10.381 720.535 L14.3627 719.295 Q18.0181 724.06 25.5247 727.128 Q33.0313 730.163 42.3329 730.457 L45.1071 730.489 Q57.7051 730.489 66.9742 725.888 Q72.5225 723.113 75.6557 719.295 L79.3437 720.535 Q76.9286 724.876 71.2497 728.825 Q60.1529 736.527 44.7155 736.527 Z" fill="#000000" fill-rule="nonzero" fill-opacity="1" /><path clip-path="url(#clip070)" d="M64.0042 712.506 L16.4842 712.506 L16.4842 699.092 Q16.4842 692.891 19.2257 688.126 Q21.9672 683.361 27.026 680.783 Q32.0848 678.172 38.6449 678.139 L41.6802 678.139 Q48.4035 678.139 53.4623 680.75 Q58.5211 683.328 61.23 688.159 Q63.9389 692.956 64.0042 699.353 L64.0042 712.506 M21.6409 706.24 L58.8801 706.24 L58.8801 699.647 Q58.8801 692.402 54.3761 688.387 Q49.8722 684.34 41.5497 684.34 L38.7755 684.34 Q30.6814 684.34 26.2101 688.159 Q21.7061 691.945 21.6409 698.929 L21.6409 706.24 Z" fill="#000000" fill-rule="nonzero" fill-opacity="1" /><path clip-path="url(#clip070)" d="M64.6569 654.967 Q64.6569 662.147 59.9571 666.651 Q55.2247 671.155 47.3265 671.155 L46.2168 671.155 Q40.9622 671.155 36.8499 669.164 Q32.7049 667.14 30.3877 663.55 Q28.0378 659.927 28.0378 655.717 Q28.0378 648.831 32.5744 645.012 Q37.111 641.194 45.564 641.194 L48.0771 641.194 L48.0771 665.117 Q53.2991 664.986 56.5302 662.082 Q59.7287 659.144 59.7287 654.64 Q59.7287 651.442 58.4232 649.222 Q57.1177 647.003 54.9636 645.339 L57.8357 641.651 Q64.6569 646.089 64.6569 654.967 M32.9987 655.717 Q32.9987 659.373 35.6749 661.853 Q38.3186 664.334 43.1162 664.921 L43.1162 647.232 L42.6593 647.232 Q38.0575 647.493 35.5444 649.712 Q32.9987 651.931 32.9987 655.717 Z" fill="#000000" fill-rule="nonzero" fill-opacity="1" /><path clip-path="url(#clip070)" d="M46.0536 635.645 Q37.7964 635.645 32.9334 631.827 Q28.0378 628.008 28.0378 621.709 Q28.0378 615.247 32.607 611.624 L28.6905 611.33 L28.6905 605.815 L63.1556 605.815 Q70.0094 605.815 73.9586 609.894 Q77.9077 613.941 77.9077 620.795 Q77.9077 624.614 76.2758 628.269 Q74.6439 631.925 71.8045 633.85 L68.1817 630.717 Q72.9794 626.833 72.9794 621.22 Q72.9794 616.814 70.499 614.366 Q68.0186 611.885 63.5146 611.885 L60.4793 611.885 Q64.6569 615.508 64.6569 621.774 Q64.6569 627.975 59.6634 631.827 Q54.6699 635.645 46.0536 635.645 M46.739 629.575 Q52.7116 629.575 56.1386 627.127 Q59.5328 624.679 59.5328 620.273 Q59.5328 614.562 54.3435 611.885 L38.2206 611.885 Q33.1618 614.659 33.1618 620.208 Q33.1618 624.614 36.5888 627.094 Q40.0157 629.575 46.739 629.575 Z" fill="#000000" fill-rule="nonzero" fill-opacity="1" /><path clip-path="url(#clip070)" d="M34.1083 579.64 Q33.8799 581.01 33.8799 582.61 Q33.8799 588.55 38.9387 590.671 L64.0042 590.671 L64.0042 596.709 L28.6905 596.709 L28.6905 590.834 L32.7702 590.736 Q28.0378 587.766 28.0378 582.316 Q28.0378 580.553 28.4947 579.64 L34.1083 579.64 Z" fill="#000000" fill-rule="nonzero" fill-opacity="1" /><path clip-path="url(#clip070)" d="M64.6569 559.437 Q64.6569 566.617 59.9571 571.121 Q55.2247 575.625 47.3265 575.625 L46.2168 575.625 Q40.9622 575.625 36.8499 573.634 Q32.7049 571.611 30.3877 568.021 Q28.0378 564.398 28.0378 560.188 Q28.0378 553.301 32.5744 549.483 Q37.111 545.664 45.564 545.664 L48.0771 545.664 L48.0771 569.587 Q53.2991 569.457 56.5302 566.552 Q59.7287 563.615 59.7287 559.111 Q59.7287 555.912 58.4232 553.693 Q57.1177 551.474 54.9636 549.809 L57.8357 546.121 Q64.6569 550.56 64.6569 559.437 M32.9987 560.188 Q32.9987 563.843 35.6749 566.324 Q38.3186 568.804 43.1162 569.391 L43.1162 551.702 L42.6593 551.702 Q38.0575 551.963 35.5444 554.182 Q32.9987 556.402 32.9987 560.188 Z" fill="#000000" fill-rule="nonzero" fill-opacity="1" /><path clip-path="url(#clip070)" d="M64.6569 524.025 Q64.6569 531.206 59.9571 535.71 Q55.2247 540.214 47.3265 540.214 L46.2168 540.214 Q40.9622 540.214 36.8499 538.223 Q32.7049 536.199 30.3877 532.609 Q28.0378 528.986 28.0378 524.776 Q28.0378 517.89 32.5744 514.071 Q37.111 510.253 45.564 510.253 L48.0771 510.253 L48.0771 534.176 Q53.2991 534.045 56.5302 531.14 Q59.7287 528.203 59.7287 523.699 Q59.7287 520.501 58.4232 518.281 Q57.1177 516.062 54.9636 514.397 L57.8357 510.709 Q64.6569 515.148 64.6569 524.025 M32.9987 524.776 Q32.9987 528.432 35.6749 530.912 Q38.3186 533.392 43.1162 533.98 L43.1162 516.29 L42.6593 516.29 Q38.0575 516.552 35.5444 518.771 Q32.9987 520.99 32.9987 524.776 Z" fill="#000000" fill-rule="nonzero" fill-opacity="1" /><path clip-path="url(#clip070)" d="M54.6372 482.707 Q52.1894 482.707 50.8513 484.567 Q49.4805 486.395 48.5014 490.996 Q47.5223 495.566 46.1515 498.275 Q44.7808 500.951 42.8878 502.256 Q40.9948 503.529 38.3838 503.529 Q34.0431 503.529 31.0404 499.874 Q28.0378 496.186 28.0378 490.474 Q28.0378 484.469 31.1383 480.748 Q34.2389 476.995 39.0692 476.995 L39.0692 483.066 Q36.5888 483.066 34.7937 485.187 Q32.9987 487.276 32.9987 490.474 Q32.9987 493.771 34.4347 495.631 Q35.8708 497.491 38.188 497.491 Q40.3747 497.491 41.4844 495.762 Q42.594 494.032 43.6058 489.528 Q44.6176 484.991 46.021 482.184 Q47.4244 479.378 49.4153 478.039 Q51.3735 476.669 54.2129 476.669 Q58.9454 476.669 61.8175 480.455 Q64.6569 484.241 64.6569 490.278 Q64.6569 494.521 63.1556 497.785 Q61.6543 501.049 58.978 502.909 Q56.2691 504.737 53.1359 504.737 L53.1359 498.699 Q56.1712 498.536 57.9662 496.284 Q59.7287 493.999 59.7287 490.278 Q59.7287 486.852 58.3579 484.795 Q56.9545 482.707 54.6372 482.707 Z" fill="#000000" fill-rule="nonzero" fill-opacity="1" /><path clip-path="url(#clip070)" d="M45.0418 454.867 Q52.32 454.867 59.0106 456.793 Q65.6687 458.685 71.3149 462.635 Q76.9612 466.551 79.3437 470.859 L75.6557 472.132 Q71.8045 467.106 63.7104 464.071 Q55.5837 461.003 45.6946 460.937 L44.6502 460.937 Q37.7964 460.937 31.9216 462.374 Q26.0143 463.81 21.3471 466.388 Q16.68 468.934 14.069 472.132 L10.381 470.859 Q12.7635 466.551 18.3445 462.667 Q23.9255 458.751 30.6488 456.825 Q37.3721 454.867 45.0418 454.867 Z" fill="#000000" fill-rule="nonzero" fill-opacity="1" /><path clip-path="url(#clip070)" d="M882.688 12.096 L890.705 12.096 L890.705 54.9222 Q890.705 63.6037 885.471 68.5052 Q880.279 73.4068 871.597 73.4068 Q862.583 73.4068 857.557 68.796 Q852.531 64.1852 852.531 55.8775 L860.506 55.8775 Q860.506 61.0698 863.331 63.9775 Q866.197 66.8852 871.597 66.8852 Q876.54 66.8852 879.573 63.7698 Q882.646 60.6545 882.688 55.0468 L882.688 12.096 Z" fill="#000000" fill-rule="nonzero" fill-opacity="1" /><path clip-path="url(#clip070)" d="M901.048 49.6883 Q901.048 43.0837 903.623 37.8083 Q906.24 32.5329 910.851 29.6668 Q915.503 26.8006 921.443 26.8006 Q930.623 26.8006 936.273 33.156 Q941.963 39.5114 941.963 50.0622 L941.963 50.6022 Q941.963 57.1652 939.43 62.3991 Q936.937 67.5914 932.243 70.4991 Q927.591 73.4068 921.526 73.4068 Q912.388 73.4068 906.697 67.0514 Q901.048 60.696 901.048 50.2283 L901.048 49.6883 M908.774 50.6022 Q908.774 58.0791 912.222 62.6068 Q915.711 67.1345 921.526 67.1345 Q927.383 67.1345 930.831 62.5652 Q934.279 57.9545 934.279 49.6883 Q934.279 42.2945 930.748 37.7252 Q927.259 33.1145 921.443 33.1145 Q915.753 33.1145 912.263 37.6422 Q908.774 42.1698 908.774 50.6022 Z" fill="#000000" fill-rule="nonzero" fill-opacity="1" /><path clip-path="url(#clip070)" d="M959.95 72.576 L952.265 72.576 L952.265 27.6314 L959.95 27.6314 L959.95 72.576 M951.642 15.7098 Q951.642 13.8406 952.763 12.5529 Q953.926 11.2652 956.17 11.2652 Q958.413 11.2652 959.576 12.5529 Q960.739 13.8406 960.739 15.7098 Q960.739 17.5791 959.576 18.8252 Q958.413 20.0714 956.17 20.0714 Q953.926 20.0714 952.763 18.8252 Q951.642 17.5791 951.642 15.7098 Z" fill="#000000" fill-rule="nonzero" fill-opacity="1" /><path clip-path="url(#clip070)" d="M979.514 27.6314 L979.763 33.2806 Q984.914 26.8006 993.222 26.8006 Q1007.47 26.8006 1007.59 42.876 L1007.59 72.576 L999.91 72.576 L999.91 42.8345 Q999.868 37.9745 997.666 35.6483 Q995.506 33.3222 990.896 33.3222 Q987.157 33.3222 984.333 35.316 Q981.508 37.3098 979.93 40.5498 L979.93 72.576 L972.245 72.576 L972.245 27.6314 L979.514 27.6314 Z" fill="#000000" fill-rule="nonzero" fill-opacity="1" /><path clip-path="url(#clip070)" d="M1029.61 16.7483 L1029.61 27.6314 L1038 27.6314 L1038 33.5714 L1029.61 33.5714 L1029.61 61.4437 Q1029.61 64.1437 1030.73 65.5145 Q1031.85 66.8437 1034.55 66.8437 Q1035.88 66.8437 1038.21 66.3452 L1038.21 72.576 Q1035.18 73.4068 1032.31 73.4068 Q1027.16 73.4068 1024.54 70.2914 Q1021.92 67.176 1021.92 61.4437 L1021.92 33.5714 L1013.74 33.5714 L1013.74 27.6314 L1021.92 27.6314 L1021.92 16.7483 L1029.61 16.7483 Z" fill="#000000" fill-rule="nonzero" fill-opacity="1" /><path clip-path="url(#clip070)" d="M1102.63 56.7914 L1077.3 56.7914 L1071.6 72.576 L1063.38 72.576 L1086.48 12.096 L1093.45 12.096 L1116.59 72.576 L1108.41 72.576 L1102.63 56.7914 M1079.7 50.2283 L1100.27 50.2283 L1089.96 21.9406 L1079.7 50.2283 Z" fill="#000000" fill-rule="nonzero" fill-opacity="1" /><path clip-path="url(#clip070)" d="M1130.8 27.6314 L1131.05 33.2806 Q1136.2 26.8006 1144.5 26.8006 Q1158.75 26.8006 1158.88 42.876 L1158.88 72.576 L1151.19 72.576 L1151.19 42.8345 Q1151.15 37.9745 1148.95 35.6483 Q1146.79 33.3222 1142.18 33.3222 Q1138.44 33.3222 1135.62 35.316 Q1132.79 37.3098 1131.21 40.5498 L1131.21 72.576 L1123.53 72.576 L1123.53 27.6314 L1130.8 27.6314 Z" fill="#000000" fill-rule="nonzero" fill-opacity="1" /><path clip-path="url(#clip070)" d="M1168.64 49.7298 Q1168.64 39.2206 1173.5 33.0314 Q1178.36 26.8006 1186.38 26.8006 Q1194.6 26.8006 1199.21 32.616 L1199.58 27.6314 L1206.6 27.6314 L1206.6 71.496 Q1206.6 80.2191 1201.41 85.2452 Q1196.26 90.2714 1187.54 90.2714 Q1182.68 90.2714 1178.03 88.1945 Q1173.37 86.1175 1170.92 82.5037 L1174.91 77.8929 Q1179.85 83.9991 1187 83.9991 Q1192.61 83.9991 1195.72 80.8422 Q1198.88 77.6852 1198.88 71.9529 L1198.88 68.0898 Q1194.27 73.4068 1186.29 73.4068 Q1178.4 73.4068 1173.5 67.0514 Q1168.64 60.696 1168.64 49.7298 M1176.36 50.6022 Q1176.36 58.2037 1179.48 62.5652 Q1182.6 66.8852 1188.2 66.8852 Q1195.47 66.8852 1198.88 60.2806 L1198.88 39.7606 Q1195.35 33.3222 1188.29 33.3222 Q1182.68 33.3222 1179.52 37.6837 Q1176.36 42.0452 1176.36 50.6022 Z" fill="#000000" fill-rule="nonzero" fill-opacity="1" /><path clip-path="url(#clip070)" d="M1226.54 72.576 L1218.86 72.576 L1218.86 8.77292 L1226.54 8.77292 L1226.54 72.576 Z" fill="#000000" fill-rule="nonzero" fill-opacity="1" /><path clip-path="url(#clip070)" d="M1257.49 73.4068 Q1248.35 73.4068 1242.62 67.4252 Q1236.89 61.4022 1236.89 51.3498 L1236.89 49.9375 Q1236.89 43.2498 1239.42 38.016 Q1242 32.7406 1246.56 29.7914 Q1251.18 26.8006 1256.53 26.8006 Q1265.3 26.8006 1270.16 32.5745 Q1275.02 38.3483 1275.02 49.1068 L1275.02 52.3052 L1244.57 52.3052 Q1244.74 58.9514 1248.43 63.0637 Q1252.17 67.1345 1257.9 67.1345 Q1261.98 67.1345 1264.8 65.4729 Q1267.62 63.8114 1269.74 61.0698 L1274.44 64.7252 Q1268.79 73.4068 1257.49 73.4068 M1256.53 33.1145 Q1251.88 33.1145 1248.72 36.5206 Q1245.57 39.8852 1244.82 45.9914 L1267.33 45.9914 L1267.33 45.4098 Q1267 39.5529 1264.18 36.3545 Q1261.35 33.1145 1256.53 33.1145 Z" fill="#000000" fill-rule="nonzero" fill-opacity="1" /><path clip-path="url(#clip070)" d="M1310.08 60.6545 Q1310.08 57.5391 1307.71 55.836 Q1305.38 54.0914 1299.53 52.8452 Q1293.71 51.5991 1290.26 49.8545 Q1286.86 48.1098 1285.2 45.7006 Q1283.58 43.2914 1283.58 39.9683 Q1283.58 34.4437 1288.23 30.6222 Q1292.92 26.8006 1300.19 26.8006 Q1307.83 26.8006 1312.57 30.7468 Q1317.35 34.6929 1317.35 40.8406 L1309.62 40.8406 Q1309.62 37.6837 1306.92 35.3991 Q1304.26 33.1145 1300.19 33.1145 Q1296 33.1145 1293.63 34.9422 Q1291.26 36.7698 1291.26 39.7191 Q1291.26 42.5022 1293.46 43.9145 Q1295.66 45.3268 1301.4 46.6145 Q1307.17 47.9022 1310.74 49.6883 Q1314.31 51.4745 1316.02 54.0083 Q1317.76 56.5006 1317.76 60.1145 Q1317.76 66.1375 1312.94 69.7929 Q1308.12 73.4068 1300.44 73.4068 Q1295.04 73.4068 1290.89 71.496 Q1286.73 69.5852 1284.36 66.1791 Q1282.04 62.7314 1282.04 58.7437 L1289.72 58.7437 Q1289.93 62.6068 1292.8 64.8914 Q1295.7 67.1345 1300.44 67.1345 Q1304.8 67.1345 1307.42 65.3898 Q1310.08 63.6037 1310.08 60.6545 Z" fill="#000000" fill-rule="nonzero" fill-opacity="1" /><path clip-path="url(#clip070)" d="M1396.56 44.2883 Q1396.56 53.1775 1393.57 59.8237 Q1390.58 66.4283 1385.1 69.9175 Q1379.61 73.4068 1372.3 73.4068 Q1365.16 73.4068 1359.63 69.9175 Q1354.11 66.3868 1351.03 59.9068 Q1348 53.3852 1347.92 44.8283 L1347.92 40.4668 Q1347.92 31.7437 1350.95 25.056 Q1353.98 18.3683 1359.51 14.8375 Q1365.07 11.2652 1372.22 11.2652 Q1379.49 11.2652 1385.01 14.796 Q1390.58 18.2852 1393.57 24.9729 Q1396.56 31.6191 1396.56 40.4668 L1396.56 44.2883 M1388.63 40.3837 Q1388.63 29.6252 1384.31 23.8929 Q1379.99 18.1191 1372.22 18.1191 Q1364.66 18.1191 1360.3 23.8929 Q1355.98 29.6252 1355.85 39.8437 L1355.85 44.2883 Q1355.85 54.7145 1360.21 60.696 Q1364.62 66.636 1372.3 66.636 Q1380.03 66.636 1384.26 61.0283 Q1388.5 55.3791 1388.63 44.8698 L1388.63 40.3837 Z" fill="#000000" fill-rule="nonzero" fill-opacity="1" /><path clip-path="url(#clip070)" d="M1422.15 62.1498 L1433.28 27.6314 L1441.13 27.6314 L1425.01 72.576 L1419.16 72.576 L1402.87 27.6314 L1410.72 27.6314 L1422.15 62.1498 Z" fill="#000000" fill-rule="nonzero" fill-opacity="1" /><path clip-path="url(#clip070)" d="M1467.18 73.4068 Q1458.04 73.4068 1452.3 67.4252 Q1446.57 61.4022 1446.57 51.3498 L1446.57 49.9375 Q1446.57 43.2498 1449.11 38.016 Q1451.68 32.7406 1456.25 29.7914 Q1460.86 26.8006 1466.22 26.8006 Q1474.98 26.8006 1479.84 32.5745 Q1484.7 38.3483 1484.7 49.1068 L1484.7 52.3052 L1454.26 52.3052 Q1454.42 58.9514 1458.12 63.0637 Q1461.86 67.1345 1467.59 67.1345 Q1471.66 67.1345 1474.49 65.4729 Q1477.31 63.8114 1479.43 61.0698 L1484.12 64.7252 Q1478.47 73.4068 1467.18 73.4068 M1466.22 33.1145 Q1461.57 33.1145 1458.41 36.5206 Q1455.25 39.8852 1454.51 45.9914 L1477.02 45.9914 L1477.02 45.4098 Q1476.69 39.5529 1473.86 36.3545 Q1471.04 33.1145 1466.22 33.1145 Z" fill="#000000" fill-rule="nonzero" fill-opacity="1" /><path clip-path="url(#clip070)" d="M1515.32 34.5268 Q1513.57 34.236 1511.54 34.236 Q1503.98 34.236 1501.28 40.6745 L1501.28 72.576 L1493.59 72.576 L1493.59 27.6314 L1501.07 27.6314 L1501.2 32.8237 Q1504.98 26.8006 1511.91 26.8006 Q1514.16 26.8006 1515.32 27.3822 L1515.32 34.5268 Z" fill="#000000" fill-rule="nonzero" fill-opacity="1" /><path clip-path="url(#clip070)" d="M1586.43 18.6591 L1566.99 18.6591 L1566.99 72.576 L1559.06 72.576 L1559.06 18.6591 L1539.66 18.6591 L1539.66 12.096 L1586.43 12.096 L1586.43 18.6591 Z" fill="#000000" fill-rule="nonzero" fill-opacity="1" /><path clip-path="url(#clip070)" d="M1602.55 72.576 L1594.86 72.576 L1594.86 27.6314 L1602.55 27.6314 L1602.55 72.576 M1594.24 15.7098 Q1594.24 13.8406 1595.36 12.5529 Q1596.53 11.2652 1598.77 11.2652 Q1601.01 11.2652 1602.18 12.5529 Q1603.34 13.8406 1603.34 15.7098 Q1603.34 17.5791 1602.18 18.8252 Q1601.01 20.0714 1598.77 20.0714 Q1596.53 20.0714 1595.36 18.8252 Q1594.24 17.5791 1594.24 15.7098 Z" fill="#000000" fill-rule="nonzero" fill-opacity="1" /><path clip-path="url(#clip070)" d="M1622.07 27.6314 L1622.28 32.616 Q1627.22 26.8006 1635.61 26.8006 Q1645.04 26.8006 1648.45 34.0283 Q1650.69 30.7883 1654.26 28.7945 Q1657.88 26.8006 1662.78 26.8006 Q1677.57 26.8006 1677.82 42.4606 L1677.82 72.576 L1670.13 72.576 L1670.13 42.9175 Q1670.13 38.0991 1667.93 35.7314 Q1665.73 33.3222 1660.54 33.3222 Q1656.26 33.3222 1653.43 35.8975 Q1650.61 38.4314 1650.15 42.7514 L1650.15 72.576 L1642.43 72.576 L1642.43 43.1252 Q1642.43 33.3222 1632.83 33.3222 Q1625.27 33.3222 1622.49 39.7606 L1622.49 72.576 L1614.8 72.576 L1614.8 27.6314 L1622.07 27.6314 Z" fill="#000000" fill-rule="nonzero" fill-opacity="1" /><path clip-path="url(#clip070)" d="M1708.06 73.4068 Q1698.92 73.4068 1693.19 67.4252 Q1687.45 61.4022 1687.45 51.3498 L1687.45 49.9375 Q1687.45 43.2498 1689.99 38.016 Q1692.56 32.7406 1697.13 29.7914 Q1701.74 26.8006 1707.1 26.8006 Q1715.87 26.8006 1720.73 32.5745 Q1725.59 38.3483 1725.59 49.1068 L1725.59 52.3052 L1695.14 52.3052 Q1695.3 58.9514 1699 63.0637 Q1702.74 67.1345 1708.47 67.1345 Q1712.54 67.1345 1715.37 65.4729 Q1718.19 63.8114 1720.31 61.0698 L1725 64.7252 Q1719.36 73.4068 1708.06 73.4068 M1707.1 33.1145 Q1702.45 33.1145 1699.29 36.5206 Q1696.14 39.8852 1695.39 45.9914 L1717.9 45.9914 L1717.9 45.4098 Q1717.57 39.5529 1714.74 36.3545 Q1711.92 33.1145 1707.1 33.1145 Z" fill="#000000" fill-rule="nonzero" fill-opacity="1" /><polyline clip-path="url(#clip072)" style="stroke:#ff4747; stroke-linecap:round; stroke-linejoin:round; stroke-width:8; stroke-opacity:1; fill:none" points="285.571,1128.67 293.763,1096.59 301.954,1057.4 310.146,1028.68 318.338,1010.94 326.53,1000.91 334.721,995.169 342.913,992.186 351.105,994.963 359.297,986.879 367.488,958.787 375.68,921.055 383.872,878.45 392.064,840.216 400.255,811.767 408.447,790.534 416.639,798.051 424.831,830.777 433.022,878.412 441.214,936.543 449.406,999.18 457.597,1039.39 465.789,1045.76 473.981,1018.7 482.173,1007.94 490.364,992.402 498.556,1001.19 506.748,1040.91 514.94,1108.36 523.131,1184.8 531.323,1223.4 539.515,1239.79 547.707,1253.07 555.898,1236.65 564.09,1225.46 572.282,1221.58 580.474,1254.91 588.665,1323.66 596.857,1344.34 605.049,1386.4 613.24,1377.83 621.432,1351.06 629.624,1323.85 637.816,1309 646.007,1310.87 654.199,1317.78 662.391,1304.92 670.583,1318.19 678.774,1305.75 686.966,1285.05 695.158,1279.33 703.35,1274.35 711.541,1275.67 719.733,1276.98 727.925,1285.77 736.117,1307.06 744.308,1338.58 752.5,1342.23 760.692,1338.44 768.883,1316.55 777.075,1300.39 785.267,1261.71 793.459,1218.97 801.65,1180.37 809.842,1134.45 818.034,1107.91 826.226,1106.71 834.417,1143.96 842.609,1197.79 850.801,1222.29 858.993,1213.39 867.184,1206.28 875.376,1183.5 883.568,1167.78 891.76,1165 899.951,1186.53 908.143,1203.25 916.335,1194.25 924.526,1165.05 932.718,1150.85 940.91,1138.06 949.102,1125.57 957.293,1118.13 965.485,1117.03 973.677,1118.69 981.869,1126.78 990.06,1135.25 998.252,1138.54 1006.44,1148.63 1014.64,1157.38 1022.83,1169.34 1031.02,1154.48 1039.21,1124.08 1047.4,1094.05 1055.59,1057.06 1063.79,1011.37 1071.98,974.812 1080.17,956.535 1088.36,937.989 1096.55,918.774 1104.74,940.117 1112.94,990.583 1121.13,1057.26 1129.32,1141.98 1137.51,1236.93 1145.7,1312.11 1153.9,1316.96 1162.09,1277.75 1170.28,1228.91 1178.47,1165.02 1186.66,1114.57 1194.85,1072.24 1203.05,1056.63 1211.24,1051.11 1219.43,1042.01 1227.62,1014.26 1235.81,1012.47 1244,1014.87 1252.2,1063.15 1260.39,1100.7 1268.58,1158.95 1276.77,1216.05 1284.96,1274.04 1293.15,1303.53 1301.35,1314.1 1309.54,1302.8 1317.73,1298.91 1325.92,1269.69 1334.11,1248.31 1342.31,1222.1 1350.5,1205.38 1358.69,1204.31 1366.88,1204.66 1375.07,1213.96 1383.26,1213.63 1391.46,1203.62 1399.65,1203.7 1407.84,1218.12 1416.03,1185.78 1424.22,1166.55 1432.41,1155.94 1440.61,1150.15 1448.8,1145.35 1456.99,1119.73 1465.18,1090.22 1473.37,1045.69 1481.56,977.308 1489.76,956.615 1497.95,986.129 1506.14,1052.11 1514.33,1124.73 1522.52,1166.1 1530.72,1173.29 1538.91,1140.67 1547.1,1105.79 1555.29,1074.32 1563.48,1059.16 1571.67,1065.75 1579.87,1076.49 1588.06,1085.69 1596.25,1087.3 1604.44,1072.84 1612.63,1054.73 1620.82,1045.77 1629.02,1035.49 1637.21,1014.07 1645.4,989.609 1653.59,958.574 1661.78,917.497 1669.97,873.231 1678.17,836.373 1686.36,820.433 1694.55,812.148 1702.74,798.126 1710.93,795.984 1719.13,788.649 1727.32,798.631 1735.51,834.909 1743.7,887.04 1751.89,962.194 1760.08,1025.07 1768.28,1064.85 1776.47,1077.43 1784.66,1047.38 1792.85,1017.78 1801.04,993.519 1809.23,993.263 1817.43,1011.73 1825.62,1022.04 1833.81,1041.11 1842,1078.44 1850.19,1118.21 1858.38,1134.56 1866.58,1128.5 1874.77,1108.89 1882.96,1068.76 1891.15,1022.59 1899.34,1015.48 1907.53,1053.34 1915.73,1117.68 1923.92,1154.06 1932.11,1208.34 1940.3,1230.24 1948.49,1227.07 1956.69,1213.25 1964.88,1203.28 1973.07,1194.63 1981.26,1195.35 1989.45,1186.1 1997.64,1197.02 2005.84,1189.73 2014.03,1177.09 2022.22,1160.67 2030.41,1157.39 2038.6,1159.14 2046.79,1152.93 2054.99,1131.66 2063.18,1095.63 2071.37,1042.83 2079.56,980.83 2087.75,915.366 2095.94,898.32 2104.14,897.704 2112.33,895.776 2120.52,935.061 2128.71,982.264 2136.9,1022.93 2145.1,1056.89 2153.29,1067.16 2161.48,1081.73 2169.67,1080.89 2177.86,1071.91 2186.05,1091.56 2194.25,1111 2202.44,1132.45 2210.63,1160.27 2218.82,1180.99 2227.01,1191.41 2235.2,1198.26 2243.4,1195.2 2251.59,1182.01 2259.78,1173.14 2267.97,1171.23 2276.16,1172.43 2284.35,1186.69 2292.55,1212.3 "/>
<polyline clip-path="url(#clip072)" style="stroke:#00bcb4; stroke-linecap:round; stroke-linejoin:round; stroke-width:8; stroke-opacity:1; fill:none" points="285.571,531.612 293.763,552.538 301.954,554.852 310.146,553.182 318.338,537.438 326.53,523.052 334.721,521.32 342.913,519.632 351.105,528.739 359.297,527.34 367.488,508.442 375.68,483.025 383.872,451.969 392.064,423.996 400.255,401.796 408.447,381.433 416.639,387.387 424.831,409.967 433.022,438.903 441.214,469.972 449.406,510.294 457.597,525.733 465.789,514.06 473.981,496.098 482.173,470.538 490.364,426.179 498.556,399.093 506.748,410.712 514.94,468.409 523.131,532.383 531.323,594.576 539.515,632.896 547.707,619.963 555.898,559.868 564.09,498.38 572.282,472.519 580.474,537.329 588.665,653.137 596.857,774.274 605.049,884.693 613.24,982.037 621.432,1020.53 629.624,1008.48 637.816,980.324 646.007,968.753 654.199,940.539 662.391,912.26 670.583,928.111 678.774,983.81 686.966,1022.06 695.158,1025.16 703.35,999.062 711.541,943.928 719.733,875.356 727.925,812.432 736.117,777.446 744.308,767.654 752.5,760.037 760.692,740.437 768.883,728.99 777.075,725.104 785.267,711.381 793.459,687.666 801.65,668.678 809.842,626.831 818.034,607.262 826.226,621.192 834.417,678.602 842.609,746.439 850.801,779.749 858.993,774.092 867.184,777.222 875.376,752.939 883.568,739.458 891.76,732.624 899.951,744.736 908.143,738.939 916.335,692.991 924.526,621.347 932.718,573.528 940.91,538.423 949.102,510.116 957.293,492.016 965.485,481.343 973.677,471.124 981.869,442.935 990.06,411.406 998.252,389.003 1006.44,380.13 1014.64,377.444 1022.83,401.17 1031.02,387.16 1039.21,357.904 1047.4,307.077 1055.59,245.68 1063.79,195.448 1071.98,163.519 1080.17,160.256 1088.36,184.399 1096.55,203.214 1104.74,264.819 1112.94,340.007 1121.13,413.8 1129.32,479.177 1137.51,527.293 1145.7,560.305 1153.9,544.798 1162.09,509.188 1170.28,487.241 1178.47,478.809 1186.66,478.732 1194.85,497.417 1203.05,498.299 1211.24,488.815 1219.43,477.849 1227.62,461.084 1235.81,463.51 1244,475.884 1252.2,553.601 1260.39,666.514 1268.58,763.15 1276.77,846.576 1284.96,940.51 1293.15,998.212 1301.35,1020.31 1309.54,1016.77 1317.73,1045.16 1325.92,1000.77 1334.11,937.614 1342.31,856.142 1350.5,788.381 1358.69,731.427 1366.88,686.691 1375.07,685.058 1383.26,678.16 1391.46,613.696 1399.65,588.512 1407.84,536.131 1416.03,478.54 1424.22,465.736 1432.41,482.947 1440.61,529.869 1448.8,580.786 1456.99,603.888 1465.18,636.896 1473.37,590.146 1481.56,539.538 1489.76,530.148 1497.95,555.527 1506.14,605.645 1514.33,666.135 1522.52,703.191 1530.72,725.286 1538.91,706.801 1547.1,681.421 1555.29,636.75 1563.48,595.217 1571.67,558.858 1579.87,531.678 1588.06,527.625 1596.25,493.184 1604.44,458.318 1612.63,405.314 1620.82,367.713 1629.02,312.394 1637.21,264.82 1645.4,242.713 1653.59,243.727 1661.78,225.042 1669.97,230.533 1678.17,229.957 1686.36,252.372 1694.55,249.604 1702.74,234.5 1710.93,224.07 1719.13,215.941 1727.32,221.455 1735.51,254.74 1743.7,304.712 1751.89,384.844 1760.08,442.958 1768.28,467.358 1776.47,462.988 1784.66,431.071 1792.85,400.218 1801.04,361.915 1809.23,366.828 1817.43,404.196 1825.62,431.686 1833.81,464.349 1842,456.828 1850.19,425.29 1858.38,404.755 1866.58,382.97 1874.77,401.422 1882.96,428.457 1891.15,477.149 1899.34,568.121 1907.53,652.92 1915.73,734.958 1923.92,803.279 1932.11,893.401 1940.3,939.79 1948.49,918.472 1956.69,867.878 1964.88,806.414 1973.07,745.169 1981.26,709.231 1989.45,655.076 1997.64,649.755 2005.84,630.19 2014.03,613.248 2022.22,576.745 2030.41,525.47 2038.6,496.644 2046.79,500.839 2054.99,503.989 2063.18,503.963 2071.37,505.582 2079.56,511.732 2087.75,477.827 2095.94,456.717 2104.14,445.73 2112.33,428.702 2120.52,456.251 2128.71,484.285 2136.9,505.67 2145.1,529.113 2153.29,542.448 2161.48,570.14 2169.67,574.592 2177.86,564.238 2186.05,574.62 2194.25,572.689 2202.44,554.701 2210.63,549.487 2218.82,544.587 2227.01,541.954 2235.2,527.322 2243.4,516.687 2251.59,517.92 2259.78,506.236 2267.97,480.305 2276.16,447.455 2284.35,383.211 2292.55,301.731 "/>
<polyline clip-path="url(#clip072)" style="stroke:#ffb547; stroke-linecap:round; stroke-linejoin:round; stroke-width:8; stroke-opacity:1; fill:none" points="285.571,631.14 293.763,709.646 301.954,753.234 310.146,785.885 318.338,788.053 326.53,783.114 334.721,797.582 342.913,789.864 351.105,810.232 359.297,818.134 367.488,821.974 375.68,817.003 383.872,811.79 392.064,800.6 400.255,791.187 408.447,774.663 416.639,769.28 424.831,765.78 433.022,748.171 441.214,724.573 449.406,693.309 457.597,661.108 465.789,634.93 473.981,629.057 482.173,600.981 490.364,580.481 498.556,551.982 506.748,528.296 514.94,500.119 523.131,463.357 531.323,431.711 539.515,421.22 547.707,360.379 555.898,313.009 564.09,351.957 572.282,385.57 580.474,391.469 588.665,363.717 596.857,334.687 605.049,322.137 613.24,296.397 621.432,268.646 629.624,324.033 637.816,362.383 646.007,367.581 654.199,348.215 662.391,324.065 670.583,301.075 678.774,279.635 686.966,231.621 695.158,208.784 703.35,236.711 711.541,255.573 719.733,282.129 727.925,313.34 736.117,342.9 744.308,366.361 752.5,389.993 760.692,419.147 768.883,474.215 777.075,514.622 785.267,546.269 793.459,571.592 801.65,591.214 809.842,606.121 818.034,625.58 826.226,631.195 834.417,648.41 842.609,672.16 850.801,681.419 858.993,678.75 867.184,686.434 875.376,697.118 883.568,712.762 891.76,723.6 899.951,744.643 908.143,755.623 916.335,742.768 924.526,723.844 932.718,714.093 940.91,691.33 949.102,670.604 957.293,648.912 965.485,626.13 973.677,604.571 981.869,590.386 990.06,585.07 998.252,590.218 1006.44,592.541 1014.64,601.491 1022.83,609.832 1031.02,630.339 1039.21,653.511 1047.4,656.916 1055.59,667.864 1063.79,739.994 1071.98,784.396 1080.17,819.319 1088.36,831.03 1096.55,828.53 1104.74,801.688 1112.94,753.142 1121.13,741.432 1129.32,762.117 1137.51,730.503 1145.7,679.578 1153.9,615.167 1162.09,556.143 1170.28,509.772 1178.47,467.852 1186.66,462.189 1194.85,445.948 1203.05,438.217 1211.24,404.165 1219.43,360.349 1227.62,313.85 1235.81,275.046 1244,233.786 1252.2,209.168 1260.39,187.851 1268.58,212.871 1276.77,223.529 1284.96,233.807 1293.15,252.432 1301.35,285.144 1309.54,322.373 1317.73,341.114 1325.92,352.615 1334.11,353.771 1342.31,317.378 1350.5,278.125 1358.69,250.534 1366.88,240.052 1375.07,261.637 1383.26,299.648 1391.46,351.752 1399.65,389.768 1407.84,416.942 1416.03,455.269 1424.22,499.154 1432.41,547.462 1440.61,587.838 1448.8,616.916 1456.99,642.871 1465.18,658.234 1473.37,625.006 1481.56,613.838 1489.76,613.403 1497.95,628.531 1506.14,648.926 1514.33,660.446 1522.52,680.665 1530.72,698.092 1538.91,672.723 1547.1,677.882 1555.29,681.319 1563.48,690.647 1571.67,703.16 1579.87,686.221 1588.06,667.989 1596.25,646.284 1604.44,613.706 1612.63,595.11 1620.82,581.682 1629.02,579.866 1637.21,588.683 1645.4,584.595 1653.59,607.71 1661.78,649.94 1669.97,680.181 1678.17,706.797 1686.36,738.609 1694.55,768.615 1702.74,781.262 1710.93,765.343 1719.13,753.063 1727.32,746.846 1735.51,734.969 1743.7,727.674 1751.89,728.18 1760.08,721.779 1768.28,708.133 1776.47,675.591 1784.66,626.94 1792.85,572.668 1801.04,554.064 1809.23,543.443 1817.43,519.73 1825.62,491.101 1833.81,483.291 1842,476.258 1850.19,426.926 1858.38,351.169 1866.58,304.083 1874.77,257.236 1882.96,200.337 1891.15,162.187 1899.34,173.272 1907.53,213.53 1915.73,229.708 1923.92,244.638 1932.11,262.472 1940.3,266.486 1948.49,246.737 1956.69,219.809 1964.88,205.606 1973.07,207.701 1981.26,209.385 1989.45,227.746 1997.64,253.16 2005.84,283.023 2014.03,313.405 2022.22,334.766 2030.41,362.799 2038.6,387.436 2046.79,421.756 2054.99,473.541 2063.18,526.674 2071.37,570.933 2079.56,604.075 2087.75,619.429 2095.94,641.061 2104.14,652.65 2112.33,676.035 2120.52,701.207 2128.71,714.414 2136.9,716.05 2145.1,720.12 2153.29,734.502 2161.48,754.154 2169.67,753.343 2177.86,739.785 2186.05,719.229 2194.25,681.817 2202.44,642.882 2210.63,611.218 2218.82,597.363 2227.01,581.138 2235.2,560.486 2243.4,558.016 2251.59,568.489 2259.78,557.96 2267.97,549.857 2276.16,562.799 2284.35,587.487 2292.55,601.516 "/>
<path clip-path="url(#clip070)" d="M296.275 374.156 L769.591 374.156 L769.591 166.796 L296.275 166.796  Z" fill="#ffffff" fill-rule="evenodd" fill-opacity="1"/>
<polyline clip-path="url(#clip070)" style="stroke:#000000; stroke-linecap:round; stroke-linejoin:round; stroke-width:4; stroke-opacity:1; fill:none" points="296.275,374.156 769.591,374.156 769.591,166.796 296.275,166.796 296.275,374.156 "/>
<polyline clip-path="url(#clip070)" style="stroke:#ff4747; stroke-linecap:round; stroke-linejoin:round; stroke-width:8; stroke-opacity:1; fill:none" points="319.913,218.636 461.739,218.636 "/>
<path clip-path="url(#clip070)" d="M494.159 219.846 L489.934 224.237 L489.934 235.916 L485.377 235.916 L485.377 201.356 L489.934 201.356 L489.934 218.446 L505.291 201.356 L510.798 201.356 L497.197 216.618 L511.866 235.916 L506.407 235.916 L494.159 219.846 Z" fill="#000000" fill-rule="nonzero" fill-opacity="1" /><path clip-path="url(#clip070)" d="M519.319 210.233 L519.462 213.461 Q522.405 209.758 527.152 209.758 Q535.294 209.758 535.365 218.944 L535.365 235.916 L530.974 235.916 L530.974 218.921 Q530.95 216.143 529.692 214.814 Q528.458 213.485 525.823 213.485 Q523.687 213.485 522.073 214.624 Q520.459 215.764 519.557 217.615 L519.557 235.916 L515.166 235.916 L515.166 210.233 L519.319 210.233 Z" fill="#000000" fill-rule="nonzero" fill-opacity="1" /><path clip-path="url(#clip070)" d="M552.645 236.39 Q547.423 236.39 544.148 232.972 Q540.872 229.531 540.872 223.786 L540.872 222.979 Q540.872 219.158 542.32 216.167 Q543.791 213.153 546.402 211.467 Q549.037 209.758 552.099 209.758 Q557.108 209.758 559.885 213.058 Q562.662 216.357 562.662 222.505 L562.662 224.332 L545.263 224.332 Q545.358 228.13 547.471 230.48 Q549.607 232.806 552.882 232.806 Q555.209 232.806 556.823 231.857 Q558.437 230.907 559.647 229.341 L562.33 231.43 Q559.101 236.39 552.645 236.39 M552.099 213.366 Q549.441 213.366 547.637 215.313 Q545.833 217.235 545.406 220.725 L558.271 220.725 L558.271 220.392 Q558.081 217.045 556.467 215.218 Q554.853 213.366 552.099 213.366 Z" fill="#000000" fill-rule="nonzero" fill-opacity="1" /><path clip-path="url(#clip070)" d="M578.399 236.39 Q573.177 236.39 569.901 232.972 Q566.626 229.531 566.626 223.786 L566.626 222.979 Q566.626 219.158 568.074 216.167 Q569.545 213.153 572.156 211.467 Q574.791 209.758 577.853 209.758 Q582.861 209.758 585.639 213.058 Q588.416 216.357 588.416 222.505 L588.416 224.332 L571.017 224.332 Q571.112 228.13 573.224 230.48 Q575.361 232.806 578.636 232.806 Q580.962 232.806 582.577 231.857 Q584.191 230.907 585.401 229.341 L588.083 231.43 Q584.855 236.39 578.399 236.39 M577.853 213.366 Q575.195 213.366 573.391 215.313 Q571.587 217.235 571.159 220.725 L584.024 220.725 L584.024 220.392 Q583.835 217.045 582.22 215.218 Q580.606 213.366 577.853 213.366 Z" fill="#000000" fill-rule="nonzero" fill-opacity="1" /><path clip-path="url(#clip070)" d="M625.302 226.896 L610.823 226.896 L607.571 235.916 L602.871 235.916 L616.068 201.356 L620.056 201.356 L633.277 235.916 L628.601 235.916 L625.302 226.896 M612.199 223.146 L623.949 223.146 L618.062 206.981 L612.199 223.146 Z" fill="#000000" fill-rule="nonzero" fill-opacity="1" /><path clip-path="url(#clip070)" d="M641.395 210.233 L641.537 213.461 Q644.481 209.758 649.228 209.758 Q657.37 209.758 657.441 218.944 L657.441 235.916 L653.05 235.916 L653.05 218.921 Q653.026 216.143 651.768 214.814 Q650.533 213.485 647.899 213.485 Q645.762 213.485 644.148 214.624 Q642.534 215.764 641.632 217.615 L641.632 235.916 L637.241 235.916 L637.241 210.233 L641.395 210.233 Z" fill="#000000" fill-rule="nonzero" fill-opacity="1" /><path clip-path="url(#clip070)" d="M663.019 222.861 Q663.019 216.855 665.796 213.319 Q668.573 209.758 673.154 209.758 Q677.854 209.758 680.489 213.081 L680.702 210.233 L684.714 210.233 L684.714 235.299 Q684.714 240.283 681.747 243.155 Q678.803 246.027 673.819 246.027 Q671.042 246.027 668.383 244.841 Q665.725 243.654 664.324 241.589 L666.603 238.954 Q669.428 242.443 673.51 242.443 Q676.715 242.443 678.495 240.639 Q680.299 238.835 680.299 235.56 L680.299 233.352 Q677.664 236.39 673.107 236.39 Q668.597 236.39 665.796 232.759 Q663.019 229.127 663.019 222.861 M667.434 223.359 Q667.434 227.703 669.214 230.195 Q670.994 232.664 674.199 232.664 Q678.352 232.664 680.299 228.89 L680.299 217.164 Q678.281 213.485 674.246 213.485 Q671.042 213.485 669.238 215.977 Q667.434 218.47 667.434 223.359 Z" fill="#000000" fill-rule="nonzero" fill-opacity="1" /><path clip-path="url(#clip070)" d="M696.107 235.916 L691.716 235.916 L691.716 199.457 L696.107 199.457 L696.107 235.916 Z" fill="#000000" fill-rule="nonzero" fill-opacity="1" /><path clip-path="url(#clip070)" d="M713.791 236.39 Q708.569 236.39 705.293 232.972 Q702.017 229.531 702.017 223.786 L702.017 222.979 Q702.017 219.158 703.465 216.167 Q704.937 213.153 707.548 211.467 Q710.183 209.758 713.245 209.758 Q718.253 209.758 721.03 213.058 Q723.807 216.357 723.807 222.505 L723.807 224.332 L706.409 224.332 Q706.504 228.13 708.616 230.48 Q710.752 232.806 714.028 232.806 Q716.354 232.806 717.968 231.857 Q719.582 230.907 720.793 229.341 L723.475 231.43 Q720.247 236.39 713.791 236.39 M713.245 213.366 Q710.586 213.366 708.782 215.313 Q706.978 217.235 706.551 220.725 L719.416 220.725 L719.416 220.392 Q719.226 217.045 717.612 215.218 Q715.998 213.366 713.245 213.366 Z" fill="#000000" fill-rule="nonzero" fill-opacity="1" /><polyline clip-path="url(#clip070)" style="stroke:#00bcb4; stroke-linecap:round; stroke-linejoin:round; stroke-width:8; stroke-opacity:1; fill:none" points="319.913,270.476 461.739,270.476 "/>
<path clip-path="url(#clip070)" d="M511.937 287.756 L507.356 287.756 L507.356 271.781 L489.934 271.781 L489.934 287.756 L485.377 287.756 L485.377 253.196 L489.934 253.196 L489.934 268.055 L507.356 268.055 L507.356 253.196 L511.937 253.196 L511.937 287.756 Z" fill="#000000" fill-rule="nonzero" fill-opacity="1" /><path clip-path="url(#clip070)" d="M524.114 287.756 L519.723 287.756 L519.723 262.073 L524.114 262.073 L524.114 287.756 M519.367 255.261 Q519.367 254.193 520.008 253.457 Q520.672 252.721 521.954 252.721 Q523.236 252.721 523.9 253.457 Q524.565 254.193 524.565 255.261 Q524.565 256.329 523.9 257.041 Q523.236 257.753 521.954 257.753 Q520.672 257.753 520.008 257.041 Q519.367 256.329 519.367 255.261 Z" fill="#000000" fill-rule="nonzero" fill-opacity="1" /><path clip-path="url(#clip070)" d="M552.835 275.199 Q552.835 281.062 550.153 284.646 Q547.471 288.23 542.89 288.23 Q538.213 288.23 535.531 285.263 L535.531 297.63 L531.14 297.63 L531.14 262.073 L535.151 262.073 L535.365 264.921 Q538.047 261.598 542.818 261.598 Q547.447 261.598 550.129 265.088 Q552.835 268.577 552.835 274.796 L552.835 275.199 M548.444 274.701 Q548.444 270.357 546.592 267.841 Q544.741 265.325 541.513 265.325 Q537.525 265.325 535.531 268.862 L535.531 281.133 Q537.501 284.646 541.56 284.646 Q544.717 284.646 546.569 282.154 Q548.444 279.638 548.444 274.701 Z" fill="#000000" fill-rule="nonzero" fill-opacity="1" /><path clip-path="url(#clip070)" d="M590.22 278.736 L575.74 278.736 L572.489 287.756 L567.789 287.756 L580.986 253.196 L584.974 253.196 L598.195 287.756 L593.519 287.756 L590.22 278.736 M577.117 274.986 L588.867 274.986 L582.98 258.821 L577.117 274.986 Z" fill="#000000" fill-rule="nonzero" fill-opacity="1" /><path clip-path="url(#clip070)" d="M606.313 262.073 L606.455 265.301 Q609.399 261.598 614.146 261.598 Q622.287 261.598 622.359 270.784 L622.359 287.756 L617.967 287.756 L617.967 270.761 Q617.944 267.983 616.686 266.654 Q615.451 265.325 612.817 265.325 Q610.68 265.325 609.066 266.464 Q607.452 267.604 606.55 269.455 L606.55 287.756 L602.159 287.756 L602.159 262.073 L606.313 262.073 Z" fill="#000000" fill-rule="nonzero" fill-opacity="1" /><path clip-path="url(#clip070)" d="M627.937 274.701 Q627.937 268.695 630.714 265.159 Q633.491 261.598 638.072 261.598 Q642.772 261.598 645.406 264.921 L645.62 262.073 L649.631 262.073 L649.631 287.139 Q649.631 292.123 646.664 294.995 Q643.721 297.867 638.737 297.867 Q635.959 297.867 633.301 296.681 Q630.642 295.494 629.242 293.429 L631.521 290.794 Q634.345 294.283 638.428 294.283 Q641.632 294.283 643.413 292.479 Q645.217 290.675 645.217 287.4 L645.217 285.192 Q642.582 288.23 638.024 288.23 Q633.515 288.23 630.714 284.599 Q627.937 280.967 627.937 274.701 M632.351 275.199 Q632.351 279.543 634.132 282.035 Q635.912 284.504 639.116 284.504 Q643.27 284.504 645.217 280.73 L645.217 269.004 Q643.199 265.325 639.164 265.325 Q635.959 265.325 634.155 267.817 Q632.351 270.31 632.351 275.199 Z" fill="#000000" fill-rule="nonzero" fill-opacity="1" /><path clip-path="url(#clip070)" d="M661.025 287.756 L656.634 287.756 L656.634 251.297 L661.025 251.297 L661.025 287.756 Z" fill="#000000" fill-rule="nonzero" fill-opacity="1" /><path clip-path="url(#clip070)" d="M678.708 288.23 Q673.486 288.23 670.211 284.812 Q666.935 281.371 666.935 275.626 L666.935 274.819 Q666.935 270.998 668.383 268.007 Q669.855 264.993 672.466 263.307 Q675.1 261.598 678.162 261.598 Q683.171 261.598 685.948 264.898 Q688.725 268.197 688.725 274.345 L688.725 276.172 L671.326 276.172 Q671.421 279.97 673.534 282.32 Q675.67 284.646 678.946 284.646 Q681.272 284.646 682.886 283.697 Q684.5 282.747 685.711 281.181 L688.393 283.27 Q685.165 288.23 678.708 288.23 M678.162 265.206 Q675.504 265.206 673.7 267.153 Q671.896 269.075 671.469 272.565 L684.334 272.565 L684.334 272.232 Q684.144 268.885 682.53 267.058 Q680.916 265.206 678.162 265.206 Z" fill="#000000" fill-rule="nonzero" fill-opacity="1" /><polyline clip-path="url(#clip070)" style="stroke:#ffb547; stroke-linecap:round; stroke-linejoin:round; stroke-width:8; stroke-opacity:1; fill:none" points="319.913,322.316 461.739,322.316 "/>
<path clip-path="url(#clip070)" d="M504.911 323.621 L489.934 323.621 L489.934 335.869 L507.333 335.869 L507.333 339.596 L485.377 339.596 L485.377 305.036 L507.095 305.036 L507.095 308.786 L489.934 308.786 L489.934 319.895 L504.911 319.895 L504.911 323.621 Z" fill="#000000" fill-rule="nonzero" fill-opacity="1" /><path clip-path="url(#clip070)" d="M517.088 339.596 L512.697 339.596 L512.697 303.137 L517.088 303.137 L517.088 339.596 Z" fill="#000000" fill-rule="nonzero" fill-opacity="1" /><path clip-path="url(#clip070)" d="M545.857 327.039 Q545.857 332.926 543.151 336.51 Q540.445 340.07 535.887 340.07 Q531.021 340.07 528.363 336.629 L528.149 339.596 L524.114 339.596 L524.114 303.137 L528.505 303.137 L528.505 316.738 Q531.164 313.438 535.84 313.438 Q540.516 313.438 543.174 316.975 Q545.857 320.512 545.857 326.659 L545.857 327.039 M541.465 326.541 Q541.465 322.055 539.733 319.61 Q538 317.165 534.748 317.165 Q530.404 317.165 528.505 321.2 L528.505 332.309 Q530.523 336.344 534.795 336.344 Q537.952 336.344 539.709 333.899 Q541.465 331.454 541.465 326.541 Z" fill="#000000" fill-rule="nonzero" fill-opacity="1" /><path clip-path="url(#clip070)" d="M550.224 326.517 Q550.224 322.743 551.696 319.728 Q553.191 316.714 555.826 315.076 Q558.484 313.438 561.879 313.438 Q567.124 313.438 570.352 317.07 Q573.604 320.702 573.604 326.731 L573.604 327.039 Q573.604 330.79 572.156 333.78 Q570.732 336.747 568.05 338.409 Q565.391 340.07 561.926 340.07 Q556.704 340.07 553.452 336.439 Q550.224 332.807 550.224 326.826 L550.224 326.517 M554.639 327.039 Q554.639 331.312 556.609 333.899 Q558.603 336.486 561.926 336.486 Q565.273 336.486 567.243 333.875 Q569.213 331.241 569.213 326.517 Q569.213 322.292 567.195 319.681 Q565.202 317.046 561.879 317.046 Q558.627 317.046 556.633 319.634 Q554.639 322.221 554.639 327.039 Z" fill="#000000" fill-rule="nonzero" fill-opacity="1" /><path clip-path="url(#clip070)" d="M601.85 333.543 L606.788 313.913 L611.179 313.913 L603.702 339.596 L600.141 339.596 L593.899 320.132 L587.822 339.596 L584.262 339.596 L576.809 313.913 L581.176 313.913 L586.232 333.139 L592.213 313.913 L595.75 313.913 L601.85 333.543 Z" fill="#000000" fill-rule="nonzero" fill-opacity="1" /><path clip-path="url(#clip070)" d="M647.448 330.576 L632.969 330.576 L629.717 339.596 L625.017 339.596 L638.214 305.036 L642.202 305.036 L655.423 339.596 L650.747 339.596 L647.448 330.576 M634.345 326.826 L646.095 326.826 L640.208 310.661 L634.345 326.826 Z" fill="#000000" fill-rule="nonzero" fill-opacity="1" /><path clip-path="url(#clip070)" d="M663.541 313.913 L663.683 317.141 Q666.627 313.438 671.374 313.438 Q679.515 313.438 679.587 322.624 L679.587 339.596 L675.195 339.596 L675.195 322.601 Q675.172 319.823 673.914 318.494 Q672.679 317.165 670.045 317.165 Q667.908 317.165 666.294 318.304 Q664.68 319.444 663.778 321.295 L663.778 339.596 L659.387 339.596 L659.387 313.913 L663.541 313.913 Z" fill="#000000" fill-rule="nonzero" fill-opacity="1" /><path clip-path="url(#clip070)" d="M685.165 326.541 Q685.165 320.535 687.942 316.999 Q690.719 313.438 695.3 313.438 Q700 313.438 702.635 316.761 L702.848 313.913 L706.86 313.913 L706.86 338.979 Q706.86 343.963 703.893 346.835 Q700.949 349.707 695.965 349.707 Q693.188 349.707 690.529 348.521 Q687.871 347.334 686.47 345.269 L688.749 342.634 Q691.573 346.123 695.656 346.123 Q698.86 346.123 700.641 344.319 Q702.445 342.515 702.445 339.24 L702.445 337.032 Q699.81 340.07 695.253 340.07 Q690.743 340.07 687.942 336.439 Q685.165 332.807 685.165 326.541 M689.58 327.039 Q689.58 331.383 691.36 333.875 Q693.14 336.344 696.344 336.344 Q700.498 336.344 702.445 332.57 L702.445 320.844 Q700.427 317.165 696.392 317.165 Q693.188 317.165 691.384 319.657 Q689.58 322.15 689.58 327.039 Z" fill="#000000" fill-rule="nonzero" fill-opacity="1" /><path clip-path="url(#clip070)" d="M718.253 339.596 L713.862 339.596 L713.862 303.137 L718.253 303.137 L718.253 339.596 Z" fill="#000000" fill-rule="nonzero" fill-opacity="1" /><path clip-path="url(#clip070)" d="M735.937 340.07 Q730.715 340.07 727.439 336.652 Q724.163 333.211 724.163 327.466 L724.163 326.659 Q724.163 322.838 725.611 319.847 Q727.083 316.833 729.694 315.147 Q732.329 313.438 735.391 313.438 Q740.399 313.438 743.176 316.738 Q745.953 320.037 745.953 326.185 L745.953 328.012 L728.555 328.012 Q728.65 331.81 730.762 334.16 Q732.898 336.486 736.174 336.486 Q738.5 336.486 740.114 335.537 Q741.728 334.587 742.939 333.021 L745.621 335.11 Q742.393 340.07 735.937 340.07 M735.391 317.046 Q732.732 317.046 730.928 318.993 Q729.124 320.915 728.697 324.405 L741.562 324.405 L741.562 324.072 Q741.372 320.725 739.758 318.898 Q738.144 317.046 735.391 317.046 Z" fill="#000000" fill-rule="nonzero" fill-opacity="1" /></svg>
