<?xml version="1.0" encoding="utf-8"?>
<svg xmlns="http://www.w3.org/2000/svg" xmlns:xlink="http://www.w3.org/1999/xlink" width="600" height="400" viewBox="0 0 2400 1600">
<defs>
  <clipPath id="clip120">
    <rect x="0" y="0" width="2400" height="1600"/>
  </clipPath>
</defs>
<path clip-path="url(#clip120)" d="M0 1600 L2400 1600 L2400 0 L0 0  Z" fill="#ffffff" fill-rule="evenodd" fill-opacity="1"/>
<defs>
  <clipPath id="clip121">
    <rect x="480" y="0" width="1681" height="1600"/>
  </clipPath>
</defs>
<path clip-path="url(#clip120)" d="M260.725 1423.57 L2352.76 1423.57 L2352.76 123.185 L260.725 123.185  Z" fill="#ffffff" fill-rule="evenodd" fill-opacity="1"/>
<defs>
  <clipPath id="clip122">
    <rect x="260" y="123" width="2093" height="1301"/>
  </clipPath>
</defs>
<polyline clip-path="url(#clip122)" style="stroke:#000000; stroke-linecap:round; stroke-linejoin:round; stroke-width:2; stroke-opacity:0.1; fill:none" points="311.878,1423.57 311.878,123.185 "/>
<polyline clip-path="url(#clip122)" style="stroke:#000000; stroke-linecap:round; stroke-linejoin:round; stroke-width:2; stroke-opacity:0.1; fill:none" points="795.212,1423.57 795.212,123.185 "/>
<polyline clip-path="url(#clip122)" style="stroke:#000000; stroke-linecap:round; stroke-linejoin:round; stroke-width:2; stroke-opacity:0.1; fill:none" points="1278.55,1423.57 1278.55,123.185 "/>
<polyline clip-path="url(#clip122)" style="stroke:#000000; stroke-linecap:round; stroke-linejoin:round; stroke-width:2; stroke-opacity:0.1; fill:none" points="1761.88,1423.57 1761.88,123.185 "/>
<polyline clip-path="url(#clip122)" style="stroke:#000000; stroke-linecap:round; stroke-linejoin:round; stroke-width:2; stroke-opacity:0.1; fill:none" points="2245.21,1423.57 2245.21,123.185 "/>
<polyline clip-path="url(#clip122)" style="stroke:#000000; stroke-linecap:round; stroke-linejoin:round; stroke-width:2; stroke-opacity:0.1; fill:none" points="260.725,1296.51 2352.76,1296.51 "/>
<polyline clip-path="url(#clip122)" style="stroke:#000000; stroke-linecap:round; stroke-linejoin:round; stroke-width:2; stroke-opacity:0.1; fill:none" points="260.725,1027.9 2352.76,1027.9 "/>
<polyline clip-path="url(#clip122)" style="stroke:#000000; stroke-linecap:round; stroke-linejoin:round; stroke-width:2; stroke-opacity:0.1; fill:none" points="260.725,759.281 2352.76,759.281 "/>
<polyline clip-path="url(#clip122)" style="stroke:#000000; stroke-linecap:round; stroke-linejoin:round; stroke-width:2; stroke-opacity:0.1; fill:none" points="260.725,490.666 2352.76,490.666 "/>
<polyline clip-path="url(#clip122)" style="stroke:#000000; stroke-linecap:round; stroke-linejoin:round; stroke-width:2; stroke-opacity:0.1; fill:none" points="260.725,222.051 2352.76,222.051 "/>
<polyline clip-path="url(#clip120)" style="stroke:#000000; stroke-linecap:round; stroke-linejoin:round; stroke-width:4; stroke-opacity:1; fill:none" points="260.725,1423.57 2352.76,1423.57 "/>
<polyline clip-path="url(#clip120)" style="stroke:#000000; stroke-linecap:round; stroke-linejoin:round; stroke-width:4; stroke-opacity:1; fill:none" points="311.878,1423.57 311.878,1404.67 "/>
<polyline clip-path="url(#clip120)" style="stroke:#000000; stroke-linecap:round; stroke-linejoin:round; stroke-width:4; stroke-opacity:1; fill:none" points="795.212,1423.57 795.212,1404.67 "/>
<polyline clip-path="url(#clip120)" style="stroke:#000000; stroke-linecap:round; stroke-linejoin:round; stroke-width:4; stroke-opacity:1; fill:none" points="1278.55,1423.57 1278.55,1404.67 "/>
<polyline clip-path="url(#clip120)" style="stroke:#000000; stroke-linecap:round; stroke-linejoin:round; stroke-width:4; stroke-opacity:1; fill:none" points="1761.88,1423.57 1761.88,1404.67 "/>
<polyline clip-path="url(#clip120)" style="stroke:#000000; stroke-linecap:round; stroke-linejoin:round; stroke-width:4; stroke-opacity:1; fill:none" points="2245.21,1423.57 2245.21,1404.67 "/>
<g clip-path="url(#clip120)">
<text style="fill:#000000; fill-opacity:1; font-family:Courier,Courier New,Lucida Sans Typewriter,Lucida Typewriter,monospace; font-size:60px; text-anchor:middle;" transform="rotate(0, 311.878, 1486.07)" x="311.878" y="1486.07">0</text>
</g>
<g clip-path="url(#clip120)">
<text style="fill:#000000; fill-opacity:1; font-family:Courier,Courier New,Lucida Sans Typewriter,Lucida Typewriter,monospace; font-size:60px; text-anchor:middle;" transform="rotate(0, 795.212, 1486.07)" x="795.212" y="1486.07">2</text>
</g>
<g clip-path="url(#clip120)">
<text style="fill:#000000; fill-opacity:1; font-family:Courier,Courier New,Lucida Sans Typewriter,Lucida Typewriter,monospace; font-size:60px; text-anchor:middle;" transform="rotate(0, 1278.55, 1486.07)" x="1278.55" y="1486.07">4</text>
</g>
<g clip-path="url(#clip120)">
<text style="fill:#000000; fill-opacity:1; font-family:Courier,Courier New,Lucida Sans Typewriter,Lucida Typewriter,monospace; font-size:60px; text-anchor:middle;" transform="rotate(0, 1761.88, 1486.07)" x="1761.88" y="1486.07">6</text>
</g>
<g clip-path="url(#clip120)">
<text style="fill:#000000; fill-opacity:1; font-family:Courier,Courier New,Lucida Sans Typewriter,Lucida Typewriter,monospace; font-size:60px; text-anchor:middle;" transform="rotate(0, 2245.21, 1486.07)" x="2245.21" y="1486.07">8</text>
</g>
<g clip-path="url(#clip120)">
<text style="fill:#000000; fill-opacity:1; font-family:Courier,Courier New,Lucida Sans Typewriter,Lucida Typewriter,monospace; font-size:82px; text-anchor:middle;" transform="rotate(0, 1306.74, 1572.51)" x="1306.74" y="1572.51">Time (Frame)</text>
</g>
<polyline clip-path="url(#clip120)" style="stroke:#000000; stroke-linecap:round; stroke-linejoin:round; stroke-width:4; stroke-opacity:1; fill:none" points="260.725,1423.57 260.725,123.185 "/>
<polyline clip-path="url(#clip120)" style="stroke:#000000; stroke-linecap:round; stroke-linejoin:round; stroke-width:4; stroke-opacity:1; fill:none" points="260.725,1296.51 279.623,1296.51 "/>
<polyline clip-path="url(#clip120)" style="stroke:#000000; stroke-linecap:round; stroke-linejoin:round; stroke-width:4; stroke-opacity:1; fill:none" points="260.725,1027.9 279.623,1027.9 "/>
<polyline clip-path="url(#clip120)" style="stroke:#000000; stroke-linecap:round; stroke-linejoin:round; stroke-width:4; stroke-opacity:1; fill:none" points="260.725,759.281 279.623,759.281 "/>
<polyline clip-path="url(#clip120)" style="stroke:#000000; stroke-linecap:round; stroke-linejoin:round; stroke-width:4; stroke-opacity:1; fill:none" points="260.725,490.666 279.623,490.666 "/>
<polyline clip-path="url(#clip120)" style="stroke:#000000; stroke-linecap:round; stroke-linejoin:round; stroke-width:4; stroke-opacity:1; fill:none" points="260.725,222.051 279.623,222.051 "/>
<g clip-path="url(#clip120)">
<text style="fill:#000000; fill-opacity:1; font-family:Courier,Courier New,Lucida Sans Typewriter,Lucida Typewriter,monospace; font-size:60px; text-anchor:middle;" transform="rotate(0, 187.828, 1314.01)" x="187.828" y="1314.01">40</text>
</g>
<g clip-path="url(#clip120)">
<text style="fill:#000000; fill-opacity:1; font-family:Courier,Courier New,Lucida Sans Typewriter,Lucida Typewriter,monospace; font-size:60px; text-anchor:middle;" transform="rotate(0, 187.828, 1045.4)" x="187.828" y="1045.4">60</text>
</g>
<g clip-path="url(#clip120)">
<text style="fill:#000000; fill-opacity:1; font-family:Courier,Courier New,Lucida Sans Typewriter,Lucida Typewriter,monospace; font-size:60px; text-anchor:middle;" transform="rotate(0, 187.828, 776.781)" x="187.828" y="776.781">80</text>
</g>
<g clip-path="url(#clip120)">
<text style="fill:#000000; fill-opacity:1; font-family:Courier,Courier New,Lucida Sans Typewriter,Lucida Typewriter,monospace; font-size:60px; text-anchor:middle;" transform="rotate(0, 169.38, 508.166)" x="169.38" y="508.166">100</text>
</g>
<g clip-path="url(#clip120)">
<text style="fill:#000000; fill-opacity:1; font-family:Courier,Courier New,Lucida Sans Typewriter,Lucida Typewriter,monospace; font-size:60px; text-anchor:middle;" transform="rotate(0, 169.38, 239.551)" x="169.38" y="239.551">120</text>
</g>
<g clip-path="url(#clip120)">
<text style="fill:#000000; fill-opacity:1; font-family:Courier,Courier New,Lucida Sans Typewriter,Lucida Typewriter,monospace; font-size:82px; text-anchor:middle;" transform="rotate(-90, 64.6929, 773.377)" x="64.6929" y="773.377">Joint Angle (Degrees)</text>
</g>
<g clip-path="url(#clip120)">
<text style="fill:#000000; fill-opacity:1; font-family:Courier,Courier New,Lucida Sans Typewriter,Lucida Typewriter,monospace; font-size:105px; text-anchor:middle;" transform="rotate(0, 1306.74, 73.2)" x="1306.74" y="73.2">Joint Angles Over Time</text>
</g>
<polyline clip-path="url(#clip122)" style="stroke:#ff4747; stroke-linecap:round; stroke-linejoin:round; stroke-width:8; stroke-opacity:1; fill:none" points="319.933,1128.9 327.989,1096.81 336.045,1057.6 344.1,1028.86 352.156,1011.11 360.211,1001.08 368.267,995.336 376.322,992.352 384.378,995.129 392.434,987.041 400.489,958.935 408.545,921.183 416.6,878.556 424.656,840.302 432.711,811.838 440.767,790.595 448.823,798.115 456.878,830.859 464.934,878.518 472.989,936.679 481.045,999.349 489.1,1039.58 497.156,1045.95 505.212,1018.87 513.267,1008.11 521.323,992.567 529.378,1001.36 537.434,1041.1 545.489,1108.59 553.545,1185.07 561.601,1223.68 569.656,1240.09 577.712,1253.38 585.767,1236.94 593.823,1225.74 601.878,1221.86 609.934,1255.22 617.989,1324 626.045,1344.69 634.101,1386.77 642.156,1378.2 650.212,1351.41 658.267,1324.19 666.323,1309.33 674.378,1311.21 682.434,1318.11 690.49,1305.25 698.545,1318.52 706.601,1306.08 714.656,1285.37 722.712,1279.64 730.767,1274.66 738.823,1275.98 746.879,1277.29 754.934,1286.09 762.99,1307.39 771.045,1338.93 779.101,1342.57 787.156,1338.78 795.212,1316.89 803.268,1300.71 811.323,1262.02 819.379,1219.25 827.434,1180.63 835.49,1134.69 843.545,1108.14 851.601,1106.94 859.656,1144.2 867.712,1198.06 875.768,1222.58 883.823,1213.67 891.879,1206.56 899.934,1183.77 907.99,1168.04 916.045,1165.25 924.101,1186.8 932.157,1203.53 940.212,1194.52 948.268,1165.3 956.323,1151.1 964.379,1138.3 972.434,1125.8 980.49,1118.36 988.546,1117.26 996.601,1118.92 1004.66,1127.02 1012.71,1135.49 1020.77,1138.78 1028.82,1148.88 1036.88,1157.63 1044.93,1169.6 1052.99,1154.73 1061.05,1124.32 1069.1,1094.26 1077.16,1057.26 1085.21,1011.55 1093.27,974.968 1101.32,956.682 1109.38,938.126 1117.43,918.901 1125.49,940.255 1133.55,990.747 1141.6,1057.46 1149.66,1142.22 1157.71,1237.22 1165.77,1312.44 1173.82,1317.3 1181.88,1278.07 1189.93,1229.2 1197.99,1165.27 1206.05,1114.8 1214.1,1072.45 1222.16,1056.83 1230.21,1051.3 1238.27,1042.2 1246.32,1014.44 1254.38,1012.64 1262.43,1015.05 1270.49,1063.36 1278.55,1100.92 1286.6,1159.2 1294.66,1216.33 1302.71,1274.35 1310.77,1303.85 1318.82,1314.43 1326.88,1303.12 1334.93,1299.24 1342.99,1270 1351.05,1248.61 1359.1,1222.38 1367.16,1205.65 1375.21,1204.58 1383.27,1204.93 1391.32,1214.24 1399.38,1213.91 1407.44,1203.9 1415.49,1203.97 1423.55,1218.4 1431.6,1186.04 1439.66,1166.81 1447.71,1156.19 1455.77,1150.39 1463.82,1145.6 1471.88,1119.97 1479.94,1090.43 1487.99,1045.88 1496.05,977.465 1504.1,956.761 1512.16,986.291 1520.21,1052.31 1528.27,1124.97 1536.32,1166.36 1544.38,1173.55 1552.44,1140.92 1560.49,1106.01 1568.55,1074.53 1576.6,1059.36 1584.66,1065.95 1592.71,1076.7 1600.77,1085.91 1608.82,1087.51 1616.88,1073.04 1624.94,1054.93 1632.99,1045.97 1641.05,1035.68 1649.1,1014.25 1657.16,989.772 1665.21,958.722 1673.27,917.623 1681.32,873.334 1689.38,836.457 1697.44,820.509 1705.49,812.219 1713.55,798.191 1721.6,796.047 1729.66,788.709 1737.71,798.695 1745.77,834.992 1753.82,887.15 1761.88,962.344 1769.94,1025.25 1777.99,1065.05 1786.05,1077.64 1794.1,1047.57 1802.16,1017.96 1810.21,993.685 1818.27,993.429 1826.32,1011.9 1834.38,1022.22 1842.44,1041.3 1850.49,1078.65 1858.55,1118.44 1866.6,1134.8 1874.66,1128.74 1882.71,1109.11 1890.77,1068.97 1898.82,1022.77 1906.88,1015.66 1914.94,1053.53 1922.99,1117.91 1931.05,1154.31 1939.1,1208.61 1947.16,1230.53 1955.21,1227.36 1963.27,1213.53 1971.32,1203.55 1979.38,1194.9 1987.44,1195.62 1995.49,1186.37 2003.55,1197.29 2011.6,1190 2019.66,1177.35 2027.71,1160.92 2035.77,1157.64 2043.82,1159.39 2051.88,1153.18 2059.94,1131.89 2067.99,1095.85 2076.05,1043.02 2084.1,980.989 2092.16,915.491 2100.21,898.436 2108.27,897.82 2116.33,895.891 2124.38,935.197 2132.44,982.424 2140.49,1023.11 2148.55,1057.09 2156.6,1067.36 2164.66,1081.94 2172.71,1081.1 2180.77,1072.12 2188.83,1091.78 2196.88,1111.23 2204.94,1132.69 2212.99,1160.52 2221.05,1181.25 2229.1,1191.68 2237.16,1198.53 2245.21,1195.48 2253.27,1182.27 2261.33,1173.4 2269.38,1171.49 2277.44,1172.69 2285.49,1186.95 2293.55,1212.58 "/>
<polyline clip-path="url(#clip122)" style="stroke:#00bcb4; stroke-linecap:round; stroke-linejoin:round; stroke-width:8; stroke-opacity:1; fill:none" points="319.933,531.537 327.989,552.474 336.045,554.79 344.1,553.119 352.156,537.366 360.211,522.973 368.267,521.24 376.322,519.552 384.378,528.663 392.434,527.263 400.489,508.355 408.545,482.926 416.6,451.853 424.656,423.866 432.711,401.654 440.767,381.28 448.823,387.237 456.878,409.829 464.934,438.78 472.989,469.865 481.045,510.209 489.1,525.655 497.156,513.976 505.212,496.005 513.267,470.432 521.323,426.05 529.378,398.95 537.434,410.575 545.489,468.301 553.545,532.309 561.601,594.535 569.656,632.875 577.712,619.935 585.767,559.808 593.823,498.288 601.878,472.414 609.934,537.258 617.989,653.126 626.045,774.326 634.101,884.802 642.156,982.197 650.212,1020.71 658.267,1008.65 666.323,980.483 674.378,968.906 682.434,940.677 690.49,912.384 698.545,928.243 706.601,983.971 714.656,1022.25 722.712,1025.34 730.767,999.231 738.823,944.068 746.879,875.461 754.934,812.503 762.99,777.499 771.045,767.702 779.101,760.082 787.156,740.471 795.212,729.018 803.268,725.131 811.323,711.4 819.379,687.672 827.434,668.674 835.49,626.806 843.545,607.226 851.601,621.164 859.656,678.604 867.712,746.476 875.768,779.803 883.823,774.143 891.879,777.275 899.934,752.98 907.99,739.492 916.045,732.654 924.101,744.773 932.157,738.972 940.212,693 948.268,621.319 956.323,573.476 964.379,538.352 972.434,510.03 980.49,491.92 988.546,481.242 996.601,471.018 1004.66,442.814 1012.71,411.269 1020.77,388.854 1028.82,379.977 1036.88,377.289 1044.93,401.027 1052.99,387.01 1061.05,357.739 1069.1,306.886 1077.16,245.457 1085.21,195.198 1093.27,163.253 1101.32,159.988 1109.38,184.144 1117.43,202.968 1125.49,264.605 1133.55,339.833 1141.6,413.664 1149.66,479.076 1157.71,527.217 1165.77,560.245 1173.82,544.73 1181.88,509.101 1189.93,487.143 1197.99,478.707 1206.05,478.63 1214.1,497.324 1222.16,498.207 1230.21,488.718 1238.27,477.747 1246.32,460.972 1254.38,463.4 1262.43,475.78 1270.49,553.538 1278.55,666.51 1286.6,763.196 1294.66,846.666 1302.71,940.648 1310.77,998.38 1318.82,1020.49 1326.88,1016.94 1334.93,1045.36 1342.99,1000.94 1351.05,937.751 1359.1,856.236 1367.16,788.44 1375.21,731.457 1383.27,686.697 1391.32,685.064 1399.38,678.162 1407.44,613.664 1415.49,588.467 1423.55,536.059 1431.6,478.438 1439.66,465.627 1447.71,482.847 1455.77,529.794 1463.82,580.737 1471.88,603.852 1479.94,636.876 1487.99,590.102 1496.05,539.468 1504.1,530.073 1512.16,555.465 1520.21,605.609 1528.27,666.13 1536.32,703.206 1544.38,725.313 1552.44,706.818 1560.49,681.425 1568.55,636.73 1576.6,595.175 1584.66,558.797 1592.71,531.604 1600.77,527.548 1608.82,493.089 1616.88,458.205 1624.94,405.173 1632.99,367.553 1641.05,312.205 1649.1,264.606 1657.16,242.488 1665.21,243.502 1673.27,224.808 1681.32,230.302 1689.38,229.725 1697.44,252.152 1705.49,249.383 1713.55,234.271 1721.6,223.835 1729.66,215.702 1737.71,221.219 1745.77,254.521 1753.82,304.519 1761.88,384.693 1769.94,442.837 1777.99,467.25 1786.05,462.878 1794.1,430.945 1802.16,400.075 1810.21,361.753 1818.27,366.667 1826.32,404.055 1834.38,431.56 1842.44,464.239 1850.49,456.715 1858.55,425.16 1866.6,404.615 1874.66,382.818 1882.71,401.28 1890.77,428.329 1898.82,477.046 1906.88,568.066 1914.94,652.908 1922.99,734.989 1931.05,803.345 1939.1,893.515 1947.16,939.928 1955.21,918.599 1963.27,867.979 1971.32,806.483 1979.38,745.206 1987.44,709.249 1995.49,655.066 2003.55,649.742 2011.6,630.167 2019.66,613.216 2027.71,576.694 2035.77,525.393 2043.82,496.551 2051.88,500.748 2059.94,503.9 2067.99,503.874 2076.05,505.494 2084.1,511.647 2092.16,477.724 2100.21,456.603 2108.27,445.61 2116.33,428.574 2124.38,456.137 2132.44,484.186 2140.49,505.582 2148.55,529.038 2156.6,542.379 2164.66,570.086 2172.71,574.54 2180.77,564.18 2188.83,574.568 2196.88,572.636 2204.94,554.639 2212.99,549.421 2221.05,544.52 2229.1,541.885 2237.16,527.245 2245.21,516.604 2253.27,517.838 2261.33,506.148 2269.38,480.204 2277.44,447.336 2285.49,383.059 2293.55,301.537 "/>
<polyline clip-path="url(#clip122)" style="stroke:#ffb547; stroke-linecap:round; stroke-linejoin:round; stroke-width:8; stroke-opacity:1; fill:none" points="319.933,631.118 327.989,709.664 336.045,753.274 344.1,785.943 352.156,788.112 360.211,783.17 368.267,797.646 376.322,789.923 384.378,810.302 392.434,818.209 400.489,822.05 408.545,817.077 416.6,811.862 424.656,800.666 432.711,791.248 440.767,774.715 448.823,769.329 456.878,765.828 464.934,748.209 472.989,724.599 481.045,693.319 489.1,661.101 497.156,634.91 505.212,629.033 513.267,600.943 521.323,580.432 529.378,551.918 537.434,528.219 545.489,500.028 553.545,463.247 561.601,431.584 569.656,421.088 577.712,360.216 585.767,312.82 593.823,351.789 601.878,385.419 609.934,391.322 617.989,363.555 626.045,334.51 634.101,321.953 642.156,296.2 650.212,268.435 658.267,323.85 666.323,362.221 674.378,367.421 682.434,348.045 690.49,323.882 698.545,300.881 706.601,279.429 714.656,231.39 722.712,208.541 730.767,236.483 738.823,255.355 746.879,281.925 754.934,313.152 762.99,342.727 771.045,366.201 779.101,389.844 787.156,419.014 795.212,474.111 803.268,514.538 811.323,546.202 819.379,571.538 827.434,591.17 835.49,606.085 843.545,625.554 851.601,631.172 859.656,648.396 867.712,672.159 875.768,681.422 883.823,678.752 891.879,686.44 899.934,697.13 907.99,712.782 916.045,723.625 924.101,744.68 932.157,755.666 940.212,742.803 948.268,723.869 956.323,714.114 964.379,691.338 972.434,670.602 980.49,648.899 988.546,626.105 996.601,604.535 1004.66,590.342 1012.71,585.023 1020.77,590.174 1028.82,592.498 1036.88,601.453 1044.93,609.798 1052.99,630.316 1061.05,653.499 1069.1,656.906 1077.16,667.86 1085.21,740.028 1093.27,784.453 1101.32,819.394 1109.38,831.111 1117.43,828.61 1125.49,801.754 1133.55,753.183 1141.6,741.467 1149.66,762.163 1157.71,730.532 1165.77,679.58 1173.82,615.136 1181.88,556.081 1189.93,509.686 1197.99,467.744 1206.05,462.078 1214.1,445.828 1222.16,438.094 1230.21,404.024 1238.27,360.185 1246.32,313.662 1254.38,274.838 1262.43,233.556 1270.49,208.925 1278.55,187.598 1286.6,212.631 1294.66,223.294 1302.71,233.578 1310.77,252.212 1318.82,284.942 1326.88,322.19 1334.93,340.94 1342.99,352.448 1351.05,353.603 1359.1,317.192 1367.16,277.919 1375.21,250.313 1383.27,239.825 1391.32,261.422 1399.38,299.452 1407.44,351.584 1415.49,389.62 1423.55,416.808 1431.6,455.154 1439.66,499.062 1447.71,547.396 1455.77,587.793 1463.82,616.886 1471.88,642.854 1479.94,658.226 1487.99,624.98 1496.05,613.806 1504.1,613.372 1512.16,628.507 1520.21,648.913 1528.27,660.438 1536.32,680.668 1544.38,698.105 1552.44,672.722 1560.49,677.883 1568.55,681.322 1576.6,690.655 1584.66,703.174 1592.71,686.227 1600.77,667.985 1608.82,646.269 1616.88,613.674 1624.94,595.069 1632.99,581.634 1641.05,579.816 1649.1,588.639 1657.16,584.548 1665.21,607.675 1673.27,649.927 1681.32,680.184 1689.38,706.814 1697.44,738.642 1705.49,768.663 1713.55,781.317 1721.6,765.39 1729.66,753.104 1737.71,746.884 1745.77,735 1753.82,727.702 1761.88,728.208 1769.94,721.804 1777.99,708.151 1786.05,675.592 1794.1,626.915 1802.16,572.615 1810.21,554.001 1818.27,543.375 1826.32,519.649 1834.38,491.006 1842.44,483.191 1850.49,476.155 1858.55,426.797 1866.6,351.001 1874.66,303.89 1882.71,257.018 1890.77,200.09 1898.82,161.92 1906.88,173.011 1914.94,213.29 1922.99,229.476 1931.05,244.414 1939.1,262.258 1947.16,266.274 1955.21,246.515 1963.27,219.572 1971.32,205.362 1979.38,207.458 1987.44,209.143 1995.49,227.514 2003.55,252.94 2011.6,282.82 2019.66,313.217 2027.71,334.589 2035.77,362.637 2043.82,387.286 2051.88,421.624 2059.94,473.436 2067.99,526.597 2076.05,570.879 2084.1,604.038 2092.16,619.401 2100.21,641.043 2108.27,652.638 2116.33,676.036 2124.38,701.22 2132.44,714.435 2140.49,716.071 2148.55,720.144 2156.6,734.533 2164.66,754.195 2172.71,753.383 2180.77,739.819 2188.83,719.252 2196.88,681.82 2204.94,642.865 2212.99,611.185 2221.05,597.323 2229.1,581.09 2237.16,560.426 2245.21,557.955 2253.27,568.434 2261.33,557.899 2269.38,549.792 2277.44,562.74 2285.49,587.442 2293.55,601.478 "/>
<path clip-path="url(#clip120)" d="M330.459 372.907 L945.527 372.907 L945.527 166.531 L330.459 166.531  Z" fill="#ffffff" fill-rule="evenodd" fill-opacity="1"/>
<polyline clip-path="url(#clip120)" style="stroke:#000000; stroke-linecap:round; stroke-linejoin:round; stroke-width:4; stroke-opacity:1; fill:none" points="330.459,372.907 945.527,372.907 945.527,166.531 330.459,166.531 330.459,372.907 "/>
<polyline clip-path="url(#clip120)" style="stroke:#ff4747; stroke-linecap:round; stroke-linejoin:round; stroke-width:8; stroke-opacity:1; fill:none" points="353.704,218.125 493.173,218.125 "/>
<g clip-path="url(#clip120)">
<text style="fill:#000000; fill-opacity:1; font-family:Courier,Courier New,Lucida Sans Typewriter,Lucida Typewriter,monospace; font-size:60px; text-anchor:start;" transform="rotate(0, 516.418, 235.625)" x="516.418" y="235.625">Knee Angle</text>
</g>
<polyline clip-path="url(#clip120)" style="stroke:#00bcb4; stroke-linecap:round; stroke-linejoin:round; stroke-width:8; stroke-opacity:1; fill:none" points="353.704,269.719 493.173,269.719 "/>
<g clip-path="url(#clip120)">
<text style="fill:#000000; fill-opacity:1; font-family:Courier,Courier New,Lucida Sans Typewriter,Lucida Typewriter,monospace; font-size:60px; text-anchor:start;" transform="rotate(0, 516.418, 287.219)" x="516.418" y="287.219">Hip Angle</text>
</g>
<polyline clip-path="url(#clip120)" style="stroke:#ffb547; stroke-linecap:round; stroke-linejoin:round; stroke-width:8; stroke-opacity:1; fill:none" points="353.704,321.313 493.173,321.313 "/>
<g clip-path="url(#clip120)">
<text style="fill:#000000; fill-opacity:1; font-family:Courier,Courier New,Lucida Sans Typewriter,Lucida Typewriter,monospace; font-size:60px; text-anchor:start;" transform="rotate(0, 516.418, 338.813)" x="516.418" y="338.813">Elbow Angle</text>
</g>
</svg>
