<?xml version="1.0" encoding="utf-8"?>
<svg xmlns="http://www.w3.org/2000/svg" xmlns:xlink="http://www.w3.org/1999/xlink" width="600" height="400" viewBox="0 0 2400 1600">
<defs>
  <clipPath id="clip100">
    <rect x="0" y="0" width="2400" height="1600"/>
  </clipPath>
</defs>
<path clip-path="url(#clip100)" d="M0 1600 L2400 1600 L2400 0 L0 0  Z" fill="#ffffff" fill-rule="evenodd" fill-opacity="1"/>
<defs>
  <clipPath id="clip101">
    <rect x="480" y="0" width="1681" height="1600"/>
  </clipPath>
</defs>
<path clip-path="url(#clip100)" d="M225.362 1423.18 L2352.76 1423.18 L2352.76 123.472 L225.362 123.472  Z" fill="#ffffff" fill-rule="evenodd" fill-opacity="1"/>
<defs>
  <clipPath id="clip102">
    <rect x="225" y="123" width="2128" height="1301"/>
  </clipPath>
</defs>
<polyline clip-path="url(#clip102)" style="stroke:#000000; stroke-linecap:round; stroke-linejoin:round; stroke-width:2; stroke-opacity:0.1; fill:none" points="278.947,1423.18 278.947,123.472 "/>
<polyline clip-path="url(#clip102)" style="stroke:#000000; stroke-linecap:round; stroke-linejoin:round; stroke-width:2; stroke-opacity:0.1; fill:none" points="775.723,1423.18 775.723,123.472 "/>
<polyline clip-path="url(#clip102)" style="stroke:#000000; stroke-linecap:round; stroke-linejoin:round; stroke-width:2; stroke-opacity:0.1; fill:none" points="1272.5,1423.18 1272.5,123.472 "/>
<polyline clip-path="url(#clip102)" style="stroke:#000000; stroke-linecap:round; stroke-linejoin:round; stroke-width:2; stroke-opacity:0.1; fill:none" points="1769.28,1423.18 1769.28,123.472 "/>
<polyline clip-path="url(#clip102)" style="stroke:#000000; stroke-linecap:round; stroke-linejoin:round; stroke-width:2; stroke-opacity:0.1; fill:none" points="2266.05,1423.18 2266.05,123.472 "/>
<polyline clip-path="url(#clip102)" style="stroke:#000000; stroke-linecap:round; stroke-linejoin:round; stroke-width:2; stroke-opacity:0.1; fill:none" points="225.362,1371.79 2352.76,1371.79 "/>
<polyline clip-path="url(#clip102)" style="stroke:#000000; stroke-linecap:round; stroke-linejoin:round; stroke-width:2; stroke-opacity:0.1; fill:none" points="225.362,1096.11 2352.76,1096.11 "/>
<polyline clip-path="url(#clip102)" style="stroke:#000000; stroke-linecap:round; stroke-linejoin:round; stroke-width:2; stroke-opacity:0.1; fill:none" points="225.362,820.432 2352.76,820.432 "/>
<polyline clip-path="url(#clip102)" style="stroke:#000000; stroke-linecap:round; stroke-linejoin:round; stroke-width:2; stroke-opacity:0.1; fill:none" points="225.362,544.755 2352.76,544.755 "/>
<polyline clip-path="url(#clip102)" style="stroke:#000000; stroke-linecap:round; stroke-linejoin:round; stroke-width:2; stroke-opacity:0.1; fill:none" points="225.362,269.077 2352.76,269.077 "/>
<polyline clip-path="url(#clip100)" style="stroke:#000000; stroke-linecap:round; stroke-linejoin:round; stroke-width:4; stroke-opacity:1; fill:none" points="225.362,1423.18 2352.76,1423.18 "/>
<polyline clip-path="url(#clip100)" style="stroke:#000000; stroke-linecap:round; stroke-linejoin:round; stroke-width:4; stroke-opacity:1; fill:none" points="278.947,1423.18 278.947,1404.28 "/>
<polyline clip-path="url(#clip100)" style="stroke:#000000; stroke-linecap:round; stroke-linejoin:round; stroke-width:4; stroke-opacity:1; fill:none" points="775.723,1423.18 775.723,1404.28 "/>
<polyline clip-path="url(#clip100)" style="stroke:#000000; stroke-linecap:round; stroke-linejoin:round; stroke-width:4; stroke-opacity:1; fill:none" points="1272.5,1423.18 1272.5,1404.28 "/>
<polyline clip-path="url(#clip100)" style="stroke:#000000; stroke-linecap:round; stroke-linejoin:round; stroke-width:4; stroke-opacity:1; fill:none" points="1769.28,1423.18 1769.28,1404.28 "/>
<polyline clip-path="url(#clip100)" style="stroke:#000000; stroke-linecap:round; stroke-linejoin:round; stroke-width:4; stroke-opacity:1; fill:none" points="2266.05,1423.18 2266.05,1404.28 "/>
<path clip-path="url(#clip100)" d="M269.809 1470.84 Q269.809 1478.55 267.174 1482.3 Q264.539 1486.05 258.938 1486.05 Q253.407 1486.05 250.749 1482.4 Q248.09 1478.72 247.995 1471.43 L247.995 1465.57 Q247.995 1457.95 250.63 1454.25 Q253.265 1450.55 258.89 1450.55 Q264.468 1450.55 267.103 1454.13 Q269.738 1457.69 269.809 1465.14 L269.809 1470.84 M265.418 1464.83 Q265.418 1459.26 263.851 1456.72 Q262.284 1454.15 258.89 1454.15 Q255.52 1454.15 253.977 1456.69 Q252.434 1459.23 252.386 1464.5 L252.386 1471.53 Q252.386 1477.13 254 1479.81 Q255.638 1482.47 258.938 1482.47 Q262.189 1482.47 263.756 1479.95 Q265.346 1477.44 265.418 1472.03 L265.418 1464.83 Z" fill="#000000" fill-rule="nonzero" fill-opacity="1" /><path clip-path="url(#clip100)" d="M275.98 1483.28 Q275.98 1482.14 276.645 1481.38 Q277.333 1480.62 278.686 1480.62 Q280.039 1480.62 280.728 1481.38 Q281.44 1482.14 281.44 1483.28 Q281.44 1484.37 280.728 1485.11 Q280.039 1485.84 278.686 1485.84 Q277.333 1485.84 276.645 1485.11 Q275.98 1484.37 275.98 1483.28 Z" fill="#000000" fill-rule="nonzero" fill-opacity="1" /><path clip-path="url(#clip100)" d="M309.899 1470.84 Q309.899 1478.55 307.265 1482.3 Q304.63 1486.05 299.028 1486.05 Q293.498 1486.05 290.839 1482.4 Q288.181 1478.72 288.086 1471.43 L288.086 1465.57 Q288.086 1457.95 290.72 1454.25 Q293.355 1450.55 298.981 1450.55 Q304.559 1450.55 307.193 1454.13 Q309.828 1457.69 309.899 1465.14 L309.899 1470.84 M305.508 1464.83 Q305.508 1459.26 303.942 1456.72 Q302.375 1454.15 298.981 1454.15 Q295.61 1454.15 294.067 1456.69 Q292.524 1459.23 292.477 1464.5 L292.477 1471.53 Q292.477 1477.13 294.091 1479.81 Q295.729 1482.47 299.028 1482.47 Q302.28 1482.47 303.847 1479.95 Q305.437 1477.44 305.508 1472.03 L305.508 1464.83 Z" fill="#000000" fill-rule="nonzero" fill-opacity="1" /><path clip-path="url(#clip100)" d="M767.404 1485.58 L744.759 1485.58 L744.759 1482.42 L756.723 1469.13 Q759.381 1466.12 760.378 1464.24 Q761.399 1462.34 761.399 1460.32 Q761.399 1457.62 759.761 1455.89 Q758.123 1454.15 755.393 1454.15 Q752.118 1454.15 750.29 1456.03 Q748.486 1457.88 748.486 1461.2 L744.095 1461.2 Q744.095 1456.43 747.157 1453.49 Q750.243 1450.55 755.393 1450.55 Q760.212 1450.55 763.013 1453.08 Q765.814 1455.6 765.814 1459.8 Q765.814 1464.91 759.31 1471.96 L750.053 1482 L767.404 1482 L767.404 1485.58 Z" fill="#000000" fill-rule="nonzero" fill-opacity="1" /><path clip-path="url(#clip100)" d="M772.602 1483.28 Q772.602 1482.14 773.267 1481.38 Q773.955 1480.62 775.308 1480.62 Q776.661 1480.62 777.349 1481.38 Q778.061 1482.14 778.061 1483.28 Q778.061 1484.37 777.349 1485.11 Q776.661 1485.84 775.308 1485.84 Q773.955 1485.84 773.267 1485.11 Q772.602 1484.37 772.602 1483.28 Z" fill="#000000" fill-rule="nonzero" fill-opacity="1" /><path clip-path="url(#clip100)" d="M786.868 1468.25 L788.624 1451.02 L806.331 1451.02 L806.331 1455.08 L792.351 1455.08 L791.306 1464.5 Q793.846 1463.01 797.074 1463.01 Q801.798 1463.01 804.575 1466.14 Q807.352 1469.25 807.352 1474.57 Q807.352 1479.91 804.456 1482.99 Q801.584 1486.05 796.41 1486.05 Q791.828 1486.05 788.933 1483.51 Q786.037 1480.98 785.633 1476.49 L789.787 1476.49 Q790.191 1479.46 791.9 1480.98 Q793.609 1482.47 796.41 1482.47 Q799.472 1482.47 801.204 1480.38 Q802.961 1478.29 802.961 1474.61 Q802.961 1471.15 801.062 1469.06 Q799.187 1466.95 796.054 1466.95 Q793.181 1466.95 791.544 1468.2 L790.381 1469.15 L786.868 1468.25 Z" fill="#000000" fill-rule="nonzero" fill-opacity="1" /><path clip-path="url(#clip100)" d="M1243.24 1468.25 L1245 1451.02 L1262.71 1451.02 L1262.71 1455.08 L1248.73 1455.08 L1247.68 1464.5 Q1250.22 1463.01 1253.45 1463.01 Q1258.17 1463.01 1260.95 1466.14 Q1263.73 1469.25 1263.73 1474.57 Q1263.73 1479.91 1260.83 1482.99 Q1257.96 1486.05 1252.79 1486.05 Q1248.21 1486.05 1245.31 1483.51 Q1242.41 1480.98 1242.01 1476.49 L1246.16 1476.49 Q1246.57 1479.46 1248.28 1480.98 Q1249.99 1482.47 1252.79 1482.47 Q1255.85 1482.47 1257.58 1480.38 Q1259.34 1478.29 1259.34 1474.61 Q1259.34 1471.15 1257.44 1469.06 Q1255.56 1466.95 1252.43 1466.95 Q1249.56 1466.95 1247.92 1468.2 L1246.76 1469.15 L1243.24 1468.25 Z" fill="#000000" fill-rule="nonzero" fill-opacity="1" /><path clip-path="url(#clip100)" d="M1269.07 1483.28 Q1269.07 1482.14 1269.73 1481.38 Q1270.42 1480.62 1271.78 1480.62 Q1273.13 1480.62 1273.82 1481.38 Q1274.53 1482.14 1274.53 1483.28 Q1274.53 1484.37 1273.82 1485.11 Q1273.13 1485.84 1271.78 1485.84 Q1270.42 1485.84 1269.73 1485.11 Q1269.07 1484.37 1269.07 1483.28 Z" fill="#000000" fill-rule="nonzero" fill-opacity="1" /><path clip-path="url(#clip100)" d="M1302.99 1470.84 Q1302.99 1478.55 1300.35 1482.3 Q1297.72 1486.05 1292.12 1486.05 Q1286.59 1486.05 1283.93 1482.4 Q1281.27 1478.72 1281.18 1471.43 L1281.18 1465.57 Q1281.18 1457.95 1283.81 1454.25 Q1286.44 1450.55 1292.07 1450.55 Q1297.65 1450.55 1300.28 1454.13 Q1302.92 1457.69 1302.99 1465.14 L1302.99 1470.84 M1298.6 1464.83 Q1298.6 1459.26 1297.03 1456.72 Q1295.46 1454.15 1292.07 1454.15 Q1288.7 1454.15 1287.16 1456.69 Q1285.61 1459.23 1285.57 1464.5 L1285.57 1471.53 Q1285.57 1477.13 1287.18 1479.81 Q1288.82 1482.47 1292.12 1482.47 Q1295.37 1482.47 1296.94 1479.95 Q1298.53 1477.44 1298.6 1472.03 L1298.6 1464.83 Z" fill="#000000" fill-rule="nonzero" fill-opacity="1" /><path clip-path="url(#clip100)" d="M1760.81 1453.49 L1746.5 1485.58 L1741.9 1485.58 L1756.16 1454.63 L1737.46 1454.63 L1737.46 1451.02 L1760.81 1451.02 L1760.81 1453.49 Z" fill="#000000" fill-rule="nonzero" fill-opacity="1" /><path clip-path="url(#clip100)" d="M1766.34 1483.28 Q1766.34 1482.14 1767.01 1481.38 Q1767.7 1480.62 1769.05 1480.62 Q1770.4 1480.62 1771.09 1481.38 Q1771.8 1482.14 1771.8 1483.28 Q1771.8 1484.37 1771.09 1485.11 Q1770.4 1485.84 1769.05 1485.84 Q1767.7 1485.84 1767.01 1485.11 Q1766.34 1484.37 1766.34 1483.28 Z" fill="#000000" fill-rule="nonzero" fill-opacity="1" /><path clip-path="url(#clip100)" d="M1780.61 1468.25 L1782.37 1451.02 L1800.07 1451.02 L1800.07 1455.08 L1786.09 1455.08 L1785.05 1464.5 Q1787.59 1463.01 1790.82 1463.01 Q1795.54 1463.01 1798.32 1466.14 Q1801.09 1469.25 1801.09 1474.57 Q1801.09 1479.91 1798.2 1482.99 Q1795.33 1486.05 1790.15 1486.05 Q1785.57 1486.05 1782.67 1483.51 Q1779.78 1480.98 1779.38 1476.49 L1783.53 1476.49 Q1783.93 1479.46 1785.64 1480.98 Q1787.35 1482.47 1790.15 1482.47 Q1793.21 1482.47 1794.95 1480.38 Q1796.7 1478.29 1796.7 1474.61 Q1796.7 1471.15 1794.8 1469.06 Q1792.93 1466.95 1789.8 1466.95 Q1786.92 1466.95 1785.29 1468.2 L1784.12 1469.15 L1780.61 1468.25 Z" fill="#000000" fill-rule="nonzero" fill-opacity="1" /><path clip-path="url(#clip100)" d="M2235.37 1485.58 L2230.96 1485.58 L2230.96 1456.31 L2222.1 1459.56 L2222.1 1455.58 L2234.68 1450.85 L2235.37 1450.85 L2235.37 1485.58 Z" fill="#000000" fill-rule="nonzero" fill-opacity="1" /><path clip-path="url(#clip100)" d="M2269.91 1470.84 Q2269.91 1478.55 2267.27 1482.3 Q2264.64 1486.05 2259.04 1486.05 Q2253.51 1486.05 2250.85 1482.4 Q2248.19 1478.72 2248.1 1471.43 L2248.1 1465.57 Q2248.1 1457.95 2250.73 1454.25 Q2253.36 1450.55 2258.99 1450.55 Q2264.57 1450.55 2267.2 1454.13 Q2269.84 1457.69 2269.91 1465.14 L2269.91 1470.84 M2265.52 1464.83 Q2265.52 1459.26 2263.95 1456.72 Q2262.38 1454.15 2258.99 1454.15 Q2255.62 1454.15 2254.08 1456.69 Q2252.53 1459.23 2252.49 1464.5 L2252.49 1471.53 Q2252.49 1477.13 2254.1 1479.81 Q2255.74 1482.47 2259.04 1482.47 Q2262.29 1482.47 2263.86 1479.95 Q2265.45 1477.44 2265.52 1472.03 L2265.52 1464.83 Z" fill="#000000" fill-rule="nonzero" fill-opacity="1" /><path clip-path="url(#clip100)" d="M2276.08 1483.28 Q2276.08 1482.14 2276.75 1481.38 Q2277.43 1480.62 2278.79 1480.62 Q2280.14 1480.62 2280.83 1481.38 Q2281.54 1482.14 2281.54 1483.28 Q2281.54 1484.37 2280.83 1485.11 Q2280.14 1485.84 2278.79 1485.84 Q2277.43 1485.84 2276.75 1485.11 Q2276.08 1484.37 2276.08 1483.28 Z" fill="#000000" fill-rule="nonzero" fill-opacity="1" /><path clip-path="url(#clip100)" d="M2310 1470.84 Q2310 1478.55 2307.36 1482.3 Q2304.73 1486.05 2299.13 1486.05 Q2293.6 1486.05 2290.94 1482.4 Q2288.28 1478.72 2288.19 1471.43 L2288.19 1465.57 Q2288.19 1457.95 2290.82 1454.25 Q2293.46 1450.55 2299.08 1450.55 Q2304.66 1450.55 2307.29 1454.13 Q2309.93 1457.69 2310 1465.14 L2310 1470.84 M2305.61 1464.83 Q2305.61 1459.26 2304.04 1456.72 Q2302.48 1454.15 2299.08 1454.15 Q2295.71 1454.15 2294.17 1456.69 Q2292.62 1459.23 2292.58 1464.5 L2292.58 1471.53 Q2292.58 1477.13 2294.19 1479.81 Q2295.83 1482.47 2299.13 1482.47 Q2302.38 1482.47 2303.95 1479.95 Q2305.54 1477.44 2305.61 1472.03 L2305.61 1464.83 Z" fill="#000000" fill-rule="nonzero" fill-opacity="1" /><path clip-path="url(#clip100)" d="M1127.65 1525.68 L1112.38 1525.68 L1112.38 1568.04 L1106.14 1568.04 L1106.14 1525.68 L1090.9 1525.68 L1090.9 1520.52 L1127.65 1520.52 L1127.65 1525.68 Z" fill="#000000" fill-rule="nonzero" fill-opacity="1" /><path clip-path="url(#clip100)" d="M1140.31 1568.04 L1134.28 1568.04 L1134.28 1532.73 L1140.31 1532.73 L1140.31 1568.04 M1133.79 1523.36 Q1133.79 1521.89 1134.67 1520.88 Q1135.58 1519.87 1137.34 1519.87 Q1139.11 1519.87 1140.02 1520.88 Q1140.93 1521.89 1140.93 1523.36 Q1140.93 1524.83 1140.02 1525.81 Q1139.11 1526.79 1137.34 1526.79 Q1135.58 1526.79 1134.67 1525.81 Q1133.79 1524.83 1133.79 1523.36 Z" fill="#000000" fill-rule="nonzero" fill-opacity="1" /><path clip-path="url(#clip100)" d="M1155.65 1532.73 L1155.82 1536.65 Q1159.7 1532.08 1166.29 1532.08 Q1173.7 1532.08 1176.38 1537.76 Q1178.14 1535.21 1180.95 1533.64 Q1183.79 1532.08 1187.64 1532.08 Q1199.26 1532.08 1199.45 1544.38 L1199.45 1568.04 L1193.42 1568.04 L1193.42 1544.74 Q1193.42 1540.95 1191.69 1539.09 Q1189.96 1537.2 1185.88 1537.2 Q1182.51 1537.2 1180.29 1539.23 Q1178.08 1541.22 1177.72 1544.61 L1177.72 1568.04 L1171.65 1568.04 L1171.65 1544.9 Q1171.65 1537.2 1164.11 1537.2 Q1158.17 1537.2 1155.98 1542.26 L1155.98 1568.04 L1149.94 1568.04 L1149.94 1532.73 L1155.65 1532.73 Z" fill="#000000" fill-rule="nonzero" fill-opacity="1" /><path clip-path="url(#clip100)" d="M1223.21 1568.7 Q1216.03 1568.7 1211.53 1564 Q1207.02 1559.26 1207.02 1551.37 L1207.02 1550.26 Q1207.02 1545 1209.02 1540.89 Q1211.04 1536.74 1214.63 1534.43 Q1218.25 1532.08 1222.46 1532.08 Q1229.35 1532.08 1233.17 1536.61 Q1236.99 1541.15 1236.99 1549.6 L1236.99 1552.12 L1213.06 1552.12 Q1213.19 1557.34 1216.1 1560.57 Q1219.04 1563.77 1223.54 1563.77 Q1226.74 1563.77 1228.96 1562.46 Q1231.18 1561.16 1232.84 1559 L1236.53 1561.88 Q1232.09 1568.7 1223.21 1568.7 M1222.46 1537.04 Q1218.81 1537.04 1216.33 1539.71 Q1213.85 1542.36 1213.26 1547.16 L1230.95 1547.16 L1230.95 1546.7 Q1230.69 1542.1 1228.47 1539.58 Q1226.25 1537.04 1222.46 1537.04 Z" fill="#000000" fill-rule="nonzero" fill-opacity="1" /><path clip-path="url(#clip100)" d="M1260.29 1548.76 Q1260.29 1541.38 1262.25 1534.59 Q1264.24 1527.8 1268.15 1522.25 Q1272.07 1516.71 1276.28 1514.42 L1277.52 1518.4 Q1272.76 1522.06 1269.69 1529.56 Q1266.65 1537.07 1266.36 1546.37 L1266.33 1549.15 Q1266.33 1561.74 1270.93 1571.01 Q1273.7 1576.56 1277.52 1579.7 L1276.28 1583.38 Q1271.94 1580.97 1267.99 1575.29 Q1260.29 1564.19 1260.29 1548.76 Z" fill="#000000" fill-rule="nonzero" fill-opacity="1" /><path clip-path="url(#clip100)" d="M1310.52 1547.06 L1290.58 1547.06 L1290.58 1568.04 L1284.31 1568.04 L1284.31 1520.52 L1313.75 1520.52 L1313.75 1525.68 L1290.58 1525.68 L1290.58 1541.93 L1310.52 1541.93 L1310.52 1547.06 Z" fill="#000000" fill-rule="nonzero" fill-opacity="1" /><path clip-path="url(#clip100)" d="M1337.38 1538.15 Q1336.01 1537.92 1334.41 1537.92 Q1328.47 1537.92 1326.35 1542.98 L1326.35 1568.04 L1320.31 1568.04 L1320.31 1532.73 L1326.18 1532.73 L1326.28 1536.81 Q1329.25 1532.08 1334.7 1532.08 Q1336.46 1532.08 1337.38 1532.53 L1337.38 1538.15 Z" fill="#000000" fill-rule="nonzero" fill-opacity="1" /><path clip-path="url(#clip100)" d="M1364.73 1568.04 Q1364.21 1567 1363.88 1564.32 Q1359.67 1568.7 1353.83 1568.7 Q1348.61 1568.7 1345.24 1565.76 Q1341.92 1562.79 1341.92 1558.25 Q1341.92 1552.74 1346.09 1549.7 Q1350.3 1546.63 1357.91 1546.63 L1363.78 1546.63 L1363.78 1543.86 Q1363.78 1540.69 1361.89 1538.83 Q1360 1536.94 1356.31 1536.94 Q1353.08 1536.94 1350.89 1538.57 Q1348.7 1540.2 1348.7 1542.52 L1342.63 1542.52 Q1342.63 1539.88 1344.49 1537.43 Q1346.39 1534.95 1349.58 1533.51 Q1352.82 1532.08 1356.67 1532.08 Q1362.77 1532.08 1366.23 1535.15 Q1369.69 1538.18 1369.82 1543.53 L1369.82 1559.79 Q1369.82 1564.65 1371.06 1567.52 L1371.06 1568.04 L1364.73 1568.04 M1354.71 1563.44 Q1357.55 1563.44 1360.09 1561.97 Q1362.64 1560.5 1363.78 1558.15 L1363.78 1550.91 L1359.05 1550.91 Q1347.95 1550.91 1347.95 1557.4 Q1347.95 1560.24 1349.85 1561.84 Q1351.74 1563.44 1354.71 1563.44 Z" fill="#000000" fill-rule="nonzero" fill-opacity="1" /><path clip-path="url(#clip100)" d="M1384.96 1532.73 L1385.13 1536.65 Q1389.01 1532.08 1395.6 1532.08 Q1403.01 1532.08 1405.69 1537.76 Q1407.45 1535.21 1410.26 1533.64 Q1413.1 1532.08 1416.95 1532.08 Q1428.57 1532.08 1428.76 1544.38 L1428.76 1568.04 L1422.73 1568.04 L1422.73 1544.74 Q1422.73 1540.95 1421 1539.09 Q1419.27 1537.2 1415.19 1537.2 Q1411.82 1537.2 1409.6 1539.23 Q1407.39 1541.22 1407.03 1544.61 L1407.03 1568.04 L1400.96 1568.04 L1400.96 1544.9 Q1400.96 1537.2 1393.42 1537.2 Q1387.48 1537.2 1385.29 1542.26 L1385.29 1568.04 L1379.25 1568.04 L1379.25 1532.73 L1384.96 1532.73 Z" fill="#000000" fill-rule="nonzero" fill-opacity="1" /><path clip-path="url(#clip100)" d="M1452.52 1568.7 Q1445.34 1568.7 1440.84 1564 Q1436.33 1559.26 1436.33 1551.37 L1436.33 1550.26 Q1436.33 1545 1438.33 1540.89 Q1440.35 1536.74 1443.94 1534.43 Q1447.56 1532.08 1451.77 1532.08 Q1458.66 1532.08 1462.48 1536.61 Q1466.3 1541.15 1466.3 1549.6 L1466.3 1552.12 L1442.37 1552.12 Q1442.5 1557.34 1445.41 1560.57 Q1448.35 1563.77 1452.85 1563.77 Q1456.05 1563.77 1458.27 1562.46 Q1460.49 1561.16 1462.15 1559 L1465.84 1561.88 Q1461.4 1568.7 1452.52 1568.7 M1451.77 1537.04 Q1448.12 1537.04 1445.64 1539.71 Q1443.16 1542.36 1442.57 1547.16 L1460.26 1547.16 L1460.26 1546.7 Q1460 1542.1 1457.78 1539.58 Q1455.56 1537.04 1451.77 1537.04 Z" fill="#000000" fill-rule="nonzero" fill-opacity="1" /><path clip-path="url(#clip100)" d="M1487.22 1549.08 Q1487.22 1556.36 1485.29 1563.05 Q1483.4 1569.71 1479.45 1575.35 Q1475.53 1581 1471.22 1583.38 L1469.95 1579.7 Q1474.98 1575.84 1478.01 1567.75 Q1481.08 1559.62 1481.15 1549.73 L1481.15 1548.69 Q1481.15 1541.84 1479.71 1535.96 Q1478.27 1530.05 1475.7 1525.39 Q1473.15 1520.72 1469.95 1518.11 L1471.22 1514.42 Q1475.53 1516.8 1479.42 1522.38 Q1483.33 1527.97 1485.26 1534.69 Q1487.22 1541.41 1487.22 1549.08 Z" fill="#000000" fill-rule="nonzero" fill-opacity="1" /><polyline clip-path="url(#clip100)" style="stroke:#000000; stroke-linecap:round; stroke-linejoin:round; stroke-width:4; stroke-opacity:1; fill:none" points="225.362,1423.18 225.362,123.472 "/>
<polyline clip-path="url(#clip100)" style="stroke:#000000; stroke-linecap:round; stroke-linejoin:round; stroke-width:4; stroke-opacity:1; fill:none" points="225.362,1371.79 244.259,1371.79 "/>
<polyline clip-path="url(#clip100)" style="stroke:#000000; stroke-linecap:round; stroke-linejoin:round; stroke-width:4; stroke-opacity:1; fill:none" points="225.362,1096.11 244.259,1096.11 "/>
<polyline clip-path="url(#clip100)" style="stroke:#000000; stroke-linecap:round; stroke-linejoin:round; stroke-width:4; stroke-opacity:1; fill:none" points="225.362,820.432 244.259,820.432 "/>
<polyline clip-path="url(#clip100)" style="stroke:#000000; stroke-linecap:round; stroke-linejoin:round; stroke-width:4; stroke-opacity:1; fill:none" points="225.362,544.755 244.259,544.755 "/>
<polyline clip-path="url(#clip100)" style="stroke:#000000; stroke-linecap:round; stroke-linejoin:round; stroke-width:4; stroke-opacity:1; fill:none" points="225.362,269.077 244.259,269.077 "/>
<path clip-path="url(#clip100)" d="M158.932 1377.46 L163.727 1377.46 L163.727 1381.04 L158.932 1381.04 L158.932 1389.07 L154.517 1389.07 L154.517 1381.04 L138.78 1381.04 L138.78 1378.46 L154.256 1354.51 L158.932 1354.51 L158.932 1377.46 M143.764 1377.46 L154.517 1377.46 L154.517 1360.51 L153.995 1361.46 L143.764 1377.46 Z" fill="#000000" fill-rule="nonzero" fill-opacity="1" /><path clip-path="url(#clip100)" d="M189.362 1374.33 Q189.362 1382.04 186.727 1385.79 Q184.092 1389.54 178.49 1389.54 Q172.96 1389.54 170.301 1385.89 Q167.643 1382.21 167.548 1374.92 L167.548 1369.06 Q167.548 1361.44 170.183 1357.74 Q172.818 1354.03 178.443 1354.03 Q184.021 1354.03 186.656 1357.62 Q189.29 1361.18 189.362 1368.63 L189.362 1374.33 M184.97 1368.32 Q184.97 1362.74 183.404 1360.2 Q181.837 1357.64 178.443 1357.64 Q175.072 1357.64 173.53 1360.18 Q171.987 1362.72 171.939 1367.99 L171.939 1375.02 Q171.939 1380.62 173.553 1383.3 Q175.191 1385.96 178.49 1385.96 Q181.742 1385.96 183.309 1383.44 Q184.899 1380.93 184.97 1375.51 L184.97 1368.32 Z" fill="#000000" fill-rule="nonzero" fill-opacity="1" /><path clip-path="url(#clip100)" d="M157.626 1078.81 L157.626 1082.53 L156.819 1082.53 Q151.692 1082.63 148.654 1085.57 Q145.616 1088.51 145.141 1093.85 Q147.871 1090.72 152.594 1090.72 Q157.104 1090.72 159.786 1093.9 Q162.492 1097.08 162.492 1102.11 Q162.492 1107.46 159.573 1110.66 Q156.677 1113.86 151.787 1113.86 Q146.826 1113.86 143.741 1110.07 Q140.655 1106.24 140.655 1100.24 L140.655 1098.55 Q140.655 1089.01 144.714 1083.98 Q148.796 1078.92 156.843 1078.81 L157.626 1078.81 M151.858 1094.38 Q149.603 1094.38 147.705 1095.73 Q145.806 1097.08 145.07 1099.12 L145.07 1100.74 Q145.07 1105.01 146.992 1107.62 Q148.915 1110.23 151.787 1110.23 Q154.754 1110.23 156.439 1108.05 Q158.149 1105.87 158.149 1102.33 Q158.149 1098.77 156.416 1096.58 Q154.707 1094.38 151.858 1094.38 Z" fill="#000000" fill-rule="nonzero" fill-opacity="1" /><path clip-path="url(#clip100)" d="M189.362 1098.65 Q189.362 1106.36 186.727 1110.11 Q184.092 1113.86 178.49 1113.86 Q172.96 1113.86 170.301 1110.21 Q167.643 1106.53 167.548 1099.24 L167.548 1093.38 Q167.548 1085.76 170.183 1082.06 Q172.818 1078.35 178.443 1078.35 Q184.021 1078.35 186.656 1081.94 Q189.29 1085.5 189.362 1092.95 L189.362 1098.65 M184.97 1092.64 Q184.97 1087.07 183.404 1084.53 Q181.837 1081.96 178.443 1081.96 Q175.072 1081.96 173.53 1084.5 Q171.987 1087.04 171.939 1092.31 L171.939 1099.34 Q171.939 1104.94 173.553 1107.62 Q175.191 1110.28 178.49 1110.28 Q181.742 1110.28 183.309 1107.76 Q184.899 1105.25 184.97 1099.84 L184.97 1092.64 Z" fill="#000000" fill-rule="nonzero" fill-opacity="1" /><path clip-path="url(#clip100)" d="M161.353 812.172 Q161.353 814.759 159.976 816.777 Q158.623 818.794 156.297 819.934 Q159.003 821.097 160.57 823.328 Q162.16 825.559 162.16 828.384 Q162.16 832.87 159.122 835.528 Q156.107 838.187 151.17 838.187 Q146.185 838.187 143.171 835.528 Q140.18 832.846 140.18 828.384 Q140.18 825.583 141.699 823.328 Q143.242 821.073 145.948 819.91 Q143.646 818.771 142.316 816.753 Q140.987 814.735 140.987 812.172 Q140.987 807.804 143.788 805.241 Q146.589 802.677 151.17 802.677 Q155.727 802.677 158.528 805.241 Q161.353 807.804 161.353 812.172 M157.769 828.289 Q157.769 825.393 155.917 823.565 Q154.09 821.738 151.123 821.738 Q148.156 821.738 146.352 823.542 Q144.571 825.346 144.571 828.289 Q144.571 831.232 146.304 832.917 Q148.061 834.603 151.17 834.603 Q154.256 834.603 156.012 832.917 Q157.769 831.208 157.769 828.289 M151.17 806.285 Q148.583 806.285 146.969 807.899 Q145.378 809.49 145.378 812.243 Q145.378 814.878 146.945 816.516 Q148.535 818.13 151.17 818.13 Q153.805 818.13 155.371 816.516 Q156.962 814.878 156.962 812.243 Q156.962 809.608 155.324 807.947 Q153.686 806.285 151.17 806.285 Z" fill="#000000" fill-rule="nonzero" fill-opacity="1" /><path clip-path="url(#clip100)" d="M189.362 822.972 Q189.362 830.686 186.727 834.437 Q184.092 838.187 178.49 838.187 Q172.96 838.187 170.301 834.531 Q167.643 830.852 167.548 823.565 L167.548 817.702 Q167.548 810.083 170.183 806.38 Q172.818 802.677 178.443 802.677 Q184.021 802.677 186.656 806.262 Q189.29 809.822 189.362 817.275 L189.362 822.972 M184.97 816.967 Q184.97 811.389 183.404 808.849 Q181.837 806.285 178.443 806.285 Q175.072 806.285 173.53 808.825 Q171.987 811.365 171.939 816.634 L171.939 823.66 Q171.939 829.262 173.553 831.944 Q175.191 834.603 178.49 834.603 Q181.742 834.603 183.309 832.087 Q184.899 829.571 184.97 824.159 L184.97 816.967 Z" fill="#000000" fill-rule="nonzero" fill-opacity="1" /><path clip-path="url(#clip100)" d="M127.529 562.035 L123.114 562.035 L123.114 532.768 L114.26 536.02 L114.26 532.032 L126.84 527.309 L127.529 527.309 L127.529 562.035 Z" fill="#000000" fill-rule="nonzero" fill-opacity="1" /><path clip-path="url(#clip100)" d="M162.065 547.295 Q162.065 555.009 159.43 558.759 Q156.796 562.509 151.194 562.509 Q145.663 562.509 143.005 558.854 Q140.346 555.175 140.251 547.888 L140.251 542.025 Q140.251 534.406 142.886 530.703 Q145.521 527 151.146 527 Q156.724 527 159.359 530.584 Q161.994 534.145 162.065 541.598 L162.065 547.295 M157.674 541.289 Q157.674 535.711 156.107 533.171 Q154.541 530.608 151.146 530.608 Q147.776 530.608 146.233 533.148 Q144.69 535.687 144.643 540.957 L144.643 547.983 Q144.643 553.585 146.257 556.267 Q147.894 558.925 151.194 558.925 Q154.446 558.925 156.012 556.409 Q157.603 553.893 157.674 548.481 L157.674 541.289 Z" fill="#000000" fill-rule="nonzero" fill-opacity="1" /><path clip-path="url(#clip100)" d="M189.362 547.295 Q189.362 555.009 186.727 558.759 Q184.092 562.509 178.49 562.509 Q172.96 562.509 170.301 558.854 Q167.643 555.175 167.548 547.888 L167.548 542.025 Q167.548 534.406 170.183 530.703 Q172.818 527 178.443 527 Q184.021 527 186.656 530.584 Q189.29 534.145 189.362 541.598 L189.362 547.295 M184.97 541.289 Q184.97 535.711 183.404 533.171 Q181.837 530.608 178.443 530.608 Q175.072 530.608 173.53 533.148 Q171.987 535.687 171.939 540.957 L171.939 547.983 Q171.939 553.585 173.553 556.267 Q175.191 558.925 178.49 558.925 Q181.742 558.925 183.309 556.409 Q184.899 553.893 184.97 548.481 L184.97 541.289 Z" fill="#000000" fill-rule="nonzero" fill-opacity="1" /><path clip-path="url(#clip100)" d="M127.529 286.357 L123.114 286.357 L123.114 257.091 L114.26 260.342 L114.26 256.355 L126.84 251.631 L127.529 251.631 L127.529 286.357 Z" fill="#000000" fill-rule="nonzero" fill-opacity="1" /><path clip-path="url(#clip100)" d="M163.038 286.357 L140.394 286.357 L140.394 283.2 L152.357 269.908 Q155.015 266.894 156.012 265.018 Q157.033 263.12 157.033 261.102 Q157.033 258.396 155.395 256.663 Q153.757 254.931 151.028 254.931 Q147.752 254.931 145.924 256.806 Q144.12 258.657 144.12 261.98 L139.729 261.98 Q139.729 257.209 142.791 254.266 Q145.877 251.323 151.028 251.323 Q155.846 251.323 158.647 253.862 Q161.448 256.378 161.448 260.58 Q161.448 265.683 154.944 272.733 L145.687 282.773 L163.038 282.773 L163.038 286.357 Z" fill="#000000" fill-rule="nonzero" fill-opacity="1" /><path clip-path="url(#clip100)" d="M189.362 271.617 Q189.362 279.331 186.727 283.082 Q184.092 286.832 178.49 286.832 Q172.96 286.832 170.301 283.177 Q167.643 279.498 167.548 272.211 L167.548 266.348 Q167.548 258.728 170.183 255.025 Q172.818 251.323 178.443 251.323 Q184.021 251.323 186.656 254.907 Q189.29 258.467 189.362 265.92 L189.362 271.617 M184.97 265.612 Q184.97 260.034 183.404 257.494 Q181.837 254.931 178.443 254.931 Q175.072 254.931 173.53 257.47 Q171.987 260.01 171.939 265.28 L171.939 272.305 Q171.939 277.907 173.553 280.589 Q175.191 283.248 178.49 283.248 Q181.742 283.248 183.309 280.732 Q184.899 278.216 184.97 272.804 L184.97 265.612 Z" fill="#000000" fill-rule="nonzero" fill-opacity="1" /><path clip-path="url(#clip100)" d="M16.4842 1068.09 L16.4842 1061.79 L50.1333 1061.79 Q56.9545 1061.79 60.8057 1065.9 Q64.6569 1069.98 64.6569 1076.8 Q64.6569 1083.89 61.0342 1087.84 Q57.4114 1091.79 50.8839 1091.79 L50.8839 1085.52 Q54.9636 1085.52 57.2482 1083.3 Q59.5328 1081.05 59.5328 1076.8 Q59.5328 1072.92 57.085 1070.54 Q54.6372 1068.12 50.2312 1068.09 L16.4842 1068.09 Z" fill="#000000" fill-rule="nonzero" fill-opacity="1" /><path clip-path="url(#clip100)" d="M46.021 1053.66 Q40.8316 1053.66 36.6867 1051.64 Q32.5417 1049.58 30.2898 1045.96 Q28.0378 1042.31 28.0378 1037.64 Q28.0378 1030.43 33.0313 1025.99 Q38.0248 1021.52 46.3147 1021.52 L46.739 1021.52 Q51.8957 1021.52 56.008 1023.51 Q60.0877 1025.47 62.3723 1029.15 Q64.6569 1032.81 64.6569 1037.57 Q64.6569 1044.75 59.6634 1049.23 Q54.6699 1053.66 46.4453 1053.66 L46.021 1053.66 M46.739 1047.59 Q52.6137 1047.59 56.1712 1044.89 Q59.7287 1042.14 59.7287 1037.57 Q59.7287 1032.97 56.1386 1030.26 Q52.5158 1027.55 46.021 1027.55 Q40.2115 1027.55 36.6214 1030.33 Q32.9987 1033.07 32.9987 1037.64 Q32.9987 1042.11 36.5561 1044.85 Q40.1136 1047.59 46.739 1047.59 Z" fill="#000000" fill-rule="nonzero" fill-opacity="1" /><path clip-path="url(#clip100)" d="M64.0042 1007.38 L64.0042 1013.42 L28.6905 1013.42 L28.6905 1007.38 L64.0042 1007.38 M19.3236 1013.91 Q17.8549 1013.91 16.8432 1013.03 Q15.8314 1012.12 15.8314 1010.35 Q15.8314 1008.59 16.8432 1007.68 Q17.8549 1006.76 19.3236 1006.76 Q20.7923 1006.76 21.7714 1007.68 Q22.7505 1008.59 22.7505 1010.35 Q22.7505 1012.12 21.7714 1013.03 Q20.7923 1013.91 19.3236 1013.91 Z" fill="#000000" fill-rule="nonzero" fill-opacity="1" /><path clip-path="url(#clip100)" d="M28.6905 992.013 L33.1292 991.817 Q28.0378 987.77 28.0378 981.242 Q28.0378 970.048 40.6684 969.95 L64.0042 969.95 L64.0042 975.988 L40.6358 975.988 Q36.8172 976.02 34.9895 977.75 Q33.1618 979.447 33.1618 983.07 Q33.1618 986.007 34.7284 988.227 Q36.295 990.446 38.8408 991.686 L64.0042 991.686 L64.0042 997.724 L28.6905 997.724 L28.6905 992.013 Z" fill="#000000" fill-rule="nonzero" fill-opacity="1" /><path clip-path="url(#clip100)" d="M20.1395 952.652 L28.6905 952.652 L28.6905 946.059 L33.3577 946.059 L33.3577 952.652 L55.2573 952.652 Q57.3788 952.652 58.4558 951.771 Q59.5002 950.89 59.5002 948.768 Q59.5002 947.724 59.1086 945.896 L64.0042 945.896 Q64.6569 948.279 64.6569 950.531 Q64.6569 954.578 62.2091 956.634 Q59.7613 958.69 55.2573 958.69 L33.3577 958.69 L33.3577 965.119 L28.6905 965.119 L28.6905 958.69 L20.1395 958.69 L20.1395 952.652 Z" fill="#000000" fill-rule="nonzero" fill-opacity="1" /><path clip-path="url(#clip100)" d="M51.602 895.275 L51.602 915.184 L64.0042 919.656 L64.0042 926.118 L16.4842 907.971 L16.4842 902.488 L64.0042 884.309 L64.0042 890.739 L51.602 895.275 M46.4453 913.291 L46.4453 897.136 L24.2192 905.23 L46.4453 913.291 Z" fill="#000000" fill-rule="nonzero" fill-opacity="1" /><path clip-path="url(#clip100)" d="M28.6905 873.147 L33.1292 872.952 Q28.0378 868.905 28.0378 862.377 Q28.0378 851.182 40.6684 851.085 L64.0042 851.085 L64.0042 857.122 L40.6358 857.122 Q36.8172 857.155 34.9895 858.885 Q33.1618 860.582 33.1618 864.205 Q33.1618 867.142 34.7284 869.361 Q36.295 871.581 38.8408 872.821 L64.0042 872.821 L64.0042 878.859 L28.6905 878.859 L28.6905 873.147 Z" fill="#000000" fill-rule="nonzero" fill-opacity="1" /><path clip-path="url(#clip100)" d="M46.0536 843.415 Q37.7964 843.415 32.9334 839.596 Q28.0378 835.778 28.0378 829.479 Q28.0378 823.016 32.607 819.394 L28.6905 819.1 L28.6905 813.584 L63.1556 813.584 Q70.0094 813.584 73.9586 817.664 Q77.9077 821.711 77.9077 828.565 Q77.9077 832.383 76.2758 836.039 Q74.6439 839.694 71.8045 841.62 L68.1817 838.486 Q72.9794 834.603 72.9794 828.989 Q72.9794 824.583 70.499 822.135 Q68.0186 819.655 63.5146 819.655 L60.4793 819.655 Q64.6569 823.277 64.6569 829.544 Q64.6569 835.745 59.6634 839.596 Q54.6699 843.415 46.0536 843.415 M46.739 837.344 Q52.7116 837.344 56.1386 834.896 Q59.5328 832.449 59.5328 828.043 Q59.5328 822.331 54.3435 819.655 L38.2206 819.655 Q33.1618 822.429 33.1618 827.977 Q33.1618 832.383 36.5888 834.864 Q40.0157 837.344 46.739 837.344 Z" fill="#000000" fill-rule="nonzero" fill-opacity="1" /><path clip-path="url(#clip100)" d="M64.0042 797.918 L64.0042 803.956 L13.8732 803.956 L13.8732 797.918 L64.0042 797.918 Z" fill="#000000" fill-rule="nonzero" fill-opacity="1" /><path clip-path="url(#clip100)" d="M64.6569 773.603 Q64.6569 780.784 59.9571 785.288 Q55.2247 789.792 47.3265 789.792 L46.2168 789.792 Q40.9622 789.792 36.8499 787.801 Q32.7049 785.777 30.3877 782.187 Q28.0378 778.564 28.0378 774.354 Q28.0378 767.468 32.5744 763.649 Q37.111 759.83 45.564 759.83 L48.0771 759.83 L48.0771 783.754 Q53.2991 783.623 56.5302 780.718 Q59.7287 777.781 59.7287 773.277 Q59.7287 770.079 58.4232 767.859 Q57.1177 765.64 54.9636 763.975 L57.8357 760.287 Q64.6569 764.726 64.6569 773.603 M32.9987 774.354 Q32.9987 778.009 35.6749 780.49 Q38.3186 782.97 43.1162 783.558 L43.1162 765.868 L42.6593 765.868 Q38.0575 766.129 35.5444 768.349 Q32.9987 770.568 32.9987 774.354 Z" fill="#000000" fill-rule="nonzero" fill-opacity="1" /><path clip-path="url(#clip100)" d="M44.7155 736.527 Q37.3394 736.527 30.5509 734.569 Q23.7623 732.578 18.2139 728.662 Q12.6656 724.745 10.381 720.535 L14.3627 719.295 Q18.0181 724.06 25.5247 727.128 Q33.0313 730.163 42.3329 730.457 L45.1071 730.489 Q57.7051 730.489 66.9742 725.888 Q72.5225 723.113 75.6557 719.295 L79.3437 720.535 Q76.9286 724.876 71.2497 728.825 Q60.1529 736.527 44.7155 736.527 Z" fill="#000000" fill-rule="nonzero" fill-opacity="1" /><path clip-path="url(#clip100)" d="M64.0042 712.506 L16.4842 712.506 L16.4842 699.092 Q16.4842 692.891 19.2257 688.126 Q21.9672 683.361 27.026 680.783 Q32.0848 678.172 38.6449 678.139 L41.6802 678.139 Q48.4035 678.139 53.4623 680.75 Q58.5211 683.328 61.23 688.159 Q63.9389 692.956 64.0042 699.353 L64.0042 712.506 M21.6409 706.24 L58.8801 706.24 L58.8801 699.647 Q58.8801 692.402 54.3761 688.387 Q49.8722 684.34 41.5497 684.34 L38.7755 684.34 Q30.6814 684.34 26.2101 688.159 Q21.7061 691.945 21.6409 698.929 L21.6409 706.24 Z" fill="#000000" fill-rule="nonzero" fill-opacity="1" /><path clip-path="url(#clip100)" d="M64.6569 654.967 Q64.6569 662.147 59.9571 666.651 Q55.2247 671.155 47.3265 671.155 L46.2168 671.155 Q40.9622 671.155 36.8499 669.164 Q32.7049 667.14 30.3877 663.55 Q28.0378 659.927 28.0378 655.717 Q28.0378 648.831 32.5744 645.012 Q37.111 641.194 45.564 641.194 L48.0771 641.194 L48.0771 665.117 Q53.2991 664.986 56.5302 662.082 Q59.7287 659.144 59.7287 654.64 Q59.7287 651.442 58.4232 649.222 Q57.1177 647.003 54.9636 645.339 L57.8357 641.651 Q64.6569 646.089 64.6569 654.967 M32.9987 655.717 Q32.9987 659.373 35.6749 661.853 Q38.3186 664.334 43.1162 664.921 L43.1162 647.232 L42.6593 647.232 Q38.0575 647.493 35.5444 649.712 Q32.9987 651.931 32.9987 655.717 Z" fill="#000000" fill-rule="nonzero" fill-opacity="1" /><path clip-path="url(#clip100)" d="M46.0536 635.645 Q37.7964 635.645 32.9334 631.827 Q28.0378 628.008 28.0378 621.709 Q28.0378 615.247 32.607 611.624 L28.6905 611.33 L28.6905 605.815 L63.1556 605.815 Q70.0094 605.815 73.9586 609.894 Q77.9077 613.941 77.9077 620.795 Q77.9077 624.614 76.2758 628.269 Q74.6439 631.925 71.8045 633.85 L68.1817 630.717 Q72.9794 626.833 72.9794 621.22 Q72.9794 616.814 70.499 614.366 Q68.0186 611.885 63.5146 611.885 L60.4793 611.885 Q64.6569 615.508 64.6569 621.774 Q64.6569 627.975 59.6634 631.827 Q54.6699 635.645 46.0536 635.645 M46.739 629.575 Q52.7116 629.575 56.1386 627.127 Q59.5328 624.679 59.5328 620.273 Q59.5328 614.562 54.3435 611.885 L38.2206 611.885 Q33.1618 614.659 33.1618 620.208 Q33.1618 624.614 36.5888 627.094 Q40.0157 629.575 46.739 629.575 Z" fill="#000000" fill-rule="nonzero" fill-opacity="1" /><path clip-path="url(#clip100)" d="M34.1083 579.64 Q33.8799 581.01 33.8799 582.61 Q33.8799 588.55 38.9387 590.671 L64.0042 590.671 L64.0042 596.709 L28.6905 596.709 L28.6905 590.834 L32.7702 590.736 Q28.0378 587.766 28.0378 582.316 Q28.0378 580.553 28.4947 579.64 L34.1083 579.64 Z" fill="#000000" fill-rule="nonzero" fill-opacity="1" /><path clip-path="url(#clip100)" d="M64.6569 559.437 Q64.6569 566.617 59.9571 571.121 Q55.2247 575.625 47.3265 575.625 L46.2168 575.625 Q40.9622 575.625 36.8499 573.634 Q32.7049 571.611 30.3877 568.021 Q28.0378 564.398 28.0378 560.188 Q28.0378 553.301 32.5744 549.483 Q37.111 545.664 45.564 545.664 L48.0771 545.664 L48.0771 569.587 Q53.2991 569.457 56.5302 566.552 Q59.7287 563.615 59.7287 559.111 Q59.7287 555.912 58.4232 553.693 Q57.1177 551.474 54.9636 549.809 L57.8357 546.121 Q64.6569 550.56 64.6569 559.437 M32.9987 560.188 Q32.9987 563.843 35.6749 566.324 Q38.3186 568.804 43.1162 569.391 L43.1162 551.702 L42.6593 551.702 Q38.0575 551.963 35.5444 554.182 Q32.9987 556.402 32.9987 560.188 Z" fill="#000000" fill-rule="nonzero" fill-opacity="1" /><path clip-path="url(#clip100)" d="M64.6569 524.025 Q64.6569 531.206 59.9571 535.71 Q55.2247 540.214 47.3265 540.214 L46.2168 540.214 Q40.9622 540.214 36.8499 538.223 Q32.7049 536.199 30.3877 532.609 Q28.0378 528.986 28.0378 524.776 Q28.0378 517.89 32.5744 514.071 Q37.111 510.253 45.564 510.253 L48.0771 510.253 L48.0771 534.176 Q53.2991 534.045 56.5302 531.14 Q59.7287 528.203 59.7287 523.699 Q59.7287 520.501 58.4232 518.281 Q57.1177 516.062 54.9636 514.397 L57.8357 510.709 Q64.6569 515.148 64.6569 524.025 M32.9987 524.776 Q32.9987 528.432 35.6749 530.912 Q38.3186 533.392 43.1162 533.98 L43.1162 516.29 L42.6593 516.29 Q38.0575 516.552 35.5444 518.771 Q32.9987 520.99 32.9987 524.776 Z" fill="#000000" fill-rule="nonzero" fill-opacity="1" /><path clip-path="url(#clip100)" d="M54.6372 482.707 Q52.1894 482.707 50.8513 484.567 Q49.4805 486.395 48.5014 490.996 Q47.5223 495.566 46.1515 498.275 Q44.7808 500.951 42.8878 502.256 Q40.9948 503.529 38.3838 503.529 Q34.0431 503.529 31.0404 499.874 Q28.0378 496.186 28.0378 490.474 Q28.0378 484.469 31.1383 480.748 Q34.2389 476.995 39.0692 476.995 L39.0692 483.066 Q36.5888 483.066 34.7937 485.187 Q32.9987 487.276 32.9987 490.474 Q32.9987 493.771 34.4347 495.631 Q35.8708 497.491 38.188 497.491 Q40.3747 497.491 41.4844 495.762 Q42.594 494.032 43.6058 489.528 Q44.6176 484.991 46.021 482.184 Q47.4244 479.378 49.4153 478.039 Q51.3735 476.669 54.2129 476.669 Q58.9454 476.669 61.8175 480.455 Q64.6569 484.241 64.6569 490.278 Q64.6569 494.521 63.1556 497.785 Q61.6543 501.049 58.978 502.909 Q56.2691 504.737 53.1359 504.737 L53.1359 498.699 Q56.1712 498.536 57.9662 496.284 Q59.7287 493.999 59.7287 490.278 Q59.7287 486.852 58.3579 484.795 Q56.9545 482.707 54.6372 482.707 Z" fill="#000000" fill-rule="nonzero" fill-opacity="1" /><path clip-path="url(#clip100)" d="M45.0418 454.867 Q52.32 454.867 59.0106 456.793 Q65.6687 458.685 71.3149 462.635 Q76.9612 466.551 79.3437 470.859 L75.6557 472.132 Q71.8045 467.106 63.7104 464.071 Q55.5837 461.003 45.6946 460.937 L44.6502 460.937 Q37.7964 460.937 31.9216 462.374 Q26.0143 463.81 21.3471 466.388 Q16.68 468.934 14.069 472.132 L10.381 470.859 Q12.7635 466.551 18.3445 462.667 Q23.9255 458.751 30.6488 456.825 Q37.3721 454.867 45.0418 454.867 Z" fill="#000000" fill-rule="nonzero" fill-opacity="1" /><path clip-path="url(#clip100)" d="M882.688 12.096 L890.705 12.096 L890.705 54.9222 Q890.705 63.6037 885.471 68.5052 Q880.279 73.4068 871.597 73.4068 Q862.583 73.4068 857.557 68.796 Q852.531 64.1852 852.531 55.8775 L860.506 55.8775 Q860.506 61.0698 863.331 63.9775 Q866.197 66.8852 871.597 66.8852 Q876.54 66.8852 879.573 63.7698 Q882.646 60.6545 882.688 55.0468 L882.688 12.096 Z" fill="#000000" fill-rule="nonzero" fill-opacity="1" /><path clip-path="url(#clip100)" d="M901.048 49.6883 Q901.048 43.0837 903.623 37.8083 Q906.24 32.5329 910.851 29.6668 Q915.503 26.8006 921.443 26.8006 Q930.623 26.8006 936.273 33.156 Q941.963 39.5114 941.963 50.0622 L941.963 50.6022 Q941.963 57.1652 939.43 62.3991 Q936.937 67.5914 932.243 70.4991 Q927.591 73.4068 921.526 73.4068 Q912.388 73.4068 906.697 67.0514 Q901.048 60.696 901.048 50.2283 L901.048 49.6883 M908.774 50.6022 Q908.774 58.0791 912.222 62.6068 Q915.711 67.1345 921.526 67.1345 Q927.383 67.1345 930.831 62.5652 Q934.279 57.9545 934.279 49.6883 Q934.279 42.2945 930.748 37.7252 Q927.259 33.1145 921.443 33.1145 Q915.753 33.1145 912.263 37.6422 Q908.774 42.1698 908.774 50.6022 Z" fill="#000000" fill-rule="nonzero" fill-opacity="1" /><path clip-path="url(#clip100)" d="M959.95 72.576 L952.265 72.576 L952.265 27.6314 L959.95 27.6314 L959.95 72.576 M951.642 15.7098 Q951.642 13.8406 952.763 12.5529 Q953.926 11.2652 956.17 11.2652 Q958.413 11.2652 959.576 12.5529 Q960.739 13.8406 960.739 15.7098 Q960.739 17.5791 959.576 18.8252 Q958.413 20.0714 956.17 20.0714 Q953.926 20.0714 952.763 18.8252 Q951.642 17.5791 951.642 15.7098 Z" fill="#000000" fill-rule="nonzero" fill-opacity="1" /><path clip-path="url(#clip100)" d="M979.514 27.6314 L979.763 33.2806 Q984.914 26.8006 993.222 26.8006 Q1007.47 26.8006 1007.59 42.876 L1007.59 72.576 L999.91 72.576 L999.91 42.8345 Q999.868 37.9745 997.666 35.6483 Q995.506 33.3222 990.896 33.3222 Q987.157 33.3222 984.333 35.316 Q981.508 37.3098 979.93 40.5498 L979.93 72.576 L972.245 72.576 L972.245 27.6314 L979.514 27.6314 Z" fill="#000000" fill-rule="nonzero" fill-opacity="1" /><path clip-path="url(#clip100)" d="M1029.61 16.7483 L1029.61 27.6314 L1038 27.6314 L1038 33.5714 L1029.61 33.5714 L1029.61 61.4437 Q1029.61 64.1437 1030.73 65.5145 Q1031.85 66.8437 1034.55 66.8437 Q1035.88 66.8437 1038.21 66.3452 L1038.21 72.576 Q1035.18 73.4068 1032.31 73.4068 Q1027.16 73.4068 1024.54 70.2914 Q1021.92 67.176 1021.92 61.4437 L1021.92 33.5714 L1013.74 33.5714 L1013.74 27.6314 L1021.92 27.6314 L1021.92 16.7483 L1029.61 16.7483 Z" fill="#000000" fill-rule="nonzero" fill-opacity="1" /><path clip-path="url(#clip100)" d="M1102.63 56.7914 L1077.3 56.7914 L1071.6 72.576 L1063.38 72.576 L1086.48 12.096 L1093.45 12.096 L1116.59 72.576 L1108.41 72.576 L1102.63 56.7914 M1079.7 50.2283 L1100.27 50.2283 L1089.96 21.9406 L1079.7 50.2283 Z" fill="#000000" fill-rule="nonzero" fill-opacity="1" /><path clip-path="url(#clip100)" d="M1130.8 27.6314 L1131.05 33.2806 Q1136.2 26.8006 1144.5 26.8006 Q1158.75 26.8006 1158.88 42.876 L1158.88 72.576 L1151.19 72.576 L1151.19 42.8345 Q1151.15 37.9745 1148.95 35.6483 Q1146.79 33.3222 1142.18 33.3222 Q1138.44 33.3222 1135.62 35.316 Q1132.79 37.3098 1131.21 40.5498 L1131.21 72.576 L1123.53 72.576 L1123.53 27.6314 L1130.8 27.6314 Z" fill="#000000" fill-rule="nonzero" fill-opacity="1" /><path clip-path="url(#clip100)" d="M1168.64 49.7298 Q1168.64 39.2206 1173.5 33.0314 Q1178.36 26.8006 1186.38 26.8006 Q1194.6 26.8006 1199.21 32.616 L1199.58 27.6314 L1206.6 27.6314 L1206.6 71.496 Q1206.6 80.2191 1201.41 85.2452 Q1196.26 90.2714 1187.54 90.2714 Q1182.68 90.2714 1178.03 88.1945 Q1173.37 86.1175 1170.92 82.5037 L1174.91 77.8929 Q1179.85 83.9991 1187 83.9991 Q1192.61 83.9991 1195.72 80.8422 Q1198.88 77.6852 1198.88 71.9529 L1198.88 68.0898 Q1194.27 73.4068 1186.29 73.4068 Q1178.4 73.4068 1173.5 67.0514 Q1168.64 60.696 1168.64 49.7298 M1176.36 50.6022 Q1176.36 58.2037 1179.48 62.5652 Q1182.6 66.8852 1188.2 66.8852 Q1195.47 66.8852 1198.88 60.2806 L1198.88 39.7606 Q1195.35 33.3222 1188.29 33.3222 Q1182.68 33.3222 1179.52 37.6837 Q1176.36 42.0452 1176.36 50.6022 Z" fill="#000000" fill-rule="nonzero" fill-opacity="1" /><path clip-path="url(#clip100)" d="M1226.54 72.576 L1218.86 72.576 L1218.86 8.77292 L1226.54 8.77292 L1226.54 72.576 Z" fill="#000000" fill-rule="nonzero" fill-opacity="1" /><path clip-path="url(#clip100)" d="M1257.49 73.4068 Q1248.35 73.4068 1242.62 67.4252 Q1236.89 61.4022 1236.89 51.3498 L1236.89 49.9375 Q1236.89 43.2498 1239.42 38.016 Q1242 32.7406 1246.56 29.7914 Q1251.18 26.8006 1256.53 26.8006 Q1265.3 26.8006 1270.16 32.5745 Q1275.02 38.3483 1275.02 49.1068 L1275.02 52.3052 L1244.57 52.3052 Q1244.74 58.9514 1248.43 63.0637 Q1252.17 67.1345 1257.9 67.1345 Q1261.98 67.1345 1264.8 65.4729 Q1267.62 63.8114 1269.74 61.0698 L1274.44 64.7252 Q1268.79 73.4068 1257.49 73.4068 M1256.53 33.1145 Q1251.88 33.1145 1248.72 36.5206 Q1245.57 39.8852 1244.82 45.9914 L1267.33 45.9914 L1267.33 45.4098 Q1267 39.5529 1264.18 36.3545 Q1261.35 33.1145 1256.53 33.1145 Z" fill="#000000" fill-rule="nonzero" fill-opacity="1" /><path clip-path="url(#clip100)" d="M1310.08 60.6545 Q1310.08 57.5391 1307.71 55.836 Q1305.38 54.0914 1299.53 52.8452 Q1293.71 51.5991 1290.26 49.8545 Q1286.86 48.1098 1285.2 45.7006 Q1283.58 43.2914 1283.58 39.9683 Q1283.58 34.4437 1288.23 30.6222 Q1292.92 26.8006 1300.19 26.8006 Q1307.83 26.8006 1312.57 30.7468 Q1317.35 34.6929 1317.35 40.8406 L1309.62 40.8406 Q1309.62 37.6837 1306.92 35.3991 Q1304.26 33.1145 1300.19 33.1145 Q1296 33.1145 1293.63 34.9422 Q1291.26 36.7698 1291.26 39.7191 Q1291.26 42.5022 1293.46 43.9145 Q1295.66 45.3268 1301.4 46.6145 Q1307.17 47.9022 1310.74 49.6883 Q1314.31 51.4745 1316.02 54.0083 Q1317.76 56.5006 1317.76 60.1145 Q1317.76 66.1375 1312.94 69.7929 Q1308.12 73.4068 1300.44 73.4068 Q1295.04 73.4068 1290.89 71.496 Q1286.73 69.5852 1284.36 66.1791 Q1282.04 62.7314 1282.04 58.7437 L1289.72 58.7437 Q1289.93 62.6068 1292.8 64.8914 Q1295.7 67.1345 1300.44 67.1345 Q1304.8 67.1345 1307.42 65.3898 Q1310.08 63.6037 1310.08 60.6545 Z" fill="#000000" fill-rule="nonzero" fill-opacity="1" /><path clip-path="url(#clip100)" d="M1396.56 44.2883 Q1396.56 53.1775 1393.57 59.8237 Q1390.58 66.4283 1385.1 69.9175 Q1379.61 73.4068 1372.3 73.4068 Q1365.16 73.4068 1359.63 69.9175 Q1354.11 66.3868 1351.03 59.9068 Q1348 53.3852 1347.92 44.8283 L1347.92 40.4668 Q1347.92 31.7437 1350.95 25.056 Q1353.98 18.3683 1359.51 14.8375 Q1365.07 11.2652 1372.22 11.2652 Q1379.49 11.2652 1385.01 14.796 Q1390.58 18.2852 1393.57 24.9729 Q1396.56 31.6191 1396.56 40.4668 L1396.56 44.2883 M1388.63 40.3837 Q1388.63 29.6252 1384.31 23.8929 Q1379.99 18.1191 1372.22 18.1191 Q1364.66 18.1191 1360.3 23.8929 Q1355.98 29.6252 1355.85 39.8437 L1355.85 44.2883 Q1355.85 54.7145 1360.21 60.696 Q1364.62 66.636 1372.3 66.636 Q1380.03 66.636 1384.26 61.0283 Q1388.5 55.3791 1388.63 44.8698 L1388.63 40.3837 Z" fill="#000000" fill-rule="nonzero" fill-opacity="1" /><path clip-path="url(#clip100)" d="M1422.15 62.1498 L1433.28 27.6314 L1441.13 27.6314 L1425.01 72.576 L1419.16 72.576 L1402.87 27.6314 L1410.72 27.6314 L1422.15 62.1498 Z" fill="#000000" fill-rule="nonzero" fill-opacity="1" /><path clip-path="url(#clip100)" d="M1467.18 73.4068 Q1458.04 73.4068 1452.3 67.4252 Q1446.57 61.4022 1446.57 51.3498 L1446.57 49.9375 Q1446.57 43.2498 1449.11 38.016 Q1451.68 32.7406 1456.25 29.7914 Q1460.86 26.8006 1466.22 26.8006 Q1474.98 26.8006 1479.84 32.5745 Q1484.7 38.3483 1484.7 49.1068 L1484.7 52.3052 L1454.26 52.3052 Q1454.42 58.9514 1458.12 63.0637 Q1461.86 67.1345 1467.59 67.1345 Q1471.66 67.1345 1474.49 65.4729 Q1477.31 63.8114 1479.43 61.0698 L1484.12 64.7252 Q1478.47 73.4068 1467.18 73.4068 M1466.22 33.1145 Q1461.57 33.1145 1458.41 36.5206 Q1455.25 39.8852 1454.51 45.9914 L1477.02 45.9914 L1477.02 45.4098 Q1476.69 39.5529 1473.86 36.3545 Q1471.04 33.1145 1466.22 33.1145 Z" fill="#000000" fill-rule="nonzero" fill-opacity="1" /><path clip-path="url(#clip100)" d="M1515.32 34.5268 Q1513.57 34.236 1511.54 34.236 Q1503.98 34.236 1501.28 40.6745 L1501.28 72.576 L1493.59 72.576 L1493.59 27.6314 L1501.07 27.6314 L1501.2 32.8237 Q1504.98 26.8006 1511.91 26.8006 Q1514.16 26.8006 1515.32 27.3822 L1515.32 34.5268 Z" fill="#000000" fill-rule="nonzero" fill-opacity="1" /><path clip-path="url(#clip100)" d="M1586.43 18.6591 L1566.99 18.6591 L1566.99 72.576 L1559.06 72.576 L1559.06 18.6591 L1539.66 18.6591 L1539.66 12.096 L1586.43 12.096 L1586.43 18.6591 Z" fill="#000000" fill-rule="nonzero" fill-opacity="1" /><path clip-path="url(#clip100)" d="M1602.55 72.576 L1594.86 72.576 L1594.86 27.6314 L1602.55 27.6314 L1602.55 72.576 M1594.24 15.7098 Q1594.24 13.8406 1595.36 12.5529 Q1596.53 11.2652 1598.77 11.2652 Q1601.01 11.2652 1602.18 12.5529 Q1603.34 13.8406 1603.34 15.7098 Q1603.34 17.5791 1602.18 18.8252 Q1601.01 20.0714 1598.77 20.0714 Q1596.53 20.0714 1595.36 18.8252 Q1594.24 17.5791 1594.24 15.7098 Z" fill="#000000" fill-rule="nonzero" fill-opacity="1" /><path clip-path="url(#clip100)" d="M1622.07 27.6314 L1622.28 32.616 Q1627.22 26.8006 1635.61 26.8006 Q1645.04 26.8006 1648.45 34.0283 Q1650.69 30.7883 1654.26 28.7945 Q1657.88 26.8006 1662.78 26.8006 Q1677.57 26.8006 1677.82 42.4606 L1677.82 72.576 L1670.13 72.576 L1670.13 42.9175 Q1670.13 38.0991 1667.93 35.7314 Q1665.73 33.3222 1660.54 33.3222 Q1656.26 33.3222 1653.43 35.8975 Q1650.61 38.4314 1650.15 42.7514 L1650.15 72.576 L1642.43 72.576 L1642.43 43.1252 Q1642.43 33.3222 1632.83 33.3222 Q1625.27 33.3222 1622.49 39.7606 L1622.49 72.576 L1614.8 72.576 L1614.8 27.6314 L1622.07 27.6314 Z" fill="#000000" fill-rule="nonzero" fill-opacity="1" /><path clip-path="url(#clip100)" d="M1708.06 73.4068 Q1698.92 73.4068 1693.19 67.4252 Q1687.45 61.4022 1687.45 51.3498 L1687.45 49.9375 Q1687.45 43.2498 1689.99 38.016 Q1692.56 32.7406 1697.13 29.7914 Q1701.74 26.8006 1707.1 26.8006 Q1715.87 26.8006 1720.73 32.5745 Q1725.59 38.3483 1725.59 49.1068 L1725.59 52.3052 L1695.14 52.3052 Q1695.3 58.9514 1699 63.0637 Q1702.74 67.1345 1708.47 67.1345 Q1712.54 67.1345 1715.37 65.4729 Q1718.19 63.8114 1720.31 61.0698 L1725 64.7252 Q1719.36 73.4068 1708.06 73.4068 M1707.1 33.1145 Q1702.45 33.1145 1699.29 36.5206 Q1696.14 39.8852 1695.39 45.9914 L1717.9 45.9914 L1717.9 45.4098 Q1717.57 39.5529 1714.74 36.3545 Q1711.92 33.1145 1707.1 33.1145 Z" fill="#000000" fill-rule="nonzero" fill-opacity="1" /><polyline clip-path="url(#clip102)" style="stroke:#ff4747; stroke-linecap:round; stroke-linejoin:round; stroke-width:8; stroke-opacity:1; fill:none" points="285.571,1135.53 292.195,1128.07 298.818,1122.4 305.442,1117.35 312.066,1112.61 318.689,1111.29 325.313,1116.31 331.937,1126.05 338.56,1134.45 345.184,1142.6 351.808,1155.89 358.431,1164.87 365.055,1173.21 371.679,1187.29 378.303,1203.79 384.926,1217.58 391.55,1228.71 398.174,1240.4 404.797,1254.45 411.421,1260.89 418.045,1269.45 424.668,1281.45 431.292,1291.64 437.916,1284.07 444.539,1273.37 451.163,1257.43 457.787,1238.7 464.41,1206.25 471.034,1170.78 477.658,1124.84 484.281,1082.44 490.905,1036.95 497.529,1002.68 504.152,976.414 510.776,975.973 517.4,988.123 524.024,995.136 530.647,1007.96 537.271,1013.37 543.895,1016.51 550.518,1018.48 557.142,1015.48 563.766,1016.92 570.389,1022.76 577.013,1020.57 583.637,1034.86 590.26,1057 596.884,1095.03 603.508,1136.59 610.131,1169.44 616.755,1181.79 623.379,1191.1 630.002,1203.91 636.626,1226.93 643.25,1266.08 649.873,1308.77 656.497,1340.67 663.121,1362.11 669.745,1364.61 676.368,1367.65 682.992,1356.94 689.616,1340.31 696.239,1306.46 702.863,1267.63 709.487,1227.39 716.11,1195.63 722.734,1168.53 729.358,1145.36 735.981,1120.1 742.605,1104.15 749.229,1090.75 755.852,1090.05 762.476,1101.77 769.1,1119.28 775.723,1137.15 782.347,1144.55 788.971,1154.39 795.594,1161.07 802.218,1170.03 808.842,1181.43 815.466,1192.42 822.089,1199.71 828.713,1206.98 835.337,1206.34 841.96,1202.7 848.584,1189.51 855.208,1176.41 861.831,1158.5 868.455,1137.89 875.079,1113.66 881.702,1087.22 888.326,1054.31 894.95,1028.89 901.573,1007.33 908.197,990.991 914.821,982.6 921.444,979.239 928.068,979.141 934.692,968.115 941.315,953.491 947.939,936.528 954.563,911.393 961.187,881.73 967.81,858.402 974.434,840.275 981.058,833.948 987.681,829.702 994.305,833.975 1000.93,834.925 1007.55,836.027 1014.18,838.483 1020.8,841.17 1027.42,843.761 1034.05,851.481 1040.67,866.125 1047.29,888.01 1053.92,915.113 1060.54,944.022 1067.17,970.355 1073.79,985.98 1080.41,982.174 1087.04,961.911 1093.66,951.076 1100.28,960.908 1106.91,991.523 1113.53,1032.36 1120.15,1081.48 1126.78,1127.03 1133.4,1160.5 1140.03,1182.99 1146.65,1208.14 1153.27,1238.49 1159.9,1269.72 1166.52,1288.57 1173.14,1303.79 1179.77,1312.47 1186.39,1318.12 1193.02,1319.72 1199.64,1316.42 1206.26,1310.18 1212.89,1301.96 1219.51,1290.92 1226.13,1285.05 1232.76,1281.45 1239.38,1281.3 1246,1283.55 1252.63,1290.34 1259.25,1295.93 1265.88,1300.52 1272.5,1304.23 1279.12,1308.58 1285.75,1314.1 1292.37,1317.2 1298.99,1318.16 1305.62,1318.02 1312.24,1315.72 1318.87,1309.2 1325.49,1308.3 1332.11,1313.09 1338.74,1318.29 1345.36,1321.88 1351.98,1322.61 1358.61,1321.8 1365.23,1317.12 1371.85,1308.43 1378.48,1302.72 1385.1,1302.87 1391.73,1306.04 1398.35,1314.9 1404.97,1311.2 1411.6,1301.62 1418.22,1273.45 1424.84,1247.23 1431.47,1217.37 1438.09,1200.6 1444.72,1199.29 1451.34,1207.78 1457.96,1209.02 1464.59,1209.08 1471.21,1197.42 1477.83,1193.05 1484.46,1184.04 1491.08,1177.14 1497.7,1173.73 1504.33,1169 1510.95,1164.75 1517.58,1165.84 1524.2,1171.9 1530.82,1180.5 1537.45,1187.64 1544.07,1187.98 1550.69,1181.53 1557.32,1165.08 1563.94,1145.95 1570.57,1124.09 1577.19,1098.56 1583.81,1073.76 1590.44,1054.25 1597.06,1033.59 1603.68,1013.47 1610.31,996.092 1616.93,986.177 1623.55,979.838 1630.18,971.788 1636.8,972.634 1643.43,981.267 1650.05,985.129 1656.67,986.758 1663.3,985.546 1669.92,981.484 1676.54,975.379 1683.17,964.63 1689.79,957.804 1696.42,954.327 1703.04,950.098 1709.66,947.1 1716.29,951.942 1722.91,963.529 1729.53,986.674 1736.16,1014.52 1742.78,1049.13 1749.4,1088.6 1756.03,1119.96 1762.65,1127.83 1769.28,1116.13 1775.9,1095.72 1782.52,1078.56 1789.15,1063.58 1795.77,1064.14 1802.39,1089.8 1809.02,1129.01 1815.64,1170.22 1822.27,1203.08 1828.89,1237.26 1835.51,1259.96 1842.14,1268.49 1848.76,1270.73 1855.38,1275.23 1862.01,1280.52 1868.63,1288.37 1875.25,1292.33 1881.88,1298.29 1888.5,1298.94 1895.13,1299.81 1901.75,1299.33 1908.37,1298.67 1915,1298.44 1921.62,1296.4 1928.24,1288.67 1934.87,1274.9 1941.49,1259.5 1948.12,1246.82 1954.74,1237.33 1961.36,1236.08 1967.99,1244.29 1974.61,1257.1 1981.23,1266.13 1987.86,1270.99 1994.48,1274.71 2001.1,1281.19 2007.73,1280.95 2014.35,1276.4 2020.98,1278.51 2027.6,1284.96 2034.22,1300.35 2040.85,1321.94 2047.47,1352.39 2054.09,1379.84 2060.72,1386.4 2067.34,1377.88 2073.97,1363.86 2080.59,1344.19 2087.21,1333.49 2093.84,1320.6 2100.46,1306.51 2107.08,1280.88 2113.71,1249.35 2120.33,1211.27 2126.95,1183.93 2133.58,1170.18 2140.2,1179.88 2146.83,1197.43 2153.45,1218.67 2160.07,1237.85 2166.7,1252.05 2173.32,1253.63 2179.94,1247.38 2186.57,1233.14 2193.19,1218.14 2199.82,1202.16 2206.44,1190.59 2213.06,1187.14 2219.69,1188.42 2226.31,1192.11 2232.93,1188.97 2239.56,1187.63 2246.18,1189.6 2252.8,1187.41 2259.43,1181.12 2266.05,1173.41 2272.68,1162.28 2279.3,1147.59 2285.92,1130.39 2292.55,1119.3 "/>
<polyline clip-path="url(#clip102)" style="stroke:#00bcb4; stroke-linecap:round; stroke-linejoin:round; stroke-width:8; stroke-opacity:1; fill:none" points="285.571,442.28 292.195,448.108 298.818,454.338 305.442,455.072 312.066,453.383 318.689,454.888 325.313,463.486 331.937,475.686 338.56,488.586 345.184,505.236 351.808,514.954 358.431,508.284 365.055,498.164 371.679,492.308 378.303,479.595 384.926,469.512 391.55,467.531 398.174,480.43 404.797,488.86 411.421,485.232 418.045,487.302 424.668,494.234 431.292,493.978 437.916,487.51 444.539,482.117 451.163,477.663 457.787,467.832 464.41,458.973 471.034,457.935 477.658,455.708 484.281,456.355 490.905,450.949 497.529,444.188 504.152,433.117 510.776,429.034 517.4,433.25 524.024,435.428 530.647,442.765 537.271,456.27 543.895,469.349 550.518,482.014 557.142,489.901 563.766,498.106 570.389,504.793 577.013,505.869 583.637,509.74 590.26,511.044 596.884,507.534 603.508,499.85 610.131,488.295 616.755,476.905 623.379,467.898 630.002,462.224 636.626,458.823 643.25,458.171 649.873,459.229 656.497,456.69 663.121,457.498 669.745,457.419 676.368,456.786 682.992,452.897 689.616,445.255 696.239,429.247 702.863,408.109 709.487,385.182 716.11,374.724 722.734,371.469 729.358,372.591 735.981,376.119 742.605,384.153 749.229,393.145 755.852,404.764 762.476,426.424 769.1,457.995 775.723,493.245 782.347,525.797 788.971,546.099 795.594,550.084 802.218,552.803 808.842,558.717 815.466,561.479 822.089,566.062 828.713,577.914 835.337,590.154 841.96,587.444 848.584,563.933 855.208,537.473 861.831,508.323 868.455,472.721 875.079,444.414 881.702,420.422 888.326,402.287 894.95,398.56 901.573,401.201 908.197,404.842 914.821,406.175 921.444,399.135 928.068,389.454 934.692,353.703 941.315,311.206 947.939,268.079 954.563,229.693 961.187,196.446 967.81,176.551 974.434,164.395 981.058,165.373 987.681,160.256 994.305,162.915 1000.93,161.029 1007.55,162.94 1014.18,171.914 1020.8,187.401 1027.42,200.088 1034.05,222.07 1040.67,253.204 1047.29,290.808 1053.92,324.385 1060.54,352.579 1067.17,369.367 1073.79,372.309 1080.41,361.059 1087.04,334.834 1093.66,298.763 1100.28,269.417 1106.91,242.935 1113.53,228.224 1120.15,218.495 1126.78,222.808 1133.4,241.016 1140.03,254.89 1146.65,265.052 1153.27,288.991 1159.9,316.834 1166.52,345.807 1173.14,370.743 1179.77,394.866 1186.39,417.956 1193.02,431.845 1199.64,433.335 1206.26,431.049 1212.89,424.99 1219.51,416.699 1226.13,410.77 1232.76,407.354 1239.38,406.101 1246,408.503 1252.63,414.401 1259.25,419.137 1265.88,422.294 1272.5,426.719 1279.12,429.675 1285.75,424.101 1292.37,407.964 1298.99,387.576 1305.62,365.976 1312.24,349.917 1318.87,345.026 1325.49,353.547 1332.11,370.64 1338.74,385.861 1345.36,395.151 1351.98,398.643 1358.61,393.606 1365.23,385.871 1371.85,383.645 1378.48,385.655 1385.1,390.596 1391.73,398.214 1398.35,406.343 1404.97,408.851 1411.6,405.454 1418.22,406.038 1424.84,406.572 1431.47,408.759 1438.09,406.455 1444.72,402.528 1451.34,399.436 1457.96,401.147 1464.59,410.829 1471.21,429.882 1477.83,449.769 1484.46,467.479 1491.08,471.864 1497.7,466.886 1504.33,455.664 1510.95,447.324 1517.58,442.363 1524.2,441.674 1530.82,448.191 1537.45,454.441 1544.07,455.292 1550.69,455.685 1557.32,455.446 1563.94,450.948 1570.57,448.493 1577.19,450.644 1583.81,462.068 1590.44,475.98 1597.06,486.342 1603.68,491.601 1610.31,487.302 1616.93,466.248 1623.55,444.127 1630.18,438.514 1636.8,432.074 1643.43,419.095 1650.05,388.717 1656.67,349.833 1663.3,301.853 1669.92,251.261 1676.54,216.879 1683.17,209.113 1689.79,209.191 1696.42,226.156 1703.04,245.76 1709.66,274.441 1716.29,305.712 1722.91,338.658 1729.53,373.267 1736.16,400.735 1742.78,423.505 1749.4,437.19 1756.03,437.52 1762.65,418.847 1769.28,380.189 1775.9,336.605 1782.52,302.948 1789.15,278.938 1795.77,271.663 1802.39,273.001 1809.02,280.799 1815.64,291.476 1822.27,301.117 1828.89,316.924 1835.51,338.061 1842.14,356.508 1848.76,375.142 1855.38,388.007 1862.01,394.207 1868.63,400.989 1875.25,408.766 1881.88,414.718 1888.5,418.293 1895.13,423.31 1901.75,424.202 1908.37,422.821 1915,420.457 1921.62,419.711 1928.24,418.827 1934.87,417.186 1941.49,415.273 1948.12,418.336 1954.74,420.892 1961.36,424.229 1967.99,427.387 1974.61,428.227 1981.23,425.519 1987.86,416.6 1994.48,401.426 2001.1,390.533 2007.73,391.368 2014.35,397.094 2020.98,405.276 2027.6,408.295 2034.22,413.147 2040.85,412.862 2047.47,411.055 2054.09,410.05 2060.72,409.434 2067.34,409.024 2073.97,408.65 2080.59,405.853 2087.21,407.474 2093.84,408.644 2100.46,411.32 2107.08,412.282 2113.71,410.566 2120.33,412.978 2126.95,416.493 2133.58,417.27 2140.2,435.61 2146.83,452.495 2153.45,474.459 2160.07,492.941 2166.7,502.999 2173.32,502.087 2179.94,488.403 2186.57,460.849 2193.19,449.189 2199.82,435.617 2206.44,433.385 2213.06,439.019 2219.69,446.124 2226.31,458.572 2232.93,470.683 2239.56,480.331 2246.18,496.351 2252.8,501.708 2259.43,505.889 2266.05,505.5 2272.68,491.963 2279.3,470.089 2285.92,430.567 2292.55,391.904 "/>
<polyline clip-path="url(#clip102)" style="stroke:#ffb547; stroke-linecap:round; stroke-linejoin:round; stroke-width:8; stroke-opacity:1; fill:none" points="285.571,1005.97 292.195,966.65 298.818,937.182 305.442,931.293 312.066,936.722 318.689,948.354 325.313,955.694 331.937,950.706 338.56,946.371 345.184,941.239 351.808,937.813 358.431,924.881 365.055,904.985 371.679,871.38 378.303,834.228 384.926,787.246 391.55,738.883 398.174,668.855 404.797,591.029 411.421,502.324 418.045,446.008 424.668,449.88 431.292,471.849 437.916,485.012 444.539,505.909 451.163,492.813 457.787,439.139 464.41,407.512 471.034,398.241 477.658,445.576 484.281,484.064 490.905,530.621 497.529,591.079 504.152,653.68 510.776,704.202 517.4,774.425 524.024,796.316 530.647,799.243 537.271,781.712 543.895,756.361 550.518,729.159 557.142,728.829 563.766,725.063 570.389,702.399 577.013,661.284 583.637,622.527 590.26,595.749 596.884,564.39 603.508,549.073 610.131,547.93 616.755,549.636 623.379,531.95 630.002,518.215 636.626,518.235 643.25,529.325 649.873,537.746 656.497,579.157 663.121,616.287 669.745,632.808 676.368,618.966 682.992,594.981 689.616,571.377 696.239,564.329 702.863,578.259 709.487,644.914 716.11,709.885 722.734,764.405 729.358,823.273 735.981,872.676 742.605,901 749.229,919.418 755.852,923.076 762.476,932.528 769.1,934.003 775.723,941.535 782.347,962.292 788.971,974.302 795.594,975.861 802.218,977.1 808.842,967.65 815.466,971.615 822.089,974.54 828.713,976.428 835.337,986.802 841.96,983.583 848.584,980.825 855.208,980.995 861.831,981.999 868.455,997.356 875.079,1008.75 881.702,1014.22 888.326,1014.02 894.95,994.441 901.573,982.647 908.197,978.131 914.821,967.754 921.444,964.631 928.068,971.117 934.692,978.34 941.315,971.634 947.939,965.34 954.563,964.682 961.187,956.2 967.81,931.68 974.434,920.935 981.058,913.237 987.681,912.19 994.305,903.911 1000.93,904.638 1007.55,901.356 1014.18,897.926 1020.8,894.443 1027.42,900.391 1034.05,902.468 1040.67,897.283 1047.29,877.81 1053.92,846.755 1060.54,811.474 1067.17,771.374 1073.79,721.648 1080.41,671.979 1087.04,623.074 1093.66,566.108 1100.28,507.543 1106.91,441.479 1113.53,394.526 1120.15,370.105 1126.78,362.039 1133.4,349.135 1140.03,319.735 1146.65,312.829 1153.27,319.308 1159.9,307.002 1166.52,294.225 1173.14,286.71 1179.77,275.919 1186.39,251.031 1193.02,218.23 1199.64,223.416 1206.26,247.927 1212.89,265.655 1219.51,275.105 1226.13,271.543 1232.76,279.318 1239.38,313.427 1246,332.794 1252.63,398.467 1259.25,478.176 1265.88,544.155 1272.5,568.842 1279.12,566.996 1285.75,555.106 1292.37,536.779 1298.99,499.271 1305.62,486.897 1312.24,458.034 1318.87,416.268 1325.49,372.147 1332.11,351.352 1338.74,355.801 1345.36,385.971 1351.98,423.427 1358.61,431.489 1365.23,423.438 1371.85,401.03 1378.48,378.284 1385.1,371.401 1391.73,398.436 1398.35,457.965 1404.97,528.283 1411.6,590.046 1418.22,653.409 1424.84,697.669 1431.47,731.951 1438.09,766.378 1444.72,795.267 1451.34,812.073 1457.96,817.773 1464.59,818.769 1471.21,821.546 1477.83,832.311 1484.46,846.824 1491.08,849.35 1497.7,840.786 1504.33,822.744 1510.95,811.524 1517.58,815.96 1524.2,829.759 1530.82,861.262 1537.45,890.39 1544.07,900.833 1550.69,912.718 1557.32,926.558 1563.94,934.921 1570.57,946.377 1577.19,956.759 1583.81,978.732 1590.44,1006.82 1597.06,1029.18 1603.68,1039.92 1610.31,1041.89 1616.93,1037.53 1623.55,1028.47 1630.18,1019.27 1636.8,1024.33 1643.43,1032.5 1650.05,1041.48 1656.67,1032.27 1663.3,1023.32 1669.92,1034.83 1676.54,1057.44 1683.17,1099.48 1689.79,1137.6 1696.42,1155.85 1703.04,1156.11 1709.66,1114.42 1716.29,1052.19 1722.91,990.71 1729.53,934.784 1736.16,884.887 1742.78,847.208 1749.4,813.902 1756.03,784.149 1762.65,746.54 1769.28,718.803 1775.9,676.716 1782.52,612.543 1789.15,532.184 1795.77,472.299 1802.39,443.175 1809.02,406.802 1815.64,369.044 1822.27,348.925 1828.89,361.21 1835.51,382.856 1842.14,398.641 1848.76,402.187 1855.38,414.951 1862.01,386.604 1868.63,314.536 1875.25,289.88 1881.88,318.135 1888.5,328.907 1895.13,356.874 1901.75,414.733 1908.37,489.039 1915,577.106 1921.62,640.599 1928.24,731.162 1934.87,779.706 1941.49,761.149 1948.12,746.865 1954.74,747.744 1961.36,741.282 1967.99,742.724 1974.61,742.469 1981.23,722.68 1987.86,696.347 1994.48,660.247 2001.1,623.125 2007.73,589.109 2014.35,571.81 2020.98,565.591 2027.6,570.523 2034.22,559.529 2040.85,543.286 2047.47,520.772 2054.09,495.749 2060.72,478.003 2067.34,475.735 2073.97,487.874 2080.59,513.747 2087.21,549.834 2093.84,584.543 2100.46,626.686 2107.08,670.244 2113.71,715.605 2120.33,752.688 2126.95,785.317 2133.58,815.649 2140.2,838.852 2146.83,857.191 2153.45,868.225 2160.07,867.966 2166.7,867.519 2173.32,865.042 2179.94,865.59 2186.57,872.027 2193.19,888.8 2199.82,911.74 2206.44,943.419 2213.06,962.063 2219.69,975.714 2226.31,979.828 2232.93,974.283 2239.56,962.363 2246.18,952.425 2252.8,948.863 2259.43,953.32 2266.05,941.499 2272.68,933.529 2279.3,936.498 2285.92,940.193 2292.55,936.341 "/>
<path clip-path="url(#clip100)" d="M296.275 374.156 L769.591 374.156 L769.591 166.796 L296.275 166.796  Z" fill="#ffffff" fill-rule="evenodd" fill-opacity="1"/>
<polyline clip-path="url(#clip100)" style="stroke:#000000; stroke-linecap:round; stroke-linejoin:round; stroke-width:4; stroke-opacity:1; fill:none" points="296.275,374.156 769.591,374.156 769.591,166.796 296.275,166.796 296.275,374.156 "/>
<polyline clip-path="url(#clip100)" style="stroke:#ff4747; stroke-linecap:round; stroke-linejoin:round; stroke-width:8; stroke-opacity:1; fill:none" points="319.913,218.636 461.739,218.636 "/>
<path clip-path="url(#clip100)" d="M494.159 219.846 L489.934 224.237 L489.934 235.916 L485.377 235.916 L485.377 201.356 L489.934 201.356 L489.934 218.446 L505.291 201.356 L510.798 201.356 L497.197 216.618 L511.866 235.916 L506.407 235.916 L494.159 219.846 Z" fill="#000000" fill-rule="nonzero" fill-opacity="1" /><path clip-path="url(#clip100)" d="M519.319 210.233 L519.462 213.461 Q522.405 209.758 527.152 209.758 Q535.294 209.758 535.365 218.944 L535.365 235.916 L530.974 235.916 L530.974 218.921 Q530.95 216.143 529.692 214.814 Q528.458 213.485 525.823 213.485 Q523.687 213.485 522.073 214.624 Q520.459 215.764 519.557 217.615 L519.557 235.916 L515.166 235.916 L515.166 210.233 L519.319 210.233 Z" fill="#000000" fill-rule="nonzero" fill-opacity="1" /><path clip-path="url(#clip100)" d="M552.645 236.39 Q547.423 236.39 544.148 232.972 Q540.872 229.531 540.872 223.786 L540.872 222.979 Q540.872 219.158 542.32 216.167 Q543.791 213.153 546.402 211.467 Q549.037 209.758 552.099 209.758 Q557.108 209.758 559.885 213.058 Q562.662 216.357 562.662 222.505 L562.662 224.332 L545.263 224.332 Q545.358 228.13 547.471 230.48 Q549.607 232.806 552.882 232.806 Q555.209 232.806 556.823 231.857 Q558.437 230.907 559.647 229.341 L562.33 231.43 Q559.101 236.39 552.645 236.39 M552.099 213.366 Q549.441 213.366 547.637 215.313 Q545.833 217.235 545.406 220.725 L558.271 220.725 L558.271 220.392 Q558.081 217.045 556.467 215.218 Q554.853 213.366 552.099 213.366 Z" fill="#000000" fill-rule="nonzero" fill-opacity="1" /><path clip-path="url(#clip100)" d="M578.399 236.39 Q573.177 236.39 569.901 232.972 Q566.626 229.531 566.626 223.786 L566.626 222.979 Q566.626 219.158 568.074 216.167 Q569.545 213.153 572.156 211.467 Q574.791 209.758 577.853 209.758 Q582.861 209.758 585.639 213.058 Q588.416 216.357 588.416 222.505 L588.416 224.332 L571.017 224.332 Q571.112 228.13 573.224 230.48 Q575.361 232.806 578.636 232.806 Q580.962 232.806 582.577 231.857 Q584.191 230.907 585.401 229.341 L588.083 231.43 Q584.855 236.39 578.399 236.39 M577.853 213.366 Q575.195 213.366 573.391 215.313 Q571.587 217.235 571.159 220.725 L584.024 220.725 L584.024 220.392 Q583.835 217.045 582.22 215.218 Q580.606 213.366 577.853 213.366 Z" fill="#000000" fill-rule="nonzero" fill-opacity="1" /><path clip-path="url(#clip100)" d="M625.302 226.896 L610.823 226.896 L607.571 235.916 L602.871 235.916 L616.068 201.356 L620.056 201.356 L633.277 235.916 L628.601 235.916 L625.302 226.896 M612.199 223.146 L623.949 223.146 L618.062 206.981 L612.199 223.146 Z" fill="#000000" fill-rule="nonzero" fill-opacity="1" /><path clip-path="url(#clip100)" d="M641.395 210.233 L641.537 213.461 Q644.481 209.758 649.228 209.758 Q657.37 209.758 657.441 218.944 L657.441 235.916 L653.05 235.916 L653.05 218.921 Q653.026 216.143 651.768 214.814 Q650.533 213.485 647.899 213.485 Q645.762 213.485 644.148 214.624 Q642.534 215.764 641.632 217.615 L641.632 235.916 L637.241 235.916 L637.241 210.233 L641.395 210.233 Z" fill="#000000" fill-rule="nonzero" fill-opacity="1" /><path clip-path="url(#clip100)" d="M663.019 222.861 Q663.019 216.855 665.796 213.319 Q668.573 209.758 673.154 209.758 Q677.854 209.758 680.489 213.081 L680.702 210.233 L684.714 210.233 L684.714 235.299 Q684.714 240.283 681.747 243.155 Q678.803 246.027 673.819 246.027 Q671.042 246.027 668.383 244.841 Q665.725 243.654 664.324 241.589 L666.603 238.954 Q669.428 242.443 673.51 242.443 Q676.715 242.443 678.495 240.639 Q680.299 238.835 680.299 235.56 L680.299 233.352 Q677.664 236.39 673.107 236.39 Q668.597 236.39 665.796 232.759 Q663.019 229.127 663.019 222.861 M667.434 223.359 Q667.434 227.703 669.214 230.195 Q670.994 232.664 674.199 232.664 Q678.352 232.664 680.299 228.89 L680.299 217.164 Q678.281 213.485 674.246 213.485 Q671.042 213.485 669.238 215.977 Q667.434 218.47 667.434 223.359 Z" fill="#000000" fill-rule="nonzero" fill-opacity="1" /><path clip-path="url(#clip100)" d="M696.107 235.916 L691.716 235.916 L691.716 199.457 L696.107 199.457 L696.107 235.916 Z" fill="#000000" fill-rule="nonzero" fill-opacity="1" /><path clip-path="url(#clip100)" d="M713.791 236.39 Q708.569 236.39 705.293 232.972 Q702.017 229.531 702.017 223.786 L702.017 222.979 Q702.017 219.158 703.465 216.167 Q704.937 213.153 707.548 211.467 Q710.183 209.758 713.245 209.758 Q718.253 209.758 721.03 213.058 Q723.807 216.357 723.807 222.505 L723.807 224.332 L706.409 224.332 Q706.504 228.13 708.616 230.48 Q710.752 232.806 714.028 232.806 Q716.354 232.806 717.968 231.857 Q719.582 230.907 720.793 229.341 L723.475 231.43 Q720.247 236.39 713.791 236.39 M713.245 213.366 Q710.586 213.366 708.782 215.313 Q706.978 217.235 706.551 220.725 L719.416 220.725 L719.416 220.392 Q719.226 217.045 717.612 215.218 Q715.998 213.366 713.245 213.366 Z" fill="#000000" fill-rule="nonzero" fill-opacity="1" /><polyline clip-path="url(#clip100)" style="stroke:#00bcb4; stroke-linecap:round; stroke-linejoin:round; stroke-width:8; stroke-opacity:1; fill:none" points="319.913,270.476 461.739,270.476 "/>
<path clip-path="url(#clip100)" d="M511.937 287.756 L507.356 287.756 L507.356 271.781 L489.934 271.781 L489.934 287.756 L485.377 287.756 L485.377 253.196 L489.934 253.196 L489.934 268.055 L507.356 268.055 L507.356 253.196 L511.937 253.196 L511.937 287.756 Z" fill="#000000" fill-rule="nonzero" fill-opacity="1" /><path clip-path="url(#clip100)" d="M524.114 287.756 L519.723 287.756 L519.723 262.073 L524.114 262.073 L524.114 287.756 M519.367 255.261 Q519.367 254.193 520.008 253.457 Q520.672 252.721 521.954 252.721 Q523.236 252.721 523.9 253.457 Q524.565 254.193 524.565 255.261 Q524.565 256.329 523.9 257.041 Q523.236 257.753 521.954 257.753 Q520.672 257.753 520.008 257.041 Q519.367 256.329 519.367 255.261 Z" fill="#000000" fill-rule="nonzero" fill-opacity="1" /><path clip-path="url(#clip100)" d="M552.835 275.199 Q552.835 281.062 550.153 284.646 Q547.471 288.23 542.89 288.23 Q538.213 288.23 535.531 285.263 L535.531 297.63 L531.14 297.63 L531.14 262.073 L535.151 262.073 L535.365 264.921 Q538.047 261.598 542.818 261.598 Q547.447 261.598 550.129 265.088 Q552.835 268.577 552.835 274.796 L552.835 275.199 M548.444 274.701 Q548.444 270.357 546.592 267.841 Q544.741 265.325 541.513 265.325 Q537.525 265.325 535.531 268.862 L535.531 281.133 Q537.501 284.646 541.56 284.646 Q544.717 284.646 546.569 282.154 Q548.444 279.638 548.444 274.701 Z" fill="#000000" fill-rule="nonzero" fill-opacity="1" /><path clip-path="url(#clip100)" d="M590.22 278.736 L575.74 278.736 L572.489 287.756 L567.789 287.756 L580.986 253.196 L584.974 253.196 L598.195 287.756 L593.519 287.756 L590.22 278.736 M577.117 274.986 L588.867 274.986 L582.98 258.821 L577.117 274.986 Z" fill="#000000" fill-rule="nonzero" fill-opacity="1" /><path clip-path="url(#clip100)" d="M606.313 262.073 L606.455 265.301 Q609.399 261.598 614.146 261.598 Q622.287 261.598 622.359 270.784 L622.359 287.756 L617.967 287.756 L617.967 270.761 Q617.944 267.983 616.686 266.654 Q615.451 265.325 612.817 265.325 Q610.68 265.325 609.066 266.464 Q607.452 267.604 606.55 269.455 L606.55 287.756 L602.159 287.756 L602.159 262.073 L606.313 262.073 Z" fill="#000000" fill-rule="nonzero" fill-opacity="1" /><path clip-path="url(#clip100)" d="M627.937 274.701 Q627.937 268.695 630.714 265.159 Q633.491 261.598 638.072 261.598 Q642.772 261.598 645.406 264.921 L645.62 262.073 L649.631 262.073 L649.631 287.139 Q649.631 292.123 646.664 294.995 Q643.721 297.867 638.737 297.867 Q635.959 297.867 633.301 296.681 Q630.642 295.494 629.242 293.429 L631.521 290.794 Q634.345 294.283 638.428 294.283 Q641.632 294.283 643.413 292.479 Q645.217 290.675 645.217 287.4 L645.217 285.192 Q642.582 288.23 638.024 288.23 Q633.515 288.23 630.714 284.599 Q627.937 280.967 627.937 274.701 M632.351 275.199 Q632.351 279.543 634.132 282.035 Q635.912 284.504 639.116 284.504 Q643.27 284.504 645.217 280.73 L645.217 269.004 Q643.199 265.325 639.164 265.325 Q635.959 265.325 634.155 267.817 Q632.351 270.31 632.351 275.199 Z" fill="#000000" fill-rule="nonzero" fill-opacity="1" /><path clip-path="url(#clip100)" d="M661.025 287.756 L656.634 287.756 L656.634 251.297 L661.025 251.297 L661.025 287.756 Z" fill="#000000" fill-rule="nonzero" fill-opacity="1" /><path clip-path="url(#clip100)" d="M678.708 288.23 Q673.486 288.23 670.211 284.812 Q666.935 281.371 666.935 275.626 L666.935 274.819 Q666.935 270.998 668.383 268.007 Q669.855 264.993 672.466 263.307 Q675.1 261.598 678.162 261.598 Q683.171 261.598 685.948 264.898 Q688.725 268.197 688.725 274.345 L688.725 276.172 L671.326 276.172 Q671.421 279.97 673.534 282.32 Q675.67 284.646 678.946 284.646 Q681.272 284.646 682.886 283.697 Q684.5 282.747 685.711 281.181 L688.393 283.27 Q685.165 288.23 678.708 288.23 M678.162 265.206 Q675.504 265.206 673.7 267.153 Q671.896 269.075 671.469 272.565 L684.334 272.565 L684.334 272.232 Q684.144 268.885 682.53 267.058 Q680.916 265.206 678.162 265.206 Z" fill="#000000" fill-rule="nonzero" fill-opacity="1" /><polyline clip-path="url(#clip100)" style="stroke:#ffb547; stroke-linecap:round; stroke-linejoin:round; stroke-width:8; stroke-opacity:1; fill:none" points="319.913,322.316 461.739,322.316 "/>
<path clip-path="url(#clip100)" d="M504.911 323.621 L489.934 323.621 L489.934 335.869 L507.333 335.869 L507.333 339.596 L485.377 339.596 L485.377 305.036 L507.095 305.036 L507.095 308.786 L489.934 308.786 L489.934 319.895 L504.911 319.895 L504.911 323.621 Z" fill="#000000" fill-rule="nonzero" fill-opacity="1" /><path clip-path="url(#clip100)" d="M517.088 339.596 L512.697 339.596 L512.697 303.137 L517.088 303.137 L517.088 339.596 Z" fill="#000000" fill-rule="nonzero" fill-opacity="1" /><path clip-path="url(#clip100)" d="M545.857 327.039 Q545.857 332.926 543.151 336.51 Q540.445 340.07 535.887 340.07 Q531.021 340.07 528.363 336.629 L528.149 339.596 L524.114 339.596 L524.114 303.137 L528.505 303.137 L528.505 316.738 Q531.164 313.438 535.84 313.438 Q540.516 313.438 543.174 316.975 Q545.857 320.512 545.857 326.659 L545.857 327.039 M541.465 326.541 Q541.465 322.055 539.733 319.61 Q538 317.165 534.748 317.165 Q530.404 317.165 528.505 321.2 L528.505 332.309 Q530.523 336.344 534.795 336.344 Q537.952 336.344 539.709 333.899 Q541.465 331.454 541.465 326.541 Z" fill="#000000" fill-rule="nonzero" fill-opacity="1" /><path clip-path="url(#clip100)" d="M550.224 326.517 Q550.224 322.743 551.696 319.728 Q553.191 316.714 555.826 315.076 Q558.484 313.438 561.879 313.438 Q567.124 313.438 570.352 317.07 Q573.604 320.702 573.604 326.731 L573.604 327.039 Q573.604 330.79 572.156 333.78 Q570.732 336.747 568.05 338.409 Q565.391 340.07 561.926 340.07 Q556.704 340.07 553.452 336.439 Q550.224 332.807 550.224 326.826 L550.224 326.517 M554.639 327.039 Q554.639 331.312 556.609 333.899 Q558.603 336.486 561.926 336.486 Q565.273 336.486 567.243 333.875 Q569.213 331.241 569.213 326.517 Q569.213 322.292 567.195 319.681 Q565.202 317.046 561.879 317.046 Q558.627 317.046 556.633 319.634 Q554.639 322.221 554.639 327.039 Z" fill="#000000" fill-rule="nonzero" fill-opacity="1" /><path clip-path="url(#clip100)" d="M601.85 333.543 L606.788 313.913 L611.179 313.913 L603.702 339.596 L600.141 339.596 L593.899 320.132 L587.822 339.596 L584.262 339.596 L576.809 313.913 L581.176 313.913 L586.232 333.139 L592.213 313.913 L595.75 313.913 L601.85 333.543 Z" fill="#000000" fill-rule="nonzero" fill-opacity="1" /><path clip-path="url(#clip100)" d="M647.448 330.576 L632.969 330.576 L629.717 339.596 L625.017 339.596 L638.214 305.036 L642.202 305.036 L655.423 339.596 L650.747 339.596 L647.448 330.576 M634.345 326.826 L646.095 326.826 L640.208 310.661 L634.345 326.826 Z" fill="#000000" fill-rule="nonzero" fill-opacity="1" /><path clip-path="url(#clip100)" d="M663.541 313.913 L663.683 317.141 Q666.627 313.438 671.374 313.438 Q679.515 313.438 679.587 322.624 L679.587 339.596 L675.195 339.596 L675.195 322.601 Q675.172 319.823 673.914 318.494 Q672.679 317.165 670.045 317.165 Q667.908 317.165 666.294 318.304 Q664.68 319.444 663.778 321.295 L663.778 339.596 L659.387 339.596 L659.387 313.913 L663.541 313.913 Z" fill="#000000" fill-rule="nonzero" fill-opacity="1" /><path clip-path="url(#clip100)" d="M685.165 326.541 Q685.165 320.535 687.942 316.999 Q690.719 313.438 695.3 313.438 Q700 313.438 702.635 316.761 L702.848 313.913 L706.86 313.913 L706.86 338.979 Q706.86 343.963 703.893 346.835 Q700.949 349.707 695.965 349.707 Q693.188 349.707 690.529 348.521 Q687.871 347.334 686.47 345.269 L688.749 342.634 Q691.573 346.123 695.656 346.123 Q698.86 346.123 700.641 344.319 Q702.445 342.515 702.445 339.24 L702.445 337.032 Q699.81 340.07 695.253 340.07 Q690.743 340.07 687.942 336.439 Q685.165 332.807 685.165 326.541 M689.58 327.039 Q689.58 331.383 691.36 333.875 Q693.14 336.344 696.344 336.344 Q700.498 336.344 702.445 332.57 L702.445 320.844 Q700.427 317.165 696.392 317.165 Q693.188 317.165 691.384 319.657 Q689.58 322.15 689.58 327.039 Z" fill="#000000" fill-rule="nonzero" fill-opacity="1" /><path clip-path="url(#clip100)" d="M718.253 339.596 L713.862 339.596 L713.862 303.137 L718.253 303.137 L718.253 339.596 Z" fill="#000000" fill-rule="nonzero" fill-opacity="1" /><path clip-path="url(#clip100)" d="M735.937 340.07 Q730.715 340.07 727.439 336.652 Q724.163 333.211 724.163 327.466 L724.163 326.659 Q724.163 322.838 725.611 319.847 Q727.083 316.833 729.694 315.147 Q732.329 313.438 735.391 313.438 Q740.399 313.438 743.176 316.738 Q745.953 320.037 745.953 326.185 L745.953 328.012 L728.555 328.012 Q728.65 331.81 730.762 334.16 Q732.898 336.486 736.174 336.486 Q738.5 336.486 740.114 335.537 Q741.728 334.587 742.939 333.021 L745.621 335.11 Q742.393 340.07 735.937 340.07 M735.391 317.046 Q732.732 317.046 730.928 318.993 Q729.124 320.915 728.697 324.405 L741.562 324.405 L741.562 324.072 Q741.372 320.725 739.758 318.898 Q738.144 317.046 735.391 317.046 Z" fill="#000000" fill-rule="nonzero" fill-opacity="1" /></svg>
