<?xml version="1.0" encoding="utf-8"?>
<svg xmlns="http://www.w3.org/2000/svg" xmlns:xlink="http://www.w3.org/1999/xlink" width="600" height="400" viewBox="0 0 2400 1600">
<defs>
  <clipPath id="clip150">
    <rect x="0" y="0" width="2400" height="1600"/>
  </clipPath>
</defs>
<path clip-path="url(#clip150)" d="M0 1600 L2400 1600 L2400 0 L0 0  Z" fill="#ffffff" fill-rule="evenodd" fill-opacity="1"/>
<defs>
  <clipPath id="clip151">
    <rect x="480" y="0" width="1681" height="1600"/>
  </clipPath>
</defs>
<path clip-path="url(#clip150)" d="M260.725 1423.57 L2352.76 1423.57 L2352.76 123.185 L260.725 123.185  Z" fill="#ffffff" fill-rule="evenodd" fill-opacity="1"/>
<defs>
  <clipPath id="clip152">
    <rect x="260" y="123" width="2093" height="1301"/>
  </clipPath>
</defs>
<polyline clip-path="url(#clip152)" style="stroke:#000000; stroke-linecap:round; stroke-linejoin:round; stroke-width:2; stroke-opacity:0.1; fill:none" points="313.42,1423.57 313.42,123.185 "/>
<polyline clip-path="url(#clip152)" style="stroke:#000000; stroke-linecap:round; stroke-linejoin:round; stroke-width:2; stroke-opacity:0.1; fill:none" points="801.938,1423.57 801.938,123.185 "/>
<polyline clip-path="url(#clip152)" style="stroke:#000000; stroke-linecap:round; stroke-linejoin:round; stroke-width:2; stroke-opacity:0.1; fill:none" points="1290.46,1423.57 1290.46,123.185 "/>
<polyline clip-path="url(#clip152)" style="stroke:#000000; stroke-linecap:round; stroke-linejoin:round; stroke-width:2; stroke-opacity:0.1; fill:none" points="1778.97,1423.57 1778.97,123.185 "/>
<polyline clip-path="url(#clip152)" style="stroke:#000000; stroke-linecap:round; stroke-linejoin:round; stroke-width:2; stroke-opacity:0.1; fill:none" points="2267.49,1423.57 2267.49,123.185 "/>
<polyline clip-path="url(#clip152)" style="stroke:#000000; stroke-linecap:round; stroke-linejoin:round; stroke-width:2; stroke-opacity:0.1; fill:none" points="260.725,1372.15 2352.76,1372.15 "/>
<polyline clip-path="url(#clip152)" style="stroke:#000000; stroke-linecap:round; stroke-linejoin:round; stroke-width:2; stroke-opacity:0.1; fill:none" points="260.725,1096.33 2352.76,1096.33 "/>
<polyline clip-path="url(#clip152)" style="stroke:#000000; stroke-linecap:round; stroke-linejoin:round; stroke-width:2; stroke-opacity:0.1; fill:none" points="260.725,820.508 2352.76,820.508 "/>
<polyline clip-path="url(#clip152)" style="stroke:#000000; stroke-linecap:round; stroke-linejoin:round; stroke-width:2; stroke-opacity:0.1; fill:none" points="260.725,544.687 2352.76,544.687 "/>
<polyline clip-path="url(#clip152)" style="stroke:#000000; stroke-linecap:round; stroke-linejoin:round; stroke-width:2; stroke-opacity:0.1; fill:none" points="260.725,268.866 2352.76,268.866 "/>
<polyline clip-path="url(#clip150)" style="stroke:#000000; stroke-linecap:round; stroke-linejoin:round; stroke-width:4; stroke-opacity:1; fill:none" points="260.725,1423.57 2352.76,1423.57 "/>
<polyline clip-path="url(#clip150)" style="stroke:#000000; stroke-linecap:round; stroke-linejoin:round; stroke-width:4; stroke-opacity:1; fill:none" points="313.42,1423.57 313.42,1404.67 "/>
<polyline clip-path="url(#clip150)" style="stroke:#000000; stroke-linecap:round; stroke-linejoin:round; stroke-width:4; stroke-opacity:1; fill:none" points="801.938,1423.57 801.938,1404.67 "/>
<polyline clip-path="url(#clip150)" style="stroke:#000000; stroke-linecap:round; stroke-linejoin:round; stroke-width:4; stroke-opacity:1; fill:none" points="1290.46,1423.57 1290.46,1404.67 "/>
<polyline clip-path="url(#clip150)" style="stroke:#000000; stroke-linecap:round; stroke-linejoin:round; stroke-width:4; stroke-opacity:1; fill:none" points="1778.97,1423.57 1778.97,1404.67 "/>
<polyline clip-path="url(#clip150)" style="stroke:#000000; stroke-linecap:round; stroke-linejoin:round; stroke-width:4; stroke-opacity:1; fill:none" points="2267.49,1423.57 2267.49,1404.67 "/>
<g clip-path="url(#clip150)">
<text style="fill:#000000; fill-opacity:1; font-family:Courier,Courier New,Lucida Sans Typewriter,Lucida Typewriter,monospace; font-size:60px; text-anchor:middle;" transform="rotate(0, 313.42, 1486.07)" x="313.42" y="1486.07">0.0</text>
</g>
<g clip-path="url(#clip150)">
<text style="fill:#000000; fill-opacity:1; font-family:Courier,Courier New,Lucida Sans Typewriter,Lucida Typewriter,monospace; font-size:60px; text-anchor:middle;" transform="rotate(0, 801.938, 1486.07)" x="801.938" y="1486.07">2.5</text>
</g>
<g clip-path="url(#clip150)">
<text style="fill:#000000; fill-opacity:1; font-family:Courier,Courier New,Lucida Sans Typewriter,Lucida Typewriter,monospace; font-size:60px; text-anchor:middle;" transform="rotate(0, 1290.46, 1486.07)" x="1290.46" y="1486.07">5.0</text>
</g>
<g clip-path="url(#clip150)">
<text style="fill:#000000; fill-opacity:1; font-family:Courier,Courier New,Lucida Sans Typewriter,Lucida Typewriter,monospace; font-size:60px; text-anchor:middle;" transform="rotate(0, 1778.97, 1486.07)" x="1778.97" y="1486.07">7.5</text>
</g>
<g clip-path="url(#clip150)">
<text style="fill:#000000; fill-opacity:1; font-family:Courier,Courier New,Lucida Sans Typewriter,Lucida Typewriter,monospace; font-size:60px; text-anchor:middle;" transform="rotate(0, 2267.49, 1486.07)" x="2267.49" y="1486.07">10.0</text>
</g>
<g clip-path="url(#clip150)">
<text style="fill:#000000; fill-opacity:1; font-family:Courier,Courier New,Lucida Sans Typewriter,Lucida Typewriter,monospace; font-size:82px; text-anchor:middle;" transform="rotate(0, 1306.74, 1572.51)" x="1306.74" y="1572.51">Time (Frame)</text>
</g>
<polyline clip-path="url(#clip150)" style="stroke:#000000; stroke-linecap:round; stroke-linejoin:round; stroke-width:4; stroke-opacity:1; fill:none" points="260.725,1423.57 260.725,123.185 "/>
<polyline clip-path="url(#clip150)" style="stroke:#000000; stroke-linecap:round; stroke-linejoin:round; stroke-width:4; stroke-opacity:1; fill:none" points="260.725,1372.15 279.623,1372.15 "/>
<polyline clip-path="url(#clip150)" style="stroke:#000000; stroke-linecap:round; stroke-linejoin:round; stroke-width:4; stroke-opacity:1; fill:none" points="260.725,1096.33 279.623,1096.33 "/>
<polyline clip-path="url(#clip150)" style="stroke:#000000; stroke-linecap:round; stroke-linejoin:round; stroke-width:4; stroke-opacity:1; fill:none" points="260.725,820.508 279.623,820.508 "/>
<polyline clip-path="url(#clip150)" style="stroke:#000000; stroke-linecap:round; stroke-linejoin:round; stroke-width:4; stroke-opacity:1; fill:none" points="260.725,544.687 279.623,544.687 "/>
<polyline clip-path="url(#clip150)" style="stroke:#000000; stroke-linecap:round; stroke-linejoin:round; stroke-width:4; stroke-opacity:1; fill:none" points="260.725,268.866 279.623,268.866 "/>
<g clip-path="url(#clip150)">
<text style="fill:#000000; fill-opacity:1; font-family:Courier,Courier New,Lucida Sans Typewriter,Lucida Typewriter,monospace; font-size:60px; text-anchor:middle;" transform="rotate(0, 187.828, 1389.65)" x="187.828" y="1389.65">40</text>
</g>
<g clip-path="url(#clip150)">
<text style="fill:#000000; fill-opacity:1; font-family:Courier,Courier New,Lucida Sans Typewriter,Lucida Typewriter,monospace; font-size:60px; text-anchor:middle;" transform="rotate(0, 187.828, 1113.83)" x="187.828" y="1113.83">60</text>
</g>
<g clip-path="url(#clip150)">
<text style="fill:#000000; fill-opacity:1; font-family:Courier,Courier New,Lucida Sans Typewriter,Lucida Typewriter,monospace; font-size:60px; text-anchor:middle;" transform="rotate(0, 187.828, 838.008)" x="187.828" y="838.008">80</text>
</g>
<g clip-path="url(#clip150)">
<text style="fill:#000000; fill-opacity:1; font-family:Courier,Courier New,Lucida Sans Typewriter,Lucida Typewriter,monospace; font-size:60px; text-anchor:middle;" transform="rotate(0, 169.38, 562.187)" x="169.38" y="562.187">100</text>
</g>
<g clip-path="url(#clip150)">
<text style="fill:#000000; fill-opacity:1; font-family:Courier,Courier New,Lucida Sans Typewriter,Lucida Typewriter,monospace; font-size:60px; text-anchor:middle;" transform="rotate(0, 169.38, 286.366)" x="169.38" y="286.366">120</text>
</g>
<g clip-path="url(#clip150)">
<text style="fill:#000000; fill-opacity:1; font-family:Courier,Courier New,Lucida Sans Typewriter,Lucida Typewriter,monospace; font-size:82px; text-anchor:middle;" transform="rotate(-90, 64.6929, 773.377)" x="64.6929" y="773.377">Joint Angle (Degrees)</text>
</g>
<g clip-path="url(#clip150)">
<text style="fill:#000000; fill-opacity:1; font-family:Courier,Courier New,Lucida Sans Typewriter,Lucida Typewriter,monospace; font-size:105px; text-anchor:middle;" transform="rotate(0, 1306.74, 73.2)" x="1306.74" y="73.2">Joint Angles Over Time</text>
</g>
<polyline clip-path="url(#clip152)" style="stroke:#ff4747; stroke-linecap:round; stroke-linejoin:round; stroke-width:8; stroke-opacity:1; fill:none" points="319.933,1135.77 326.447,1128.3 332.961,1122.64 339.474,1117.58 345.988,1112.84 352.501,1111.51 359.015,1116.54 365.529,1126.28 372.042,1134.69 378.556,1142.85 385.069,1156.14 391.583,1165.13 398.096,1173.46 404.61,1187.56 411.124,1204.07 417.637,1217.86 424.151,1229 430.664,1240.69 437.178,1254.75 443.691,1261.2 450.205,1269.76 456.719,1281.77 463.232,1291.96 469.746,1284.39 476.259,1273.68 482.773,1257.73 489.287,1239 495.8,1206.53 502.314,1171.03 508.827,1125.07 515.341,1082.65 521.854,1037.14 528.368,1002.85 534.882,976.571 541.395,976.129 547.909,988.286 554.422,995.303 560.936,1008.13 567.449,1013.54 573.963,1016.69 580.477,1018.66 586.99,1015.65 593.504,1017.1 600.017,1022.94 606.531,1020.75 613.044,1035.05 619.558,1057.2 626.072,1095.25 632.585,1136.83 639.099,1169.7 645.612,1182.05 652.126,1191.37 658.64,1204.19 665.153,1227.22 671.667,1266.38 678.18,1309.1 684.694,1341.01 691.207,1362.47 697.721,1364.97 704.235,1368.01 710.748,1357.29 717.262,1340.66 723.775,1306.78 730.289,1267.94 736.802,1227.68 743.316,1195.9 749.83,1168.79 756.343,1145.6 762.857,1120.33 769.37,1104.38 775.884,1090.97 782.397,1090.27 788.911,1102 795.425,1119.51 801.938,1137.39 808.452,1144.8 814.965,1154.64 821.479,1161.32 827.993,1170.29 834.506,1181.69 841.02,1192.69 847.533,1199.98 854.047,1207.25 860.56,1206.62 867.074,1202.97 873.588,1189.78 880.101,1176.67 886.615,1158.75 893.128,1138.13 899.642,1113.89 906.155,1087.43 912.669,1054.5 919.183,1029.07 925.696,1007.51 932.21,991.156 938.723,982.761 945.237,979.398 951.751,979.299 958.264,968.267 964.778,953.636 971.291,936.665 977.805,911.516 984.318,881.838 990.832,858.498 997.346,840.361 1003.86,834.031 1010.37,829.782 1016.89,834.058 1023.4,835.008 1029.91,836.111 1036.43,838.568 1042.94,841.256 1049.45,843.849 1055.97,851.573 1062.48,866.225 1068.99,888.121 1075.51,915.238 1082.02,944.162 1088.54,970.509 1095.05,986.142 1101.56,982.334 1108.08,962.06 1114.59,951.219 1121.1,961.057 1127.62,991.688 1134.13,1032.54 1140.64,1081.69 1147.16,1127.27 1153.67,1160.75 1160.18,1183.25 1166.7,1208.41 1173.21,1238.79 1179.73,1270.03 1186.24,1288.89 1192.75,1304.12 1199.27,1312.8 1205.78,1318.46 1212.29,1320.06 1218.81,1316.75 1225.32,1310.51 1231.83,1302.28 1238.35,1291.24 1244.86,1285.37 1251.38,1281.77 1257.89,1281.62 1264.4,1283.86 1270.92,1290.66 1277.43,1296.26 1283.94,1300.85 1290.46,1304.55 1296.97,1308.91 1303.48,1314.43 1310,1317.54 1316.51,1318.49 1323.02,1318.35 1329.54,1316.05 1336.05,1309.53 1342.57,1308.63 1349.08,1313.43 1355.59,1318.63 1362.11,1322.22 1368.62,1322.95 1375.13,1322.14 1381.65,1317.45 1388.16,1308.76 1394.67,1303.05 1401.19,1303.19 1407.7,1306.37 1414.21,1315.23 1420.73,1311.53 1427.24,1301.94 1433.76,1273.76 1440.27,1247.53 1446.78,1217.65 1453.3,1200.87 1459.81,1199.56 1466.32,1208.06 1472.84,1209.3 1479.35,1209.36 1485.86,1197.69 1492.38,1193.32 1498.89,1184.31 1505.4,1177.4 1511.92,1173.99 1518.43,1169.26 1524.95,1165.01 1531.46,1166.09 1537.97,1172.15 1544.49,1180.76 1551,1187.9 1557.51,1188.25 1564.03,1181.79 1570.54,1165.34 1577.05,1146.2 1583.57,1124.32 1590.08,1098.78 1596.59,1073.96 1603.11,1054.45 1609.62,1033.78 1616.14,1013.65 1622.65,996.26 1629.16,986.339 1635.68,979.997 1642.19,971.942 1648.7,972.789 1655.22,981.426 1661.73,985.291 1668.24,986.92 1674.76,985.707 1681.27,981.644 1687.78,975.535 1694.3,964.781 1700.81,957.951 1707.33,954.472 1713.84,950.242 1720.35,947.241 1726.87,952.086 1733.38,963.679 1739.89,986.836 1746.41,1014.7 1752.92,1049.33 1759.43,1088.81 1765.95,1120.19 1772.46,1128.07 1778.97,1116.36 1785.49,1095.94 1792,1078.77 1798.52,1063.78 1805.03,1064.34 1811.54,1090.01 1818.06,1129.25 1824.57,1170.48 1831.08,1203.36 1837.6,1237.55 1844.11,1260.26 1850.62,1268.8 1857.14,1271.04 1863.65,1275.54 1870.16,1280.84 1876.68,1288.69 1883.19,1292.65 1889.71,1298.61 1896.22,1299.27 1902.73,1300.14 1909.25,1299.65 1915.76,1299 1922.27,1298.76 1928.79,1296.72 1935.3,1288.99 1941.81,1275.21 1948.33,1259.8 1954.84,1247.12 1961.36,1237.63 1967.87,1236.37 1974.38,1244.59 1980.9,1257.41 1987.41,1266.43 1993.92,1271.3 2000.44,1275.02 2006.95,1281.51 2013.46,1281.26 2019.98,1276.72 2026.49,1278.83 2033,1285.28 2039.52,1300.68 2046.03,1322.28 2052.55,1352.75 2059.06,1380.2 2065.57,1386.77 2072.09,1378.25 2078.6,1364.21 2085.11,1344.54 2091.63,1333.83 2098.14,1320.93 2104.65,1306.84 2111.17,1281.19 2117.68,1249.65 2124.19,1211.55 2130.71,1184.2 2137.22,1170.44 2143.74,1180.14 2150.25,1197.7 2156.76,1218.95 2163.28,1238.14 2169.79,1252.35 2176.3,1253.93 2182.82,1247.68 2189.33,1233.43 2195.84,1218.42 2202.36,1202.43 2208.87,1190.86 2215.38,1187.4 2221.9,1188.68 2228.41,1192.38 2234.93,1189.24 2241.44,1187.9 2247.95,1189.87 2254.47,1187.67 2260.98,1181.38 2267.49,1173.67 2274.01,1162.53 2280.52,1147.84 2287.03,1130.63 2293.55,1119.53 "/>
<polyline clip-path="url(#clip152)" style="stroke:#00bcb4; stroke-linecap:round; stroke-linejoin:round; stroke-width:8; stroke-opacity:1; fill:none" points="319.933,442.159 326.447,447.99 332.961,454.223 339.474,454.957 345.988,453.268 352.501,454.774 359.015,463.376 365.529,475.582 372.042,488.489 378.556,505.147 385.069,514.87 391.583,508.197 398.096,498.072 404.61,492.213 411.124,479.494 417.637,469.405 424.151,467.423 430.664,480.329 437.178,488.764 443.691,485.133 450.205,487.204 456.719,494.14 463.232,493.884 469.746,487.412 476.259,482.017 482.773,477.561 489.287,467.724 495.8,458.861 502.314,457.822 508.827,455.594 515.341,456.242 521.854,450.832 528.368,444.068 534.882,432.991 541.395,428.906 547.909,433.124 554.422,435.303 560.936,442.645 567.449,456.157 573.963,469.242 580.477,481.913 586.99,489.804 593.504,498.014 600.017,504.705 606.531,505.781 613.044,509.654 619.558,510.959 626.072,507.447 632.585,499.759 639.099,488.198 645.612,476.802 652.126,467.79 658.64,462.113 665.153,458.711 671.667,458.059 678.18,459.116 684.694,456.577 691.207,457.385 697.721,457.306 704.235,456.673 710.748,452.782 717.262,445.136 723.775,429.119 730.289,407.971 736.802,385.031 743.316,374.567 749.83,371.311 756.343,372.434 762.857,375.964 769.37,384.002 775.884,392.999 782.397,404.623 788.911,426.295 795.425,457.882 801.938,493.151 808.452,525.72 814.965,546.032 821.479,550.019 827.993,552.739 834.506,558.656 841.02,561.42 847.533,566.005 854.047,577.863 860.56,590.109 867.074,587.398 873.588,563.875 880.101,537.402 886.615,508.237 893.128,472.616 899.642,444.294 906.155,420.289 912.669,402.145 919.183,398.417 925.696,401.058 932.21,404.701 938.723,406.035 945.237,398.992 951.751,389.305 958.264,353.536 964.778,311.017 971.291,267.868 977.805,229.462 984.318,196.197 990.832,176.292 997.346,164.13 1003.86,165.108 1010.37,159.988 1016.89,162.648 1023.4,160.762 1029.91,162.673 1036.43,171.652 1042.94,187.147 1049.45,199.841 1055.97,221.834 1062.48,252.984 1068.99,290.608 1075.51,324.203 1082.02,352.411 1088.54,369.208 1095.05,372.151 1101.56,360.896 1108.08,334.657 1114.59,298.567 1121.1,269.206 1127.62,242.711 1134.13,227.991 1140.64,218.258 1147.16,222.573 1153.67,240.79 1160.18,254.672 1166.7,264.839 1173.21,288.79 1179.73,316.647 1186.24,345.635 1192.75,370.585 1199.27,394.72 1205.78,417.822 1212.29,431.718 1218.81,433.209 1225.32,430.922 1231.83,424.86 1238.35,416.565 1244.86,410.633 1251.38,407.215 1257.89,405.961 1264.4,408.364 1270.92,414.265 1277.43,419.004 1283.94,422.162 1290.46,426.59 1296.97,429.547 1303.48,423.97 1310,407.825 1316.51,387.426 1323.02,365.815 1329.54,349.748 1336.05,344.854 1342.57,353.38 1349.08,370.482 1355.59,385.711 1362.11,395.005 1368.62,398.499 1375.13,393.46 1381.65,385.721 1388.16,383.494 1394.67,385.504 1401.19,390.448 1407.7,398.07 1414.21,406.203 1420.73,408.712 1427.24,405.314 1433.76,405.898 1440.27,406.432 1446.78,408.62 1453.3,406.316 1459.81,402.386 1466.32,399.292 1472.84,401.004 1479.35,410.692 1485.86,429.755 1492.38,449.651 1498.89,467.371 1505.4,471.758 1511.92,466.778 1518.43,455.55 1524.95,447.205 1531.46,442.242 1537.97,441.552 1544.49,448.073 1551,454.326 1557.51,455.178 1564.03,455.571 1570.54,455.332 1577.05,450.831 1583.57,448.375 1590.08,450.527 1596.59,461.957 1603.11,475.876 1609.62,486.244 1616.14,491.505 1622.65,487.204 1629.16,466.14 1635.68,444.007 1642.19,438.391 1648.7,431.948 1655.22,418.962 1661.73,388.568 1668.24,349.664 1674.76,301.659 1681.27,251.041 1687.78,216.641 1694.3,208.871 1700.81,208.948 1707.33,225.922 1713.84,245.536 1720.35,274.233 1726.87,305.52 1733.38,338.483 1739.89,373.11 1746.41,400.592 1752.92,423.374 1759.43,437.067 1765.95,437.396 1772.46,418.714 1778.97,380.036 1785.49,336.429 1792,302.755 1798.52,278.732 1805.03,271.453 1811.54,272.792 1818.06,280.594 1824.57,291.277 1831.08,300.923 1837.6,316.737 1844.11,337.885 1850.62,356.342 1857.14,374.986 1863.65,387.857 1870.16,394.061 1876.68,400.846 1883.19,408.628 1889.71,414.582 1896.22,418.16 1902.73,423.179 1909.25,424.071 1915.76,422.689 1922.27,420.325 1928.79,419.578 1935.3,418.693 1941.81,417.052 1948.33,415.137 1954.84,418.203 1961.36,420.76 1967.87,424.099 1974.38,427.258 1980.9,428.099 1987.41,425.389 1993.92,416.466 2000.44,401.284 2006.95,390.385 2013.46,391.221 2019.98,396.949 2026.49,405.136 2033,408.157 2039.52,413.011 2046.03,412.725 2052.55,410.918 2059.06,409.913 2065.57,409.296 2072.09,408.886 2078.6,408.511 2085.11,405.713 2091.63,407.335 2098.14,408.506 2104.65,411.183 2111.17,412.145 2117.68,410.428 2124.19,412.841 2130.71,416.358 2137.22,417.136 2143.74,435.486 2150.25,452.379 2156.76,474.354 2163.28,492.846 2169.79,502.909 2176.3,501.997 2182.82,488.306 2189.33,460.737 2195.84,449.072 2202.36,435.492 2208.87,433.259 2215.38,438.896 2221.9,446.005 2228.41,458.46 2234.93,470.576 2241.44,480.23 2247.95,496.258 2254.47,501.618 2260.98,505.801 2267.49,505.412 2274.01,491.868 2280.52,469.982 2287.03,430.44 2293.55,391.757 "/>
<polyline clip-path="url(#clip152)" style="stroke:#ffb547; stroke-linecap:round; stroke-linejoin:round; stroke-width:8; stroke-opacity:1; fill:none" points="319.933,1006.14 326.447,966.802 332.961,937.319 339.474,931.427 345.988,936.858 352.501,948.496 359.015,955.84 365.529,950.85 372.042,946.512 378.556,941.378 385.069,937.95 391.583,925.011 398.096,905.104 404.61,871.482 411.124,834.311 417.637,787.305 424.151,738.916 430.664,668.851 437.178,590.985 443.691,502.234 450.205,445.889 456.719,449.763 463.232,471.744 469.746,484.913 476.259,505.821 482.773,492.718 489.287,439.016 495.8,407.373 502.314,398.097 508.827,445.456 515.341,483.965 521.854,530.546 528.368,591.035 534.882,653.669 541.395,704.217 547.909,774.476 554.422,796.379 560.936,799.308 567.449,781.767 573.963,756.403 580.477,729.188 586.99,728.857 593.504,725.089 600.017,702.414 606.531,661.276 613.044,622.499 619.558,595.708 626.072,564.332 632.585,549.007 639.099,547.864 645.612,549.57 652.126,531.875 658.64,518.134 665.153,518.153 671.667,529.249 678.18,537.675 684.694,579.107 691.207,616.257 697.721,632.786 704.235,618.937 710.748,594.939 717.262,571.323 723.775,564.271 730.289,578.208 736.802,644.898 743.316,709.903 749.83,764.452 756.343,823.35 762.857,872.779 769.37,901.118 775.884,919.545 782.397,923.205 788.911,932.662 795.425,934.138 801.938,941.674 808.452,962.442 814.965,974.458 821.479,976.018 827.993,977.258 834.506,967.802 841.02,971.769 847.533,974.696 854.047,976.585 860.56,986.964 867.074,983.744 873.588,980.984 880.101,981.154 886.615,982.159 893.128,997.524 899.642,1008.93 906.155,1014.4 912.669,1014.19 919.183,994.608 925.696,982.807 932.21,978.288 938.723,967.907 945.237,964.782 951.751,971.271 958.264,978.497 964.778,971.789 971.291,965.491 977.805,964.833 984.318,956.346 990.832,931.814 997.346,921.063 1003.86,913.361 1010.37,912.314 1016.89,904.03 1023.4,904.758 1029.91,901.474 1036.43,898.042 1042.94,894.557 1049.45,900.508 1055.97,902.587 1062.48,897.399 1068.99,877.915 1075.51,846.844 1082.02,811.545 1088.54,771.424 1095.05,721.672 1101.56,671.978 1108.08,623.047 1114.59,566.052 1121.1,507.456 1127.62,441.358 1134.13,394.38 1140.64,369.946 1147.16,361.876 1153.67,348.965 1160.18,319.55 1166.7,312.64 1173.21,319.123 1179.73,306.81 1186.24,294.027 1192.75,286.508 1199.27,275.711 1205.78,250.81 1212.29,217.993 1218.81,223.181 1225.32,247.704 1231.83,265.442 1238.35,274.897 1244.86,271.333 1251.38,279.113 1257.89,313.239 1264.4,332.616 1270.92,398.323 1277.43,478.074 1283.94,544.087 1290.46,568.787 1296.97,566.939 1303.48,555.043 1310,536.707 1316.51,499.18 1323.02,486.799 1329.54,457.921 1336.05,416.133 1342.57,371.99 1349.08,351.184 1355.59,355.635 1362.11,385.821 1368.62,423.296 1375.13,431.363 1381.65,423.307 1388.16,400.887 1394.67,378.13 1401.19,371.243 1407.7,398.292 1414.21,457.852 1420.73,528.207 1427.24,590.001 1433.76,653.398 1440.27,697.681 1446.78,731.98 1453.3,766.425 1459.81,795.329 1466.32,812.144 1472.84,817.847 1479.35,818.844 1485.86,821.622 1492.38,832.393 1498.89,846.914 1505.4,849.441 1511.92,840.872 1518.43,822.821 1524.95,811.595 1531.46,816.033 1537.97,829.839 1544.49,861.359 1551,890.502 1557.51,900.95 1564.03,912.842 1570.54,926.689 1577.05,935.057 1583.57,946.518 1590.08,956.906 1596.59,978.89 1603.11,1006.99 1609.62,1029.36 1616.14,1040.11 1622.65,1042.08 1629.16,1037.72 1635.68,1028.66 1642.19,1019.45 1648.7,1024.51 1655.22,1032.68 1661.73,1041.67 1668.24,1032.46 1674.76,1023.5 1681.27,1035.02 1687.78,1057.64 1694.3,1099.7 1700.81,1137.84 1707.33,1156.1 1713.84,1156.36 1720.35,1114.65 1726.87,1052.39 1733.38,990.874 1739.89,934.92 1746.41,884.996 1752.92,847.298 1759.43,813.975 1765.95,784.206 1772.46,746.578 1778.97,718.826 1785.49,676.717 1792,612.51 1798.52,532.11 1805.03,472.193 1811.54,443.055 1818.06,406.662 1824.57,368.885 1831.08,348.756 1837.6,361.047 1844.11,382.704 1850.62,398.498 1857.14,402.045 1863.65,414.816 1870.16,386.454 1876.68,314.348 1883.19,289.68 1889.71,317.95 1896.22,328.727 1902.73,356.708 1909.25,414.598 1915.76,488.942 1922.27,577.055 1928.79,640.581 1935.3,731.191 1941.81,779.76 1948.33,761.194 1954.84,746.903 1961.36,747.782 1967.87,741.317 1974.38,742.759 1980.9,742.504 1987.41,722.705 1993.92,696.359 2000.44,660.239 2006.95,623.098 2013.46,589.065 2019.98,571.756 2026.49,565.534 2033,570.469 2039.52,559.469 2046.03,543.217 2052.55,520.692 2059.06,495.655 2065.57,477.9 2072.09,475.631 2078.6,487.777 2085.11,513.664 2091.63,549.769 2098.14,584.496 2104.65,626.661 2111.17,670.242 2117.68,715.626 2124.19,752.728 2130.71,785.374 2137.22,815.723 2143.74,838.937 2150.25,857.286 2156.76,868.326 2163.28,868.066 2169.79,867.619 2176.3,865.141 2182.82,865.689 2189.33,872.13 2195.84,888.911 2202.36,911.863 2208.87,943.559 2215.38,962.212 2221.9,975.871 2228.41,979.987 2234.93,974.439 2241.44,962.512 2247.95,952.569 2254.47,949.006 2260.98,953.465 2267.49,941.638 2274.01,933.663 2280.52,936.634 2287.03,940.331 2293.55,936.477 "/>
<path clip-path="url(#clip150)" d="M330.459 372.907 L945.527 372.907 L945.527 166.531 L330.459 166.531  Z" fill="#ffffff" fill-rule="evenodd" fill-opacity="1"/>
<polyline clip-path="url(#clip150)" style="stroke:#000000; stroke-linecap:round; stroke-linejoin:round; stroke-width:4; stroke-opacity:1; fill:none" points="330.459,372.907 945.527,372.907 945.527,166.531 330.459,166.531 330.459,372.907 "/>
<polyline clip-path="url(#clip150)" style="stroke:#ff4747; stroke-linecap:round; stroke-linejoin:round; stroke-width:8; stroke-opacity:1; fill:none" points="353.704,218.125 493.173,218.125 "/>
<g clip-path="url(#clip150)">
<text style="fill:#000000; fill-opacity:1; font-family:Courier,Courier New,Lucida Sans Typewriter,Lucida Typewriter,monospace; font-size:60px; text-anchor:start;" transform="rotate(0, 516.418, 235.625)" x="516.418" y="235.625">Knee Angle</text>
</g>
<polyline clip-path="url(#clip150)" style="stroke:#00bcb4; stroke-linecap:round; stroke-linejoin:round; stroke-width:8; stroke-opacity:1; fill:none" points="353.704,269.719 493.173,269.719 "/>
<g clip-path="url(#clip150)">
<text style="fill:#000000; fill-opacity:1; font-family:Courier,Courier New,Lucida Sans Typewriter,Lucida Typewriter,monospace; font-size:60px; text-anchor:start;" transform="rotate(0, 516.418, 287.219)" x="516.418" y="287.219">Hip Angle</text>
</g>
<polyline clip-path="url(#clip150)" style="stroke:#ffb547; stroke-linecap:round; stroke-linejoin:round; stroke-width:8; stroke-opacity:1; fill:none" points="353.704,321.313 493.173,321.313 "/>
<g clip-path="url(#clip150)">
<text style="fill:#000000; fill-opacity:1; font-family:Courier,Courier New,Lucida Sans Typewriter,Lucida Typewriter,monospace; font-size:60px; text-anchor:start;" transform="rotate(0, 516.418, 338.813)" x="516.418" y="338.813">Elbow Angle</text>
</g>
</svg>
