<?xml version="1.0" encoding="utf-8"?>
<svg xmlns="http://www.w3.org/2000/svg" xmlns:xlink="http://www.w3.org/1999/xlink" width="600" height="400" viewBox="0 0 2400 1600">
<defs>
  <clipPath id="clip210">
    <rect x="0" y="0" width="2400" height="1600"/>
  </clipPath>
</defs>
<path clip-path="url(#clip210)" d="M0 1600 L2400 1600 L2400 0 L0 0  Z" fill="#ffffff" fill-rule="evenodd" fill-opacity="1"/>
<defs>
  <clipPath id="clip211">
    <rect x="480" y="0" width="1681" height="1600"/>
  </clipPath>
</defs>
<path clip-path="url(#clip210)" d="M260.725 1423.57 L2352.76 1423.57 L2352.76 123.185 L260.725 123.185  Z" fill="#ffffff" fill-rule="evenodd" fill-opacity="1"/>
<defs>
  <clipPath id="clip212">
    <rect x="260" y="123" width="2093" height="1301"/>
  </clipPath>
</defs>
<polyline clip-path="url(#clip212)" style="stroke:#000000; stroke-linecap:round; stroke-linejoin:round; stroke-width:2; stroke-opacity:0.1; fill:none" points="315.822,1423.57 315.822,123.185 "/>
<polyline clip-path="url(#clip212)" style="stroke:#000000; stroke-linecap:round; stroke-linejoin:round; stroke-width:2; stroke-opacity:0.1; fill:none" points="932.576,1423.57 932.576,123.185 "/>
<polyline clip-path="url(#clip212)" style="stroke:#000000; stroke-linecap:round; stroke-linejoin:round; stroke-width:2; stroke-opacity:0.1; fill:none" points="1549.33,1423.57 1549.33,123.185 "/>
<polyline clip-path="url(#clip212)" style="stroke:#000000; stroke-linecap:round; stroke-linejoin:round; stroke-width:2; stroke-opacity:0.1; fill:none" points="2166.08,1423.57 2166.08,123.185 "/>
<polyline clip-path="url(#clip212)" style="stroke:#000000; stroke-linecap:round; stroke-linejoin:round; stroke-width:2; stroke-opacity:0.1; fill:none" points="260.725,1197.08 2352.76,1197.08 "/>
<polyline clip-path="url(#clip212)" style="stroke:#000000; stroke-linecap:round; stroke-linejoin:round; stroke-width:2; stroke-opacity:0.1; fill:none" points="260.725,969.519 2352.76,969.519 "/>
<polyline clip-path="url(#clip212)" style="stroke:#000000; stroke-linecap:round; stroke-linejoin:round; stroke-width:2; stroke-opacity:0.1; fill:none" points="260.725,741.953 2352.76,741.953 "/>
<polyline clip-path="url(#clip212)" style="stroke:#000000; stroke-linecap:round; stroke-linejoin:round; stroke-width:2; stroke-opacity:0.1; fill:none" points="260.725,514.387 2352.76,514.387 "/>
<polyline clip-path="url(#clip212)" style="stroke:#000000; stroke-linecap:round; stroke-linejoin:round; stroke-width:2; stroke-opacity:0.1; fill:none" points="260.725,286.821 2352.76,286.821 "/>
<polyline clip-path="url(#clip210)" style="stroke:#000000; stroke-linecap:round; stroke-linejoin:round; stroke-width:4; stroke-opacity:1; fill:none" points="260.725,1423.57 2352.76,1423.57 "/>
<polyline clip-path="url(#clip210)" style="stroke:#000000; stroke-linecap:round; stroke-linejoin:round; stroke-width:4; stroke-opacity:1; fill:none" points="315.822,1423.57 315.822,1404.67 "/>
<polyline clip-path="url(#clip210)" style="stroke:#000000; stroke-linecap:round; stroke-linejoin:round; stroke-width:4; stroke-opacity:1; fill:none" points="932.576,1423.57 932.576,1404.67 "/>
<polyline clip-path="url(#clip210)" style="stroke:#000000; stroke-linecap:round; stroke-linejoin:round; stroke-width:4; stroke-opacity:1; fill:none" points="1549.33,1423.57 1549.33,1404.67 "/>
<polyline clip-path="url(#clip210)" style="stroke:#000000; stroke-linecap:round; stroke-linejoin:round; stroke-width:4; stroke-opacity:1; fill:none" points="2166.08,1423.57 2166.08,1404.67 "/>
<g clip-path="url(#clip210)">
<text style="fill:#000000; fill-opacity:1; font-family:Courier,Courier New,Lucida Sans Typewriter,Lucida Typewriter,monospace; font-size:60px; text-anchor:middle;" transform="rotate(0, 315.822, 1486.07)" x="315.822" y="1486.07">0</text>
</g>
<g clip-path="url(#clip210)">
<text style="fill:#000000; fill-opacity:1; font-family:Courier,Courier New,Lucida Sans Typewriter,Lucida Typewriter,monospace; font-size:60px; text-anchor:middle;" transform="rotate(0, 932.576, 1486.07)" x="932.576" y="1486.07">5</text>
</g>
<g clip-path="url(#clip210)">
<text style="fill:#000000; fill-opacity:1; font-family:Courier,Courier New,Lucida Sans Typewriter,Lucida Typewriter,monospace; font-size:60px; text-anchor:middle;" transform="rotate(0, 1549.33, 1486.07)" x="1549.33" y="1486.07">10</text>
</g>
<g clip-path="url(#clip210)">
<text style="fill:#000000; fill-opacity:1; font-family:Courier,Courier New,Lucida Sans Typewriter,Lucida Typewriter,monospace; font-size:60px; text-anchor:middle;" transform="rotate(0, 2166.08, 1486.07)" x="2166.08" y="1486.07">15</text>
</g>
<g clip-path="url(#clip210)">
<text style="fill:#000000; fill-opacity:1; font-family:Courier,Courier New,Lucida Sans Typewriter,Lucida Typewriter,monospace; font-size:82px; text-anchor:middle;" transform="rotate(0, 1306.74, 1572.51)" x="1306.74" y="1572.51">Time (Frame)</text>
</g>
<polyline clip-path="url(#clip210)" style="stroke:#000000; stroke-linecap:round; stroke-linejoin:round; stroke-width:4; stroke-opacity:1; fill:none" points="260.725,1423.57 260.725,123.185 "/>
<polyline clip-path="url(#clip210)" style="stroke:#000000; stroke-linecap:round; stroke-linejoin:round; stroke-width:4; stroke-opacity:1; fill:none" points="260.725,1197.08 279.623,1197.08 "/>
<polyline clip-path="url(#clip210)" style="stroke:#000000; stroke-linecap:round; stroke-linejoin:round; stroke-width:4; stroke-opacity:1; fill:none" points="260.725,969.519 279.623,969.519 "/>
<polyline clip-path="url(#clip210)" style="stroke:#000000; stroke-linecap:round; stroke-linejoin:round; stroke-width:4; stroke-opacity:1; fill:none" points="260.725,741.953 279.623,741.953 "/>
<polyline clip-path="url(#clip210)" style="stroke:#000000; stroke-linecap:round; stroke-linejoin:round; stroke-width:4; stroke-opacity:1; fill:none" points="260.725,514.387 279.623,514.387 "/>
<polyline clip-path="url(#clip210)" style="stroke:#000000; stroke-linecap:round; stroke-linejoin:round; stroke-width:4; stroke-opacity:1; fill:none" points="260.725,286.821 279.623,286.821 "/>
<g clip-path="url(#clip210)">
<text style="fill:#000000; fill-opacity:1; font-family:Courier,Courier New,Lucida Sans Typewriter,Lucida Typewriter,monospace; font-size:60px; text-anchor:middle;" transform="rotate(0, 187.828, 1214.58)" x="187.828" y="1214.58">25</text>
</g>
<g clip-path="url(#clip210)">
<text style="fill:#000000; fill-opacity:1; font-family:Courier,Courier New,Lucida Sans Typewriter,Lucida Typewriter,monospace; font-size:60px; text-anchor:middle;" transform="rotate(0, 187.828, 987.019)" x="187.828" y="987.019">50</text>
</g>
<g clip-path="url(#clip210)">
<text style="fill:#000000; fill-opacity:1; font-family:Courier,Courier New,Lucida Sans Typewriter,Lucida Typewriter,monospace; font-size:60px; text-anchor:middle;" transform="rotate(0, 187.828, 759.453)" x="187.828" y="759.453">75</text>
</g>
<g clip-path="url(#clip210)">
<text style="fill:#000000; fill-opacity:1; font-family:Courier,Courier New,Lucida Sans Typewriter,Lucida Typewriter,monospace; font-size:60px; text-anchor:middle;" transform="rotate(0, 169.38, 531.887)" x="169.38" y="531.887">100</text>
</g>
<g clip-path="url(#clip210)">
<text style="fill:#000000; fill-opacity:1; font-family:Courier,Courier New,Lucida Sans Typewriter,Lucida Typewriter,monospace; font-size:60px; text-anchor:middle;" transform="rotate(0, 169.38, 304.321)" x="169.38" y="304.321">125</text>
</g>
<g clip-path="url(#clip210)">
<text style="fill:#000000; fill-opacity:1; font-family:Courier,Courier New,Lucida Sans Typewriter,Lucida Typewriter,monospace; font-size:82px; text-anchor:middle;" transform="rotate(-90, 64.6929, 773.377)" x="64.6929" y="773.377">Joint Angle (Degrees)</text>
</g>
<g clip-path="url(#clip210)">
<text style="fill:#000000; fill-opacity:1; font-family:Courier,Courier New,Lucida Sans Typewriter,Lucida Typewriter,monospace; font-size:105px; text-anchor:middle;" transform="rotate(0, 1306.74, 73.2)" x="1306.74" y="73.2">Joint Angles Over Time</text>
</g>
<polyline clip-path="url(#clip212)" style="stroke:#ff4747; stroke-linecap:round; stroke-linejoin:round; stroke-width:8; stroke-opacity:1; fill:none" points="319.933,1313.58 324.045,1329.32 328.157,1343.02 332.269,1351.19 336.38,1357.94 340.492,1361.61 344.604,1363.53 348.715,1363.82 352.827,1367.62 356.939,1371.06 361.05,1376.06 365.162,1376.15 369.274,1379.8 373.386,1383.84 377.497,1386.77 381.609,1385.85 385.721,1381.51 389.832,1373.7 393.944,1363.58 398.056,1352.41 402.167,1340.73 406.279,1333.58 410.391,1330.3 414.502,1330.35 418.614,1333.13 422.726,1337.38 426.838,1343.21 430.949,1348.43 435.061,1349.02 439.173,1348.02 443.284,1344.62 447.396,1340.26 451.508,1332.38 455.619,1312.36 459.731,1290.23 463.843,1263.87 467.955,1255.66 472.066,1229.46 476.178,1208.67 480.29,1174.93 484.401,1123.61 488.513,1083 492.625,1048.78 496.736,1031.58 500.848,1048.52 504.96,1065.18 509.071,1097.6 513.183,1108.67 517.295,1124.86 521.407,1168 525.518,1198.3 529.63,1215.73 533.742,1218.69 537.853,1202.02 541.965,1161.56 546.077,1109.75 550.188,1075.99 554.3,1064.11 558.412,1062.2 562.524,1064.2 566.635,1067.65 570.747,1064.31 574.859,1053.09 578.97,1039.57 583.082,1024.21 587.194,1033.95 591.305,1061.82 595.417,1094.91 599.529,1124.67 603.641,1143.1 607.752,1155.56 611.864,1142.95 615.976,1121.62 620.087,1111.44 624.199,1100.87 628.311,1087.35 632.422,1076.77 636.534,1072.09 640.646,1079.57 644.757,1082.86 648.869,1090.82 652.981,1103.35 657.093,1116.44 661.204,1125.94 665.316,1140.15 669.428,1146.05 673.539,1154.85 677.651,1164.55 681.763,1176.89 685.874,1196 689.986,1217.85 694.098,1232.41 698.21,1244.55 702.321,1242.59 706.433,1241.24 710.545,1237.26 714.656,1237.05 718.768,1237.08 722.88,1238.72 726.991,1236.04 731.103,1235.99 735.215,1232.06 739.326,1223.58 743.438,1213.71 747.55,1199.77 751.662,1182.62 755.773,1163.63 759.885,1150.08 763.997,1148.25 768.108,1143.84 772.22,1148.56 776.332,1159.88 780.443,1159 784.555,1148.31 788.667,1124.8 792.779,1102.19 796.89,1080.28 801.002,1057.68 805.114,1053.56 809.225,1059.06 813.337,1060.89 817.449,1063.34 821.56,1062.48 825.672,1063.25 829.784,1063.11 833.895,1060.33 838.007,1059.28 842.119,1063.43 846.231,1069.72 850.342,1078.94 854.454,1086.11 858.566,1093.15 862.677,1097.9 866.789,1101.35 870.901,1106.96 875.012,1109.45 879.124,1116.37 883.236,1123.97 887.348,1126.21 891.459,1121.89 895.571,1115.06 899.683,1108.96 903.794,1107.17 907.906,1106.27 912.018,1120.39 916.129,1144.38 920.241,1171.87 924.353,1192.68 928.464,1208.27 932.576,1214.22 936.688,1214.1 940.8,1213.6 944.911,1211.04 949.023,1208.29 953.135,1203.34 957.246,1195.43 961.358,1186.73 965.47,1176.72 969.581,1167.11 973.693,1156.19 977.805,1141.54 981.917,1132.07 986.028,1122.2 990.14,1114.7 994.252,1113.59 998.363,1112.98 1002.47,1113.14 1006.59,1108.62 1010.7,1101.87 1014.81,1100.58 1018.92,1096.47 1023.03,1097.46 1027.15,1100.81 1031.26,1102.33 1035.37,1098.23 1039.48,1091.59 1043.59,1088.29 1047.7,1088.99 1051.82,1093.66 1055.93,1100.93 1060.04,1106.56 1064.15,1108.65 1068.26,1102.41 1072.37,1096.76 1076.49,1096.46 1080.6,1098.62 1084.71,1104.15 1088.82,1112 1092.93,1116.75 1097.04,1117.84 1101.16,1121.45 1105.27,1123.8 1109.38,1121.32 1113.49,1114.09 1117.6,1111.42 1121.71,1106.6 1125.83,1103.44 1129.94,1108.77 1134.05,1128.38 1138.16,1150.15 1142.27,1171.78 1146.38,1190.6 1150.5,1208 1154.61,1214.31 1158.72,1218.44 1162.83,1219.48 1166.94,1221.08 1171.05,1220.02 1175.17,1221.31 1179.28,1218.63 1183.39,1212.34 1187.5,1194.92 1191.61,1175.53 1195.72,1157.23 1199.84,1138.94 1203.95,1128.02 1208.06,1121.29 1212.17,1119.11 1216.28,1120.98 1220.39,1125.15 1224.51,1133.91 1228.62,1143.81 1232.73,1149.51 1236.84,1154.2 1240.95,1151.3 1245.07,1142.57 1249.18,1131.82 1253.29,1122.55 1257.4,1114.84 1261.51,1113.61 1265.62,1110.77 1269.74,1106.22 1273.85,1101.02 1277.96,1092.41 1282.07,1089.16 1286.18,1088.55 1290.29,1094.77 1294.41,1104.66 1298.52,1114.23 1302.63,1119.41 1306.74,1122.41 1310.85,1125.19 1314.96,1124.64 1319.08,1119.05 1323.19,1112.08 1327.3,1099.76 1331.41,1088.94 1335.52,1086.79 1339.63,1102.81 1343.75,1134.53 1347.86,1164.52 1351.97,1193.19 1356.08,1218.31 1360.19,1230.27 1364.3,1232.11 1368.42,1232.98 1372.53,1234.67 1376.64,1234.38 1380.75,1230.67 1384.86,1226.79 1388.97,1221.26 1393.09,1212.97 1397.2,1198.41 1401.31,1187.41 1405.42,1184.06 1409.53,1187.24 1413.64,1194.72 1417.76,1204.96 1421.87,1203.65 1425.98,1193.59 1430.09,1171.57 1434.2,1156.8 1438.31,1146.94 1442.43,1139.14 1446.54,1131.37 1450.65,1123.72 1454.76,1108.93 1458.87,1099.5 1462.98,1092.24 1467.1,1089.9 1471.21,1093.22 1475.32,1105.2 1479.43,1117 1483.54,1120.02 1487.66,1118.77 1491.77,1119.74 1495.88,1121.41 1499.99,1121.94 1504.1,1136.95 1508.21,1157.8 1512.33,1172.1 1516.44,1175.39 1520.55,1167.95 1524.66,1151.13 1528.77,1131 1532.88,1105.94 1537,1095.13 1541.11,1089.23 1545.22,1096.81 1549.33,1119.66 1553.44,1147.32 1557.55,1174.93 1561.67,1199.52 1565.78,1212.62 1569.89,1223.14 1574,1224.08 1578.11,1225 1582.22,1226.69 1586.34,1223.51 1590.45,1217.19 1594.56,1210.69 1598.67,1202.23 1602.78,1193.78 1606.89,1185.69 1611.01,1176.07 1615.12,1164.53 1619.23,1156.06 1623.34,1143.52 1627.45,1135.13 1631.56,1128.01 1635.68,1123.65 1639.79,1125.3 1643.9,1128.27 1648.01,1125.95 1652.12,1123.17 1656.23,1107.97 1660.35,1097.02 1664.46,1085.43 1668.57,1075.18 1672.68,1073.45 1676.79,1079.21 1680.9,1083.87 1685.02,1089.15 1689.13,1090.63 1693.24,1098.82 1697.35,1107.88 1701.46,1112.73 1705.57,1117.62 1709.69,1123.37 1713.8,1129.17 1717.91,1134.85 1722.02,1131.49 1726.13,1123.72 1730.25,1115.85 1734.36,1100.99 1738.47,1083.23 1742.58,1071.55 1746.69,1063.02 1750.8,1066.98 1754.92,1081.43 1759.03,1111.06 1763.14,1152.06 1767.25,1188.81 1771.36,1216.59 1775.47,1234.34 1779.59,1235.81 1783.7,1233.14 1787.81,1230.33 1791.92,1229.98 1796.03,1231.66 1800.14,1233.49 1804.26,1235.45 1808.37,1237.22 1812.48,1234.03 1816.59,1228.03 1820.7,1211.27 1824.81,1191.18 1828.93,1172.58 1833.04,1157.83 1837.15,1146.97 1841.26,1142.9 1845.37,1140.45 1849.48,1143.67 1853.6,1138.87 1857.71,1138.88 1861.82,1137.73 1865.93,1135.43 1870.04,1127.22 1874.15,1116.64 1878.27,1103.15 1882.38,1093.64 1886.49,1083.8 1890.6,1080.12 1894.71,1078.75 1898.82,1080.45 1902.94,1079.09 1907.05,1076.76 1911.16,1075.51 1915.27,1076.4 1919.38,1080.66 1923.49,1082.99 1927.61,1081.24 1931.72,1074.79 1935.83,1066.38 1939.94,1058.63 1944.05,1055.61 1948.17,1049.75 1952.28,1047.31 1956.39,1050.21 1960.5,1069.82 1964.61,1105.82 1968.72,1149.96 1972.84,1194.36 1976.95,1232.18 1981.06,1251.67 1985.17,1254.48 1989.28,1248.64 1993.39,1246.37 1997.51,1247.22 2001.62,1247.42 2005.73,1248.09 2009.84,1249.92 2013.95,1251.57 2018.06,1243.68 2022.18,1227.4 2026.29,1209.38 2030.4,1191.49 2034.51,1176.17 2038.62,1161.96 2042.73,1153.27 2046.85,1150.31 2050.96,1143.54 2055.07,1134.58 2059.18,1128.76 2063.29,1121 2067.4,1116.85 2071.52,1107.92 2075.63,1098.17 2079.74,1083.45 2083.85,1066.88 2087.96,1058.13 2092.07,1055.48 2096.19,1047.68 2100.3,1042.73 2104.41,1036.86 2108.52,1028.35 2112.63,1013.89 2116.74,1003.84 2120.86,1010.71 2124.97,1025.74 2129.08,1037.64 2133.19,1053.44 2137.3,1072.31 2141.41,1082.55 2145.53,1081 2149.64,1078.2 2153.75,1074.57 2157.86,1082.36 2161.97,1104.04 2166.08,1136.25 2170.2,1174.76 2174.31,1205.76 2178.42,1226.89 2182.53,1237.85 2186.64,1233.69 2190.76,1229.23 2194.87,1228.21 2198.98,1226.99 2203.09,1230.02 2207.2,1232.24 2211.31,1237.11 2215.43,1240.22 2219.54,1237.47 2223.65,1225.96 2227.76,1210.56 2231.87,1193.24 2235.98,1177.22 2240.1,1163.65 2244.21,1157.47 2248.32,1152.99 2252.43,1147.29 2256.54,1138.01 2260.65,1128.98 2264.77,1112.75 2268.88,1094.57 2272.99,1084.72 2277.1,1082.91 2281.21,1083.85 2285.32,1089.36 2289.44,1094.47 2293.55,1103.39 "/>
<polyline clip-path="url(#clip212)" style="stroke:#00bcb4; stroke-linecap:round; stroke-linejoin:round; stroke-width:8; stroke-opacity:1; fill:none" points="319.933,1080.73 324.045,1160.27 328.157,1228.62 332.269,1253.66 336.38,1243.33 340.492,1221 344.604,1208.88 348.715,1209.77 352.827,1214.22 356.939,1221.73 361.05,1231.54 365.162,1228.42 369.274,1224.16 373.386,1218.29 377.497,1213.36 381.609,1208.78 385.721,1203.78 389.832,1201.32 393.944,1200.4 398.056,1200.5 402.167,1202.09 406.279,1198.86 410.391,1190.62 414.502,1180.98 418.614,1173.19 422.726,1167.58 426.838,1158.55 430.949,1141.73 435.061,1121.2 439.173,1090.86 443.284,1065.63 447.396,1047 451.508,1032.19 455.619,1011.39 459.731,966.418 463.843,910.727 467.955,834.054 472.066,759.456 476.178,691.589 480.29,632.322 484.401,582.052 488.513,535.739 492.625,510.483 496.736,499.438 500.848,501.705 504.96,539.824 509.071,567.78 513.183,584.488 517.295,602.72 521.407,627.001 525.518,653.298 529.63,653.923 533.742,650.658 537.853,636.125 541.965,592.404 546.077,544.582 550.188,518.844 554.3,521.121 558.412,530.854 562.524,543.253 566.635,552.809 570.747,551.755 574.859,538.977 578.97,524.922 583.082,509.289 587.194,520.715 591.305,540.831 595.417,575.797 599.529,598.353 603.641,618.573 607.752,635.8 611.864,648.645 615.976,663.629 620.087,673.736 624.199,662.976 628.311,645.263 632.422,606.385 636.534,577.781 640.646,565.241 644.757,558.669 648.869,562.709 652.981,552.138 657.093,539.597 661.204,533.628 665.316,529.636 669.428,541.975 673.539,562.801 677.651,578.14 681.763,592.006 685.874,601.618 689.986,613.869 694.098,626.165 698.21,632.595 702.321,641.551 706.433,652.532 710.545,659.013 714.656,660.298 718.768,657.648 722.88,653.515 726.991,647.176 731.103,634.121 735.215,619.684 739.326,611.285 743.438,600.298 747.55,589.507 751.662,575.135 755.773,563.696 759.885,563.645 763.997,565.405 768.108,575.393 772.22,590.291 776.332,606.235 780.443,610.956 784.555,599.905 788.667,577.96 792.779,553.645 796.89,524.014 801.002,506.063 805.114,500.262 809.225,498.674 813.337,498.953 817.449,501.135 821.56,501.698 825.672,501.085 829.784,500.207 833.895,501.884 838.007,506.925 842.119,517.865 846.231,537.077 850.342,558.326 854.454,576.204 858.566,586.981 862.677,590.155 866.789,579.153 870.901,568.711 875.012,561.399 879.124,551.762 883.236,538.284 887.348,522.74 891.459,510.992 895.571,506.672 899.683,506.963 903.794,517.029 907.906,532.896 912.018,548.216 916.129,565.696 920.241,586.565 924.353,608.234 928.464,626.494 932.576,637.627 936.688,642.737 940.8,646.679 944.911,637.091 949.023,626.708 953.135,614.146 957.246,601.641 961.358,591.781 965.47,587.998 969.581,584.761 973.693,577.801 977.805,560.308 981.917,539.946 986.028,503.892 990.14,481.974 994.252,477.619 998.363,488.661 1002.47,501.894 1006.59,511.745 1010.7,523.822 1014.81,526.591 1018.92,512.45 1023.03,507.854 1027.15,504.628 1031.26,493.998 1035.37,483.947 1039.48,478.522 1043.59,485.59 1047.7,494.212 1051.82,503.351 1055.93,515.51 1060.04,524.963 1064.15,523.331 1068.26,526.564 1072.37,533.437 1076.49,544.848 1080.6,553.17 1084.71,557.08 1088.82,561.244 1092.93,559.892 1097.04,550.111 1101.16,542.556 1105.27,527.626 1109.38,516.799 1113.49,511.464 1117.6,511.019 1121.71,516.946 1125.83,526.651 1129.94,543.159 1134.05,563.335 1138.16,577.3 1142.27,594.778 1146.38,609.528 1150.5,620.133 1154.61,627.643 1158.72,632.518 1162.83,637.981 1166.94,639.86 1171.05,639.208 1175.17,635.812 1179.28,630.922 1183.39,625.381 1187.5,616.293 1191.61,606.577 1195.72,595.981 1199.84,574.617 1203.95,548.153 1208.06,520.905 1212.17,501.907 1216.28,499.677 1220.39,509.945 1224.51,526.421 1228.62,541.47 1232.73,539.567 1236.84,534.963 1240.95,524.05 1245.07,511.43 1249.18,511.221 1253.29,520.108 1257.4,527.631 1261.51,533.436 1265.62,531.855 1269.74,529.512 1273.85,518.051 1277.96,506.247 1282.07,507.712 1286.18,518.373 1290.29,532.743 1294.41,549.001 1298.52,565.786 1302.63,569.48 1306.74,564.864 1310.85,553.35 1314.96,542.947 1319.08,536.147 1323.19,532.535 1327.3,535.079 1331.41,545.517 1335.52,556.925 1339.63,572.477 1343.75,580.993 1347.86,592.745 1351.97,609.817 1356.08,628 1360.19,646.945 1364.3,662.774 1368.42,674.272 1372.53,677.255 1376.64,671.591 1380.75,663.7 1384.86,655.498 1388.97,648.787 1393.09,643.185 1397.2,631.464 1401.31,617.661 1405.42,610.332 1409.53,613.307 1413.64,606.419 1417.76,593.169 1421.87,577.726 1425.98,564.507 1430.09,549.648 1434.2,545.601 1438.31,545.314 1442.43,546.638 1446.54,530.549 1450.65,512.292 1454.76,499.229 1458.87,492.983 1462.98,496.331 1467.1,503.853 1471.21,513.459 1475.32,522.987 1479.43,529.95 1483.54,537.796 1487.66,546.449 1491.77,551.833 1495.88,558.674 1499.99,564.63 1504.1,581.887 1508.21,591.328 1512.33,592.997 1516.44,579.687 1520.55,566.206 1524.66,550.132 1528.77,535.715 1532.88,531.34 1537,537.62 1541.11,546.09 1545.22,557.648 1549.33,570.378 1553.44,594.168 1557.55,618.737 1561.67,641.649 1565.78,664.329 1569.89,681.518 1574,690.767 1578.11,689.904 1582.22,683.671 1586.34,673.428 1590.45,663.51 1594.56,654.597 1598.67,649.461 1602.78,643.623 1606.89,634.817 1611.01,622.296 1615.12,606.48 1619.23,586.295 1623.34,562.848 1627.45,547.696 1631.56,542.343 1635.68,542.182 1639.79,545.947 1643.9,549.41 1648.01,548.818 1652.12,538.933 1656.23,526.645 1660.35,521.199 1664.46,516.796 1668.57,510.349 1672.68,512.848 1676.79,516.945 1680.9,518.434 1685.02,516.249 1689.13,516.134 1693.24,519.287 1697.35,523.981 1701.46,529.862 1705.57,545.923 1709.69,561.784 1713.8,575.874 1717.91,582.052 1722.02,577.485 1726.13,565.441 1730.25,546.44 1734.36,520.566 1738.47,499.689 1742.58,486.036 1746.69,487.444 1750.8,507.895 1754.92,542.236 1759.03,578.885 1763.14,607.378 1767.25,625.136 1771.36,638.808 1775.47,646.289 1779.59,651.59 1783.7,665.645 1787.81,682.828 1791.92,695.179 1796.03,699.146 1800.14,697.603 1804.26,691.454 1808.37,683.478 1812.48,674.464 1816.59,667.099 1820.7,660.626 1824.81,652.639 1828.93,640.65 1833.04,630.769 1837.15,615.902 1841.26,596.339 1845.37,582.184 1849.48,571.627 1853.6,570.673 1857.71,573.734 1861.82,579.856 1865.93,588.512 1870.04,587.315 1874.15,576.872 1878.27,562.73 1882.38,545.234 1886.49,538.433 1890.6,533.698 1894.71,532.652 1898.82,533.152 1902.94,532.613 1907.05,528.792 1911.16,526.104 1915.27,526.495 1919.38,536.094 1923.49,542.381 1927.61,545.335 1931.72,542.639 1935.83,539.246 1939.94,532.515 1944.05,529.141 1948.17,527.694 1952.28,534.454 1956.39,552.03 1960.5,575.44 1964.61,597.483 1968.72,621.839 1972.84,643.536 1976.95,662.603 1981.06,677.281 1985.17,691.092 1989.28,706.165 1993.39,716.243 1997.51,718.279 2001.62,714.889 2005.73,708.846 2009.84,701.576 2013.95,693.889 2018.06,683.497 2022.18,674.365 2026.29,667.731 2030.4,663.675 2034.51,657.743 2038.62,648.33 2042.73,629.856 2046.85,603.424 2050.96,570.032 2055.07,550.333 2059.18,540.196 2063.29,536.552 2067.4,530.602 2071.52,526.01 2075.63,515.643 2079.74,500.373 2083.85,489.583 2087.96,497.74 2092.07,517.216 2096.19,526.684 2100.3,523.588 2104.41,515.209 2108.52,500.223 2112.63,483.225 2116.74,471.702 2120.86,475.61 2124.97,494.158 2129.08,511.668 2133.19,526.19 2137.3,534.789 2141.41,539.774 2145.53,541.938 2149.64,543.206 2153.75,550.563 2157.86,571.167 2161.97,597.412 2166.08,618.163 2170.2,632.644 2174.31,643.82 2178.42,654.48 2182.53,664.313 2186.64,676.136 2190.76,694.246 2194.87,708.106 2198.98,713.478 2203.09,712.005 2207.2,704.413 2211.31,696.416 2215.43,687.941 2219.54,679.862 2223.65,669.044 2227.76,663.261 2231.87,657.576 2235.98,650.41 2240.1,639.294 2244.21,628.867 2248.32,614.96 2252.43,595.865 2256.54,575.973 2260.65,560.516 2264.77,540.494 2268.88,525.727 2272.99,515.736 2277.1,515.455 2281.21,519.307 2285.32,525.848 2289.44,537.778 2293.55,543.747 "/>
<polyline clip-path="url(#clip212)" style="stroke:#ffb547; stroke-linecap:round; stroke-linejoin:round; stroke-width:8; stroke-opacity:1; fill:none" points="319.933,968.138 324.045,1015.77 328.157,1056.23 332.269,1079.77 336.38,1087.29 340.492,1083.01 344.604,1076.35 348.715,1072.37 352.827,1065.48 356.939,1061.27 361.05,1059.41 365.162,1066.05 369.274,1075.15 373.386,1081.19 377.497,1081.91 381.609,1081.02 385.721,1081.36 389.832,1078.07 393.944,1074.36 398.056,1067.69 402.167,1060.81 406.279,1055.44 410.391,1049.61 414.502,1045.98 418.614,1042.82 422.726,1045.31 426.838,1051.69 430.949,1059.63 435.061,1061.85 439.173,1056.67 443.284,1048.01 447.396,1031.06 451.508,1009.84 455.619,998.483 459.731,989.539 463.843,987.212 467.955,984.594 472.066,986.893 476.178,994.601 480.29,1002.96 484.401,1006.86 488.513,1009.82 492.625,1008.21 496.736,1005.03 500.848,999.276 504.96,993.923 509.071,987.008 513.183,983.23 517.295,975.747 521.407,966.966 525.518,958.687 529.63,950.583 533.742,941.111 537.853,934.147 541.965,924.038 546.077,924.154 550.188,926.749 554.3,931.099 558.412,935.949 562.524,943.057 566.635,947.439 570.747,951.196 574.859,949.064 578.97,952.552 583.082,953.785 587.194,956.803 591.305,959.281 595.417,968.855 599.529,964.216 603.641,966.292 607.752,972.207 611.864,982.753 615.976,999.696 620.087,1015.32 624.199,1023.28 628.311,1027.47 632.422,1013.07 636.534,1003.55 640.646,997.903 644.757,989.606 648.869,979.407 652.981,954.644 657.093,944.456 661.204,917.439 665.316,901.218 669.428,855.371 673.539,827.13 677.651,784.091 681.763,758.396 685.874,765.472 689.986,717.416 694.098,685.441 698.21,633.36 702.321,493.918 706.433,398.76 710.545,276.228 714.656,229.209 718.768,270.831 722.88,336.413 726.991,448.573 731.103,542.462 735.215,603.55 739.326,686.899 743.438,708.639 747.55,742.191 751.662,784.554 755.773,842.289 759.885,855.552 763.997,880.267 768.108,902.804 772.22,918.605 776.332,920.505 780.443,916.468 784.555,903.485 788.667,897.39 792.779,909.041 796.89,919.534 801.002,930.517 805.114,931.638 809.225,932.154 813.337,928.45 817.449,923.061 821.56,920.778 825.672,927.516 829.784,933.114 833.895,941.521 838.007,949.244 842.119,960.117 846.231,968.17 850.342,974.331 854.454,974.168 858.566,970.336 862.677,968.663 866.789,962.241 870.901,952.499 875.012,945.774 879.124,932.04 883.236,918.012 887.348,903.65 891.459,883.832 895.571,851.368 899.683,775.239 903.794,698.222 907.906,668.503 912.018,690.796 916.129,620.301 920.241,575.901 924.353,585.164 928.464,554.516 932.576,455.483 936.688,320.099 940.8,293.61 944.911,345.759 949.023,355.281 953.135,477.797 957.246,660.35 961.358,785.375 965.47,817.737 969.581,770.022 973.693,715.636 977.805,672.919 981.917,670.2 986.028,714.325 990.14,774.871 994.252,838.365 998.363,885.656 1002.47,922.31 1006.59,906.678 1010.7,893.836 1014.81,893.307 1018.92,898.007 1023.03,907.818 1027.15,913.396 1031.26,919.028 1035.37,928.122 1039.48,929.333 1043.59,929.013 1047.7,932.074 1051.82,932.229 1055.93,935.535 1060.04,931.758 1064.15,934.324 1068.26,932.134 1072.37,922.828 1076.49,912.859 1080.6,907.305 1084.71,905.043 1088.82,911.549 1092.93,919.96 1097.04,925.409 1101.16,932.559 1105.27,930.482 1109.38,927.21 1113.49,911.152 1117.6,861.321 1121.71,820.551 1125.83,758.876 1129.94,691.259 1134.05,667.99 1138.16,640.605 1142.27,614.718 1146.38,589.249 1150.5,515.271 1154.61,439.165 1158.72,304.238 1162.83,226.286 1166.94,238.361 1171.05,307.733 1175.17,423.128 1179.28,576.131 1183.39,714.446 1187.5,782.938 1191.61,765.658 1195.72,751.36 1199.84,751.368 1203.95,767.685 1208.06,793.81 1212.17,845.369 1216.28,900.868 1220.39,920.291 1224.51,923.381 1228.62,917.137 1232.73,913.629 1236.84,908.739 1240.95,904.931 1245.07,910.474 1249.18,906.402 1253.29,907.527 1257.4,913.51 1261.51,922.538 1265.62,929.62 1269.74,932.407 1273.85,931.358 1277.96,932.116 1282.07,931.481 1286.18,933.512 1290.29,936.515 1294.41,939.843 1298.52,944.478 1302.63,944.64 1306.74,934.755 1310.85,934.909 1314.96,925.607 1319.08,927.783 1323.19,911.998 1327.3,866.34 1331.41,796.149 1335.52,730.885 1339.63,688.021 1343.75,712.635 1347.86,736.708 1351.97,757.225 1356.08,696.54 1360.19,536.839 1364.3,382.47 1368.42,282.727 1372.53,276.867 1376.64,384.489 1380.75,528.964 1384.86,699.977 1388.97,828.273 1393.09,881.597 1397.2,887.978 1401.31,861.826 1405.42,804.318 1409.53,806.124 1413.64,819.593 1417.76,868.794 1421.87,923.077 1425.98,962.696 1430.09,943.692 1434.2,913.086 1438.31,865.576 1442.43,877.509 1446.54,879.547 1450.65,891.545 1454.76,900.025 1458.87,908.115 1462.98,908.277 1467.1,905.773 1471.21,908.362 1475.32,914.811 1479.43,922.478 1483.54,935.991 1487.66,947.148 1491.77,954.469 1495.88,964.192 1499.99,963.167 1504.1,957.98 1508.21,950.166 1512.33,930.639 1516.44,916.816 1520.55,906.72 1524.66,881.433 1528.77,840.288 1532.88,792.105 1537,762.154 1541.11,724.703 1545.22,690.977 1549.33,649.362 1553.44,612.496 1557.55,527.969 1561.67,414.915 1565.78,306.295 1569.89,198.472 1574,168.899 1578.11,222.976 1582.22,340.312 1586.34,512.435 1590.45,670.166 1594.56,792.969 1598.67,851.809 1602.78,826.135 1606.89,812.325 1611.01,793.326 1615.12,785.945 1619.23,791.777 1623.34,815.991 1627.45,848.184 1631.56,870.999 1635.68,890.357 1639.79,906.254 1643.9,920.289 1648.01,922.498 1652.12,917.248 1656.23,917.477 1660.35,917.105 1664.46,910.128 1668.57,910.7 1672.68,918.456 1676.79,927.208 1680.9,935.729 1685.02,937.436 1689.13,943.002 1693.24,944.803 1697.35,944.54 1701.46,944.466 1705.57,940.701 1709.69,936.055 1713.8,933.162 1717.91,931.76 1722.02,934.751 1726.13,935.146 1730.25,935.48 1734.36,922.466 1738.47,894.583 1742.58,854.06 1746.69,804.697 1750.8,753.998 1754.92,687.771 1759.03,594.388 1763.14,570.242 1767.25,559.286 1771.36,545.482 1775.47,501.974 1779.59,431.919 1783.7,368.915 1787.81,278.707 1791.92,159.988 1796.03,196.463 1800.14,259.267 1804.26,370.931 1808.37,504.228 1812.48,606.455 1816.59,687.569 1820.7,724.001 1824.81,706.444 1828.93,727.006 1833.04,726.923 1837.15,760.354 1841.26,812.784 1845.37,845.928 1849.48,868.573 1853.6,894.029 1857.71,908.419 1861.82,915.824 1865.93,921.848 1870.04,922.226 1874.15,925.873 1878.27,936.522 1882.38,939.367 1886.49,938.175 1890.6,932.274 1894.71,924.88 1898.82,919.109 1902.94,915.641 1907.05,918.942 1911.16,928.696 1915.27,934.667 1919.38,935.604 1923.49,934.779 1927.61,931.449 1931.72,927.464 1935.83,920.965 1939.94,913.238 1944.05,896.504 1948.17,863.295 1952.28,816.707 1956.39,743.055 1960.5,677.835 1964.61,622.564 1968.72,575.862 1972.84,510.325 1976.95,441 1981.06,371.209 1985.17,317.073 1989.28,264.351 1993.39,269.169 1997.51,300.204 2001.62,301.476 2005.73,313.189 2009.84,367.008 2013.95,432.473 2018.06,541.449 2022.18,644.294 2026.29,738.439 2030.4,800.266 2034.51,796.229 2038.62,803.236 2042.73,817.365 2046.85,826.34 2050.96,864.639 2055.07,883.47 2059.18,889.26 2063.29,898.521 2067.4,901.932 2071.52,904.664 2075.63,910.202 2079.74,917.736 2083.85,930.105 2087.96,932.453 2092.07,928.066 2096.19,926.245 2100.3,926.223 2104.41,927.621 2108.52,929.689 2112.63,932.974 2116.74,935.547 2120.86,935.735 2124.97,929.614 2129.08,930.227 2133.19,926.151 2137.3,918.979 2141.41,911.331 2145.53,894.681 2149.64,870.185 2153.75,830.025 2157.86,783.324 2161.97,709.733 2166.08,662.747 2170.2,618.284 2174.31,594.819 2178.42,561.017 2182.53,518.029 2186.64,479.708 2190.76,403.022 2194.87,311.79 2198.98,302.766 2203.09,324.292 2207.2,396.53 2211.31,491.776 2215.43,574.856 2219.54,644.725 2223.65,660.223 2227.76,681.361 2231.87,716.164 2235.98,745.227 2240.1,778.81 2244.21,822.314 2248.32,842.807 2252.43,855.024 2256.54,868.425 2260.65,888.128 2264.77,903.757 2268.88,910.173 2272.99,913.856 2277.1,918.848 2281.21,922.847 2285.32,928.409 2289.44,930.436 2293.55,935.962 "/>
<path clip-path="url(#clip210)" d="M330.459 372.907 L945.527 372.907 L945.527 166.531 L330.459 166.531  Z" fill="#ffffff" fill-rule="evenodd" fill-opacity="1"/>
<polyline clip-path="url(#clip210)" style="stroke:#000000; stroke-linecap:round; stroke-linejoin:round; stroke-width:4; stroke-opacity:1; fill:none" points="330.459,372.907 945.527,372.907 945.527,166.531 330.459,166.531 330.459,372.907 "/>
<polyline clip-path="url(#clip210)" style="stroke:#ff4747; stroke-linecap:round; stroke-linejoin:round; stroke-width:8; stroke-opacity:1; fill:none" points="353.704,218.125 493.173,218.125 "/>
<g clip-path="url(#clip210)">
<text style="fill:#000000; fill-opacity:1; font-family:Courier,Courier New,Lucida Sans Typewriter,Lucida Typewriter,monospace; font-size:60px; text-anchor:start;" transform="rotate(0, 516.418, 235.625)" x="516.418" y="235.625">Knee Angle</text>
</g>
<polyline clip-path="url(#clip210)" style="stroke:#00bcb4; stroke-linecap:round; stroke-linejoin:round; stroke-width:8; stroke-opacity:1; fill:none" points="353.704,269.719 493.173,269.719 "/>
<g clip-path="url(#clip210)">
<text style="fill:#000000; fill-opacity:1; font-family:Courier,Courier New,Lucida Sans Typewriter,Lucida Typewriter,monospace; font-size:60px; text-anchor:start;" transform="rotate(0, 516.418, 287.219)" x="516.418" y="287.219">Hip Angle</text>
</g>
<polyline clip-path="url(#clip210)" style="stroke:#ffb547; stroke-linecap:round; stroke-linejoin:round; stroke-width:8; stroke-opacity:1; fill:none" points="353.704,321.313 493.173,321.313 "/>
<g clip-path="url(#clip210)">
<text style="fill:#000000; fill-opacity:1; font-family:Courier,Courier New,Lucida Sans Typewriter,Lucida Typewriter,monospace; font-size:60px; text-anchor:start;" transform="rotate(0, 516.418, 338.813)" x="516.418" y="338.813">Elbow Angle</text>
</g>
</svg>
