<?xml version="1.0" encoding="utf-8"?>
<svg xmlns="http://www.w3.org/2000/svg" xmlns:xlink="http://www.w3.org/1999/xlink" width="600" height="400" viewBox="0 0 2400 1600">
<defs>
  <clipPath id="clip160">
    <rect x="0" y="0" width="2400" height="1600"/>
  </clipPath>
</defs>
<path clip-path="url(#clip160)" d="M0 1600 L2400 1600 L2400 0 L0 0  Z" fill="#ffffff" fill-rule="evenodd" fill-opacity="1"/>
<defs>
  <clipPath id="clip161">
    <rect x="480" y="0" width="1681" height="1600"/>
  </clipPath>
</defs>
<path clip-path="url(#clip160)" d="M226.192 1423.18 L2352.76 1423.18 L2352.76 123.472 L226.192 123.472  Z" fill="#ffffff" fill-rule="evenodd" fill-opacity="1"/>
<defs>
  <clipPath id="clip162">
    <rect x="226" y="123" width="2128" height="1301"/>
  </clipPath>
</defs>
<polyline clip-path="url(#clip162)" style="stroke:#000000; stroke-linecap:round; stroke-linejoin:round; stroke-width:2; stroke-opacity:0.1; fill:none" points="282.199,1423.18 282.199,123.472 "/>
<polyline clip-path="url(#clip162)" style="stroke:#000000; stroke-linecap:round; stroke-linejoin:round; stroke-width:2; stroke-opacity:0.1; fill:none" points="909.134,1423.18 909.134,123.472 "/>
<polyline clip-path="url(#clip162)" style="stroke:#000000; stroke-linecap:round; stroke-linejoin:round; stroke-width:2; stroke-opacity:0.1; fill:none" points="1536.07,1423.18 1536.07,123.472 "/>
<polyline clip-path="url(#clip162)" style="stroke:#000000; stroke-linecap:round; stroke-linejoin:round; stroke-width:2; stroke-opacity:0.1; fill:none" points="2163,1423.18 2163,123.472 "/>
<polyline clip-path="url(#clip162)" style="stroke:#000000; stroke-linecap:round; stroke-linejoin:round; stroke-width:2; stroke-opacity:0.1; fill:none" points="226.192,1196.81 2352.76,1196.81 "/>
<polyline clip-path="url(#clip162)" style="stroke:#000000; stroke-linecap:round; stroke-linejoin:round; stroke-width:2; stroke-opacity:0.1; fill:none" points="226.192,969.366 2352.76,969.366 "/>
<polyline clip-path="url(#clip162)" style="stroke:#000000; stroke-linecap:round; stroke-linejoin:round; stroke-width:2; stroke-opacity:0.1; fill:none" points="226.192,741.918 2352.76,741.918 "/>
<polyline clip-path="url(#clip162)" style="stroke:#000000; stroke-linecap:round; stroke-linejoin:round; stroke-width:2; stroke-opacity:0.1; fill:none" points="226.192,514.47 2352.76,514.47 "/>
<polyline clip-path="url(#clip162)" style="stroke:#000000; stroke-linecap:round; stroke-linejoin:round; stroke-width:2; stroke-opacity:0.1; fill:none" points="226.192,287.023 2352.76,287.023 "/>
<polyline clip-path="url(#clip160)" style="stroke:#000000; stroke-linecap:round; stroke-linejoin:round; stroke-width:4; stroke-opacity:1; fill:none" points="226.192,1423.18 2352.76,1423.18 "/>
<polyline clip-path="url(#clip160)" style="stroke:#000000; stroke-linecap:round; stroke-linejoin:round; stroke-width:4; stroke-opacity:1; fill:none" points="282.199,1423.18 282.199,1404.28 "/>
<polyline clip-path="url(#clip160)" style="stroke:#000000; stroke-linecap:round; stroke-linejoin:round; stroke-width:4; stroke-opacity:1; fill:none" points="909.134,1423.18 909.134,1404.28 "/>
<polyline clip-path="url(#clip160)" style="stroke:#000000; stroke-linecap:round; stroke-linejoin:round; stroke-width:4; stroke-opacity:1; fill:none" points="1536.07,1423.18 1536.07,1404.28 "/>
<polyline clip-path="url(#clip160)" style="stroke:#000000; stroke-linecap:round; stroke-linejoin:round; stroke-width:4; stroke-opacity:1; fill:none" points="2163,1423.18 2163,1404.28 "/>
<path clip-path="url(#clip160)" d="M293.105 1470.84 Q293.105 1478.55 290.471 1482.3 Q287.836 1486.05 282.234 1486.05 Q276.704 1486.05 274.045 1482.4 Q271.387 1478.72 271.292 1471.43 L271.292 1465.57 Q271.292 1457.95 273.927 1454.25 Q276.561 1450.55 282.187 1450.55 Q287.765 1450.55 290.4 1454.13 Q293.034 1457.69 293.105 1465.14 L293.105 1470.84 M288.714 1464.83 Q288.714 1459.26 287.148 1456.72 Q285.581 1454.15 282.187 1454.15 Q278.816 1454.15 277.273 1456.69 Q275.731 1459.23 275.683 1464.5 L275.683 1471.53 Q275.683 1477.13 277.297 1479.81 Q278.935 1482.47 282.234 1482.47 Q285.486 1482.47 287.053 1479.95 Q288.643 1477.44 288.714 1472.03 L288.714 1464.83 Z" fill="#000000" fill-rule="nonzero" fill-opacity="1" /><path clip-path="url(#clip160)" d="M899.509 1468.25 L901.265 1451.02 L918.972 1451.02 L918.972 1455.08 L904.992 1455.08 L903.947 1464.5 Q906.487 1463.01 909.715 1463.01 Q914.439 1463.01 917.216 1466.14 Q919.993 1469.25 919.993 1474.57 Q919.993 1479.91 917.097 1482.99 Q914.225 1486.05 909.051 1486.05 Q904.469 1486.05 901.574 1483.51 Q898.678 1480.98 898.274 1476.49 L902.428 1476.49 Q902.832 1479.46 904.541 1480.98 Q906.25 1482.47 909.051 1482.47 Q912.113 1482.47 913.845 1480.38 Q915.602 1478.29 915.602 1474.61 Q915.602 1471.15 913.703 1469.06 Q911.828 1466.95 908.695 1466.95 Q905.822 1466.95 904.185 1468.2 L903.022 1469.15 L899.509 1468.25 Z" fill="#000000" fill-rule="nonzero" fill-opacity="1" /><path clip-path="url(#clip160)" d="M1525.43 1485.58 L1521.02 1485.58 L1521.02 1456.31 L1512.17 1459.56 L1512.17 1455.58 L1524.75 1450.85 L1525.43 1450.85 L1525.43 1485.58 Z" fill="#000000" fill-rule="nonzero" fill-opacity="1" /><path clip-path="url(#clip160)" d="M1559.97 1470.84 Q1559.97 1478.55 1557.34 1482.3 Q1554.7 1486.05 1549.1 1486.05 Q1543.57 1486.05 1540.91 1482.4 Q1538.25 1478.72 1538.16 1471.43 L1538.16 1465.57 Q1538.16 1457.95 1540.79 1454.25 Q1543.43 1450.55 1549.05 1450.55 Q1554.63 1450.55 1557.27 1454.13 Q1559.9 1457.69 1559.97 1465.14 L1559.97 1470.84 M1555.58 1464.83 Q1555.58 1459.26 1554.01 1456.72 Q1552.45 1454.15 1549.05 1454.15 Q1545.68 1454.15 1544.14 1456.69 Q1542.6 1459.23 1542.55 1464.5 L1542.55 1471.53 Q1542.55 1477.13 1544.16 1479.81 Q1545.8 1482.47 1549.1 1482.47 Q1552.35 1482.47 1553.92 1479.95 Q1555.51 1477.44 1555.58 1472.03 L1555.58 1464.83 Z" fill="#000000" fill-rule="nonzero" fill-opacity="1" /><path clip-path="url(#clip160)" d="M2151.95 1485.58 L2147.54 1485.58 L2147.54 1456.31 L2138.69 1459.56 L2138.69 1455.58 L2151.27 1450.85 L2151.95 1450.85 L2151.95 1485.58 Z" fill="#000000" fill-rule="nonzero" fill-opacity="1" /><path clip-path="url(#clip160)" d="M2166.84 1468.25 L2168.59 1451.02 L2186.3 1451.02 L2186.3 1455.08 L2172.32 1455.08 L2171.28 1464.5 Q2173.82 1463.01 2177.04 1463.01 Q2181.77 1463.01 2184.54 1466.14 Q2187.32 1469.25 2187.32 1474.57 Q2187.32 1479.91 2184.43 1482.99 Q2181.55 1486.05 2176.38 1486.05 Q2171.8 1486.05 2168.9 1483.51 Q2166.01 1480.98 2165.6 1476.49 L2169.76 1476.49 Q2170.16 1479.46 2171.87 1480.98 Q2173.58 1482.47 2176.38 1482.47 Q2179.44 1482.47 2181.17 1480.38 Q2182.93 1478.29 2182.93 1474.61 Q2182.93 1471.15 2181.03 1469.06 Q2179.16 1466.95 2176.02 1466.95 Q2173.15 1466.95 2171.51 1468.2 L2170.35 1469.15 L2166.84 1468.25 Z" fill="#000000" fill-rule="nonzero" fill-opacity="1" /><path clip-path="url(#clip160)" d="M1128.07 1525.68 L1112.79 1525.68 L1112.79 1568.04 L1106.56 1568.04 L1106.56 1525.68 L1091.32 1525.68 L1091.32 1520.52 L1128.07 1520.52 L1128.07 1525.68 Z" fill="#000000" fill-rule="nonzero" fill-opacity="1" /><path clip-path="url(#clip160)" d="M1140.73 1568.04 L1134.69 1568.04 L1134.69 1532.73 L1140.73 1532.73 L1140.73 1568.04 M1134.2 1523.36 Q1134.2 1521.89 1135.08 1520.88 Q1136 1519.87 1137.76 1519.87 Q1139.52 1519.87 1140.44 1520.88 Q1141.35 1521.89 1141.35 1523.36 Q1141.35 1524.83 1140.44 1525.81 Q1139.52 1526.79 1137.76 1526.79 Q1136 1526.79 1135.08 1525.81 Q1134.2 1524.83 1134.2 1523.36 Z" fill="#000000" fill-rule="nonzero" fill-opacity="1" /><path clip-path="url(#clip160)" d="M1156.07 1532.73 L1156.23 1536.65 Q1160.12 1532.08 1166.71 1532.08 Q1174.12 1532.08 1176.79 1537.76 Q1178.56 1535.21 1181.36 1533.64 Q1184.2 1532.08 1188.05 1532.08 Q1199.67 1532.08 1199.87 1544.38 L1199.87 1568.04 L1193.83 1568.04 L1193.83 1544.74 Q1193.83 1540.95 1192.1 1539.09 Q1190.37 1537.2 1186.29 1537.2 Q1182.93 1537.2 1180.71 1539.23 Q1178.49 1541.22 1178.13 1544.61 L1178.13 1568.04 L1172.06 1568.04 L1172.06 1544.9 Q1172.06 1537.2 1164.52 1537.2 Q1158.58 1537.2 1156.4 1542.26 L1156.4 1568.04 L1150.36 1568.04 L1150.36 1532.73 L1156.07 1532.73 Z" fill="#000000" fill-rule="nonzero" fill-opacity="1" /><path clip-path="url(#clip160)" d="M1223.63 1568.7 Q1216.45 1568.7 1211.94 1564 Q1207.44 1559.26 1207.44 1551.37 L1207.44 1550.26 Q1207.44 1545 1209.43 1540.89 Q1211.45 1536.74 1215.04 1534.43 Q1218.67 1532.08 1222.88 1532.08 Q1229.76 1532.08 1233.58 1536.61 Q1237.4 1541.15 1237.4 1549.6 L1237.4 1552.12 L1213.48 1552.12 Q1213.61 1557.34 1216.51 1560.57 Q1219.45 1563.77 1223.95 1563.77 Q1227.15 1563.77 1229.37 1562.46 Q1231.59 1561.16 1233.26 1559 L1236.94 1561.88 Q1232.51 1568.7 1223.63 1568.7 M1222.88 1537.04 Q1219.22 1537.04 1216.74 1539.71 Q1214.26 1542.36 1213.67 1547.16 L1231.36 1547.16 L1231.36 1546.7 Q1231.1 1542.1 1228.88 1539.58 Q1226.66 1537.04 1222.88 1537.04 Z" fill="#000000" fill-rule="nonzero" fill-opacity="1" /><path clip-path="url(#clip160)" d="M1260.7 1548.76 Q1260.7 1541.38 1262.66 1534.59 Q1264.65 1527.8 1268.57 1522.25 Q1272.49 1516.71 1276.7 1514.42 L1277.94 1518.4 Q1273.17 1522.06 1270.1 1529.56 Q1267.07 1537.07 1266.77 1546.37 L1266.74 1549.15 Q1266.74 1561.74 1271.34 1571.01 Q1274.12 1576.56 1277.94 1579.7 L1276.7 1583.38 Q1272.36 1580.97 1268.41 1575.29 Q1260.7 1564.19 1260.7 1548.76 Z" fill="#000000" fill-rule="nonzero" fill-opacity="1" /><path clip-path="url(#clip160)" d="M1310.93 1547.06 L1290.99 1547.06 L1290.99 1568.04 L1284.73 1568.04 L1284.73 1520.52 L1314.16 1520.52 L1314.16 1525.68 L1290.99 1525.68 L1290.99 1541.93 L1310.93 1541.93 L1310.93 1547.06 Z" fill="#000000" fill-rule="nonzero" fill-opacity="1" /><path clip-path="url(#clip160)" d="M1337.79 1538.15 Q1336.42 1537.92 1334.82 1537.92 Q1328.88 1537.92 1326.76 1542.98 L1326.76 1568.04 L1320.72 1568.04 L1320.72 1532.73 L1326.6 1532.73 L1326.7 1536.81 Q1329.67 1532.08 1335.12 1532.08 Q1336.88 1532.08 1337.79 1532.53 L1337.79 1538.15 Z" fill="#000000" fill-rule="nonzero" fill-opacity="1" /><path clip-path="url(#clip160)" d="M1365.14 1568.04 Q1364.62 1567 1364.3 1564.32 Q1360.09 1568.7 1354.24 1568.7 Q1349.02 1568.7 1345.66 1565.76 Q1342.33 1562.79 1342.33 1558.25 Q1342.33 1552.74 1346.51 1549.7 Q1350.72 1546.63 1358.32 1546.63 L1364.2 1546.63 L1364.2 1543.86 Q1364.2 1540.69 1362.3 1538.83 Q1360.41 1536.94 1356.72 1536.94 Q1353.49 1536.94 1351.31 1538.57 Q1349.12 1540.2 1349.12 1542.52 L1343.05 1542.52 Q1343.05 1539.88 1344.91 1537.43 Q1346.8 1534.95 1350 1533.51 Q1353.23 1532.08 1357.08 1532.08 Q1363.19 1532.08 1366.65 1535.15 Q1370.1 1538.18 1370.24 1543.53 L1370.24 1559.79 Q1370.24 1564.65 1371.48 1567.52 L1371.48 1568.04 L1365.14 1568.04 M1355.12 1563.44 Q1357.96 1563.44 1360.51 1561.97 Q1363.06 1560.5 1364.2 1558.15 L1364.2 1550.91 L1359.47 1550.91 Q1348.37 1550.91 1348.37 1557.4 Q1348.37 1560.24 1350.26 1561.84 Q1352.15 1563.44 1355.12 1563.44 Z" fill="#000000" fill-rule="nonzero" fill-opacity="1" /><path clip-path="url(#clip160)" d="M1385.38 1532.73 L1385.54 1536.65 Q1389.43 1532.08 1396.02 1532.08 Q1403.43 1532.08 1406.1 1537.76 Q1407.87 1535.21 1410.67 1533.64 Q1413.51 1532.08 1417.36 1532.08 Q1428.98 1532.08 1429.18 1544.38 L1429.18 1568.04 L1423.14 1568.04 L1423.14 1544.74 Q1423.14 1540.95 1421.41 1539.09 Q1419.68 1537.2 1415.6 1537.2 Q1412.24 1537.2 1410.02 1539.23 Q1407.8 1541.22 1407.44 1544.61 L1407.44 1568.04 L1401.37 1568.04 L1401.37 1544.9 Q1401.37 1537.2 1393.83 1537.2 Q1387.89 1537.2 1385.71 1542.26 L1385.71 1568.04 L1379.67 1568.04 L1379.67 1532.73 L1385.38 1532.73 Z" fill="#000000" fill-rule="nonzero" fill-opacity="1" /><path clip-path="url(#clip160)" d="M1452.94 1568.7 Q1445.76 1568.7 1441.25 1564 Q1436.75 1559.26 1436.75 1551.37 L1436.75 1550.26 Q1436.75 1545 1438.74 1540.89 Q1440.76 1536.74 1444.35 1534.43 Q1447.98 1532.08 1452.19 1532.08 Q1459.07 1532.08 1462.89 1536.61 Q1466.71 1541.15 1466.71 1549.6 L1466.71 1552.12 L1442.79 1552.12 Q1442.92 1557.34 1445.82 1560.57 Q1448.76 1563.77 1453.26 1563.77 Q1456.46 1563.77 1458.68 1562.46 Q1460.9 1561.16 1462.57 1559 L1466.25 1561.88 Q1461.82 1568.7 1452.94 1568.7 M1452.19 1537.04 Q1448.53 1537.04 1446.05 1539.71 Q1443.57 1542.36 1442.98 1547.16 L1460.67 1547.16 L1460.67 1546.7 Q1460.41 1542.1 1458.19 1539.58 Q1455.97 1537.04 1452.19 1537.04 Z" fill="#000000" fill-rule="nonzero" fill-opacity="1" /><path clip-path="url(#clip160)" d="M1487.63 1549.08 Q1487.63 1556.36 1485.71 1563.05 Q1483.81 1569.71 1479.86 1575.35 Q1475.95 1581 1471.64 1583.38 L1470.37 1579.7 Q1475.39 1575.84 1478.43 1567.75 Q1481.5 1559.62 1481.56 1549.73 L1481.56 1548.69 Q1481.56 1541.84 1480.13 1535.96 Q1478.69 1530.05 1476.11 1525.39 Q1473.57 1520.72 1470.37 1518.11 L1471.64 1514.42 Q1475.95 1516.8 1479.83 1522.38 Q1483.75 1527.97 1485.67 1534.69 Q1487.63 1541.41 1487.63 1549.08 Z" fill="#000000" fill-rule="nonzero" fill-opacity="1" /><polyline clip-path="url(#clip160)" style="stroke:#000000; stroke-linecap:round; stroke-linejoin:round; stroke-width:4; stroke-opacity:1; fill:none" points="226.192,1423.18 226.192,123.472 "/>
<polyline clip-path="url(#clip160)" style="stroke:#000000; stroke-linecap:round; stroke-linejoin:round; stroke-width:4; stroke-opacity:1; fill:none" points="226.192,1196.81 245.09,1196.81 "/>
<polyline clip-path="url(#clip160)" style="stroke:#000000; stroke-linecap:round; stroke-linejoin:round; stroke-width:4; stroke-opacity:1; fill:none" points="226.192,969.366 245.09,969.366 "/>
<polyline clip-path="url(#clip160)" style="stroke:#000000; stroke-linecap:round; stroke-linejoin:round; stroke-width:4; stroke-opacity:1; fill:none" points="226.192,741.918 245.09,741.918 "/>
<polyline clip-path="url(#clip160)" style="stroke:#000000; stroke-linecap:round; stroke-linejoin:round; stroke-width:4; stroke-opacity:1; fill:none" points="226.192,514.47 245.09,514.47 "/>
<polyline clip-path="url(#clip160)" style="stroke:#000000; stroke-linecap:round; stroke-linejoin:round; stroke-width:4; stroke-opacity:1; fill:none" points="226.192,287.023 245.09,287.023 "/>
<path clip-path="url(#clip160)" d="M163.038 1214.09 L140.394 1214.09 L140.394 1210.94 L152.357 1197.64 Q155.015 1194.63 156.012 1192.75 Q157.033 1190.86 157.033 1188.84 Q157.033 1186.13 155.395 1184.4 Q153.757 1182.67 151.028 1182.67 Q147.752 1182.67 145.924 1184.54 Q144.12 1186.39 144.12 1189.72 L139.729 1189.72 Q139.729 1184.95 142.791 1182 Q145.877 1179.06 151.028 1179.06 Q155.846 1179.06 158.647 1181.6 Q161.448 1184.11 161.448 1188.32 Q161.448 1193.42 154.944 1200.47 L145.687 1210.51 L163.038 1210.51 L163.038 1214.09 Z" fill="#000000" fill-rule="nonzero" fill-opacity="1" /><path clip-path="url(#clip160)" d="M169.708 1196.77 L171.465 1179.53 L189.172 1179.53 L189.172 1183.59 L175.191 1183.59 L174.147 1193.02 Q176.687 1191.52 179.915 1191.52 Q184.638 1191.52 187.415 1194.65 Q190.192 1197.76 190.192 1203.08 Q190.192 1208.42 187.297 1211.51 Q184.425 1214.57 179.25 1214.57 Q174.669 1214.57 171.773 1212.03 Q168.877 1209.49 168.474 1205 L172.628 1205 Q173.031 1207.97 174.74 1209.49 Q176.449 1210.98 179.25 1210.98 Q182.312 1210.98 184.045 1208.9 Q185.801 1206.81 185.801 1203.13 Q185.801 1199.66 183.902 1197.57 Q182.027 1195.46 178.894 1195.46 Q176.022 1195.46 174.384 1196.72 L173.221 1197.67 L169.708 1196.77 Z" fill="#000000" fill-rule="nonzero" fill-opacity="1" /><path clip-path="url(#clip160)" d="M143.242 969.318 L144.999 952.086 L162.706 952.086 L162.706 956.144 L148.725 956.144 L147.681 965.568 Q150.221 964.072 153.449 964.072 Q158.172 964.072 160.949 967.206 Q163.727 970.315 163.727 975.632 Q163.727 980.973 160.831 984.058 Q157.959 987.12 152.784 987.12 Q148.203 987.12 145.307 984.581 Q142.411 982.041 142.008 977.555 L146.162 977.555 Q146.565 980.522 148.274 982.041 Q149.983 983.536 152.784 983.536 Q155.846 983.536 157.579 981.447 Q159.335 979.359 159.335 975.679 Q159.335 972.214 157.436 970.125 Q155.561 968.013 152.428 968.013 Q149.556 968.013 147.918 969.271 L146.755 970.22 L143.242 969.318 Z" fill="#000000" fill-rule="nonzero" fill-opacity="1" /><path clip-path="url(#clip160)" d="M190.192 971.905 Q190.192 979.62 187.558 983.37 Q184.923 987.12 179.321 987.12 Q173.791 987.12 171.132 983.465 Q168.474 979.786 168.379 972.499 L168.379 966.636 Q168.379 959.017 171.014 955.314 Q173.648 951.611 179.274 951.611 Q184.852 951.611 187.487 955.195 Q190.121 958.755 190.192 966.209 L190.192 971.905 M185.801 965.9 Q185.801 960.322 184.235 957.782 Q182.668 955.219 179.274 955.219 Q175.903 955.219 174.36 957.759 Q172.818 960.298 172.77 965.568 L172.77 972.594 Q172.77 978.195 174.384 980.878 Q176.022 983.536 179.321 983.536 Q182.573 983.536 184.14 981.02 Q185.73 978.504 185.801 973.092 L185.801 965.9 Z" fill="#000000" fill-rule="nonzero" fill-opacity="1" /><path clip-path="url(#clip160)" d="M162.706 727.107 L148.393 759.198 L143.788 759.198 L158.054 728.246 L139.349 728.246 L139.349 724.638 L162.706 724.638 L162.706 727.107 Z" fill="#000000" fill-rule="nonzero" fill-opacity="1" /><path clip-path="url(#clip160)" d="M169.708 741.87 L171.465 724.638 L189.172 724.638 L189.172 728.697 L175.191 728.697 L174.147 738.12 Q176.687 736.625 179.915 736.625 Q184.638 736.625 187.415 739.758 Q190.192 742.867 190.192 748.184 Q190.192 753.525 187.297 756.611 Q184.425 759.673 179.25 759.673 Q174.669 759.673 171.773 757.133 Q168.877 754.593 168.474 750.107 L172.628 750.107 Q173.031 753.074 174.74 754.593 Q176.449 756.089 179.25 756.089 Q182.312 756.089 184.045 754 Q185.801 751.911 185.801 748.232 Q185.801 744.766 183.902 742.678 Q182.027 740.565 178.894 740.565 Q176.022 740.565 174.384 741.823 L173.221 742.772 L169.708 741.87 Z" fill="#000000" fill-rule="nonzero" fill-opacity="1" /><path clip-path="url(#clip160)" d="M128.359 531.75 L123.945 531.75 L123.945 502.483 L115.091 505.735 L115.091 501.748 L127.671 497.024 L128.359 497.024 L128.359 531.75 Z" fill="#000000" fill-rule="nonzero" fill-opacity="1" /><path clip-path="url(#clip160)" d="M162.896 517.01 Q162.896 524.724 160.261 528.475 Q157.626 532.225 152.025 532.225 Q146.494 532.225 143.836 528.57 Q141.177 524.891 141.082 517.603 L141.082 511.741 Q141.082 504.121 143.717 500.418 Q146.352 496.716 151.977 496.716 Q157.555 496.716 160.19 500.3 Q162.825 503.86 162.896 511.313 L162.896 517.01 M158.505 511.005 Q158.505 505.427 156.938 502.887 Q155.371 500.323 151.977 500.323 Q148.607 500.323 147.064 502.863 Q145.521 505.403 145.473 510.673 L145.473 517.698 Q145.473 523.3 147.087 525.982 Q148.725 528.641 152.025 528.641 Q155.276 528.641 156.843 526.125 Q158.433 523.609 158.505 518.197 L158.505 511.005 Z" fill="#000000" fill-rule="nonzero" fill-opacity="1" /><path clip-path="url(#clip160)" d="M190.192 517.01 Q190.192 524.724 187.558 528.475 Q184.923 532.225 179.321 532.225 Q173.791 532.225 171.132 528.57 Q168.474 524.891 168.379 517.603 L168.379 511.741 Q168.379 504.121 171.014 500.418 Q173.648 496.716 179.274 496.716 Q184.852 496.716 187.487 500.3 Q190.121 503.86 190.192 511.313 L190.192 517.01 M185.801 511.005 Q185.801 505.427 184.235 502.887 Q182.668 500.323 179.274 500.323 Q175.903 500.323 174.36 502.863 Q172.818 505.403 172.77 510.673 L172.77 517.698 Q172.77 523.3 174.384 525.982 Q176.022 528.641 179.321 528.641 Q182.573 528.641 184.14 526.125 Q185.73 523.609 185.801 518.197 L185.801 511.005 Z" fill="#000000" fill-rule="nonzero" fill-opacity="1" /><path clip-path="url(#clip160)" d="M127.529 304.303 L123.114 304.303 L123.114 275.036 L114.26 278.288 L114.26 274.3 L126.84 269.577 L127.529 269.577 L127.529 304.303 Z" fill="#000000" fill-rule="nonzero" fill-opacity="1" /><path clip-path="url(#clip160)" d="M163.038 304.303 L140.394 304.303 L140.394 301.146 L152.357 287.853 Q155.015 284.839 156.012 282.964 Q157.033 281.065 157.033 279.047 Q157.033 276.341 155.395 274.609 Q153.757 272.876 151.028 272.876 Q147.752 272.876 145.924 274.751 Q144.12 276.602 144.12 279.926 L139.729 279.926 Q139.729 275.155 142.791 272.211 Q145.877 269.268 151.028 269.268 Q155.846 269.268 158.647 271.808 Q161.448 274.324 161.448 278.525 Q161.448 283.628 154.944 290.678 L145.687 300.718 L163.038 300.718 L163.038 304.303 Z" fill="#000000" fill-rule="nonzero" fill-opacity="1" /><path clip-path="url(#clip160)" d="M169.708 286.975 L171.465 269.743 L189.172 269.743 L189.172 273.802 L175.191 273.802 L174.147 283.225 Q176.687 281.729 179.915 281.729 Q184.638 281.729 187.415 284.863 Q190.192 287.972 190.192 293.289 Q190.192 298.63 187.297 301.715 Q184.425 304.777 179.25 304.777 Q174.669 304.777 171.773 302.238 Q168.877 299.698 168.474 295.212 L172.628 295.212 Q173.031 298.179 174.74 299.698 Q176.449 301.193 179.25 301.193 Q182.312 301.193 184.045 299.104 Q185.801 297.016 185.801 293.337 Q185.801 289.871 183.902 287.782 Q182.027 285.67 178.894 285.67 Q176.022 285.67 174.384 286.928 L173.221 287.877 L169.708 286.975 Z" fill="#000000" fill-rule="nonzero" fill-opacity="1" /><path clip-path="url(#clip160)" d="M16.4842 1068.09 L16.4842 1061.79 L50.1333 1061.79 Q56.9545 1061.79 60.8057 1065.9 Q64.6569 1069.98 64.6569 1076.8 Q64.6569 1083.89 61.0342 1087.84 Q57.4114 1091.79 50.8839 1091.79 L50.8839 1085.52 Q54.9636 1085.52 57.2482 1083.3 Q59.5328 1081.05 59.5328 1076.8 Q59.5328 1072.92 57.085 1070.54 Q54.6372 1068.12 50.2312 1068.09 L16.4842 1068.09 Z" fill="#000000" fill-rule="nonzero" fill-opacity="1" /><path clip-path="url(#clip160)" d="M46.021 1053.66 Q40.8316 1053.66 36.6867 1051.64 Q32.5417 1049.58 30.2898 1045.96 Q28.0378 1042.31 28.0378 1037.64 Q28.0378 1030.43 33.0313 1025.99 Q38.0248 1021.52 46.3147 1021.52 L46.739 1021.52 Q51.8957 1021.52 56.008 1023.51 Q60.0877 1025.47 62.3723 1029.15 Q64.6569 1032.81 64.6569 1037.57 Q64.6569 1044.75 59.6634 1049.23 Q54.6699 1053.66 46.4453 1053.66 L46.021 1053.66 M46.739 1047.59 Q52.6137 1047.59 56.1712 1044.89 Q59.7287 1042.14 59.7287 1037.57 Q59.7287 1032.97 56.1386 1030.26 Q52.5158 1027.55 46.021 1027.55 Q40.2115 1027.55 36.6214 1030.33 Q32.9987 1033.07 32.9987 1037.64 Q32.9987 1042.11 36.5561 1044.85 Q40.1136 1047.59 46.739 1047.59 Z" fill="#000000" fill-rule="nonzero" fill-opacity="1" /><path clip-path="url(#clip160)" d="M64.0042 1007.38 L64.0042 1013.42 L28.6905 1013.42 L28.6905 1007.38 L64.0042 1007.38 M19.3236 1013.91 Q17.8549 1013.91 16.8432 1013.03 Q15.8314 1012.12 15.8314 1010.35 Q15.8314 1008.59 16.8432 1007.68 Q17.8549 1006.76 19.3236 1006.76 Q20.7923 1006.76 21.7714 1007.68 Q22.7505 1008.59 22.7505 1010.35 Q22.7505 1012.12 21.7714 1013.03 Q20.7923 1013.91 19.3236 1013.91 Z" fill="#000000" fill-rule="nonzero" fill-opacity="1" /><path clip-path="url(#clip160)" d="M28.6905 992.013 L33.1292 991.817 Q28.0378 987.77 28.0378 981.242 Q28.0378 970.048 40.6684 969.95 L64.0042 969.95 L64.0042 975.988 L40.6358 975.988 Q36.8172 976.02 34.9895 977.75 Q33.1618 979.447 33.1618 983.07 Q33.1618 986.007 34.7284 988.227 Q36.295 990.446 38.8408 991.686 L64.0042 991.686 L64.0042 997.724 L28.6905 997.724 L28.6905 992.013 Z" fill="#000000" fill-rule="nonzero" fill-opacity="1" /><path clip-path="url(#clip160)" d="M20.1395 952.652 L28.6905 952.652 L28.6905 946.059 L33.3577 946.059 L33.3577 952.652 L55.2573 952.652 Q57.3788 952.652 58.4558 951.771 Q59.5002 950.89 59.5002 948.768 Q59.5002 947.724 59.1086 945.896 L64.0042 945.896 Q64.6569 948.279 64.6569 950.531 Q64.6569 954.578 62.2091 956.634 Q59.7613 958.69 55.2573 958.69 L33.3577 958.69 L33.3577 965.119 L28.6905 965.119 L28.6905 958.69 L20.1395 958.69 L20.1395 952.652 Z" fill="#000000" fill-rule="nonzero" fill-opacity="1" /><path clip-path="url(#clip160)" d="M51.602 895.275 L51.602 915.184 L64.0042 919.656 L64.0042 926.118 L16.4842 907.971 L16.4842 902.488 L64.0042 884.309 L64.0042 890.739 L51.602 895.275 M46.4453 913.291 L46.4453 897.136 L24.2192 905.23 L46.4453 913.291 Z" fill="#000000" fill-rule="nonzero" fill-opacity="1" /><path clip-path="url(#clip160)" d="M28.6905 873.147 L33.1292 872.952 Q28.0378 868.905 28.0378 862.377 Q28.0378 851.182 40.6684 851.085 L64.0042 851.085 L64.0042 857.122 L40.6358 857.122 Q36.8172 857.155 34.9895 858.885 Q33.1618 860.582 33.1618 864.205 Q33.1618 867.142 34.7284 869.361 Q36.295 871.581 38.8408 872.821 L64.0042 872.821 L64.0042 878.859 L28.6905 878.859 L28.6905 873.147 Z" fill="#000000" fill-rule="nonzero" fill-opacity="1" /><path clip-path="url(#clip160)" d="M46.0536 843.415 Q37.7964 843.415 32.9334 839.596 Q28.0378 835.778 28.0378 829.479 Q28.0378 823.016 32.607 819.394 L28.6905 819.1 L28.6905 813.584 L63.1556 813.584 Q70.0094 813.584 73.9586 817.664 Q77.9077 821.711 77.9077 828.565 Q77.9077 832.383 76.2758 836.039 Q74.6439 839.694 71.8045 841.62 L68.1817 838.486 Q72.9794 834.603 72.9794 828.989 Q72.9794 824.583 70.499 822.135 Q68.0186 819.655 63.5146 819.655 L60.4793 819.655 Q64.6569 823.277 64.6569 829.544 Q64.6569 835.745 59.6634 839.596 Q54.6699 843.415 46.0536 843.415 M46.739 837.344 Q52.7116 837.344 56.1386 834.896 Q59.5328 832.449 59.5328 828.043 Q59.5328 822.331 54.3435 819.655 L38.2206 819.655 Q33.1618 822.429 33.1618 827.977 Q33.1618 832.383 36.5888 834.864 Q40.0157 837.344 46.739 837.344 Z" fill="#000000" fill-rule="nonzero" fill-opacity="1" /><path clip-path="url(#clip160)" d="M64.0042 797.918 L64.0042 803.956 L13.8732 803.956 L13.8732 797.918 L64.0042 797.918 Z" fill="#000000" fill-rule="nonzero" fill-opacity="1" /><path clip-path="url(#clip160)" d="M64.6569 773.603 Q64.6569 780.784 59.9571 785.288 Q55.2247 789.792 47.3265 789.792 L46.2168 789.792 Q40.9622 789.792 36.8499 787.801 Q32.7049 785.777 30.3877 782.187 Q28.0378 778.564 28.0378 774.354 Q28.0378 767.468 32.5744 763.649 Q37.111 759.83 45.564 759.83 L48.0771 759.83 L48.0771 783.754 Q53.2991 783.623 56.5302 780.718 Q59.7287 777.781 59.7287 773.277 Q59.7287 770.079 58.4232 767.859 Q57.1177 765.64 54.9636 763.975 L57.8357 760.287 Q64.6569 764.726 64.6569 773.603 M32.9987 774.354 Q32.9987 778.009 35.6749 780.49 Q38.3186 782.97 43.1162 783.558 L43.1162 765.868 L42.6593 765.868 Q38.0575 766.129 35.5444 768.349 Q32.9987 770.568 32.9987 774.354 Z" fill="#000000" fill-rule="nonzero" fill-opacity="1" /><path clip-path="url(#clip160)" d="M44.7155 736.527 Q37.3394 736.527 30.5509 734.569 Q23.7623 732.578 18.2139 728.662 Q12.6656 724.745 10.381 720.535 L14.3627 719.295 Q18.0181 724.06 25.5247 727.128 Q33.0313 730.163 42.3329 730.457 L45.1071 730.489 Q57.7051 730.489 66.9742 725.888 Q72.5225 723.113 75.6557 719.295 L79.3437 720.535 Q76.9286 724.876 71.2497 728.825 Q60.1529 736.527 44.7155 736.527 Z" fill="#000000" fill-rule="nonzero" fill-opacity="1" /><path clip-path="url(#clip160)" d="M64.0042 712.506 L16.4842 712.506 L16.4842 699.092 Q16.4842 692.891 19.2257 688.126 Q21.9672 683.361 27.026 680.783 Q32.0848 678.172 38.6449 678.139 L41.6802 678.139 Q48.4035 678.139 53.4623 680.75 Q58.5211 683.328 61.23 688.159 Q63.9389 692.956 64.0042 699.353 L64.0042 712.506 M21.6409 706.24 L58.8801 706.24 L58.8801 699.647 Q58.8801 692.402 54.3761 688.387 Q49.8722 684.34 41.5497 684.34 L38.7755 684.34 Q30.6814 684.34 26.2101 688.159 Q21.7061 691.945 21.6409 698.929 L21.6409 706.24 Z" fill="#000000" fill-rule="nonzero" fill-opacity="1" /><path clip-path="url(#clip160)" d="M64.6569 654.967 Q64.6569 662.147 59.9571 666.651 Q55.2247 671.155 47.3265 671.155 L46.2168 671.155 Q40.9622 671.155 36.8499 669.164 Q32.7049 667.14 30.3877 663.55 Q28.0378 659.927 28.0378 655.717 Q28.0378 648.831 32.5744 645.012 Q37.111 641.194 45.564 641.194 L48.0771 641.194 L48.0771 665.117 Q53.2991 664.986 56.5302 662.082 Q59.7287 659.144 59.7287 654.64 Q59.7287 651.442 58.4232 649.222 Q57.1177 647.003 54.9636 645.339 L57.8357 641.651 Q64.6569 646.089 64.6569 654.967 M32.9987 655.717 Q32.9987 659.373 35.6749 661.853 Q38.3186 664.334 43.1162 664.921 L43.1162 647.232 L42.6593 647.232 Q38.0575 647.493 35.5444 649.712 Q32.9987 651.931 32.9987 655.717 Z" fill="#000000" fill-rule="nonzero" fill-opacity="1" /><path clip-path="url(#clip160)" d="M46.0536 635.645 Q37.7964 635.645 32.9334 631.827 Q28.0378 628.008 28.0378 621.709 Q28.0378 615.247 32.607 611.624 L28.6905 611.33 L28.6905 605.815 L63.1556 605.815 Q70.0094 605.815 73.9586 609.894 Q77.9077 613.941 77.9077 620.795 Q77.9077 624.614 76.2758 628.269 Q74.6439 631.925 71.8045 633.85 L68.1817 630.717 Q72.9794 626.833 72.9794 621.22 Q72.9794 616.814 70.499 614.366 Q68.0186 611.885 63.5146 611.885 L60.4793 611.885 Q64.6569 615.508 64.6569 621.774 Q64.6569 627.975 59.6634 631.827 Q54.6699 635.645 46.0536 635.645 M46.739 629.575 Q52.7116 629.575 56.1386 627.127 Q59.5328 624.679 59.5328 620.273 Q59.5328 614.562 54.3435 611.885 L38.2206 611.885 Q33.1618 614.659 33.1618 620.208 Q33.1618 624.614 36.5888 627.094 Q40.0157 629.575 46.739 629.575 Z" fill="#000000" fill-rule="nonzero" fill-opacity="1" /><path clip-path="url(#clip160)" d="M34.1083 579.64 Q33.8799 581.01 33.8799 582.61 Q33.8799 588.55 38.9387 590.671 L64.0042 590.671 L64.0042 596.709 L28.6905 596.709 L28.6905 590.834 L32.7702 590.736 Q28.0378 587.766 28.0378 582.316 Q28.0378 580.553 28.4947 579.64 L34.1083 579.64 Z" fill="#000000" fill-rule="nonzero" fill-opacity="1" /><path clip-path="url(#clip160)" d="M64.6569 559.437 Q64.6569 566.617 59.9571 571.121 Q55.2247 575.625 47.3265 575.625 L46.2168 575.625 Q40.9622 575.625 36.8499 573.634 Q32.7049 571.611 30.3877 568.021 Q28.0378 564.398 28.0378 560.188 Q28.0378 553.301 32.5744 549.483 Q37.111 545.664 45.564 545.664 L48.0771 545.664 L48.0771 569.587 Q53.2991 569.457 56.5302 566.552 Q59.7287 563.615 59.7287 559.111 Q59.7287 555.912 58.4232 553.693 Q57.1177 551.474 54.9636 549.809 L57.8357 546.121 Q64.6569 550.56 64.6569 559.437 M32.9987 560.188 Q32.9987 563.843 35.6749 566.324 Q38.3186 568.804 43.1162 569.391 L43.1162 551.702 L42.6593 551.702 Q38.0575 551.963 35.5444 554.182 Q32.9987 556.402 32.9987 560.188 Z" fill="#000000" fill-rule="nonzero" fill-opacity="1" /><path clip-path="url(#clip160)" d="M64.6569 524.025 Q64.6569 531.206 59.9571 535.71 Q55.2247 540.214 47.3265 540.214 L46.2168 540.214 Q40.9622 540.214 36.8499 538.223 Q32.7049 536.199 30.3877 532.609 Q28.0378 528.986 28.0378 524.776 Q28.0378 517.89 32.5744 514.071 Q37.111 510.253 45.564 510.253 L48.0771 510.253 L48.0771 534.176 Q53.2991 534.045 56.5302 531.14 Q59.7287 528.203 59.7287 523.699 Q59.7287 520.501 58.4232 518.281 Q57.1177 516.062 54.9636 514.397 L57.8357 510.709 Q64.6569 515.148 64.6569 524.025 M32.9987 524.776 Q32.9987 528.432 35.6749 530.912 Q38.3186 533.392 43.1162 533.98 L43.1162 516.29 L42.6593 516.29 Q38.0575 516.552 35.5444 518.771 Q32.9987 520.99 32.9987 524.776 Z" fill="#000000" fill-rule="nonzero" fill-opacity="1" /><path clip-path="url(#clip160)" d="M54.6372 482.707 Q52.1894 482.707 50.8513 484.567 Q49.4805 486.395 48.5014 490.996 Q47.5223 495.566 46.1515 498.275 Q44.7808 500.951 42.8878 502.256 Q40.9948 503.529 38.3838 503.529 Q34.0431 503.529 31.0404 499.874 Q28.0378 496.186 28.0378 490.474 Q28.0378 484.469 31.1383 480.748 Q34.2389 476.995 39.0692 476.995 L39.0692 483.066 Q36.5888 483.066 34.7937 485.187 Q32.9987 487.276 32.9987 490.474 Q32.9987 493.771 34.4347 495.631 Q35.8708 497.491 38.188 497.491 Q40.3747 497.491 41.4844 495.762 Q42.594 494.032 43.6058 489.528 Q44.6176 484.991 46.021 482.184 Q47.4244 479.378 49.4153 478.039 Q51.3735 476.669 54.2129 476.669 Q58.9454 476.669 61.8175 480.455 Q64.6569 484.241 64.6569 490.278 Q64.6569 494.521 63.1556 497.785 Q61.6543 501.049 58.978 502.909 Q56.2691 504.737 53.1359 504.737 L53.1359 498.699 Q56.1712 498.536 57.9662 496.284 Q59.7287 493.999 59.7287 490.278 Q59.7287 486.852 58.3579 484.795 Q56.9545 482.707 54.6372 482.707 Z" fill="#000000" fill-rule="nonzero" fill-opacity="1" /><path clip-path="url(#clip160)" d="M45.0418 454.867 Q52.32 454.867 59.0106 456.793 Q65.6687 458.685 71.3149 462.635 Q76.9612 466.551 79.3437 470.859 L75.6557 472.132 Q71.8045 467.106 63.7104 464.071 Q55.5837 461.003 45.6946 460.937 L44.6502 460.937 Q37.7964 460.937 31.9216 462.374 Q26.0143 463.81 21.3471 466.388 Q16.68 468.934 14.069 472.132 L10.381 470.859 Q12.7635 466.551 18.3445 462.667 Q23.9255 458.751 30.6488 456.825 Q37.3721 454.867 45.0418 454.867 Z" fill="#000000" fill-rule="nonzero" fill-opacity="1" /><path clip-path="url(#clip160)" d="M883.103 12.096 L891.12 12.096 L891.12 54.9222 Q891.12 63.6037 885.886 68.5052 Q880.694 73.4068 872.013 73.4068 Q862.999 73.4068 857.973 68.796 Q852.946 64.1852 852.946 55.8775 L860.922 55.8775 Q860.922 61.0698 863.746 63.9775 Q866.613 66.8852 872.013 66.8852 Q876.956 66.8852 879.988 63.7698 Q883.062 60.6545 883.103 55.0468 L883.103 12.096 Z" fill="#000000" fill-rule="nonzero" fill-opacity="1" /><path clip-path="url(#clip160)" d="M901.463 49.6883 Q901.463 43.0837 904.039 37.8083 Q906.656 32.5329 911.266 29.6668 Q915.919 26.8006 921.859 26.8006 Q931.039 26.8006 936.688 33.156 Q942.379 39.5114 942.379 50.0622 L942.379 50.6022 Q942.379 57.1652 939.845 62.3991 Q937.353 67.5914 932.659 70.4991 Q928.006 73.4068 921.942 73.4068 Q912.803 73.4068 907.113 67.0514 Q901.463 60.696 901.463 50.2283 L901.463 49.6883 M909.19 50.6022 Q909.19 58.0791 912.637 62.6068 Q916.126 67.1345 921.942 67.1345 Q927.799 67.1345 931.246 62.5652 Q934.694 57.9545 934.694 49.6883 Q934.694 42.2945 931.163 37.7252 Q927.674 33.1145 921.859 33.1145 Q916.168 33.1145 912.679 37.6422 Q909.19 42.1698 909.19 50.6022 Z" fill="#000000" fill-rule="nonzero" fill-opacity="1" /><path clip-path="url(#clip160)" d="M960.365 72.576 L952.68 72.576 L952.68 27.6314 L960.365 27.6314 L960.365 72.576 M952.057 15.7098 Q952.057 13.8406 953.179 12.5529 Q954.342 11.2652 956.585 11.2652 Q958.828 11.2652 959.991 12.5529 Q961.154 13.8406 961.154 15.7098 Q961.154 17.5791 959.991 18.8252 Q958.828 20.0714 956.585 20.0714 Q954.342 20.0714 953.179 18.8252 Q952.057 17.5791 952.057 15.7098 Z" fill="#000000" fill-rule="nonzero" fill-opacity="1" /><path clip-path="url(#clip160)" d="M979.93 27.6314 L980.179 33.2806 Q985.33 26.8006 993.637 26.8006 Q1007.88 26.8006 1008.01 42.876 L1008.01 72.576 L1000.32 72.576 L1000.32 42.8345 Q1000.28 37.9745 998.082 35.6483 Q995.922 33.3222 991.311 33.3222 Q987.573 33.3222 984.748 35.316 Q981.923 37.3098 980.345 40.5498 L980.345 72.576 L972.66 72.576 L972.66 27.6314 L979.93 27.6314 Z" fill="#000000" fill-rule="nonzero" fill-opacity="1" /><path clip-path="url(#clip160)" d="M1030.02 16.7483 L1030.02 27.6314 L1038.42 27.6314 L1038.42 33.5714 L1030.02 33.5714 L1030.02 61.4437 Q1030.02 64.1437 1031.15 65.5145 Q1032.27 66.8437 1034.97 66.8437 Q1036.3 66.8437 1038.62 66.3452 L1038.62 72.576 Q1035.59 73.4068 1032.72 73.4068 Q1027.57 73.4068 1024.96 70.2914 Q1022.34 67.176 1022.34 61.4437 L1022.34 33.5714 L1014.16 33.5714 L1014.16 27.6314 L1022.34 27.6314 L1022.34 16.7483 L1030.02 16.7483 Z" fill="#000000" fill-rule="nonzero" fill-opacity="1" /><path clip-path="url(#clip160)" d="M1103.05 56.7914 L1077.71 56.7914 L1072.02 72.576 L1063.8 72.576 L1086.89 12.096 L1093.87 12.096 L1117.01 72.576 L1108.82 72.576 L1103.05 56.7914 M1080.12 50.2283 L1100.68 50.2283 L1090.38 21.9406 L1080.12 50.2283 Z" fill="#000000" fill-rule="nonzero" fill-opacity="1" /><path clip-path="url(#clip160)" d="M1131.21 27.6314 L1131.46 33.2806 Q1136.61 26.8006 1144.92 26.8006 Q1159.17 26.8006 1159.29 42.876 L1159.29 72.576 L1151.61 72.576 L1151.61 42.8345 Q1151.57 37.9745 1149.36 35.6483 Q1147.2 33.3222 1142.59 33.3222 Q1138.86 33.3222 1136.03 35.316 Q1133.21 37.3098 1131.63 40.5498 L1131.63 72.576 L1123.94 72.576 L1123.94 27.6314 L1131.21 27.6314 Z" fill="#000000" fill-rule="nonzero" fill-opacity="1" /><path clip-path="url(#clip160)" d="M1169.05 49.7298 Q1169.05 39.2206 1173.91 33.0314 Q1178.77 26.8006 1186.79 26.8006 Q1195.02 26.8006 1199.63 32.616 L1200 27.6314 L1207.02 27.6314 L1207.02 71.496 Q1207.02 80.2191 1201.83 85.2452 Q1196.68 90.2714 1187.95 90.2714 Q1183.09 90.2714 1178.44 88.1945 Q1173.79 86.1175 1171.34 82.5037 L1175.33 77.8929 Q1180.27 83.9991 1187.41 83.9991 Q1193.02 83.9991 1196.14 80.8422 Q1199.29 77.6852 1199.29 71.9529 L1199.29 68.0898 Q1194.68 73.4068 1186.71 73.4068 Q1178.82 73.4068 1173.91 67.0514 Q1169.05 60.696 1169.05 49.7298 M1176.78 50.6022 Q1176.78 58.2037 1179.9 62.5652 Q1183.01 66.8852 1188.62 66.8852 Q1195.89 66.8852 1199.29 60.2806 L1199.29 39.7606 Q1195.76 33.3222 1188.7 33.3222 Q1183.09 33.3222 1179.94 37.6837 Q1176.78 42.0452 1176.78 50.6022 Z" fill="#000000" fill-rule="nonzero" fill-opacity="1" /><path clip-path="url(#clip160)" d="M1226.96 72.576 L1219.27 72.576 L1219.27 8.77292 L1226.96 8.77292 L1226.96 72.576 Z" fill="#000000" fill-rule="nonzero" fill-opacity="1" /><path clip-path="url(#clip160)" d="M1257.9 73.4068 Q1248.77 73.4068 1243.03 67.4252 Q1237.3 61.4022 1237.3 51.3498 L1237.3 49.9375 Q1237.3 43.2498 1239.84 38.016 Q1242.41 32.7406 1246.98 29.7914 Q1251.59 26.8006 1256.95 26.8006 Q1265.71 26.8006 1270.57 32.5745 Q1275.43 38.3483 1275.43 49.1068 L1275.43 52.3052 L1244.99 52.3052 Q1245.15 58.9514 1248.85 63.0637 Q1252.59 67.1345 1258.32 67.1345 Q1262.39 67.1345 1265.22 65.4729 Q1268.04 63.8114 1270.16 61.0698 L1274.85 64.7252 Q1269.2 73.4068 1257.9 73.4068 M1256.95 33.1145 Q1252.3 33.1145 1249.14 36.5206 Q1245.98 39.8852 1245.24 45.9914 L1267.75 45.9914 L1267.75 45.4098 Q1267.42 39.5529 1264.59 36.3545 Q1261.77 33.1145 1256.95 33.1145 Z" fill="#000000" fill-rule="nonzero" fill-opacity="1" /><path clip-path="url(#clip160)" d="M1310.49 60.6545 Q1310.49 57.5391 1308.12 55.836 Q1305.8 54.0914 1299.94 52.8452 Q1294.13 51.5991 1290.68 49.8545 Q1287.27 48.1098 1285.61 45.7006 Q1283.99 43.2914 1283.99 39.9683 Q1283.99 34.4437 1288.64 30.6222 Q1293.34 26.8006 1300.61 26.8006 Q1308.25 26.8006 1312.98 30.7468 Q1317.76 34.6929 1317.76 40.8406 L1310.04 40.8406 Q1310.04 37.6837 1307.34 35.3991 Q1304.68 33.1145 1300.61 33.1145 Q1296.41 33.1145 1294.04 34.9422 Q1291.68 36.7698 1291.68 39.7191 Q1291.68 42.5022 1293.88 43.9145 Q1296.08 45.3268 1301.81 46.6145 Q1307.58 47.9022 1311.16 49.6883 Q1314.73 51.4745 1316.43 54.0083 Q1318.18 56.5006 1318.18 60.1145 Q1318.18 66.1375 1313.36 69.7929 Q1308.54 73.4068 1300.86 73.4068 Q1295.46 73.4068 1291.3 71.496 Q1287.15 69.5852 1284.78 66.1791 Q1282.45 62.7314 1282.45 58.7437 L1290.14 58.7437 Q1290.35 62.6068 1293.21 64.8914 Q1296.12 67.1345 1300.86 67.1345 Q1305.22 67.1345 1307.83 65.3898 Q1310.49 63.6037 1310.49 60.6545 Z" fill="#000000" fill-rule="nonzero" fill-opacity="1" /><path clip-path="url(#clip160)" d="M1396.98 44.2883 Q1396.98 53.1775 1393.98 59.8237 Q1390.99 66.4283 1385.51 69.9175 Q1380.03 73.4068 1372.72 73.4068 Q1365.57 73.4068 1360.05 69.9175 Q1354.52 66.3868 1351.45 59.9068 Q1348.42 53.3852 1348.33 44.8283 L1348.33 40.4668 Q1348.33 31.7437 1351.37 25.056 Q1354.4 18.3683 1359.92 14.8375 Q1365.49 11.2652 1372.63 11.2652 Q1379.9 11.2652 1385.43 14.796 Q1390.99 18.2852 1393.98 24.9729 Q1396.98 31.6191 1396.98 40.4668 L1396.98 44.2883 M1389.04 40.3837 Q1389.04 29.6252 1384.72 23.8929 Q1380.4 18.1191 1372.63 18.1191 Q1365.07 18.1191 1360.71 23.8929 Q1356.39 29.6252 1356.27 39.8437 L1356.27 44.2883 Q1356.27 54.7145 1360.63 60.696 Q1365.03 66.636 1372.72 66.636 Q1380.44 66.636 1384.68 61.0283 Q1388.92 55.3791 1389.04 44.8698 L1389.04 40.3837 Z" fill="#000000" fill-rule="nonzero" fill-opacity="1" /><path clip-path="url(#clip160)" d="M1422.56 62.1498 L1433.7 27.6314 L1441.55 27.6314 L1425.43 72.576 L1419.57 72.576 L1403.29 27.6314 L1411.14 27.6314 L1422.56 62.1498 Z" fill="#000000" fill-rule="nonzero" fill-opacity="1" /><path clip-path="url(#clip160)" d="M1467.59 73.4068 Q1458.45 73.4068 1452.72 67.4252 Q1446.99 61.4022 1446.99 51.3498 L1446.99 49.9375 Q1446.99 43.2498 1449.52 38.016 Q1452.1 32.7406 1456.67 29.7914 Q1461.28 26.8006 1466.64 26.8006 Q1475.4 26.8006 1480.26 32.5745 Q1485.12 38.3483 1485.12 49.1068 L1485.12 52.3052 L1454.67 52.3052 Q1454.84 58.9514 1458.54 63.0637 Q1462.27 67.1345 1468.01 67.1345 Q1472.08 67.1345 1474.9 65.4729 Q1477.73 63.8114 1479.84 61.0698 L1484.54 64.7252 Q1478.89 73.4068 1467.59 73.4068 M1466.64 33.1145 Q1461.98 33.1145 1458.83 36.5206 Q1455.67 39.8852 1454.92 45.9914 L1477.44 45.9914 L1477.44 45.4098 Q1477.1 39.5529 1474.28 36.3545 Q1471.45 33.1145 1466.64 33.1145 Z" fill="#000000" fill-rule="nonzero" fill-opacity="1" /><path clip-path="url(#clip160)" d="M1515.73 34.5268 Q1513.99 34.236 1511.95 34.236 Q1504.39 34.236 1501.69 40.6745 L1501.69 72.576 L1494.01 72.576 L1494.01 27.6314 L1501.49 27.6314 L1501.61 32.8237 Q1505.39 26.8006 1512.33 26.8006 Q1514.57 26.8006 1515.73 27.3822 L1515.73 34.5268 Z" fill="#000000" fill-rule="nonzero" fill-opacity="1" /><path clip-path="url(#clip160)" d="M1586.85 18.6591 L1567.41 18.6591 L1567.41 72.576 L1559.47 72.576 L1559.47 18.6591 L1540.08 18.6591 L1540.08 12.096 L1586.85 12.096 L1586.85 18.6591 Z" fill="#000000" fill-rule="nonzero" fill-opacity="1" /><path clip-path="url(#clip160)" d="M1602.96 72.576 L1595.28 72.576 L1595.28 27.6314 L1602.96 27.6314 L1602.96 72.576 M1594.66 15.7098 Q1594.66 13.8406 1595.78 12.5529 Q1596.94 11.2652 1599.18 11.2652 Q1601.43 11.2652 1602.59 12.5529 Q1603.75 13.8406 1603.75 15.7098 Q1603.75 17.5791 1602.59 18.8252 Q1601.43 20.0714 1599.18 20.0714 Q1596.94 20.0714 1595.78 18.8252 Q1594.66 17.5791 1594.66 15.7098 Z" fill="#000000" fill-rule="nonzero" fill-opacity="1" /><path clip-path="url(#clip160)" d="M1622.49 27.6314 L1622.7 32.616 Q1627.64 26.8006 1636.03 26.8006 Q1645.46 26.8006 1648.86 34.0283 Q1651.11 30.7883 1654.68 28.7945 Q1658.29 26.8006 1663.2 26.8006 Q1677.98 26.8006 1678.23 42.4606 L1678.23 72.576 L1670.55 72.576 L1670.55 42.9175 Q1670.55 38.0991 1668.35 35.7314 Q1666.14 33.3222 1660.95 33.3222 Q1656.67 33.3222 1653.85 35.8975 Q1651.02 38.4314 1650.57 42.7514 L1650.57 72.576 L1642.84 72.576 L1642.84 43.1252 Q1642.84 33.3222 1633.25 33.3222 Q1625.69 33.3222 1622.9 39.7606 L1622.9 72.576 L1615.22 72.576 L1615.22 27.6314 L1622.49 27.6314 Z" fill="#000000" fill-rule="nonzero" fill-opacity="1" /><path clip-path="url(#clip160)" d="M1708.47 73.4068 Q1699.33 73.4068 1693.6 67.4252 Q1687.87 61.4022 1687.87 51.3498 L1687.87 49.9375 Q1687.87 43.2498 1690.4 38.016 Q1692.98 32.7406 1697.55 29.7914 Q1702.16 26.8006 1707.52 26.8006 Q1716.28 26.8006 1721.14 32.5745 Q1726 38.3483 1726 49.1068 L1726 52.3052 L1695.55 52.3052 Q1695.72 58.9514 1699.42 63.0637 Q1703.16 67.1345 1708.89 67.1345 Q1712.96 67.1345 1715.78 65.4729 Q1718.61 63.8114 1720.73 61.0698 L1725.42 64.7252 Q1719.77 73.4068 1708.47 73.4068 M1707.52 33.1145 Q1702.86 33.1145 1699.71 36.5206 Q1696.55 39.8852 1695.8 45.9914 L1718.32 45.9914 L1718.32 45.4098 Q1717.98 39.5529 1715.16 36.3545 Q1712.34 33.1145 1707.52 33.1145 Z" fill="#000000" fill-rule="nonzero" fill-opacity="1" /><polyline clip-path="url(#clip162)" style="stroke:#ff4747; stroke-linecap:round; stroke-linejoin:round; stroke-width:8; stroke-opacity:1; fill:none" points="286.378,1313.25 290.558,1328.98 294.737,1342.68 298.917,1350.84 303.096,1357.59 307.276,1361.26 311.456,1363.17 315.635,1363.46 319.815,1367.25 323.994,1370.7 328.174,1375.7 332.353,1375.78 336.533,1379.43 340.713,1383.47 344.892,1386.4 349.072,1385.48 353.251,1381.14 357.431,1373.33 361.61,1363.23 365.79,1352.06 369.97,1340.39 374.149,1333.24 378.329,1329.96 382.508,1330 386.688,1332.79 390.867,1337.03 395.047,1342.86 399.227,1348.08 403.406,1348.67 407.586,1347.67 411.765,1344.27 415.945,1339.92 420.124,1332.04 424.304,1312.02 428.483,1289.91 432.663,1263.57 436.843,1255.36 441.022,1229.17 445.202,1208.39 449.381,1174.67 453.561,1123.38 457.74,1082.79 461.92,1048.58 466.1,1031.4 470.279,1048.32 474.459,1064.98 478.638,1097.38 482.818,1108.44 486.997,1124.63 491.177,1167.75 495.357,1198.03 499.536,1215.45 503.716,1218.41 507.895,1201.74 512.075,1161.3 516.254,1109.53 520.434,1075.78 524.614,1063.9 528.793,1062 532.973,1064 537.152,1067.44 541.332,1064.11 545.511,1052.9 549.691,1039.39 553.87,1024.03 558.05,1033.76 562.23,1061.62 566.409,1094.7 570.589,1124.43 574.768,1142.86 578.948,1155.31 583.127,1142.7 587.307,1121.39 591.487,1111.21 595.666,1100.65 599.846,1087.14 604.025,1076.56 608.205,1071.88 612.384,1079.36 616.564,1082.65 620.744,1090.6 624.923,1103.13 629.103,1116.21 633.282,1125.71 637.462,1139.91 641.641,1145.8 645.821,1154.6 650.001,1164.3 654.18,1176.63 658.36,1195.73 662.539,1217.57 666.719,1232.12 670.898,1244.26 675.078,1242.3 679.257,1240.95 683.437,1236.96 687.617,1236.76 691.796,1236.79 695.976,1238.43 700.155,1235.75 704.335,1235.7 708.514,1231.77 712.694,1223.29 716.874,1213.43 721.053,1199.5 725.233,1182.36 729.412,1163.37 733.592,1149.83 737.771,1148.01 741.951,1143.6 746.131,1148.31 750.31,1159.63 754.49,1158.74 758.669,1148.06 762.849,1124.57 767.028,1101.97 771.208,1080.07 775.388,1057.48 779.567,1053.36 783.747,1058.86 787.926,1060.69 792.106,1063.13 796.285,1062.28 800.465,1063.05 804.644,1062.9 808.824,1060.13 813.004,1059.08 817.183,1063.23 821.363,1069.51 825.542,1078.73 829.722,1085.89 833.901,1092.93 838.081,1097.68 842.261,1101.12 846.44,1106.73 850.62,1109.22 854.799,1116.14 858.979,1123.74 863.158,1125.98 867.338,1121.66 871.518,1114.83 875.697,1108.74 879.877,1106.94 884.056,1106.05 888.236,1120.16 892.415,1144.13 896.595,1171.61 900.774,1192.41 904.954,1207.99 909.134,1213.94 913.313,1213.82 917.493,1213.32 921.672,1210.76 925.852,1208.01 930.031,1203.06 934.211,1195.16 938.391,1186.46 942.57,1176.46 946.75,1166.85 950.929,1155.94 955.109,1141.3 959.288,1131.83 963.468,1121.96 967.648,1114.47 971.827,1113.36 976.007,1112.76 980.186,1112.91 984.366,1108.4 988.545,1101.65 992.725,1100.36 996.905,1096.25 1001.08,1097.24 1005.26,1100.59 1009.44,1102.11 1013.62,1098.01 1017.8,1091.38 1021.98,1088.07 1026.16,1088.78 1030.34,1093.45 1034.52,1100.71 1038.7,1106.33 1042.88,1108.43 1047.06,1102.18 1051.24,1096.54 1055.42,1096.24 1059.6,1098.4 1063.78,1103.93 1067.96,1111.77 1072.14,1116.52 1076.32,1117.61 1080.5,1121.21 1084.68,1123.57 1088.85,1121.09 1093.03,1113.86 1097.21,1111.19 1101.39,1106.37 1105.57,1103.21 1109.75,1108.55 1113.93,1128.15 1118.11,1149.9 1122.29,1171.52 1126.47,1190.33 1130.65,1207.72 1134.83,1214.03 1139.01,1218.15 1143.19,1219.2 1147.37,1220.79 1151.55,1219.73 1155.73,1221.02 1159.91,1218.35 1164.09,1212.06 1168.27,1194.65 1172.45,1175.27 1176.63,1156.98 1180.81,1138.7 1184.99,1127.78 1189.16,1121.06 1193.34,1118.88 1197.52,1120.75 1201.7,1124.92 1205.88,1133.67 1210.06,1143.57 1214.24,1149.26 1218.42,1153.95 1222.6,1151.05 1226.78,1142.33 1230.96,1131.58 1235.14,1122.32 1239.32,1114.61 1243.5,1113.39 1247.68,1110.54 1251.86,1105.99 1256.04,1100.8 1260.22,1092.19 1264.4,1088.94 1268.58,1088.33 1272.76,1094.55 1276.94,1104.43 1281.12,1114.01 1285.29,1119.18 1289.47,1122.17 1293.65,1124.96 1297.83,1124.41 1302.01,1118.82 1306.19,1111.86 1310.37,1099.54 1314.55,1088.72 1318.73,1086.57 1322.91,1102.59 1327.09,1134.29 1331.27,1164.27 1335.45,1192.92 1339.63,1218.02 1343.81,1229.99 1347.99,1231.82 1352.17,1232.69 1356.35,1234.38 1360.53,1234.09 1364.71,1230.38 1368.89,1226.51 1373.07,1220.98 1377.25,1212.69 1381.42,1198.14 1385.6,1187.14 1389.78,1183.8 1393.96,1186.98 1398.14,1194.45 1402.32,1204.69 1406.5,1203.38 1410.68,1193.32 1414.86,1171.31 1419.04,1156.55 1423.22,1146.69 1427.4,1138.9 1431.58,1131.13 1435.76,1123.49 1439.94,1108.7 1444.12,1099.28 1448.3,1092.03 1452.48,1089.68 1456.66,1093.01 1460.84,1104.98 1465.02,1116.77 1469.2,1119.79 1473.38,1118.54 1477.55,1119.51 1481.73,1121.18 1485.91,1121.71 1490.09,1136.71 1494.27,1157.54 1498.45,1171.85 1502.63,1175.13 1506.81,1167.69 1510.99,1150.89 1515.17,1130.76 1519.35,1105.71 1523.53,1094.91 1527.71,1089.01 1531.89,1096.59 1536.07,1119.42 1540.25,1147.07 1544.43,1174.67 1548.61,1199.24 1552.79,1212.34 1556.97,1222.85 1561.15,1223.79 1565.33,1224.71 1569.51,1226.4 1573.68,1223.22 1577.86,1216.9 1582.04,1210.41 1586.22,1201.96 1590.4,1193.51 1594.58,1185.43 1598.76,1175.81 1602.94,1164.27 1607.12,1155.81 1611.3,1143.27 1615.48,1134.89 1619.66,1127.78 1623.84,1123.42 1628.02,1125.07 1632.2,1128.03 1636.38,1125.71 1640.56,1122.93 1644.74,1107.74 1648.92,1096.8 1653.1,1085.21 1657.28,1074.97 1661.46,1073.24 1665.64,1079 1669.81,1083.66 1673.99,1088.94 1678.17,1090.42 1682.35,1098.6 1686.53,1107.66 1690.71,1112.5 1694.89,1117.39 1699.07,1123.13 1703.25,1128.94 1707.43,1134.61 1711.61,1131.25 1715.79,1123.48 1719.97,1115.62 1724.15,1100.76 1728.33,1083.02 1732.51,1071.34 1736.69,1062.82 1740.87,1066.78 1745.05,1081.22 1749.23,1110.83 1753.41,1151.81 1757.59,1188.55 1761.77,1216.3 1765.94,1234.05 1770.12,1235.52 1774.3,1232.85 1778.48,1230.04 1782.66,1229.69 1786.84,1231.37 1791.02,1233.19 1795.2,1235.16 1799.38,1236.92 1803.56,1233.74 1807.74,1227.74 1811.92,1210.99 1816.1,1190.91 1820.28,1172.33 1824.46,1157.58 1828.64,1146.72 1832.82,1142.66 1837,1140.21 1841.18,1143.43 1845.36,1138.62 1849.54,1138.63 1853.72,1137.49 1857.9,1135.19 1862.07,1126.98 1866.25,1116.41 1870.43,1102.92 1874.61,1093.42 1878.79,1083.58 1882.97,1079.91 1887.15,1078.54 1891.33,1080.24 1895.51,1078.88 1899.69,1076.56 1903.87,1075.3 1908.05,1076.19 1912.23,1080.45 1916.41,1082.78 1920.59,1081.03 1924.77,1074.59 1928.95,1066.18 1933.13,1058.43 1937.31,1055.42 1941.49,1049.55 1945.67,1047.11 1949.85,1050.01 1954.03,1069.61 1958.2,1105.6 1962.38,1149.71 1966.56,1194.09 1970.74,1231.89 1974.92,1251.37 1979.1,1254.18 1983.28,1248.34 1987.46,1246.07 1991.64,1246.92 1995.82,1247.12 2000,1247.79 2004.18,1249.62 2008.36,1251.27 2012.54,1243.39 2016.72,1227.11 2020.9,1209.1 2025.08,1191.22 2029.26,1175.91 2033.44,1161.71 2037.62,1153.02 2041.8,1150.06 2045.98,1143.3 2050.16,1134.34 2054.33,1128.52 2058.51,1120.77 2062.69,1116.62 2066.87,1107.69 2071.05,1097.95 2075.23,1083.24 2079.41,1066.67 2083.59,1057.93 2087.77,1055.28 2091.95,1047.49 2096.13,1042.54 2100.31,1036.68 2104.49,1028.16 2108.67,1013.71 2112.85,1003.67 2117.03,1010.54 2121.21,1025.56 2125.39,1037.46 2129.57,1053.24 2133.75,1072.1 2137.93,1082.34 2142.11,1080.79 2146.29,1077.99 2150.46,1074.36 2154.64,1082.15 2158.82,1103.82 2163,1136.01 2167.18,1174.5 2171.36,1205.49 2175.54,1226.6 2179.72,1237.56 2183.9,1233.4 2188.08,1228.94 2192.26,1227.93 2196.44,1226.71 2200.62,1229.73 2204.8,1231.95 2208.98,1236.82 2213.16,1239.92 2217.34,1237.18 2221.52,1225.67 2225.7,1210.28 2229.88,1192.97 2234.06,1176.96 2238.24,1163.39 2242.42,1157.22 2246.59,1152.75 2250.77,1147.05 2254.95,1137.77 2259.13,1128.74 2263.31,1112.52 2267.49,1094.35 2271.67,1084.51 2275.85,1082.7 2280.03,1083.64 2284.21,1089.14 2288.39,1094.25 2292.57,1103.17 "/>
<polyline clip-path="url(#clip162)" style="stroke:#00bcb4; stroke-linecap:round; stroke-linejoin:round; stroke-width:8; stroke-opacity:1; fill:none" points="286.378,1080.52 290.558,1160.02 294.737,1228.34 298.917,1253.36 303.096,1243.03 307.276,1220.72 311.456,1208.61 315.635,1209.5 319.815,1213.94 323.994,1221.44 328.174,1231.25 332.353,1228.13 336.533,1223.88 340.713,1218.01 344.892,1213.08 349.072,1208.51 353.251,1203.51 357.431,1201.04 361.61,1200.12 365.79,1200.22 369.97,1201.82 374.149,1198.59 378.329,1190.35 382.508,1180.71 386.688,1172.93 390.867,1167.33 395.047,1158.3 399.227,1141.48 403.406,1120.97 407.586,1090.64 411.765,1065.43 415.945,1046.81 420.124,1032 424.304,1011.21 428.483,966.266 432.663,910.604 436.843,833.972 441.022,759.412 445.202,691.58 449.381,632.344 453.561,582.101 457.74,535.812 461.92,510.568 466.1,499.529 470.279,501.795 474.459,539.895 478.638,567.836 482.818,584.535 486.997,602.757 491.177,627.025 495.357,653.31 499.536,653.934 503.716,650.67 507.895,636.145 512.075,592.446 516.254,544.65 520.434,518.925 524.614,521.201 528.793,530.929 532.973,543.322 537.152,552.873 541.332,551.819 545.511,539.047 549.691,525 553.87,509.375 558.05,520.795 562.23,540.901 566.409,575.848 570.589,598.392 574.768,618.603 578.948,635.821 583.127,648.659 587.307,663.635 591.487,673.737 595.666,662.982 599.846,645.278 604.025,606.421 608.205,577.832 612.384,565.298 616.564,558.729 620.744,562.767 624.923,552.202 629.103,539.667 633.282,533.701 637.462,529.712 641.641,542.045 645.821,562.859 650.001,578.19 654.18,592.049 658.36,601.657 662.539,613.901 666.719,626.19 670.898,632.617 675.078,641.568 679.257,652.544 683.437,659.022 687.617,660.306 691.796,657.657 695.976,653.526 700.155,647.191 704.335,634.142 708.514,619.713 712.694,611.318 716.874,600.337 721.053,589.551 725.233,575.187 729.412,563.753 733.592,563.703 737.771,565.462 741.951,575.445 746.131,590.335 750.31,606.271 754.49,610.989 758.669,599.944 762.849,578.011 767.028,553.708 771.208,524.093 775.388,506.151 779.567,500.353 783.747,498.765 787.926,499.044 792.106,501.225 796.285,501.788 800.465,501.175 804.644,500.297 808.824,501.974 813.004,507.013 817.183,517.947 821.363,537.148 825.542,558.387 829.722,576.256 833.901,587.027 838.081,590.199 842.261,579.202 846.44,568.766 850.62,561.458 854.799,551.826 858.979,538.355 863.158,522.819 867.338,511.077 871.518,506.759 875.697,507.05 879.877,517.111 884.056,532.969 888.236,548.282 892.415,565.753 896.595,586.611 900.774,608.269 904.954,626.519 909.134,637.646 913.313,642.754 917.493,646.694 921.672,637.111 925.852,626.733 930.031,614.178 934.211,601.679 938.391,591.824 942.57,588.044 946.75,584.808 950.929,577.852 955.109,560.367 959.288,540.016 963.468,503.981 967.648,482.074 971.827,477.722 976.007,488.758 980.186,501.984 984.366,511.83 988.545,523.901 992.725,526.668 996.905,512.534 1001.08,507.941 1005.26,504.716 1009.44,494.092 1013.62,484.047 1017.8,478.624 1021.98,485.689 1026.16,494.306 1030.34,503.44 1034.52,515.593 1038.7,525.041 1042.88,523.41 1047.06,526.641 1051.24,533.51 1055.42,544.916 1059.6,553.234 1063.78,557.141 1067.96,561.303 1072.14,559.951 1076.32,550.176 1080.5,542.625 1084.68,527.703 1088.85,516.881 1093.03,511.549 1097.21,511.104 1101.39,517.028 1105.57,526.728 1109.75,543.228 1113.93,563.393 1118.11,577.351 1122.29,594.819 1126.47,609.562 1130.65,620.161 1134.83,627.667 1139.01,632.54 1143.19,638 1147.37,639.879 1151.55,639.226 1155.73,635.832 1159.91,630.945 1164.09,625.407 1168.27,616.323 1172.45,606.612 1176.63,596.022 1180.81,574.67 1184.99,548.219 1189.16,520.985 1193.34,501.997 1197.52,499.768 1201.7,510.031 1205.88,526.498 1210.06,541.539 1214.24,539.638 1218.42,535.036 1222.6,524.129 1226.78,511.515 1230.96,511.306 1235.14,520.189 1239.32,527.708 1243.5,533.509 1247.68,531.93 1251.86,529.588 1256.04,518.133 1260.22,506.335 1264.4,507.799 1268.58,518.454 1272.76,532.817 1276.94,549.067 1281.12,565.843 1285.29,569.535 1289.47,564.921 1293.65,553.413 1297.83,543.016 1302.01,536.219 1306.19,532.609 1310.37,535.152 1314.55,545.584 1318.73,556.986 1322.91,572.53 1327.09,581.042 1331.27,592.788 1335.45,609.851 1339.63,628.024 1343.81,646.96 1347.99,662.781 1352.17,674.273 1356.35,677.254 1360.53,671.593 1364.71,663.706 1368.89,655.508 1373.07,648.801 1377.25,643.202 1381.42,631.487 1385.6,617.691 1389.78,610.366 1393.96,613.339 1398.14,606.455 1402.32,593.212 1406.5,577.777 1410.68,564.564 1414.86,549.713 1419.04,545.669 1423.22,545.382 1427.4,546.704 1431.58,530.625 1435.76,512.377 1439.94,499.321 1444.12,493.077 1448.3,496.423 1452.48,503.942 1456.66,513.543 1460.84,523.066 1465.02,530.025 1469.2,537.867 1473.38,546.516 1477.55,551.897 1481.73,558.734 1485.91,564.688 1490.09,581.935 1494.27,591.371 1498.45,593.04 1502.63,579.736 1506.81,566.262 1510.99,550.197 1515.17,535.787 1519.35,531.415 1523.53,537.692 1527.71,546.157 1531.89,557.709 1536.07,570.433 1540.25,594.21 1544.43,618.766 1548.61,641.666 1552.79,664.334 1556.97,681.515 1561.15,690.758 1565.33,689.896 1569.51,683.666 1573.68,673.428 1577.86,663.516 1582.04,654.608 1586.22,649.474 1590.4,643.64 1594.58,634.838 1598.76,622.324 1602.94,606.515 1607.12,586.341 1611.3,562.906 1615.48,547.762 1619.66,542.412 1623.84,542.251 1628.02,546.014 1632.2,549.475 1636.38,548.884 1640.56,539.004 1644.74,526.722 1648.92,521.279 1653.1,516.878 1657.28,510.434 1661.46,512.932 1665.64,517.027 1669.81,518.515 1673.99,516.332 1678.17,516.217 1682.35,519.368 1686.53,524.06 1690.71,529.938 1694.89,545.99 1699.07,561.843 1703.25,575.925 1707.43,582.1 1711.61,577.535 1715.79,565.498 1719.97,546.507 1724.15,520.646 1728.33,499.78 1732.51,486.135 1736.69,487.542 1740.87,507.982 1745.05,542.305 1749.23,578.935 1753.41,607.413 1757.59,625.161 1761.77,638.826 1765.94,646.304 1770.12,651.602 1774.3,665.649 1778.48,682.824 1782.66,695.168 1786.84,699.133 1791.02,697.592 1795.2,691.445 1799.38,683.473 1803.56,674.465 1807.74,667.103 1811.92,660.633 1816.1,652.651 1820.28,640.668 1824.46,630.792 1828.64,615.933 1832.82,596.38 1837,582.232 1841.18,571.681 1845.36,570.728 1849.54,573.787 1853.72,579.906 1857.9,588.556 1862.07,587.36 1866.25,576.923 1870.43,562.788 1874.61,545.301 1878.79,538.504 1882.97,533.772 1887.15,532.726 1891.33,533.226 1895.51,532.687 1899.69,528.868 1903.87,526.182 1908.05,526.572 1912.23,536.166 1916.41,542.45 1920.59,545.402 1924.77,542.707 1928.95,539.317 1933.13,532.589 1937.31,529.217 1941.49,527.77 1945.67,534.527 1949.85,552.093 1954.03,575.492 1958.2,597.523 1962.38,621.867 1966.56,643.553 1970.74,662.609 1974.92,677.28 1979.1,691.084 1983.28,706.149 1987.46,716.221 1991.64,718.257 1995.82,714.868 2000,708.828 2004.18,701.563 2008.36,693.879 2012.54,683.492 2016.72,674.365 2020.9,667.734 2025.08,663.68 2029.26,657.752 2033.44,648.344 2037.62,629.88 2041.8,603.461 2045.98,570.087 2050.16,550.398 2054.33,540.266 2058.51,536.624 2062.69,530.677 2066.87,526.087 2071.05,515.726 2075.23,500.464 2079.41,489.679 2083.59,497.832 2087.77,517.298 2091.95,526.761 2096.13,523.667 2100.31,515.292 2104.49,500.314 2108.67,483.324 2112.85,471.808 2117.03,475.713 2121.21,494.252 2125.39,511.753 2129.57,526.267 2133.75,534.862 2137.93,539.845 2142.11,542.008 2146.29,543.274 2150.46,550.628 2154.64,571.221 2158.82,597.452 2163,618.192 2167.18,632.666 2171.36,643.836 2175.54,654.491 2179.72,664.318 2183.9,676.135 2188.08,694.236 2192.26,708.089 2196.44,713.458 2200.62,711.986 2204.8,704.398 2208.98,696.405 2213.16,687.934 2217.34,679.859 2221.52,669.047 2225.7,663.267 2229.88,657.585 2234.06,650.422 2238.24,639.312 2242.42,628.891 2246.59,614.991 2250.77,595.906 2254.95,576.024 2259.13,560.576 2263.31,540.564 2267.49,525.805 2271.67,515.818 2275.85,515.538 2280.03,519.388 2284.21,525.926 2288.39,537.85 2292.57,543.815 "/>
<polyline clip-path="url(#clip162)" style="stroke:#ffb547; stroke-linecap:round; stroke-linejoin:round; stroke-width:8; stroke-opacity:1; fill:none" points="286.378,967.985 290.558,1015.59 294.737,1056.04 298.917,1079.56 303.096,1087.08 307.276,1082.8 311.456,1076.14 315.635,1072.17 319.815,1065.28 323.994,1061.07 328.174,1059.21 332.353,1065.85 336.533,1074.94 340.713,1080.97 344.892,1081.7 349.072,1080.81 353.251,1081.15 357.431,1077.86 361.61,1074.15 365.79,1067.48 369.97,1060.61 374.149,1055.25 378.329,1049.42 382.508,1045.79 386.688,1042.62 390.867,1045.11 395.047,1051.49 399.227,1059.43 403.406,1061.65 407.586,1056.48 411.765,1047.82 415.945,1030.88 420.124,1009.66 424.304,998.314 428.483,989.376 432.663,987.049 436.843,984.433 441.022,986.731 445.202,994.434 449.381,1002.79 453.561,1006.69 457.74,1009.65 461.92,1008.04 466.1,1004.86 470.279,999.107 474.459,993.757 478.638,986.845 482.818,983.07 486.997,975.59 491.177,966.814 495.357,958.539 499.536,950.44 503.716,940.972 507.895,934.012 512.075,923.909 516.254,924.024 520.434,926.618 524.614,930.966 528.793,935.813 532.973,942.918 537.152,947.298 541.332,951.053 545.511,948.922 549.691,952.408 553.87,953.64 558.05,956.657 562.23,959.133 566.409,968.702 570.589,964.065 574.768,966.14 578.948,972.052 583.127,982.593 587.307,999.527 591.487,1015.15 595.666,1023.1 599.846,1027.29 604.025,1012.9 608.205,1003.38 612.384,997.734 616.564,989.442 620.744,979.249 624.923,954.499 629.103,944.316 633.282,917.313 637.462,901.101 641.641,855.277 645.821,827.05 650.001,784.034 654.18,758.353 658.36,765.424 662.539,717.394 666.719,685.435 670.898,633.382 675.078,494.012 679.257,398.903 683.437,276.435 687.617,229.441 691.796,271.042 695.976,336.589 700.155,448.69 704.335,542.531 708.514,603.587 712.694,686.892 716.874,708.622 721.053,742.156 725.233,784.497 729.412,842.202 733.592,855.458 737.771,880.161 741.951,902.686 746.131,918.478 750.31,920.377 754.49,916.342 758.669,903.366 762.849,897.275 767.028,908.919 771.208,919.406 775.388,930.384 779.567,931.504 783.747,932.02 787.926,928.318 792.106,922.932 796.285,920.65 800.465,927.384 804.644,932.979 808.824,941.383 813.004,949.101 817.183,959.968 821.363,968.018 825.542,974.175 829.722,974.012 833.901,970.183 838.081,968.51 842.261,962.092 846.44,952.354 850.62,945.633 854.799,931.906 858.979,917.886 863.158,903.531 867.338,883.723 871.518,851.276 875.697,775.187 879.877,698.21 884.056,668.507 888.236,690.787 892.415,620.329 896.595,575.952 900.774,585.211 904.954,554.578 909.134,455.597 913.313,320.284 917.493,293.808 921.672,345.93 925.852,355.447 930.031,477.9 934.211,660.358 938.391,785.318 942.57,817.663 946.75,769.972 950.929,715.615 955.109,672.92 959.288,670.203 963.468,714.305 967.648,774.819 971.827,838.28 976.007,885.547 980.186,922.182 984.366,906.557 988.545,893.722 992.725,893.193 996.905,897.891 1001.08,907.697 1005.26,913.272 1009.44,918.901 1013.62,927.99 1017.8,929.201 1021.98,928.88 1026.16,931.94 1030.34,932.095 1034.52,935.399 1038.7,931.624 1042.88,934.189 1047.06,932.001 1051.24,922.699 1055.42,912.735 1059.6,907.184 1063.78,904.923 1067.96,911.426 1072.14,919.833 1076.32,925.279 1080.5,932.425 1084.68,930.349 1088.85,927.078 1093.03,911.029 1097.21,861.224 1101.39,820.475 1105.57,758.832 1109.75,691.251 1113.93,667.993 1118.11,640.623 1122.29,614.75 1126.47,589.294 1130.65,515.354 1134.83,439.288 1139.01,304.431 1143.19,226.52 1147.37,238.588 1151.55,307.924 1155.73,423.259 1159.91,576.182 1164.09,714.426 1168.27,782.882 1172.45,765.611 1176.63,751.32 1180.81,751.328 1184.99,767.637 1189.16,793.748 1193.34,845.28 1197.52,900.75 1201.7,920.163 1205.88,923.252 1210.06,917.011 1214.24,913.505 1218.42,908.617 1222.6,904.811 1226.78,910.351 1230.96,906.282 1235.14,907.406 1239.32,913.386 1243.5,922.409 1247.68,929.488 1251.86,932.273 1256.04,931.224 1260.22,931.982 1264.4,931.348 1268.58,933.378 1272.76,936.379 1276.94,939.706 1281.12,944.338 1285.29,944.5 1289.47,934.62 1293.65,934.774 1297.83,925.477 1302.01,927.652 1306.19,911.874 1310.37,866.241 1314.55,796.085 1318.73,730.856 1322.91,688.014 1327.09,712.615 1331.27,736.676 1335.45,757.183 1339.63,696.528 1343.81,536.911 1347.99,382.622 1352.17,282.931 1356.35,277.074 1360.53,384.64 1364.71,529.04 1368.89,699.964 1373.07,828.193 1377.25,881.49 1381.42,887.867 1385.6,861.728 1389.78,804.25 1393.96,806.056 1398.14,819.518 1402.32,868.693 1406.5,922.948 1410.68,962.546 1414.86,943.552 1419.04,912.962 1423.22,865.477 1427.4,877.403 1431.58,879.441 1435.76,891.432 1439.94,899.908 1444.12,907.994 1448.3,908.156 1452.48,905.653 1456.66,908.241 1460.84,914.686 1465.02,922.349 1469.2,935.855 1473.38,947.006 1477.55,954.324 1481.73,964.041 1485.91,963.017 1490.09,957.832 1494.27,950.022 1498.45,930.506 1502.63,916.69 1506.81,906.599 1510.99,881.326 1515.17,840.202 1519.35,792.044 1523.53,762.109 1527.71,724.677 1531.89,690.969 1536.07,649.376 1540.25,612.528 1544.43,528.045 1548.61,415.05 1552.79,306.487 1556.97,198.72 1561.15,169.162 1565.33,223.211 1569.51,340.486 1573.68,512.52 1577.86,670.169 1582.04,792.908 1586.22,851.717 1590.4,826.056 1594.58,812.254 1598.76,793.265 1602.94,785.887 1607.12,791.716 1611.3,815.917 1615.48,848.094 1619.66,870.897 1623.84,890.245 1628.02,906.133 1632.2,920.161 1636.38,922.369 1640.56,917.122 1644.74,917.351 1648.92,916.979 1653.1,910.006 1657.28,910.578 1661.46,918.329 1665.64,927.077 1669.81,935.593 1673.99,937.299 1678.17,942.863 1682.35,944.662 1686.53,944.4 1690.71,944.326 1694.89,940.563 1699.07,935.919 1703.25,933.027 1707.43,931.626 1711.61,934.616 1715.79,935.011 1719.97,935.345 1724.15,922.337 1728.33,894.469 1732.51,853.966 1736.69,804.63 1740.87,753.957 1745.05,687.765 1749.23,594.43 1753.41,570.296 1757.59,559.346 1761.77,545.55 1765.94,502.064 1770.12,432.045 1774.3,369.074 1778.48,278.913 1782.66,160.256 1786.84,196.712 1791.02,259.483 1795.2,371.089 1799.38,504.316 1803.56,606.49 1807.74,687.563 1811.92,723.975 1816.1,706.428 1820.28,726.978 1824.46,726.896 1828.64,760.31 1832.82,812.712 1837,845.839 1841.18,868.472 1845.36,893.915 1849.54,908.298 1853.72,915.699 1857.9,921.719 1862.07,922.098 1866.25,925.743 1870.43,936.386 1874.61,939.23 1878.79,938.038 1882.97,932.141 1887.15,924.75 1891.33,918.982 1895.51,915.516 1899.69,918.815 1903.87,928.563 1908.05,934.531 1912.23,935.468 1916.41,934.644 1920.59,931.316 1924.77,927.332 1928.95,920.837 1933.13,913.114 1937.31,896.388 1941.49,863.197 1945.67,816.633 1949.85,743.019 1954.03,677.833 1958.2,622.591 1962.38,575.913 1966.56,510.411 1970.74,441.122 1974.92,371.367 1979.1,317.259 1983.28,264.565 1987.46,269.38 1991.64,300.398 1995.82,301.67 2000,313.377 2004.18,367.168 2008.36,432.6 2012.54,541.518 2016.72,644.31 2020.9,738.406 2025.08,800.201 2029.26,796.166 2033.44,803.169 2037.62,817.291 2041.8,826.261 2045.98,864.54 2050.16,883.362 2054.33,889.148 2058.51,898.405 2062.69,901.814 2066.87,904.544 2071.05,910.079 2075.23,917.609 2079.41,929.972 2083.59,932.319 2087.77,927.934 2091.95,926.114 2096.13,926.092 2100.31,927.49 2104.49,929.556 2108.67,932.84 2112.85,935.411 2117.03,935.599 2121.21,929.481 2125.39,930.094 2129.57,926.021 2133.75,918.852 2137.93,911.208 2142.11,894.567 2146.29,870.083 2150.46,829.944 2154.64,783.267 2158.82,709.715 2163,662.753 2167.18,618.313 2171.36,594.861 2175.54,561.076 2179.72,518.111 2183.9,479.809 2188.08,403.163 2192.26,311.979 2196.44,302.96 2200.62,324.475 2204.8,396.675 2208.98,491.872 2213.16,574.908 2217.34,644.74 2221.52,660.23 2225.7,681.357 2229.88,716.142 2234.06,745.191 2238.24,778.756 2242.42,822.238 2246.59,842.72 2250.77,854.931 2254.95,868.324 2259.13,888.017 2263.31,903.638 2267.49,910.05 2271.67,913.732 2275.85,918.721 2280.03,922.718 2284.21,928.278 2288.39,930.303 2292.57,935.826 "/>
<path clip-path="url(#clip160)" d="M297.078 374.156 L770.311 374.156 L770.311 166.796 L297.078 166.796  Z" fill="#ffffff" fill-rule="evenodd" fill-opacity="1"/>
<polyline clip-path="url(#clip160)" style="stroke:#000000; stroke-linecap:round; stroke-linejoin:round; stroke-width:4; stroke-opacity:1; fill:none" points="297.078,374.156 770.311,374.156 770.311,166.796 297.078,166.796 297.078,374.156 "/>
<polyline clip-path="url(#clip160)" style="stroke:#ff4747; stroke-linecap:round; stroke-linejoin:round; stroke-width:8; stroke-opacity:1; fill:none" points="320.706,218.636 462.477,218.636 "/>
<path clip-path="url(#clip160)" d="M494.888 219.846 L490.663 224.237 L490.663 235.916 L486.106 235.916 L486.106 201.356 L490.663 201.356 L490.663 218.446 L506.02 201.356 L511.527 201.356 L497.926 216.618 L512.595 235.916 L507.136 235.916 L494.888 219.846 Z" fill="#000000" fill-rule="nonzero" fill-opacity="1" /><path clip-path="url(#clip160)" d="M520.049 210.233 L520.191 213.461 Q523.134 209.758 527.882 209.758 Q536.023 209.758 536.094 218.944 L536.094 235.916 L531.703 235.916 L531.703 218.921 Q531.679 216.143 530.421 214.814 Q529.187 213.485 526.552 213.485 Q524.416 213.485 522.802 214.624 Q521.188 215.764 520.286 217.615 L520.286 235.916 L515.895 235.916 L515.895 210.233 L520.049 210.233 Z" fill="#000000" fill-rule="nonzero" fill-opacity="1" /><path clip-path="url(#clip160)" d="M553.374 236.39 Q548.152 236.39 544.877 232.972 Q541.601 229.531 541.601 223.786 L541.601 222.979 Q541.601 219.158 543.049 216.167 Q544.521 213.153 547.132 211.467 Q549.766 209.758 552.828 209.758 Q557.837 209.758 560.614 213.058 Q563.391 216.357 563.391 222.505 L563.391 224.332 L545.992 224.332 Q546.087 228.13 548.2 230.48 Q550.336 232.806 553.612 232.806 Q555.938 232.806 557.552 231.857 Q559.166 230.907 560.377 229.341 L563.059 231.43 Q559.831 236.39 553.374 236.39 M552.828 213.366 Q550.17 213.366 548.366 215.313 Q546.562 217.235 546.135 220.725 L559 220.725 L559 220.392 Q558.81 217.045 557.196 215.218 Q555.582 213.366 552.828 213.366 Z" fill="#000000" fill-rule="nonzero" fill-opacity="1" /><path clip-path="url(#clip160)" d="M579.128 236.39 Q573.906 236.39 570.631 232.972 Q567.355 229.531 567.355 223.786 L567.355 222.979 Q567.355 219.158 568.803 216.167 Q570.275 213.153 572.886 211.467 Q575.52 209.758 578.582 209.758 Q583.591 209.758 586.368 213.058 Q589.145 216.357 589.145 222.505 L589.145 224.332 L571.746 224.332 Q571.841 228.13 573.954 230.48 Q576.09 232.806 579.366 232.806 Q581.692 232.806 583.306 231.857 Q584.92 230.907 586.13 229.341 L588.813 231.43 Q585.584 236.39 579.128 236.39 M578.582 213.366 Q575.924 213.366 574.12 215.313 Q572.316 217.235 571.889 220.725 L584.754 220.725 L584.754 220.392 Q584.564 217.045 582.95 215.218 Q581.336 213.366 578.582 213.366 Z" fill="#000000" fill-rule="nonzero" fill-opacity="1" /><path clip-path="url(#clip160)" d="M626.031 226.896 L611.552 226.896 L608.3 235.916 L603.6 235.916 L616.798 201.356 L620.785 201.356 L634.006 235.916 L629.33 235.916 L626.031 226.896 M612.929 223.146 L624.678 223.146 L618.791 206.981 L612.929 223.146 Z" fill="#000000" fill-rule="nonzero" fill-opacity="1" /><path clip-path="url(#clip160)" d="M642.124 210.233 L642.267 213.461 Q645.21 209.758 649.957 209.758 Q658.099 209.758 658.17 218.944 L658.17 235.916 L653.779 235.916 L653.779 218.921 Q653.755 216.143 652.497 214.814 Q651.263 213.485 648.628 213.485 Q646.492 213.485 644.878 214.624 Q643.264 215.764 642.362 217.615 L642.362 235.916 L637.97 235.916 L637.97 210.233 L642.124 210.233 Z" fill="#000000" fill-rule="nonzero" fill-opacity="1" /><path clip-path="url(#clip160)" d="M663.748 222.861 Q663.748 216.855 666.525 213.319 Q669.302 209.758 673.883 209.758 Q678.583 209.758 681.218 213.081 L681.431 210.233 L685.443 210.233 L685.443 235.299 Q685.443 240.283 682.476 243.155 Q679.533 246.027 674.548 246.027 Q671.771 246.027 669.112 244.841 Q666.454 243.654 665.053 241.589 L667.332 238.954 Q670.157 242.443 674.239 242.443 Q677.444 242.443 679.224 240.639 Q681.028 238.835 681.028 235.56 L681.028 233.352 Q678.393 236.39 673.836 236.39 Q669.326 236.39 666.525 232.759 Q663.748 229.127 663.748 222.861 M668.163 223.359 Q668.163 227.703 669.943 230.195 Q671.723 232.664 674.928 232.664 Q679.082 232.664 681.028 228.89 L681.028 217.164 Q679.01 213.485 674.975 213.485 Q671.771 213.485 669.967 215.977 Q668.163 218.47 668.163 223.359 Z" fill="#000000" fill-rule="nonzero" fill-opacity="1" /><path clip-path="url(#clip160)" d="M696.836 235.916 L692.445 235.916 L692.445 199.457 L696.836 199.457 L696.836 235.916 Z" fill="#000000" fill-rule="nonzero" fill-opacity="1" /><path clip-path="url(#clip160)" d="M714.52 236.39 Q709.298 236.39 706.022 232.972 Q702.747 229.531 702.747 223.786 L702.747 222.979 Q702.747 219.158 704.195 216.167 Q705.666 213.153 708.277 211.467 Q710.912 209.758 713.974 209.758 Q718.982 209.758 721.759 213.058 Q724.537 216.357 724.537 222.505 L724.537 224.332 L707.138 224.332 Q707.233 228.13 709.345 230.48 Q711.482 232.806 714.757 232.806 Q717.083 232.806 718.697 231.857 Q720.311 230.907 721.522 229.341 L724.204 231.43 Q720.976 236.39 714.52 236.39 M713.974 213.366 Q711.315 213.366 709.511 215.313 Q707.708 217.235 707.28 220.725 L720.145 220.725 L720.145 220.392 Q719.955 217.045 718.341 215.218 Q716.727 213.366 713.974 213.366 Z" fill="#000000" fill-rule="nonzero" fill-opacity="1" /><polyline clip-path="url(#clip160)" style="stroke:#00bcb4; stroke-linecap:round; stroke-linejoin:round; stroke-width:8; stroke-opacity:1; fill:none" points="320.706,270.476 462.477,270.476 "/>
<path clip-path="url(#clip160)" d="M512.667 287.756 L508.086 287.756 L508.086 271.781 L490.663 271.781 L490.663 287.756 L486.106 287.756 L486.106 253.196 L490.663 253.196 L490.663 268.055 L508.086 268.055 L508.086 253.196 L512.667 253.196 L512.667 287.756 Z" fill="#000000" fill-rule="nonzero" fill-opacity="1" /><path clip-path="url(#clip160)" d="M524.843 287.756 L520.452 287.756 L520.452 262.073 L524.843 262.073 L524.843 287.756 M520.096 255.261 Q520.096 254.193 520.737 253.457 Q521.402 252.721 522.683 252.721 Q523.965 252.721 524.63 253.457 Q525.294 254.193 525.294 255.261 Q525.294 256.329 524.63 257.041 Q523.965 257.753 522.683 257.753 Q521.402 257.753 520.737 257.041 Q520.096 256.329 520.096 255.261 Z" fill="#000000" fill-rule="nonzero" fill-opacity="1" /><path clip-path="url(#clip160)" d="M553.564 275.199 Q553.564 281.062 550.882 284.646 Q548.2 288.23 543.619 288.23 Q538.943 288.23 536.26 285.263 L536.26 297.63 L531.869 297.63 L531.869 262.073 L535.881 262.073 L536.094 264.921 Q538.777 261.598 543.548 261.598 Q548.176 261.598 550.858 265.088 Q553.564 268.577 553.564 274.796 L553.564 275.199 M549.173 274.701 Q549.173 270.357 547.322 267.841 Q545.47 265.325 542.242 265.325 Q538.254 265.325 536.26 268.862 L536.26 281.133 Q538.231 284.646 542.29 284.646 Q545.446 284.646 547.298 282.154 Q549.173 279.638 549.173 274.701 Z" fill="#000000" fill-rule="nonzero" fill-opacity="1" /><path clip-path="url(#clip160)" d="M590.949 278.736 L576.47 278.736 L573.218 287.756 L568.518 287.756 L581.715 253.196 L585.703 253.196 L598.924 287.756 L594.248 287.756 L590.949 278.736 M577.846 274.986 L589.596 274.986 L583.709 258.821 L577.846 274.986 Z" fill="#000000" fill-rule="nonzero" fill-opacity="1" /><path clip-path="url(#clip160)" d="M607.042 262.073 L607.184 265.301 Q610.128 261.598 614.875 261.598 Q623.017 261.598 623.088 270.784 L623.088 287.756 L618.697 287.756 L618.697 270.761 Q618.673 267.983 617.415 266.654 Q616.18 265.325 613.546 265.325 Q611.41 265.325 609.795 266.464 Q608.181 267.604 607.279 269.455 L607.279 287.756 L602.888 287.756 L602.888 262.073 L607.042 262.073 Z" fill="#000000" fill-rule="nonzero" fill-opacity="1" /><path clip-path="url(#clip160)" d="M628.666 274.701 Q628.666 268.695 631.443 265.159 Q634.22 261.598 638.801 261.598 Q643.501 261.598 646.136 264.921 L646.349 262.073 L650.361 262.073 L650.361 287.139 Q650.361 292.123 647.394 294.995 Q644.45 297.867 639.466 297.867 Q636.689 297.867 634.03 296.681 Q631.372 295.494 629.971 293.429 L632.25 290.794 Q635.075 294.283 639.157 294.283 Q642.362 294.283 644.142 292.479 Q645.946 290.675 645.946 287.4 L645.946 285.192 Q643.311 288.23 638.754 288.23 Q634.244 288.23 631.443 284.599 Q628.666 280.967 628.666 274.701 M633.081 275.199 Q633.081 279.543 634.861 282.035 Q636.641 284.504 639.846 284.504 Q643.999 284.504 645.946 280.73 L645.946 269.004 Q643.928 265.325 639.893 265.325 Q636.689 265.325 634.885 267.817 Q633.081 270.31 633.081 275.199 Z" fill="#000000" fill-rule="nonzero" fill-opacity="1" /><path clip-path="url(#clip160)" d="M661.754 287.756 L657.363 287.756 L657.363 251.297 L661.754 251.297 L661.754 287.756 Z" fill="#000000" fill-rule="nonzero" fill-opacity="1" /><path clip-path="url(#clip160)" d="M679.438 288.23 Q674.216 288.23 670.94 284.812 Q667.664 281.371 667.664 275.626 L667.664 274.819 Q667.664 270.998 669.112 268.007 Q670.584 264.993 673.195 263.307 Q675.83 261.598 678.892 261.598 Q683.9 261.598 686.677 264.898 Q689.454 268.197 689.454 274.345 L689.454 276.172 L672.056 276.172 Q672.151 279.97 674.263 282.32 Q676.399 284.646 679.675 284.646 Q682.001 284.646 683.615 283.697 Q685.229 282.747 686.44 281.181 L689.122 283.27 Q685.894 288.23 679.438 288.23 M678.892 265.206 Q676.233 265.206 674.429 267.153 Q672.625 269.075 672.198 272.565 L685.063 272.565 L685.063 272.232 Q684.873 268.885 683.259 267.058 Q681.645 265.206 678.892 265.206 Z" fill="#000000" fill-rule="nonzero" fill-opacity="1" /><polyline clip-path="url(#clip160)" style="stroke:#ffb547; stroke-linecap:round; stroke-linejoin:round; stroke-width:8; stroke-opacity:1; fill:none" points="320.706,322.316 462.477,322.316 "/>
<path clip-path="url(#clip160)" d="M505.641 323.621 L490.663 323.621 L490.663 335.869 L508.062 335.869 L508.062 339.596 L486.106 339.596 L486.106 305.036 L507.824 305.036 L507.824 308.786 L490.663 308.786 L490.663 319.895 L505.641 319.895 L505.641 323.621 Z" fill="#000000" fill-rule="nonzero" fill-opacity="1" /><path clip-path="url(#clip160)" d="M517.817 339.596 L513.426 339.596 L513.426 303.137 L517.817 303.137 L517.817 339.596 Z" fill="#000000" fill-rule="nonzero" fill-opacity="1" /><path clip-path="url(#clip160)" d="M546.586 327.039 Q546.586 332.926 543.88 336.51 Q541.174 340.07 536.617 340.07 Q531.751 340.07 529.092 336.629 L528.879 339.596 L524.843 339.596 L524.843 303.137 L529.235 303.137 L529.235 316.738 Q531.893 313.438 536.569 313.438 Q541.245 313.438 543.904 316.975 Q546.586 320.512 546.586 326.659 L546.586 327.039 M542.195 326.541 Q542.195 322.055 540.462 319.61 Q538.729 317.165 535.477 317.165 Q531.133 317.165 529.235 321.2 L529.235 332.309 Q531.252 336.344 535.525 336.344 Q538.682 336.344 540.438 333.899 Q542.195 331.454 542.195 326.541 Z" fill="#000000" fill-rule="nonzero" fill-opacity="1" /><path clip-path="url(#clip160)" d="M550.953 326.517 Q550.953 322.743 552.425 319.728 Q553.92 316.714 556.555 315.076 Q559.213 313.438 562.608 313.438 Q567.853 313.438 571.082 317.07 Q574.333 320.702 574.333 326.731 L574.333 327.039 Q574.333 330.79 572.886 333.78 Q571.461 336.747 568.779 338.409 Q566.121 340.07 562.655 340.07 Q557.433 340.07 554.181 336.439 Q550.953 332.807 550.953 326.826 L550.953 326.517 M555.368 327.039 Q555.368 331.312 557.338 333.899 Q559.332 336.486 562.655 336.486 Q566.002 336.486 567.972 333.875 Q569.942 331.241 569.942 326.517 Q569.942 322.292 567.925 319.681 Q565.931 317.046 562.608 317.046 Q559.356 317.046 557.362 319.634 Q555.368 322.221 555.368 327.039 Z" fill="#000000" fill-rule="nonzero" fill-opacity="1" /><path clip-path="url(#clip160)" d="M602.58 333.543 L607.517 313.913 L611.908 313.913 L604.431 339.596 L600.871 339.596 L594.628 320.132 L588.551 339.596 L584.991 339.596 L577.538 313.913 L581.905 313.913 L586.961 333.139 L592.943 313.913 L596.479 313.913 L602.58 333.543 Z" fill="#000000" fill-rule="nonzero" fill-opacity="1" /><path clip-path="url(#clip160)" d="M648.177 330.576 L633.698 330.576 L630.446 339.596 L625.746 339.596 L638.944 305.036 L642.931 305.036 L656.152 339.596 L651.476 339.596 L648.177 330.576 M635.075 326.826 L646.824 326.826 L640.937 310.661 L635.075 326.826 Z" fill="#000000" fill-rule="nonzero" fill-opacity="1" /><path clip-path="url(#clip160)" d="M664.27 313.913 L664.413 317.141 Q667.356 313.438 672.103 313.438 Q680.245 313.438 680.316 322.624 L680.316 339.596 L675.925 339.596 L675.925 322.601 Q675.901 319.823 674.643 318.494 Q673.409 317.165 670.774 317.165 Q668.638 317.165 667.024 318.304 Q665.41 319.444 664.508 321.295 L664.508 339.596 L660.116 339.596 L660.116 313.913 L664.27 313.913 Z" fill="#000000" fill-rule="nonzero" fill-opacity="1" /><path clip-path="url(#clip160)" d="M685.894 326.541 Q685.894 320.535 688.671 316.999 Q691.448 313.438 696.029 313.438 Q700.729 313.438 703.364 316.761 L703.577 313.913 L707.589 313.913 L707.589 338.979 Q707.589 343.963 704.622 346.835 Q701.679 349.707 696.694 349.707 Q693.917 349.707 691.258 348.521 Q688.6 347.334 687.199 345.269 L689.478 342.634 Q692.303 346.123 696.385 346.123 Q699.59 346.123 701.37 344.319 Q703.174 342.515 703.174 339.24 L703.174 337.032 Q700.539 340.07 695.982 340.07 Q691.472 340.07 688.671 336.439 Q685.894 332.807 685.894 326.541 M690.309 327.039 Q690.309 331.383 692.089 333.875 Q693.869 336.344 697.074 336.344 Q701.228 336.344 703.174 332.57 L703.174 320.844 Q701.156 317.165 697.121 317.165 Q693.917 317.165 692.113 319.657 Q690.309 322.15 690.309 327.039 Z" fill="#000000" fill-rule="nonzero" fill-opacity="1" /><path clip-path="url(#clip160)" d="M718.982 339.596 L714.591 339.596 L714.591 303.137 L718.982 303.137 L718.982 339.596 Z" fill="#000000" fill-rule="nonzero" fill-opacity="1" /><path clip-path="url(#clip160)" d="M736.666 340.07 Q731.444 340.07 728.168 336.652 Q724.893 333.211 724.893 327.466 L724.893 326.659 Q724.893 322.838 726.34 319.847 Q727.812 316.833 730.423 315.147 Q733.058 313.438 736.12 313.438 Q741.128 313.438 743.905 316.738 Q746.682 320.037 746.682 326.185 L746.682 328.012 L729.284 328.012 Q729.379 331.81 731.491 334.16 Q733.628 336.486 736.903 336.486 Q739.229 336.486 740.843 335.537 Q742.457 334.587 743.668 333.021 L746.35 335.11 Q743.122 340.07 736.666 340.07 M736.12 317.046 Q733.461 317.046 731.657 318.993 Q729.853 320.915 729.426 324.405 L742.291 324.405 L742.291 324.072 Q742.101 320.725 740.487 318.898 Q738.873 317.046 736.12 317.046 Z" fill="#000000" fill-rule="nonzero" fill-opacity="1" /></svg>
