<?xml version="1.0" encoding="utf-8"?>
<svg xmlns="http://www.w3.org/2000/svg" xmlns:xlink="http://www.w3.org/1999/xlink" width="600" height="400" viewBox="0 0 2400 1600">
<defs>
  <clipPath id="clip180">
    <rect x="0" y="0" width="2400" height="1600"/>
  </clipPath>
</defs>
<path clip-path="url(#clip180)" d="M0 1600 L2400 1600 L2400 0 L0 0  Z" fill="#ffffff" fill-rule="evenodd" fill-opacity="1"/>
<defs>
  <clipPath id="clip181">
    <rect x="480" y="0" width="1681" height="1600"/>
  </clipPath>
</defs>
<path clip-path="url(#clip180)" d="M260.725 1423.57 L2352.76 1423.57 L2352.76 123.185 L260.725 123.185  Z" fill="#ffffff" fill-rule="evenodd" fill-opacity="1"/>
<defs>
  <clipPath id="clip182">
    <rect x="260" y="123" width="2093" height="1301"/>
  </clipPath>
</defs>
<polyline clip-path="url(#clip182)" style="stroke:#000000; stroke-linecap:round; stroke-linejoin:round; stroke-width:2; stroke-opacity:0.1; fill:none" points="315.257,1423.57 315.257,123.185 "/>
<polyline clip-path="url(#clip182)" style="stroke:#000000; stroke-linecap:round; stroke-linejoin:round; stroke-width:2; stroke-opacity:0.1; fill:none" points="666.017,1423.57 666.017,123.185 "/>
<polyline clip-path="url(#clip182)" style="stroke:#000000; stroke-linecap:round; stroke-linejoin:round; stroke-width:2; stroke-opacity:0.1; fill:none" points="1016.78,1423.57 1016.78,123.185 "/>
<polyline clip-path="url(#clip182)" style="stroke:#000000; stroke-linecap:round; stroke-linejoin:round; stroke-width:2; stroke-opacity:0.1; fill:none" points="1367.54,1423.57 1367.54,123.185 "/>
<polyline clip-path="url(#clip182)" style="stroke:#000000; stroke-linecap:round; stroke-linejoin:round; stroke-width:2; stroke-opacity:0.1; fill:none" points="1718.3,1423.57 1718.3,123.185 "/>
<polyline clip-path="url(#clip182)" style="stroke:#000000; stroke-linecap:round; stroke-linejoin:round; stroke-width:2; stroke-opacity:0.1; fill:none" points="2069.06,1423.57 2069.06,123.185 "/>
<polyline clip-path="url(#clip182)" style="stroke:#000000; stroke-linecap:round; stroke-linejoin:round; stroke-width:2; stroke-opacity:0.1; fill:none" points="260.725,1421.23 2352.76,1421.23 "/>
<polyline clip-path="url(#clip182)" style="stroke:#000000; stroke-linecap:round; stroke-linejoin:round; stroke-width:2; stroke-opacity:0.1; fill:none" points="260.725,1229 2352.76,1229 "/>
<polyline clip-path="url(#clip182)" style="stroke:#000000; stroke-linecap:round; stroke-linejoin:round; stroke-width:2; stroke-opacity:0.1; fill:none" points="260.725,1036.78 2352.76,1036.78 "/>
<polyline clip-path="url(#clip182)" style="stroke:#000000; stroke-linecap:round; stroke-linejoin:round; stroke-width:2; stroke-opacity:0.1; fill:none" points="260.725,844.548 2352.76,844.548 "/>
<polyline clip-path="url(#clip182)" style="stroke:#000000; stroke-linecap:round; stroke-linejoin:round; stroke-width:2; stroke-opacity:0.1; fill:none" points="260.725,652.321 2352.76,652.321 "/>
<polyline clip-path="url(#clip182)" style="stroke:#000000; stroke-linecap:round; stroke-linejoin:round; stroke-width:2; stroke-opacity:0.1; fill:none" points="260.725,460.093 2352.76,460.093 "/>
<polyline clip-path="url(#clip182)" style="stroke:#000000; stroke-linecap:round; stroke-linejoin:round; stroke-width:2; stroke-opacity:0.1; fill:none" points="260.725,267.866 2352.76,267.866 "/>
<polyline clip-path="url(#clip180)" style="stroke:#000000; stroke-linecap:round; stroke-linejoin:round; stroke-width:4; stroke-opacity:1; fill:none" points="260.725,1423.57 2352.76,1423.57 "/>
<polyline clip-path="url(#clip180)" style="stroke:#000000; stroke-linecap:round; stroke-linejoin:round; stroke-width:4; stroke-opacity:1; fill:none" points="315.257,1423.57 315.257,1404.67 "/>
<polyline clip-path="url(#clip180)" style="stroke:#000000; stroke-linecap:round; stroke-linejoin:round; stroke-width:4; stroke-opacity:1; fill:none" points="666.017,1423.57 666.017,1404.67 "/>
<polyline clip-path="url(#clip180)" style="stroke:#000000; stroke-linecap:round; stroke-linejoin:round; stroke-width:4; stroke-opacity:1; fill:none" points="1016.78,1423.57 1016.78,1404.67 "/>
<polyline clip-path="url(#clip180)" style="stroke:#000000; stroke-linecap:round; stroke-linejoin:round; stroke-width:4; stroke-opacity:1; fill:none" points="1367.54,1423.57 1367.54,1404.67 "/>
<polyline clip-path="url(#clip180)" style="stroke:#000000; stroke-linecap:round; stroke-linejoin:round; stroke-width:4; stroke-opacity:1; fill:none" points="1718.3,1423.57 1718.3,1404.67 "/>
<polyline clip-path="url(#clip180)" style="stroke:#000000; stroke-linecap:round; stroke-linejoin:round; stroke-width:4; stroke-opacity:1; fill:none" points="2069.06,1423.57 2069.06,1404.67 "/>
<g clip-path="url(#clip180)">
<text style="fill:#000000; fill-opacity:1; font-family:Courier,Courier New,Lucida Sans Typewriter,Lucida Typewriter,monospace; font-size:60px; text-anchor:middle;" transform="rotate(0, 315.257, 1486.07)" x="315.257" y="1486.07">0.0</text>
</g>
<g clip-path="url(#clip180)">
<text style="fill:#000000; fill-opacity:1; font-family:Courier,Courier New,Lucida Sans Typewriter,Lucida Typewriter,monospace; font-size:60px; text-anchor:middle;" transform="rotate(0, 666.017, 1486.07)" x="666.017" y="1486.07">2.5</text>
</g>
<g clip-path="url(#clip180)">
<text style="fill:#000000; fill-opacity:1; font-family:Courier,Courier New,Lucida Sans Typewriter,Lucida Typewriter,monospace; font-size:60px; text-anchor:middle;" transform="rotate(0, 1016.78, 1486.07)" x="1016.78" y="1486.07">5.0</text>
</g>
<g clip-path="url(#clip180)">
<text style="fill:#000000; fill-opacity:1; font-family:Courier,Courier New,Lucida Sans Typewriter,Lucida Typewriter,monospace; font-size:60px; text-anchor:middle;" transform="rotate(0, 1367.54, 1486.07)" x="1367.54" y="1486.07">7.5</text>
</g>
<g clip-path="url(#clip180)">
<text style="fill:#000000; fill-opacity:1; font-family:Courier,Courier New,Lucida Sans Typewriter,Lucida Typewriter,monospace; font-size:60px; text-anchor:middle;" transform="rotate(0, 1718.3, 1486.07)" x="1718.3" y="1486.07">10.0</text>
</g>
<g clip-path="url(#clip180)">
<text style="fill:#000000; fill-opacity:1; font-family:Courier,Courier New,Lucida Sans Typewriter,Lucida Typewriter,monospace; font-size:60px; text-anchor:middle;" transform="rotate(0, 2069.06, 1486.07)" x="2069.06" y="1486.07">12.5</text>
</g>
<g clip-path="url(#clip180)">
<text style="fill:#000000; fill-opacity:1; font-family:Courier,Courier New,Lucida Sans Typewriter,Lucida Typewriter,monospace; font-size:82px; text-anchor:middle;" transform="rotate(0, 1306.74, 1572.51)" x="1306.74" y="1572.51">Time (Frame)</text>
</g>
<polyline clip-path="url(#clip180)" style="stroke:#000000; stroke-linecap:round; stroke-linejoin:round; stroke-width:4; stroke-opacity:1; fill:none" points="260.725,1423.57 260.725,123.185 "/>
<polyline clip-path="url(#clip180)" style="stroke:#000000; stroke-linecap:round; stroke-linejoin:round; stroke-width:4; stroke-opacity:1; fill:none" points="260.725,1421.23 279.623,1421.23 "/>
<polyline clip-path="url(#clip180)" style="stroke:#000000; stroke-linecap:round; stroke-linejoin:round; stroke-width:4; stroke-opacity:1; fill:none" points="260.725,1229 279.623,1229 "/>
<polyline clip-path="url(#clip180)" style="stroke:#000000; stroke-linecap:round; stroke-linejoin:round; stroke-width:4; stroke-opacity:1; fill:none" points="260.725,1036.78 279.623,1036.78 "/>
<polyline clip-path="url(#clip180)" style="stroke:#000000; stroke-linecap:round; stroke-linejoin:round; stroke-width:4; stroke-opacity:1; fill:none" points="260.725,844.548 279.623,844.548 "/>
<polyline clip-path="url(#clip180)" style="stroke:#000000; stroke-linecap:round; stroke-linejoin:round; stroke-width:4; stroke-opacity:1; fill:none" points="260.725,652.321 279.623,652.321 "/>
<polyline clip-path="url(#clip180)" style="stroke:#000000; stroke-linecap:round; stroke-linejoin:round; stroke-width:4; stroke-opacity:1; fill:none" points="260.725,460.093 279.623,460.093 "/>
<polyline clip-path="url(#clip180)" style="stroke:#000000; stroke-linecap:round; stroke-linejoin:round; stroke-width:4; stroke-opacity:1; fill:none" points="260.725,267.866 279.623,267.866 "/>
<g clip-path="url(#clip180)">
<text style="fill:#000000; fill-opacity:1; font-family:Courier,Courier New,Lucida Sans Typewriter,Lucida Typewriter,monospace; font-size:60px; text-anchor:middle;" transform="rotate(0, 206.277, 1438.73)" x="206.277" y="1438.73">0</text>
</g>
<g clip-path="url(#clip180)">
<text style="fill:#000000; fill-opacity:1; font-family:Courier,Courier New,Lucida Sans Typewriter,Lucida Typewriter,monospace; font-size:60px; text-anchor:middle;" transform="rotate(0, 187.828, 1246.5)" x="187.828" y="1246.5">20</text>
</g>
<g clip-path="url(#clip180)">
<text style="fill:#000000; fill-opacity:1; font-family:Courier,Courier New,Lucida Sans Typewriter,Lucida Typewriter,monospace; font-size:60px; text-anchor:middle;" transform="rotate(0, 187.828, 1054.28)" x="187.828" y="1054.28">40</text>
</g>
<g clip-path="url(#clip180)">
<text style="fill:#000000; fill-opacity:1; font-family:Courier,Courier New,Lucida Sans Typewriter,Lucida Typewriter,monospace; font-size:60px; text-anchor:middle;" transform="rotate(0, 187.828, 862.048)" x="187.828" y="862.048">60</text>
</g>
<g clip-path="url(#clip180)">
<text style="fill:#000000; fill-opacity:1; font-family:Courier,Courier New,Lucida Sans Typewriter,Lucida Typewriter,monospace; font-size:60px; text-anchor:middle;" transform="rotate(0, 187.828, 669.821)" x="187.828" y="669.821">80</text>
</g>
<g clip-path="url(#clip180)">
<text style="fill:#000000; fill-opacity:1; font-family:Courier,Courier New,Lucida Sans Typewriter,Lucida Typewriter,monospace; font-size:60px; text-anchor:middle;" transform="rotate(0, 169.38, 477.593)" x="169.38" y="477.593">100</text>
</g>
<g clip-path="url(#clip180)">
<text style="fill:#000000; fill-opacity:1; font-family:Courier,Courier New,Lucida Sans Typewriter,Lucida Typewriter,monospace; font-size:60px; text-anchor:middle;" transform="rotate(0, 169.38, 285.366)" x="169.38" y="285.366">120</text>
</g>
<g clip-path="url(#clip180)">
<text style="fill:#000000; fill-opacity:1; font-family:Courier,Courier New,Lucida Sans Typewriter,Lucida Typewriter,monospace; font-size:82px; text-anchor:middle;" transform="rotate(-90, 64.6929, 773.377)" x="64.6929" y="773.377">Joint Angle (Degrees)</text>
</g>
<g clip-path="url(#clip180)">
<text style="fill:#000000; fill-opacity:1; font-family:Courier,Courier New,Lucida Sans Typewriter,Lucida Typewriter,monospace; font-size:105px; text-anchor:middle;" transform="rotate(0, 1306.74, 73.2)" x="1306.74" y="73.2">Joint Angles Over Time</text>
</g>
<polyline clip-path="url(#clip182)" style="stroke:#ff4747; stroke-linecap:round; stroke-linejoin:round; stroke-width:8; stroke-opacity:1; fill:none" points="319.933,1386.77 324.61,1369.7 329.287,1359.1 333.964,1340.82 338.641,1325.87 343.318,1299.67 347.994,1275.11 352.671,1257.35 357.348,1227.82 362.025,1203.03 366.702,1188.91 371.378,1184.04 376.055,1193.49 380.732,1197.09 385.409,1206.64 390.086,1214.62 394.762,1203.37 399.439,1186.68 404.116,1162.64 408.793,1139.84 413.47,1126.41 418.147,1119.57 422.823,1123.73 427.5,1133.86 432.177,1149.76 436.854,1174.03 441.531,1201.45 446.207,1203.61 450.884,1190.99 455.561,1170.21 460.238,1134.94 464.915,1083.66 469.591,1045.58 474.268,1031.54 478.945,1050.17 483.622,1049.72 488.299,1044.26 492.975,1046.81 497.652,1035.76 502.329,1007.62 507.006,987.868 511.683,987.772 516.36,988.665 521.036,968.109 525.713,946.428 530.39,941.828 535.067,920.538 539.744,899.576 544.42,901.363 549.097,930.061 553.774,954.941 558.451,982.064 563.128,1011.43 567.804,1040.89 572.481,1045.59 577.158,1045.87 581.835,1046.89 586.512,1048.31 591.188,1035.79 595.865,1021.56 600.542,1018.43 605.219,1000.8 609.896,973.066 614.573,954.793 619.249,946.351 623.926,937.743 628.603,932.643 633.28,943.188 637.957,971.409 642.633,984.383 647.31,993.644 651.987,1005.53 656.664,1020.77 661.341,1003.51 666.017,995.776 670.694,965.682 675.371,955.718 680.048,905.331 684.725,869.668 689.402,848.261 694.078,875.213 698.755,915.813 703.432,1006.51 708.109,1097.75 712.786,1199.69 717.462,1239.34 722.139,1256.95 726.816,1234.03 731.493,1201.2 736.17,1167.88 740.846,1157.37 745.523,1166.61 750.2,1210.67 754.877,1191.89 759.554,1188.81 764.23,1154.6 768.907,1036.09 773.584,912.962 778.261,776.617 782.938,698.721 787.615,686.716 792.291,662.846 796.968,733.864 801.645,799.945 806.322,817.119 810.999,850.246 815.675,864.436 820.352,903.428 825.029,953.867 829.706,983.162 834.383,1005.59 839.059,1006.82 843.736,998.083 848.413,1005.58 853.09,1023.73 857.767,1045.39 862.443,1070.99 867.12,1081.06 871.797,1081.02 876.474,1072.64 881.151,1068.94 885.828,1075.38 890.504,1081.45 895.181,1076.53 899.858,1060.82 904.535,1044.45 909.212,1017.87 913.888,995.374 918.565,982.36 923.242,980.546 927.919,974.626 932.596,974.398 937.272,986.429 941.949,1010.74 946.626,1031.94 951.303,1050.62 955.98,1047.99 960.657,1042.44 965.333,1032.04 970.01,1030.35 974.687,1040.91 979.364,1066.8 984.041,1112.72 988.717,1160.63 993.394,1193.17 998.071,1223.55 1002.75,1245.13 1007.42,1248.54 1012.1,1240.04 1016.78,1219.16 1021.46,1215.83 1026.13,1213.43 1030.81,1215.95 1035.49,1208.92 1040.16,1197.36 1044.84,1175.32 1049.52,1148.11 1054.19,1096.6 1058.87,1062.61 1063.55,1047.62 1068.22,1050.4 1072.9,1053.3 1077.58,1055.89 1082.25,1050.81 1086.93,1041.06 1091.61,1010.9 1096.28,995.884 1100.96,1001.78 1105.64,1015.23 1110.31,1029.96 1114.99,1039.24 1119.67,1041.7 1124.34,1047.36 1129.02,1050.61 1133.7,1061.7 1138.38,1072.33 1143.05,1073.23 1147.73,1064.14 1152.41,1045.27 1157.08,1020.61 1161.76,1001.82 1166.44,988.457 1171.11,982.677 1175.79,980.939 1180.47,980.348 1185.14,977.567 1189.82,972.479 1194.5,961.507 1199.17,952.051 1203.85,947.811 1208.53,950.961 1213.2,963.031 1217.88,980.007 1222.56,978.313 1227.23,983.117 1231.91,960.159 1236.59,935.932 1241.27,942.032 1245.94,985.914 1250.62,1048.76 1255.3,1117.05 1259.97,1171.49 1264.65,1226.96 1269.33,1239.5 1274,1232.91 1278.68,1227.97 1283.36,1226.09 1288.03,1219.19 1292.71,1215.15 1297.39,1218.18 1302.06,1252.92 1306.74,1181.85 1311.42,1054.06 1316.09,943.485 1320.77,857.042 1325.45,783.642 1330.12,762.881 1334.8,794.776 1339.48,862.38 1344.15,858.227 1348.83,868.277 1353.51,912.68 1358.19,947.081 1362.86,954.037 1367.54,963.973 1372.22,965.147 1376.89,954.271 1381.57,949.495 1386.25,965.01 1390.92,981.901 1395.6,991.044 1400.28,1000.5 1404.95,1013.99 1409.63,1027.41 1414.31,1031.32 1418.98,1026.13 1423.66,1025.71 1428.34,1013.1 1433.01,997.269 1437.69,974.926 1442.37,950.477 1447.04,925.787 1451.72,904.313 1456.4,890.516 1461.08,885.927 1465.75,887.844 1470.43,905.425 1475.11,913.639 1479.78,915.747 1484.46,913.504 1489.14,922.973 1493.81,927.126 1498.49,924.961 1503.17,919.449 1507.84,924.701 1512.52,954.573 1517.2,1022.67 1521.87,974.342 1526.55,966.961 1531.23,978.16 1535.9,999.928 1540.58,1032.41 1545.26,1084.99 1549.93,1157.49 1554.61,1225.34 1559.29,1169.03 1563.97,1156.7 1568.64,1210.38 1573.32,1185.9 1578,1058.61 1582.67,940.301 1587.35,847.966 1592.03,816.817 1596.7,775.886 1601.38,815.332 1606.06,962.064 1610.73,1020.96 1615.41,1006.47 1620.09,1025.48 1624.76,1041.98 1629.44,1049.06 1634.12,997.301 1638.79,987.653 1643.47,989.835 1648.15,983.66 1652.82,974.327 1657.5,972.714 1662.18,968.306 1666.85,967.355 1671.53,981.423 1676.21,1008.92 1680.89,1038.07 1685.56,1064.62 1690.24,1077.71 1694.92,1072.59 1699.59,1051.93 1704.27,1023.65 1708.95,996.643 1713.62,983.495 1718.3,983.168 1722.98,990.475 1727.65,998.315 1732.33,1001.42 1737.01,1001.79 1741.68,994.763 1746.36,978.855 1751.04,968.968 1755.71,958.963 1760.39,944.655 1765.07,931.581 1769.74,927.666 1774.42,936.849 1779.1,936.954 1783.78,937.237 1788.45,937.644 1793.13,942.497 1797.81,957.36 1802.48,963.457 1807.16,989.458 1811.84,1040.12 1816.51,1090.86 1821.19,1135.54 1825.87,1165.33 1830.54,1184.77 1835.22,1193.37 1839.9,1172.4 1844.57,1163.82 1849.25,1167.8 1853.93,1174.42 1858.6,1213.14 1863.28,1205.97 1867.96,1169.7 1872.63,1077.42 1877.31,949.733 1881.99,823.901 1886.66,764.001 1891.34,764.245 1896.02,823.187 1900.7,872.751 1905.37,939.653 1910.05,970.308 1914.73,975.416 1919.4,974.013 1924.08,995.366 1928.76,1004.06 1933.43,991.405 1938.11,987.246 1942.79,990.632 1947.46,999.522 1952.14,1015.31 1956.82,1029 1961.49,1028.86 1966.17,1022.84 1970.85,1017.7 1975.52,1019.78 1980.2,1018.56 1984.88,1014.97 1989.55,1003.96 1994.23,981.356 1998.91,953.05 2003.59,929.201 2008.26,914.431 2012.94,919.834 2017.62,932.042 2022.29,950.956 2026.97,956.233 2031.65,958.141 2036.32,947.385 2041,926.05 2045.68,916.433 2050.35,922.199 2055.03,960.719 2059.71,982.492 2064.38,903.589 2069.06,814.84 2073.74,768.403 2078.41,757.221 2083.09,818.704 2087.77,938.059 2092.44,1105.18 2097.12,1218.24 2101.8,1232.98 2106.48,1226.97 2111.15,1223.58 2115.83,1200.9 2120.51,1186.44 2125.18,1175.97 2129.86,1171.14 2134.54,1163.46 2139.21,1175.44 2143.89,1162.31 2148.57,1125.82 2153.24,1059.36 2157.92,1010.41 2162.6,984.589 2167.27,991.031 2171.95,1014.4 2176.63,1052.97 2181.3,1065.22 2185.98,1056.69 2190.66,1030.53 2195.33,1026.33 2200.01,1033.34 2204.69,1048.19 2209.36,1054.01 2214.04,1052.76 2218.72,1042.94 2223.4,1032.35 2228.07,1024.79 2232.75,1009.57 2237.43,1009.37 2242.1,1005.6 2246.78,994.082 2251.46,979.11 2256.13,959.661 2260.81,946.858 2265.49,936.094 2270.16,930.06 2274.84,946.996 2279.52,962.419 2284.19,973.324 2288.87,980.449 2293.55,986.631 "/>
<polyline clip-path="url(#clip182)" style="stroke:#00bcb4; stroke-linecap:round; stroke-linejoin:round; stroke-width:8; stroke-opacity:1; fill:none" points="319.933,1243.52 324.61,1237.78 329.287,1245.95 333.964,1230.17 338.641,1200 343.318,1153.91 347.994,1113.87 352.671,1087.01 357.348,1032.59 362.025,981.138 366.702,950.094 371.378,932.973 376.055,925.935 380.732,920.875 385.409,925.304 390.086,932.709 394.762,911.527 399.439,879.483 404.116,845.781 408.793,815.156 413.47,791.915 418.147,789.309 422.823,800.49 427.5,819.998 432.177,832.154 436.854,838.375 441.531,845.916 446.207,830.256 450.884,804.284 455.561,782.166 460.238,742.423 464.915,690.943 469.591,658.229 474.268,649.868 478.945,672.018 483.622,682.757 488.299,690.248 492.975,704.494 497.652,699.225 502.329,678.576 507.006,671.109 511.683,675.15 516.36,671.596 521.036,642.274 525.713,608.374 530.39,587.974 535.067,560.666 539.744,544.179 544.42,550.568 549.097,580.112 553.774,604.074 558.451,622.852 563.128,639.243 567.804,647.457 572.481,634.675 577.158,622.261 581.835,608.977 586.512,601.009 591.188,590.699 595.865,582.333 600.542,580.77 605.219,559.549 609.896,527.567 614.573,497.32 619.249,472.413 623.926,449.912 628.603,438.118 633.28,443.617 637.957,465.623 642.633,476.077 647.31,489.053 651.987,501.704 656.664,524.324 661.341,521.248 666.017,531.608 670.694,511.024 675.371,470.037 680.048,427.278 684.725,375.316 689.402,362.176 694.078,404.444 698.755,467.767 703.432,565.024 708.109,628.59 712.786,671.426 717.462,690.763 722.139,666.733 726.816,645.138 731.493,625.891 736.17,609.997 740.846,607.28 745.523,615.313 750.2,637.891 754.877,659.174 759.554,667.675 764.23,698.264 768.907,681.918 773.584,625.735 778.261,537.321 782.938,455.292 787.615,381.123 792.291,315.651 796.968,296.257 801.645,333.646 806.322,354.846 810.999,390.503 815.675,428.219 820.352,475.719 825.029,514.801 829.706,537.602 834.383,556.694 839.059,552.787 843.736,538.003 848.413,537.977 853.09,544.772 857.767,546.573 862.443,548.369 867.12,548.516 871.797,545.874 876.474,539.501 881.151,537.742 885.828,545.727 890.504,549.419 895.181,540.785 899.858,521.476 904.535,500.427 909.212,471.418 913.888,448.182 918.565,434.543 923.242,432.266 927.919,431.216 932.596,440.972 937.272,457.872 941.949,486.185 946.626,508.665 951.303,535.144 955.98,525.543 960.657,508.806 965.333,490.084 970.01,490.774 974.687,510.154 979.364,546.378 984.041,595.608 988.717,649.453 993.394,668.136 998.071,678.618 1002.75,676.535 1007.42,669.234 1012.1,660.858 1016.78,639.999 1021.46,624.633 1026.13,618.872 1030.81,624.423 1035.49,637.197 1040.16,655.304 1044.84,666.528 1049.52,673.553 1054.19,655.417 1058.87,633.708 1063.55,619.415 1068.22,611.409 1072.9,604.685 1077.58,598.28 1082.25,585.541 1086.93,579.75 1091.61,563.424 1096.28,555.627 1100.96,561.572 1105.64,571.747 1110.31,577.016 1114.99,576.519 1119.67,567.348 1124.34,559.758 1129.02,548.501 1133.7,546.01 1138.38,547.276 1143.05,543.415 1147.73,526.613 1152.41,498.934 1157.08,470.405 1161.76,446.792 1166.44,433.218 1171.11,432.892 1175.79,436.984 1180.47,441.751 1185.14,441.064 1189.82,435.064 1194.5,429.42 1199.17,423.14 1203.85,424.567 1208.53,435.312 1213.2,458.178 1217.88,491.915 1222.56,493.01 1227.23,491.939 1231.91,461.26 1236.59,412.155 1241.27,390.205 1245.94,407.808 1250.62,462.429 1255.3,541.267 1259.97,601.357 1264.65,658.407 1269.33,679.432 1274,674.055 1278.68,667.857 1283.36,671.03 1288.03,667.215 1292.71,661.212 1297.39,655.123 1302.06,646.742 1306.74,634.358 1311.42,630.745 1316.09,617.211 1320.77,601.377 1325.45,559.017 1330.12,514.55 1334.8,468.884 1339.48,421.169 1344.15,396.559 1348.83,421.403 1353.51,459.113 1358.19,498.774 1362.86,522.748 1367.54,544.137 1372.22,545.701 1376.89,523.449 1381.57,509.057 1386.25,513.286 1390.92,516.475 1395.6,513.66 1400.28,505.566 1404.95,503.243 1409.63,501.649 1414.31,493.996 1418.98,483.023 1423.66,479.573 1428.34,473.222 1433.01,467.204 1437.69,455.002 1442.37,440.203 1447.04,422.006 1451.72,403.883 1456.4,387.725 1461.08,378.572 1465.75,378.507 1470.43,384.256 1475.11,387.607 1479.78,393.174 1484.46,404.692 1489.14,422.162 1493.81,436.47 1498.49,429.135 1503.17,424.947 1507.84,412.548 1512.52,425.358 1517.2,469.208 1521.87,524.259 1526.55,581.982 1531.23,625.213 1535.9,637.167 1540.58,642.295 1545.26,629.293 1549.93,626.801 1554.61,637.416 1559.29,637.807 1563.97,630.043 1568.64,626.991 1573.32,627.695 1578,618.224 1582.67,604.633 1587.35,600.969 1592.03,614.106 1596.7,580.053 1601.38,554.689 1606.06,556.959 1610.73,551.238 1615.41,530.225 1620.09,523.662 1624.76,536.14 1629.44,551.214 1634.12,542.196 1638.79,559.928 1643.47,581.103 1648.15,578.186 1652.82,563.184 1657.5,546.868 1662.18,526.332 1666.85,507.263 1671.53,506.509 1676.21,512.64 1680.89,525.582 1685.56,541.228 1690.24,552.437 1694.92,550.621 1699.59,534.416 1704.27,510.006 1708.95,484.448 1713.62,470.037 1718.3,465.677 1722.98,467.068 1727.65,470.418 1732.33,471.297 1737.01,468.349 1741.68,460.459 1746.36,446.645 1751.04,439.619 1755.71,435.668 1760.39,432.514 1765.07,437.769 1769.74,444.468 1774.42,462.385 1779.1,453.135 1783.78,438.169 1788.45,416.06 1793.13,395.422 1797.81,405.727 1802.48,443.488 1807.16,496.28 1811.84,565.92 1816.51,609.956 1821.19,642.495 1825.87,650.619 1830.54,644.864 1835.22,649.146 1839.9,649.65 1844.57,652.667 1849.25,651.551 1853.93,641.935 1858.6,636.303 1863.28,632.207 1867.96,627.416 1872.63,628.975 1877.31,617.709 1881.99,584.279 1886.66,561.246 1891.34,530.152 1896.02,496.63 1900.7,474.648 1905.37,479.737 1910.05,504.939 1914.73,527.902 1919.4,540.786 1924.08,570.024 1928.76,574.911 1933.43,554.889 1938.11,541.212 1942.79,534.866 1947.46,529.833 1952.14,530.242 1956.82,528.714 1961.49,520.766 1966.17,509.017 1970.85,497.069 1975.52,495.465 1980.2,491.293 1984.88,484.238 1989.55,470.006 1994.23,449.448 1998.91,424.89 2003.59,404.889 2008.26,389.495 2012.94,392.296 2017.62,401.241 2022.29,418.495 2026.97,426.781 2031.65,433.412 2036.32,428.303 2041,426.547 2045.68,417.819 2050.35,429.913 2055.03,422.168 2059.71,414.714 2064.38,388.219 2069.06,365.834 2073.74,372.464 2078.41,422.579 2083.09,490.883 2087.77,577.59 2092.44,631.128 2097.12,664.394 2101.8,668.033 2106.48,651.892 2111.15,646.771 2115.83,648.325 2120.51,641.658 2125.18,628.43 2129.86,618.775 2134.54,618.029 2139.21,628.159 2143.89,640.869 2148.57,646.503 2153.24,627.993 2157.92,611.443 2162.6,594.823 2167.27,589.13 2171.95,587.363 2176.63,589.049 2181.3,591.4 2185.98,581.042 2190.66,560.01 2195.33,561.468 2200.01,566.815 2204.69,570.549 2209.36,567.648 2214.04,556.952 2218.72,539.034 2223.4,519.263 2228.07,503.45 2232.75,484.554 2237.43,481.582 2242.1,479.039 2246.78,469.44 2251.46,452.774 2256.13,432.309 2260.81,414.919 2265.49,399.476 2270.16,388.535 2274.84,401.085 2279.52,415.465 2284.19,423.714 2288.87,426.559 2293.55,428.407 "/>
<polyline clip-path="url(#clip182)" style="stroke:#ffb547; stroke-linecap:round; stroke-linejoin:round; stroke-width:8; stroke-opacity:1; fill:none" points="319.933,1016.3 324.61,1082.64 329.287,1097.4 333.964,1106.32 338.641,1095.78 343.318,1072.94 347.994,1043.81 352.671,1014.32 357.348,1022.41 362.025,1022.52 366.702,1028.74 371.378,1036.52 376.055,1043.69 380.732,1046.88 385.409,1039.08 390.086,1031.47 394.762,1019.29 399.439,1012.44 404.116,1008.41 408.793,1002.81 413.47,998.902 418.147,993.007 422.823,983.013 427.5,977.475 432.177,973.513 436.854,975.937 441.531,973.754 446.207,974.352 450.884,980.714 455.561,982.029 460.238,983.713 464.915,988.419 469.591,994.362 474.268,998.687 478.945,1000.12 483.622,1003.42 488.299,1007.7 492.975,1008.32 497.652,1006.36 502.329,1006.06 507.006,990.392 511.683,957.009 516.36,922.351 521.036,895.317 525.713,886.754 530.39,887.63 535.067,892.534 539.744,900.711 544.42,904.085 549.097,907.564 553.774,914.861 558.451,917.155 563.128,927.808 567.804,930.649 572.481,923.663 577.158,911.066 581.835,904.657 586.512,894.895 591.188,883.194 595.865,867.641 600.542,864.9 605.219,865.204 609.896,869.701 614.573,879.934 619.249,890.841 623.926,893.821 628.603,894.888 633.28,898.987 637.957,901.923 642.633,904.046 647.31,909.981 651.987,913.829 656.664,916.409 661.341,913.563 666.017,913.406 670.694,904.143 675.371,874.497 680.048,837.283 684.725,823.023 689.402,792.371 694.078,806.22 698.755,786.174 703.432,735.696 708.109,665.04 712.786,592.694 717.462,544.114 722.139,531.372 726.816,545.469 731.493,638.923 736.17,711.286 740.846,686.923 745.523,631.265 750.2,594.882 754.877,509.121 759.554,496.361 764.23,479.223 768.907,543.824 773.584,631.474 778.261,670.097 782.938,724.065 787.615,780.835 792.291,759.474 796.968,791.572 801.645,756.77 806.322,771.606 810.999,783.175 815.675,806.007 820.352,843.738 825.029,868.293 829.706,883.705 834.383,897.665 839.059,903.72 843.736,913.565 848.413,913.999 853.09,916.145 857.767,914.617 862.443,907.393 867.12,914.262 871.797,911.802 876.474,912.635 881.151,912.118 885.828,913.47 890.504,919.724 895.181,917.714 899.858,914.94 904.535,915.606 909.212,916.959 913.888,922.365 918.565,922.877 923.242,930.669 927.919,935.635 932.596,941.5 937.272,943.057 941.949,943.435 946.626,937.28 951.303,924.899 955.98,905.366 960.657,883.654 965.333,823.139 970.01,785.639 974.687,735.351 979.364,696.351 984.041,665.042 988.717,578.388 993.394,513.55 998.071,495.852 1002.75,495.691 1007.42,537.284 1012.1,558.907 1016.78,638.303 1021.46,657.904 1026.13,557.152 1030.81,446.505 1035.49,395.923 1040.16,408.832 1044.84,468.514 1049.52,549.853 1054.19,687.299 1058.87,760.046 1063.55,801.749 1068.22,774.882 1072.9,752.514 1077.58,743.313 1082.25,745.841 1086.93,752.704 1091.61,769.807 1096.28,796.55 1100.96,847.906 1105.64,864.67 1110.31,876.048 1114.99,884.008 1119.67,887.734 1124.34,895.759 1129.02,896.792 1133.7,901.009 1138.38,904.967 1143.05,907.171 1147.73,907.136 1152.41,910.369 1157.08,909.586 1161.76,911.621 1166.44,909.919 1171.11,916.339 1175.79,923.856 1180.47,933.08 1185.14,937.976 1189.82,937.156 1194.5,932.747 1199.17,930.383 1203.85,928.35 1208.53,921.847 1213.2,918.948 1217.88,908.909 1222.56,893.832 1227.23,871.724 1231.91,840.871 1236.59,799.909 1241.27,772.561 1245.94,734.852 1250.62,693.463 1255.3,615.557 1259.97,555.911 1264.65,520.728 1269.33,443.077 1274,366.405 1278.68,329.832 1283.36,281.989 1288.03,195.154 1292.71,172.136 1297.39,217.534 1302.06,317.491 1306.74,410.274 1311.42,499.006 1316.09,615.419 1320.77,690.835 1325.45,717.925 1330.12,801.322 1334.8,827.843 1339.48,827.029 1344.15,824.518 1348.83,793.168 1353.51,788.996 1358.19,784.567 1362.86,799.968 1367.54,846.433 1372.22,864.555 1376.89,873.106 1381.57,892.834 1386.25,908.646 1390.92,910.842 1395.6,904.091 1400.28,899.251 1404.95,900.895 1409.63,897.252 1414.31,894.51 1418.98,894.979 1423.66,897.137 1428.34,898.94 1433.01,904.083 1437.69,909.295 1442.37,915.705 1447.04,924.547 1451.72,934.219 1456.4,940.702 1461.08,941.682 1465.75,941.304 1470.43,939.802 1475.11,934.551 1479.78,933.048 1484.46,929.815 1489.14,924.31 1493.81,905.323 1498.49,869.312 1503.17,829.264 1507.84,781.262 1512.52,728.984 1517.2,692.642 1521.87,657.803 1526.55,655.17 1531.23,616.175 1535.9,558.98 1540.58,478.486 1545.26,395.67 1549.93,300.045 1554.61,239.747 1559.29,199.81 1563.97,200.553 1568.64,159.988 1573.32,185.471 1578,267.097 1582.67,392.608 1587.35,503.883 1592.03,625.153 1596.7,719.907 1601.38,760.72 1606.06,728.896 1610.73,721.69 1615.41,723.432 1620.09,727.958 1624.76,729.88 1629.44,749.17 1634.12,790.542 1638.79,834.614 1643.47,862.936 1648.15,882.411 1652.82,892.352 1657.5,900.659 1662.18,903.235 1666.85,903.789 1671.53,910.511 1676.21,914.949 1680.89,915.329 1685.56,916.433 1690.24,921.626 1694.92,927.257 1699.59,935.747 1704.27,942.006 1708.95,945.423 1713.62,941.452 1718.3,938.415 1722.98,935.702 1727.65,933.373 1732.33,933.035 1737.01,938.211 1741.68,944.968 1746.36,952.025 1751.04,954.508 1755.71,954.012 1760.39,954.355 1765.07,952.999 1769.74,949.329 1774.42,938.294 1779.1,921.475 1783.78,900.78 1788.45,857.956 1793.13,810.973 1797.81,780.033 1802.48,754.508 1807.16,704.803 1811.84,673.23 1816.51,595.203 1821.19,477.291 1825.87,388.048 1830.54,311.532 1835.22,252.613 1839.9,252.801 1844.57,240.685 1849.25,249.985 1853.93,178.406 1858.6,203.496 1863.28,302.59 1867.96,383.794 1872.63,468.342 1877.31,578.62 1881.99,653.718 1886.66,679.145 1891.34,659.991 1896.02,724.501 1900.7,765.977 1905.37,788.716 1910.05,811.111 1914.73,835.804 1919.4,865.341 1924.08,875.209 1928.76,876.484 1933.43,885.673 1938.11,892.97 1942.79,899.909 1947.46,904.424 1952.14,913.518 1956.82,914.965 1961.49,915.149 1966.17,914.525 1970.85,921.624 1975.52,925.662 1980.2,929.474 1984.88,930.778 1989.55,931.002 1994.23,932.23 1998.91,935.096 2003.59,934.023 2008.26,936.043 2012.94,935.483 2017.62,938.802 2022.29,940.239 2026.97,939.761 2031.65,941.511 2036.32,940.233 2041,935.229 2045.68,934.751 2050.35,938.591 2055.03,915.348 2059.71,867.216 2064.38,803.17 2069.06,746.673 2073.74,726.64 2078.41,697.203 2083.09,688.146 2087.77,698.7 2092.44,662.51 2097.12,589.451 2101.8,472.598 2106.48,358.779 2111.15,281.094 2115.83,212.656 2120.51,196.406 2125.18,185.975 2129.86,203.908 2134.54,232.963 2139.21,320.257 2143.89,429.376 2148.57,531.337 2153.24,627.944 2157.92,701.348 2162.6,713.905 2167.27,719.254 2171.95,722.376 2176.63,760.699 2181.3,789.773 2185.98,807.665 2190.66,825.224 2195.33,841.116 2200.01,855.065 2204.69,867.098 2209.36,878.852 2214.04,879.969 2218.72,891.141 2223.4,913.747 2228.07,929.069 2232.75,934.26 2237.43,935.631 2242.1,934.582 2246.78,926.167 2251.46,919.347 2256.13,913.403 2260.81,919.658 2265.49,922.274 2270.16,923.453 2274.84,925.349 2279.52,929.336 2284.19,935.131 2288.87,938.97 2293.55,942.227 "/>
<path clip-path="url(#clip180)" d="M330.459 372.907 L945.527 372.907 L945.527 166.531 L330.459 166.531  Z" fill="#ffffff" fill-rule="evenodd" fill-opacity="1"/>
<polyline clip-path="url(#clip180)" style="stroke:#000000; stroke-linecap:round; stroke-linejoin:round; stroke-width:4; stroke-opacity:1; fill:none" points="330.459,372.907 945.527,372.907 945.527,166.531 330.459,166.531 330.459,372.907 "/>
<polyline clip-path="url(#clip180)" style="stroke:#ff4747; stroke-linecap:round; stroke-linejoin:round; stroke-width:8; stroke-opacity:1; fill:none" points="353.704,218.125 493.173,218.125 "/>
<g clip-path="url(#clip180)">
<text style="fill:#000000; fill-opacity:1; font-family:Courier,Courier New,Lucida Sans Typewriter,Lucida Typewriter,monospace; font-size:60px; text-anchor:start;" transform="rotate(0, 516.418, 235.625)" x="516.418" y="235.625">Knee Angle</text>
</g>
<polyline clip-path="url(#clip180)" style="stroke:#00bcb4; stroke-linecap:round; stroke-linejoin:round; stroke-width:8; stroke-opacity:1; fill:none" points="353.704,269.719 493.173,269.719 "/>
<g clip-path="url(#clip180)">
<text style="fill:#000000; fill-opacity:1; font-family:Courier,Courier New,Lucida Sans Typewriter,Lucida Typewriter,monospace; font-size:60px; text-anchor:start;" transform="rotate(0, 516.418, 287.219)" x="516.418" y="287.219">Hip Angle</text>
</g>
<polyline clip-path="url(#clip180)" style="stroke:#ffb547; stroke-linecap:round; stroke-linejoin:round; stroke-width:8; stroke-opacity:1; fill:none" points="353.704,321.313 493.173,321.313 "/>
<g clip-path="url(#clip180)">
<text style="fill:#000000; fill-opacity:1; font-family:Courier,Courier New,Lucida Sans Typewriter,Lucida Typewriter,monospace; font-size:60px; text-anchor:start;" transform="rotate(0, 516.418, 338.813)" x="516.418" y="338.813">Elbow Angle</text>
</g>
</svg>
