<?xml version="1.0" encoding="utf-8"?>
<svg xmlns="http://www.w3.org/2000/svg" xmlns:xlink="http://www.w3.org/1999/xlink" width="600" height="400" viewBox="0 0 2400 1600">
<defs>
  <clipPath id="clip130">
    <rect x="0" y="0" width="2400" height="1600"/>
  </clipPath>
</defs>
<path clip-path="url(#clip130)" d="M0 1600 L2400 1600 L2400 0 L0 0  Z" fill="#ffffff" fill-rule="evenodd" fill-opacity="1"/>
<defs>
  <clipPath id="clip131">
    <rect x="480" y="0" width="1681" height="1600"/>
  </clipPath>
</defs>
<path clip-path="url(#clip130)" d="M225.362 1423.18 L2352.76 1423.18 L2352.76 123.472 L225.362 123.472  Z" fill="#ffffff" fill-rule="evenodd" fill-opacity="1"/>
<defs>
  <clipPath id="clip132">
    <rect x="225" y="123" width="2128" height="1301"/>
  </clipPath>
</defs>
<polyline clip-path="url(#clip132)" style="stroke:#000000; stroke-linecap:round; stroke-linejoin:round; stroke-width:2; stroke-opacity:0.1; fill:none" points="280.815,1423.18 280.815,123.472 "/>
<polyline clip-path="url(#clip132)" style="stroke:#000000; stroke-linecap:round; stroke-linejoin:round; stroke-width:2; stroke-opacity:0.1; fill:none" points="637.505,1423.18 637.505,123.472 "/>
<polyline clip-path="url(#clip132)" style="stroke:#000000; stroke-linecap:round; stroke-linejoin:round; stroke-width:2; stroke-opacity:0.1; fill:none" points="994.195,1423.18 994.195,123.472 "/>
<polyline clip-path="url(#clip132)" style="stroke:#000000; stroke-linecap:round; stroke-linejoin:round; stroke-width:2; stroke-opacity:0.1; fill:none" points="1350.89,1423.18 1350.89,123.472 "/>
<polyline clip-path="url(#clip132)" style="stroke:#000000; stroke-linecap:round; stroke-linejoin:round; stroke-width:2; stroke-opacity:0.1; fill:none" points="1707.58,1423.18 1707.58,123.472 "/>
<polyline clip-path="url(#clip132)" style="stroke:#000000; stroke-linecap:round; stroke-linejoin:round; stroke-width:2; stroke-opacity:0.1; fill:none" points="2064.27,1423.18 2064.27,123.472 "/>
<polyline clip-path="url(#clip132)" style="stroke:#000000; stroke-linecap:round; stroke-linejoin:round; stroke-width:2; stroke-opacity:0.1; fill:none" points="225.362,1420.84 2352.76,1420.84 "/>
<polyline clip-path="url(#clip132)" style="stroke:#000000; stroke-linecap:round; stroke-linejoin:round; stroke-width:2; stroke-opacity:0.1; fill:none" points="225.362,1228.71 2352.76,1228.71 "/>
<polyline clip-path="url(#clip132)" style="stroke:#000000; stroke-linecap:round; stroke-linejoin:round; stroke-width:2; stroke-opacity:0.1; fill:none" points="225.362,1036.59 2352.76,1036.59 "/>
<polyline clip-path="url(#clip132)" style="stroke:#000000; stroke-linecap:round; stroke-linejoin:round; stroke-width:2; stroke-opacity:0.1; fill:none" points="225.362,844.46 2352.76,844.46 "/>
<polyline clip-path="url(#clip132)" style="stroke:#000000; stroke-linecap:round; stroke-linejoin:round; stroke-width:2; stroke-opacity:0.1; fill:none" points="225.362,652.333 2352.76,652.333 "/>
<polyline clip-path="url(#clip132)" style="stroke:#000000; stroke-linecap:round; stroke-linejoin:round; stroke-width:2; stroke-opacity:0.1; fill:none" points="225.362,460.205 2352.76,460.205 "/>
<polyline clip-path="url(#clip132)" style="stroke:#000000; stroke-linecap:round; stroke-linejoin:round; stroke-width:2; stroke-opacity:0.1; fill:none" points="225.362,268.078 2352.76,268.078 "/>
<polyline clip-path="url(#clip130)" style="stroke:#000000; stroke-linecap:round; stroke-linejoin:round; stroke-width:4; stroke-opacity:1; fill:none" points="225.362,1423.18 2352.76,1423.18 "/>
<polyline clip-path="url(#clip130)" style="stroke:#000000; stroke-linecap:round; stroke-linejoin:round; stroke-width:4; stroke-opacity:1; fill:none" points="280.815,1423.18 280.815,1404.28 "/>
<polyline clip-path="url(#clip130)" style="stroke:#000000; stroke-linecap:round; stroke-linejoin:round; stroke-width:4; stroke-opacity:1; fill:none" points="637.505,1423.18 637.505,1404.28 "/>
<polyline clip-path="url(#clip130)" style="stroke:#000000; stroke-linecap:round; stroke-linejoin:round; stroke-width:4; stroke-opacity:1; fill:none" points="994.195,1423.18 994.195,1404.28 "/>
<polyline clip-path="url(#clip130)" style="stroke:#000000; stroke-linecap:round; stroke-linejoin:round; stroke-width:4; stroke-opacity:1; fill:none" points="1350.89,1423.18 1350.89,1404.28 "/>
<polyline clip-path="url(#clip130)" style="stroke:#000000; stroke-linecap:round; stroke-linejoin:round; stroke-width:4; stroke-opacity:1; fill:none" points="1707.58,1423.18 1707.58,1404.28 "/>
<polyline clip-path="url(#clip130)" style="stroke:#000000; stroke-linecap:round; stroke-linejoin:round; stroke-width:4; stroke-opacity:1; fill:none" points="2064.27,1423.18 2064.27,1404.28 "/>
<path clip-path="url(#clip130)" d="M271.677 1470.84 Q271.677 1478.55 269.042 1482.3 Q266.407 1486.05 260.805 1486.05 Q255.275 1486.05 252.616 1482.4 Q249.958 1478.72 249.863 1471.43 L249.863 1465.57 Q249.863 1457.95 252.498 1454.25 Q255.132 1450.55 260.758 1450.55 Q266.336 1450.55 268.971 1454.13 Q271.605 1457.69 271.677 1465.14 L271.677 1470.84 M267.285 1464.83 Q267.285 1459.26 265.719 1456.72 Q264.152 1454.15 260.758 1454.15 Q257.387 1454.15 255.845 1456.69 Q254.302 1459.23 254.254 1464.5 L254.254 1471.53 Q254.254 1477.13 255.868 1479.81 Q257.506 1482.47 260.805 1482.47 Q264.057 1482.47 265.624 1479.95 Q267.214 1477.44 267.285 1472.03 L267.285 1464.83 Z" fill="#000000" fill-rule="nonzero" fill-opacity="1" /><path clip-path="url(#clip130)" d="M277.848 1483.28 Q277.848 1482.14 278.513 1481.38 Q279.201 1480.62 280.554 1480.62 Q281.907 1480.62 282.595 1481.38 Q283.307 1482.14 283.307 1483.28 Q283.307 1484.37 282.595 1485.11 Q281.907 1485.84 280.554 1485.84 Q279.201 1485.84 278.513 1485.11 Q277.848 1484.37 277.848 1483.28 Z" fill="#000000" fill-rule="nonzero" fill-opacity="1" /><path clip-path="url(#clip130)" d="M311.767 1470.84 Q311.767 1478.55 309.132 1482.3 Q306.498 1486.05 300.896 1486.05 Q295.365 1486.05 292.707 1482.4 Q290.049 1478.72 289.954 1471.43 L289.954 1465.57 Q289.954 1457.95 292.588 1454.25 Q295.223 1450.55 300.849 1450.55 Q306.427 1450.55 309.061 1454.13 Q311.696 1457.69 311.767 1465.14 L311.767 1470.84 M307.376 1464.83 Q307.376 1459.26 305.809 1456.72 Q304.243 1454.15 300.849 1454.15 Q297.478 1454.15 295.935 1456.69 Q294.392 1459.23 294.345 1464.5 L294.345 1471.53 Q294.345 1477.13 295.959 1479.81 Q297.597 1482.47 300.896 1482.47 Q304.148 1482.47 305.714 1479.95 Q307.305 1477.44 307.376 1472.03 L307.376 1464.83 Z" fill="#000000" fill-rule="nonzero" fill-opacity="1" /><path clip-path="url(#clip130)" d="M629.186 1485.58 L606.541 1485.58 L606.541 1482.42 L618.504 1469.13 Q621.163 1466.12 622.16 1464.24 Q623.18 1462.34 623.18 1460.32 Q623.18 1457.62 621.542 1455.89 Q619.905 1454.15 617.175 1454.15 Q613.899 1454.15 612.072 1456.03 Q610.268 1457.88 610.268 1461.2 L605.877 1461.2 Q605.877 1456.43 608.938 1453.49 Q612.024 1450.55 617.175 1450.55 Q621.993 1450.55 624.794 1453.08 Q627.595 1455.6 627.595 1459.8 Q627.595 1464.91 621.091 1471.96 L611.834 1482 L629.186 1482 L629.186 1485.58 Z" fill="#000000" fill-rule="nonzero" fill-opacity="1" /><path clip-path="url(#clip130)" d="M634.384 1483.28 Q634.384 1482.14 635.048 1481.38 Q635.737 1480.62 637.09 1480.62 Q638.443 1480.62 639.131 1481.38 Q639.843 1482.14 639.843 1483.28 Q639.843 1484.37 639.131 1485.11 Q638.443 1485.84 637.09 1485.84 Q635.737 1485.84 635.048 1485.11 Q634.384 1484.37 634.384 1483.28 Z" fill="#000000" fill-rule="nonzero" fill-opacity="1" /><path clip-path="url(#clip130)" d="M648.649 1468.25 L650.406 1451.02 L668.113 1451.02 L668.113 1455.08 L654.132 1455.08 L653.088 1464.5 Q655.628 1463.01 658.856 1463.01 Q663.579 1463.01 666.357 1466.14 Q669.134 1469.25 669.134 1474.57 Q669.134 1479.91 666.238 1482.99 Q663.366 1486.05 658.191 1486.05 Q653.61 1486.05 650.714 1483.51 Q647.818 1480.98 647.415 1476.49 L651.569 1476.49 Q651.972 1479.46 653.681 1480.98 Q655.39 1482.47 658.191 1482.47 Q661.253 1482.47 662.986 1480.38 Q664.742 1478.29 664.742 1474.61 Q664.742 1471.15 662.844 1469.06 Q660.968 1466.95 657.835 1466.95 Q654.963 1466.95 653.325 1468.2 L652.162 1469.15 L648.649 1468.25 Z" fill="#000000" fill-rule="nonzero" fill-opacity="1" /><path clip-path="url(#clip130)" d="M964.94 1468.25 L966.697 1451.02 L984.404 1451.02 L984.404 1455.08 L970.423 1455.08 L969.379 1464.5 Q971.919 1463.01 975.147 1463.01 Q979.87 1463.01 982.647 1466.14 Q985.425 1469.25 985.425 1474.57 Q985.425 1479.91 982.529 1482.99 Q979.657 1486.05 974.482 1486.05 Q969.901 1486.05 967.005 1483.51 Q964.109 1480.98 963.706 1476.49 L967.86 1476.49 Q968.263 1479.46 969.972 1480.98 Q971.681 1482.47 974.482 1482.47 Q977.544 1482.47 979.277 1480.38 Q981.033 1478.29 981.033 1474.61 Q981.033 1471.15 979.134 1469.06 Q977.259 1466.95 974.126 1466.95 Q971.254 1466.95 969.616 1468.2 L968.453 1469.15 L964.94 1468.25 Z" fill="#000000" fill-rule="nonzero" fill-opacity="1" /><path clip-path="url(#clip130)" d="M990.765 1483.28 Q990.765 1482.14 991.43 1481.38 Q992.118 1480.62 993.471 1480.62 Q994.824 1480.62 995.512 1481.38 Q996.225 1482.14 996.225 1483.28 Q996.225 1484.37 995.512 1485.11 Q994.824 1485.84 993.471 1485.84 Q992.118 1485.84 991.43 1485.11 Q990.765 1484.37 990.765 1483.28 Z" fill="#000000" fill-rule="nonzero" fill-opacity="1" /><path clip-path="url(#clip130)" d="M1024.68 1470.84 Q1024.68 1478.55 1022.05 1482.3 Q1019.41 1486.05 1013.81 1486.05 Q1008.28 1486.05 1005.62 1482.4 Q1002.97 1478.72 1002.87 1471.43 L1002.87 1465.57 Q1002.87 1457.95 1005.51 1454.25 Q1008.14 1450.55 1013.77 1450.55 Q1019.34 1450.55 1021.98 1454.13 Q1024.61 1457.69 1024.68 1465.14 L1024.68 1470.84 M1020.29 1464.83 Q1020.29 1459.26 1018.73 1456.72 Q1017.16 1454.15 1013.77 1454.15 Q1010.4 1454.15 1008.85 1456.69 Q1007.31 1459.23 1007.26 1464.5 L1007.26 1471.53 Q1007.26 1477.13 1008.88 1479.81 Q1010.51 1482.47 1013.81 1482.47 Q1017.06 1482.47 1018.63 1479.95 Q1020.22 1477.44 1020.29 1472.03 L1020.29 1464.83 Z" fill="#000000" fill-rule="nonzero" fill-opacity="1" /><path clip-path="url(#clip130)" d="M1342.42 1453.49 L1328.11 1485.58 L1323.51 1485.58 L1337.77 1454.63 L1319.07 1454.63 L1319.07 1451.02 L1342.42 1451.02 L1342.42 1453.49 Z" fill="#000000" fill-rule="nonzero" fill-opacity="1" /><path clip-path="url(#clip130)" d="M1347.95 1483.28 Q1347.95 1482.14 1348.62 1481.38 Q1349.31 1480.62 1350.66 1480.62 Q1352.01 1480.62 1352.7 1481.38 Q1353.41 1482.14 1353.41 1483.28 Q1353.41 1484.37 1352.7 1485.11 Q1352.01 1485.84 1350.66 1485.84 Q1349.31 1485.84 1348.62 1485.11 Q1347.95 1484.37 1347.95 1483.28 Z" fill="#000000" fill-rule="nonzero" fill-opacity="1" /><path clip-path="url(#clip130)" d="M1362.22 1468.25 L1363.98 1451.02 L1381.68 1451.02 L1381.68 1455.08 L1367.7 1455.08 L1366.66 1464.5 Q1369.2 1463.01 1372.43 1463.01 Q1377.15 1463.01 1379.93 1466.14 Q1382.7 1469.25 1382.7 1474.57 Q1382.7 1479.91 1379.81 1482.99 Q1376.94 1486.05 1371.76 1486.05 Q1367.18 1486.05 1364.28 1483.51 Q1361.39 1480.98 1360.98 1476.49 L1365.14 1476.49 Q1365.54 1479.46 1367.25 1480.98 Q1368.96 1482.47 1371.76 1482.47 Q1374.82 1482.47 1376.56 1480.38 Q1378.31 1478.29 1378.31 1474.61 Q1378.31 1471.15 1376.41 1469.06 Q1374.54 1466.95 1371.41 1466.95 Q1368.53 1466.95 1366.9 1468.2 L1365.73 1469.15 L1362.22 1468.25 Z" fill="#000000" fill-rule="nonzero" fill-opacity="1" /><path clip-path="url(#clip130)" d="M1676.9 1485.58 L1672.48 1485.58 L1672.48 1456.31 L1663.63 1459.56 L1663.63 1455.58 L1676.21 1450.85 L1676.9 1450.85 L1676.9 1485.58 Z" fill="#000000" fill-rule="nonzero" fill-opacity="1" /><path clip-path="url(#clip130)" d="M1711.43 1470.84 Q1711.43 1478.55 1708.8 1482.3 Q1706.16 1486.05 1700.56 1486.05 Q1695.03 1486.05 1692.37 1482.4 Q1689.71 1478.72 1689.62 1471.43 L1689.62 1465.57 Q1689.62 1457.95 1692.25 1454.25 Q1694.89 1450.55 1700.51 1450.55 Q1706.09 1450.55 1708.73 1454.13 Q1711.36 1457.69 1711.43 1465.14 L1711.43 1470.84 M1707.04 1464.83 Q1707.04 1459.26 1705.47 1456.72 Q1703.91 1454.15 1700.51 1454.15 Q1697.14 1454.15 1695.6 1456.69 Q1694.06 1459.23 1694.01 1464.5 L1694.01 1471.53 Q1694.01 1477.13 1695.62 1479.81 Q1697.26 1482.47 1700.56 1482.47 Q1703.81 1482.47 1705.38 1479.95 Q1706.97 1477.44 1707.04 1472.03 L1707.04 1464.83 Z" fill="#000000" fill-rule="nonzero" fill-opacity="1" /><path clip-path="url(#clip130)" d="M1717.6 1483.28 Q1717.6 1482.14 1718.27 1481.38 Q1718.96 1480.62 1720.31 1480.62 Q1721.66 1480.62 1722.35 1481.38 Q1723.06 1482.14 1723.06 1483.28 Q1723.06 1484.37 1722.35 1485.11 Q1721.66 1485.84 1720.31 1485.84 Q1718.96 1485.84 1718.27 1485.11 Q1717.6 1484.37 1717.6 1483.28 Z" fill="#000000" fill-rule="nonzero" fill-opacity="1" /><path clip-path="url(#clip130)" d="M1751.52 1470.84 Q1751.52 1478.55 1748.89 1482.3 Q1746.25 1486.05 1740.65 1486.05 Q1735.12 1486.05 1732.46 1482.4 Q1729.8 1478.72 1729.71 1471.43 L1729.71 1465.57 Q1729.71 1457.95 1732.34 1454.25 Q1734.98 1450.55 1740.6 1450.55 Q1746.18 1450.55 1748.82 1454.13 Q1751.45 1457.69 1751.52 1465.14 L1751.52 1470.84 M1747.13 1464.83 Q1747.13 1459.26 1745.56 1456.72 Q1744 1454.15 1740.6 1454.15 Q1737.23 1454.15 1735.69 1456.69 Q1734.15 1459.23 1734.1 1464.5 L1734.1 1471.53 Q1734.1 1477.13 1735.71 1479.81 Q1737.35 1482.47 1740.65 1482.47 Q1743.9 1482.47 1745.47 1479.95 Q1747.06 1477.44 1747.13 1472.03 L1747.13 1464.83 Z" fill="#000000" fill-rule="nonzero" fill-opacity="1" /><path clip-path="url(#clip130)" d="M2033.17 1485.58 L2028.76 1485.58 L2028.76 1456.31 L2019.9 1459.56 L2019.9 1455.58 L2032.48 1450.85 L2033.17 1450.85 L2033.17 1485.58 Z" fill="#000000" fill-rule="nonzero" fill-opacity="1" /><path clip-path="url(#clip130)" d="M2068.68 1485.58 L2046.04 1485.58 L2046.04 1482.42 L2058 1469.13 Q2060.66 1466.12 2061.65 1464.24 Q2062.67 1462.34 2062.67 1460.32 Q2062.67 1457.62 2061.04 1455.89 Q2059.4 1454.15 2056.67 1454.15 Q2053.39 1454.15 2051.57 1456.03 Q2049.76 1457.88 2049.76 1461.2 L2045.37 1461.2 Q2045.37 1456.43 2048.43 1453.49 Q2051.52 1450.55 2056.67 1450.55 Q2061.49 1450.55 2064.29 1453.08 Q2067.09 1455.6 2067.09 1459.8 Q2067.09 1464.91 2060.59 1471.96 L2051.33 1482 L2068.68 1482 L2068.68 1485.58 Z" fill="#000000" fill-rule="nonzero" fill-opacity="1" /><path clip-path="url(#clip130)" d="M2073.88 1483.28 Q2073.88 1482.14 2074.54 1481.38 Q2075.23 1480.62 2076.58 1480.62 Q2077.94 1480.62 2078.63 1481.38 Q2079.34 1482.14 2079.34 1483.28 Q2079.34 1484.37 2078.63 1485.11 Q2077.94 1485.84 2076.58 1485.84 Q2075.23 1485.84 2074.54 1485.11 Q2073.88 1484.37 2073.88 1483.28 Z" fill="#000000" fill-rule="nonzero" fill-opacity="1" /><path clip-path="url(#clip130)" d="M2088.14 1468.25 L2089.9 1451.02 L2107.61 1451.02 L2107.61 1455.08 L2093.63 1455.08 L2092.58 1464.5 Q2095.12 1463.01 2098.35 1463.01 Q2103.07 1463.01 2105.85 1466.14 Q2108.63 1469.25 2108.63 1474.57 Q2108.63 1479.91 2105.73 1482.99 Q2102.86 1486.05 2097.69 1486.05 Q2093.1 1486.05 2090.21 1483.51 Q2087.31 1480.98 2086.91 1476.49 L2091.06 1476.49 Q2091.47 1479.46 2093.18 1480.98 Q2094.88 1482.47 2097.69 1482.47 Q2100.75 1482.47 2102.48 1480.38 Q2104.24 1478.29 2104.24 1474.61 Q2104.24 1471.15 2102.34 1469.06 Q2100.46 1466.95 2097.33 1466.95 Q2094.46 1466.95 2092.82 1468.2 L2091.66 1469.15 L2088.14 1468.25 Z" fill="#000000" fill-rule="nonzero" fill-opacity="1" /><path clip-path="url(#clip130)" d="M1127.65 1525.68 L1112.38 1525.68 L1112.38 1568.04 L1106.14 1568.04 L1106.14 1525.68 L1090.9 1525.68 L1090.9 1520.52 L1127.65 1520.52 L1127.65 1525.68 Z" fill="#000000" fill-rule="nonzero" fill-opacity="1" /><path clip-path="url(#clip130)" d="M1140.31 1568.04 L1134.28 1568.04 L1134.28 1532.73 L1140.31 1532.73 L1140.31 1568.04 M1133.79 1523.36 Q1133.79 1521.89 1134.67 1520.88 Q1135.58 1519.87 1137.34 1519.87 Q1139.11 1519.87 1140.02 1520.88 Q1140.93 1521.89 1140.93 1523.36 Q1140.93 1524.83 1140.02 1525.81 Q1139.11 1526.79 1137.34 1526.79 Q1135.58 1526.79 1134.67 1525.81 Q1133.79 1524.83 1133.79 1523.36 Z" fill="#000000" fill-rule="nonzero" fill-opacity="1" /><path clip-path="url(#clip130)" d="M1155.65 1532.73 L1155.82 1536.65 Q1159.7 1532.08 1166.29 1532.08 Q1173.7 1532.08 1176.38 1537.76 Q1178.14 1535.21 1180.95 1533.64 Q1183.79 1532.08 1187.64 1532.08 Q1199.26 1532.08 1199.45 1544.38 L1199.45 1568.04 L1193.42 1568.04 L1193.42 1544.74 Q1193.42 1540.95 1191.69 1539.09 Q1189.96 1537.2 1185.88 1537.2 Q1182.51 1537.2 1180.29 1539.23 Q1178.08 1541.22 1177.72 1544.61 L1177.72 1568.04 L1171.65 1568.04 L1171.65 1544.9 Q1171.65 1537.2 1164.11 1537.2 Q1158.17 1537.2 1155.98 1542.26 L1155.98 1568.04 L1149.94 1568.04 L1149.94 1532.73 L1155.65 1532.73 Z" fill="#000000" fill-rule="nonzero" fill-opacity="1" /><path clip-path="url(#clip130)" d="M1223.21 1568.7 Q1216.03 1568.7 1211.53 1564 Q1207.02 1559.26 1207.02 1551.37 L1207.02 1550.26 Q1207.02 1545 1209.02 1540.89 Q1211.04 1536.74 1214.63 1534.43 Q1218.25 1532.08 1222.46 1532.08 Q1229.35 1532.08 1233.17 1536.61 Q1236.99 1541.15 1236.99 1549.6 L1236.99 1552.12 L1213.06 1552.12 Q1213.19 1557.34 1216.1 1560.57 Q1219.04 1563.77 1223.54 1563.77 Q1226.74 1563.77 1228.96 1562.46 Q1231.18 1561.16 1232.84 1559 L1236.53 1561.88 Q1232.09 1568.7 1223.21 1568.7 M1222.46 1537.04 Q1218.81 1537.04 1216.33 1539.71 Q1213.85 1542.36 1213.26 1547.16 L1230.95 1547.16 L1230.95 1546.7 Q1230.69 1542.1 1228.47 1539.58 Q1226.25 1537.04 1222.46 1537.04 Z" fill="#000000" fill-rule="nonzero" fill-opacity="1" /><path clip-path="url(#clip130)" d="M1260.29 1548.76 Q1260.29 1541.38 1262.25 1534.59 Q1264.24 1527.8 1268.15 1522.25 Q1272.07 1516.71 1276.28 1514.42 L1277.52 1518.4 Q1272.76 1522.06 1269.69 1529.56 Q1266.65 1537.07 1266.36 1546.37 L1266.33 1549.15 Q1266.33 1561.74 1270.93 1571.01 Q1273.7 1576.56 1277.52 1579.7 L1276.28 1583.38 Q1271.94 1580.97 1267.99 1575.29 Q1260.29 1564.19 1260.29 1548.76 Z" fill="#000000" fill-rule="nonzero" fill-opacity="1" /><path clip-path="url(#clip130)" d="M1310.52 1547.06 L1290.58 1547.06 L1290.58 1568.04 L1284.31 1568.04 L1284.31 1520.52 L1313.75 1520.52 L1313.75 1525.68 L1290.58 1525.68 L1290.58 1541.93 L1310.52 1541.93 L1310.52 1547.06 Z" fill="#000000" fill-rule="nonzero" fill-opacity="1" /><path clip-path="url(#clip130)" d="M1337.38 1538.15 Q1336.01 1537.92 1334.41 1537.92 Q1328.47 1537.92 1326.35 1542.98 L1326.35 1568.04 L1320.31 1568.04 L1320.31 1532.73 L1326.18 1532.73 L1326.28 1536.81 Q1329.25 1532.08 1334.7 1532.08 Q1336.46 1532.08 1337.38 1532.53 L1337.38 1538.15 Z" fill="#000000" fill-rule="nonzero" fill-opacity="1" /><path clip-path="url(#clip130)" d="M1364.73 1568.04 Q1364.21 1567 1363.88 1564.32 Q1359.67 1568.7 1353.83 1568.7 Q1348.61 1568.7 1345.24 1565.76 Q1341.92 1562.79 1341.92 1558.25 Q1341.92 1552.74 1346.09 1549.7 Q1350.3 1546.63 1357.91 1546.63 L1363.78 1546.63 L1363.78 1543.86 Q1363.78 1540.69 1361.89 1538.83 Q1360 1536.94 1356.31 1536.94 Q1353.08 1536.94 1350.89 1538.57 Q1348.7 1540.2 1348.7 1542.52 L1342.63 1542.52 Q1342.63 1539.88 1344.49 1537.43 Q1346.39 1534.95 1349.58 1533.51 Q1352.82 1532.08 1356.67 1532.08 Q1362.77 1532.08 1366.23 1535.15 Q1369.69 1538.18 1369.82 1543.53 L1369.82 1559.79 Q1369.82 1564.65 1371.06 1567.52 L1371.06 1568.04 L1364.73 1568.04 M1354.71 1563.44 Q1357.55 1563.44 1360.09 1561.97 Q1362.64 1560.5 1363.78 1558.15 L1363.78 1550.91 L1359.05 1550.91 Q1347.95 1550.91 1347.95 1557.4 Q1347.95 1560.24 1349.85 1561.84 Q1351.74 1563.44 1354.71 1563.44 Z" fill="#000000" fill-rule="nonzero" fill-opacity="1" /><path clip-path="url(#clip130)" d="M1384.96 1532.73 L1385.13 1536.65 Q1389.01 1532.08 1395.6 1532.08 Q1403.01 1532.08 1405.69 1537.76 Q1407.45 1535.21 1410.26 1533.64 Q1413.1 1532.08 1416.95 1532.08 Q1428.57 1532.08 1428.76 1544.38 L1428.76 1568.04 L1422.73 1568.04 L1422.73 1544.74 Q1422.73 1540.95 1421 1539.09 Q1419.27 1537.2 1415.19 1537.2 Q1411.82 1537.2 1409.6 1539.23 Q1407.39 1541.22 1407.03 1544.61 L1407.03 1568.04 L1400.96 1568.04 L1400.96 1544.9 Q1400.96 1537.2 1393.42 1537.2 Q1387.48 1537.2 1385.29 1542.26 L1385.29 1568.04 L1379.25 1568.04 L1379.25 1532.73 L1384.96 1532.73 Z" fill="#000000" fill-rule="nonzero" fill-opacity="1" /><path clip-path="url(#clip130)" d="M1452.52 1568.7 Q1445.34 1568.7 1440.84 1564 Q1436.33 1559.26 1436.33 1551.37 L1436.33 1550.26 Q1436.33 1545 1438.33 1540.89 Q1440.35 1536.74 1443.94 1534.43 Q1447.56 1532.08 1451.77 1532.08 Q1458.66 1532.08 1462.48 1536.61 Q1466.3 1541.15 1466.3 1549.6 L1466.3 1552.12 L1442.37 1552.12 Q1442.5 1557.34 1445.41 1560.57 Q1448.35 1563.77 1452.85 1563.77 Q1456.05 1563.77 1458.27 1562.46 Q1460.49 1561.16 1462.15 1559 L1465.84 1561.88 Q1461.4 1568.7 1452.52 1568.7 M1451.77 1537.04 Q1448.12 1537.04 1445.64 1539.71 Q1443.16 1542.36 1442.57 1547.16 L1460.26 1547.16 L1460.26 1546.7 Q1460 1542.1 1457.78 1539.58 Q1455.56 1537.04 1451.77 1537.04 Z" fill="#000000" fill-rule="nonzero" fill-opacity="1" /><path clip-path="url(#clip130)" d="M1487.22 1549.08 Q1487.22 1556.36 1485.29 1563.05 Q1483.4 1569.71 1479.45 1575.35 Q1475.53 1581 1471.22 1583.38 L1469.95 1579.7 Q1474.98 1575.84 1478.01 1567.75 Q1481.08 1559.62 1481.15 1549.73 L1481.15 1548.69 Q1481.15 1541.84 1479.71 1535.96 Q1478.27 1530.05 1475.7 1525.39 Q1473.15 1520.72 1469.95 1518.11 L1471.22 1514.42 Q1475.53 1516.8 1479.42 1522.38 Q1483.33 1527.97 1485.26 1534.69 Q1487.22 1541.41 1487.22 1549.08 Z" fill="#000000" fill-rule="nonzero" fill-opacity="1" /><polyline clip-path="url(#clip130)" style="stroke:#000000; stroke-linecap:round; stroke-linejoin:round; stroke-width:4; stroke-opacity:1; fill:none" points="225.362,1423.18 225.362,123.472 "/>
<polyline clip-path="url(#clip130)" style="stroke:#000000; stroke-linecap:round; stroke-linejoin:round; stroke-width:4; stroke-opacity:1; fill:none" points="225.362,1420.84 244.259,1420.84 "/>
<polyline clip-path="url(#clip130)" style="stroke:#000000; stroke-linecap:round; stroke-linejoin:round; stroke-width:4; stroke-opacity:1; fill:none" points="225.362,1228.71 244.259,1228.71 "/>
<polyline clip-path="url(#clip130)" style="stroke:#000000; stroke-linecap:round; stroke-linejoin:round; stroke-width:4; stroke-opacity:1; fill:none" points="225.362,1036.59 244.259,1036.59 "/>
<polyline clip-path="url(#clip130)" style="stroke:#000000; stroke-linecap:round; stroke-linejoin:round; stroke-width:4; stroke-opacity:1; fill:none" points="225.362,844.46 244.259,844.46 "/>
<polyline clip-path="url(#clip130)" style="stroke:#000000; stroke-linecap:round; stroke-linejoin:round; stroke-width:4; stroke-opacity:1; fill:none" points="225.362,652.333 244.259,652.333 "/>
<polyline clip-path="url(#clip130)" style="stroke:#000000; stroke-linecap:round; stroke-linejoin:round; stroke-width:4; stroke-opacity:1; fill:none" points="225.362,460.205 244.259,460.205 "/>
<polyline clip-path="url(#clip130)" style="stroke:#000000; stroke-linecap:round; stroke-linejoin:round; stroke-width:4; stroke-opacity:1; fill:none" points="225.362,268.078 244.259,268.078 "/>
<path clip-path="url(#clip130)" d="M189.362 1423.38 Q189.362 1431.1 186.727 1434.85 Q184.092 1438.6 178.49 1438.6 Q172.96 1438.6 170.301 1434.94 Q167.643 1431.26 167.548 1423.98 L167.548 1418.11 Q167.548 1410.49 170.183 1406.79 Q172.818 1403.09 178.443 1403.09 Q184.021 1403.09 186.656 1406.67 Q189.29 1410.23 189.362 1417.69 L189.362 1423.38 M184.97 1417.38 Q184.97 1411.8 183.404 1409.26 Q181.837 1406.7 178.443 1406.7 Q175.072 1406.7 173.53 1409.24 Q171.987 1411.78 171.939 1417.04 L171.939 1424.07 Q171.939 1429.67 173.553 1432.35 Q175.191 1435.01 178.49 1435.01 Q181.742 1435.01 183.309 1432.5 Q184.899 1429.98 184.97 1424.57 L184.97 1417.38 Z" fill="#000000" fill-rule="nonzero" fill-opacity="1" /><path clip-path="url(#clip130)" d="M163.038 1245.99 L140.394 1245.99 L140.394 1242.84 L152.357 1229.55 Q155.015 1226.53 156.012 1224.66 Q157.033 1222.76 157.033 1220.74 Q157.033 1218.03 155.395 1216.3 Q153.757 1214.57 151.028 1214.57 Q147.752 1214.57 145.924 1216.44 Q144.12 1218.29 144.12 1221.62 L139.729 1221.62 Q139.729 1216.85 142.791 1213.9 Q145.877 1210.96 151.028 1210.96 Q155.846 1210.96 158.647 1213.5 Q161.448 1216.02 161.448 1220.22 Q161.448 1225.32 154.944 1232.37 L145.687 1242.41 L163.038 1242.41 L163.038 1245.99 Z" fill="#000000" fill-rule="nonzero" fill-opacity="1" /><path clip-path="url(#clip130)" d="M189.362 1231.25 Q189.362 1238.97 186.727 1242.72 Q184.092 1246.47 178.49 1246.47 Q172.96 1246.47 170.301 1242.81 Q167.643 1239.14 167.548 1231.85 L167.548 1225.99 Q167.548 1218.37 170.183 1214.66 Q172.818 1210.96 178.443 1210.96 Q184.021 1210.96 186.656 1214.54 Q189.29 1218.1 189.362 1225.56 L189.362 1231.25 M184.97 1225.25 Q184.97 1219.67 183.404 1217.13 Q181.837 1214.57 178.443 1214.57 Q175.072 1214.57 173.53 1217.11 Q171.987 1219.65 171.939 1224.92 L171.939 1231.94 Q171.939 1237.54 173.553 1240.23 Q175.191 1242.89 178.49 1242.89 Q181.742 1242.89 183.309 1240.37 Q184.899 1237.85 184.97 1232.44 L184.97 1225.25 Z" fill="#000000" fill-rule="nonzero" fill-opacity="1" /><path clip-path="url(#clip130)" d="M158.932 1042.26 L163.727 1042.26 L163.727 1045.84 L158.932 1045.84 L158.932 1053.87 L154.517 1053.87 L154.517 1045.84 L138.78 1045.84 L138.78 1043.26 L154.256 1019.31 L158.932 1019.31 L158.932 1042.26 M143.764 1042.26 L154.517 1042.26 L154.517 1025.31 L153.995 1026.26 L143.764 1042.26 Z" fill="#000000" fill-rule="nonzero" fill-opacity="1" /><path clip-path="url(#clip130)" d="M189.362 1039.13 Q189.362 1046.84 186.727 1050.59 Q184.092 1054.34 178.49 1054.34 Q172.96 1054.34 170.301 1050.69 Q167.643 1047.01 167.548 1039.72 L167.548 1033.86 Q167.548 1026.24 170.183 1022.54 Q172.818 1018.83 178.443 1018.83 Q184.021 1018.83 186.656 1022.42 Q189.29 1025.98 189.362 1033.43 L189.362 1039.13 M184.97 1033.12 Q184.97 1027.54 183.404 1025 Q181.837 1022.44 178.443 1022.44 Q175.072 1022.44 173.53 1024.98 Q171.987 1027.52 171.939 1032.79 L171.939 1039.82 Q171.939 1045.42 173.553 1048.1 Q175.191 1050.76 178.49 1050.76 Q181.742 1050.76 183.309 1048.24 Q184.899 1045.73 184.97 1040.31 L184.97 1033.12 Z" fill="#000000" fill-rule="nonzero" fill-opacity="1" /><path clip-path="url(#clip130)" d="M157.626 827.156 L157.626 830.883 L156.819 830.883 Q151.692 830.978 148.654 833.921 Q145.616 836.864 145.141 842.205 Q147.871 839.072 152.594 839.072 Q157.104 839.072 159.786 842.253 Q162.492 845.433 162.492 850.465 Q162.492 855.806 159.573 859.01 Q156.677 862.215 151.787 862.215 Q146.826 862.215 143.741 858.417 Q140.655 854.595 140.655 848.59 L140.655 846.905 Q140.655 837.363 144.714 832.331 Q148.796 827.275 156.843 827.156 L157.626 827.156 M151.858 842.727 Q149.603 842.727 147.705 844.08 Q145.806 845.433 145.07 847.475 L145.07 849.089 Q145.07 853.361 146.992 855.972 Q148.915 858.583 151.787 858.583 Q154.754 858.583 156.439 856.399 Q158.149 854.216 158.149 850.679 Q158.149 847.118 156.416 844.935 Q154.707 842.727 151.858 842.727 Z" fill="#000000" fill-rule="nonzero" fill-opacity="1" /><path clip-path="url(#clip130)" d="M189.362 847 Q189.362 854.714 186.727 858.464 Q184.092 862.215 178.49 862.215 Q172.96 862.215 170.301 858.559 Q167.643 854.88 167.548 847.593 L167.548 841.73 Q167.548 834.111 170.183 830.408 Q172.818 826.705 178.443 826.705 Q184.021 826.705 186.656 830.289 Q189.29 833.85 189.362 841.303 L189.362 847 M184.97 840.995 Q184.97 835.416 183.404 832.877 Q181.837 830.313 178.443 830.313 Q175.072 830.313 173.53 832.853 Q171.987 835.393 171.939 840.662 L171.939 847.688 Q171.939 853.29 173.553 855.972 Q175.191 858.631 178.49 858.631 Q181.742 858.631 183.309 856.115 Q184.899 853.598 184.97 848.187 L184.97 840.995 Z" fill="#000000" fill-rule="nonzero" fill-opacity="1" /><path clip-path="url(#clip130)" d="M161.353 644.072 Q161.353 646.66 159.976 648.677 Q158.623 650.695 156.297 651.834 Q159.003 652.997 160.57 655.228 Q162.16 657.46 162.16 660.284 Q162.16 664.77 159.122 667.429 Q156.107 670.087 151.17 670.087 Q146.185 670.087 143.171 667.429 Q140.18 664.747 140.18 660.284 Q140.18 657.483 141.699 655.228 Q143.242 652.973 145.948 651.81 Q143.646 650.671 142.316 648.653 Q140.987 646.636 140.987 644.072 Q140.987 639.705 143.788 637.141 Q146.589 634.578 151.17 634.578 Q155.727 634.578 158.528 637.141 Q161.353 639.705 161.353 644.072 M157.769 660.189 Q157.769 657.293 155.917 655.466 Q154.09 653.638 151.123 653.638 Q148.156 653.638 146.352 655.442 Q144.571 657.246 144.571 660.189 Q144.571 663.133 146.304 664.818 Q148.061 666.503 151.17 666.503 Q154.256 666.503 156.012 664.818 Q157.769 663.109 157.769 660.189 M151.17 638.186 Q148.583 638.186 146.969 639.8 Q145.378 641.39 145.378 644.144 Q145.378 646.778 146.945 648.416 Q148.535 650.03 151.17 650.03 Q153.805 650.03 155.371 648.416 Q156.962 646.778 156.962 644.144 Q156.962 641.509 155.324 639.847 Q153.686 638.186 151.17 638.186 Z" fill="#000000" fill-rule="nonzero" fill-opacity="1" /><path clip-path="url(#clip130)" d="M189.362 654.872 Q189.362 662.587 186.727 666.337 Q184.092 670.087 178.49 670.087 Q172.96 670.087 170.301 666.432 Q167.643 662.753 167.548 655.466 L167.548 649.603 Q167.548 641.984 170.183 638.281 Q172.818 634.578 178.443 634.578 Q184.021 634.578 186.656 638.162 Q189.29 641.722 189.362 649.176 L189.362 654.872 M184.97 648.867 Q184.97 643.289 183.404 640.749 Q181.837 638.186 178.443 638.186 Q175.072 638.186 173.53 640.726 Q171.987 643.265 171.939 648.535 L171.939 655.561 Q171.939 661.162 173.553 663.845 Q175.191 666.503 178.49 666.503 Q181.742 666.503 183.309 663.987 Q184.899 661.471 184.97 656.059 L184.97 648.867 Z" fill="#000000" fill-rule="nonzero" fill-opacity="1" /><path clip-path="url(#clip130)" d="M127.529 477.485 L123.114 477.485 L123.114 448.218 L114.26 451.47 L114.26 447.482 L126.84 442.759 L127.529 442.759 L127.529 477.485 Z" fill="#000000" fill-rule="nonzero" fill-opacity="1" /><path clip-path="url(#clip130)" d="M162.065 462.745 Q162.065 470.459 159.43 474.21 Q156.796 477.96 151.194 477.96 Q145.663 477.96 143.005 474.304 Q140.346 470.625 140.251 463.338 L140.251 457.475 Q140.251 449.856 142.886 446.153 Q145.521 442.45 151.146 442.45 Q156.724 442.45 159.359 446.035 Q161.994 449.595 162.065 457.048 L162.065 462.745 M157.674 456.74 Q157.674 451.162 156.107 448.622 Q154.541 446.058 151.146 446.058 Q147.776 446.058 146.233 448.598 Q144.69 451.138 144.643 456.407 L144.643 463.433 Q144.643 469.035 146.257 471.717 Q147.894 474.376 151.194 474.376 Q154.446 474.376 156.012 471.86 Q157.603 469.344 157.674 463.932 L157.674 456.74 Z" fill="#000000" fill-rule="nonzero" fill-opacity="1" /><path clip-path="url(#clip130)" d="M189.362 462.745 Q189.362 470.459 186.727 474.21 Q184.092 477.96 178.49 477.96 Q172.96 477.96 170.301 474.304 Q167.643 470.625 167.548 463.338 L167.548 457.475 Q167.548 449.856 170.183 446.153 Q172.818 442.45 178.443 442.45 Q184.021 442.45 186.656 446.035 Q189.29 449.595 189.362 457.048 L189.362 462.745 M184.97 456.74 Q184.97 451.162 183.404 448.622 Q181.837 446.058 178.443 446.058 Q175.072 446.058 173.53 448.598 Q171.987 451.138 171.939 456.407 L171.939 463.433 Q171.939 469.035 173.553 471.717 Q175.191 474.376 178.49 474.376 Q181.742 474.376 183.309 471.86 Q184.899 469.344 184.97 463.932 L184.97 456.74 Z" fill="#000000" fill-rule="nonzero" fill-opacity="1" /><path clip-path="url(#clip130)" d="M127.529 285.358 L123.114 285.358 L123.114 256.091 L114.26 259.343 L114.26 255.355 L126.84 250.632 L127.529 250.632 L127.529 285.358 Z" fill="#000000" fill-rule="nonzero" fill-opacity="1" /><path clip-path="url(#clip130)" d="M163.038 285.358 L140.394 285.358 L140.394 282.201 L152.357 268.908 Q155.015 265.894 156.012 264.019 Q157.033 262.12 157.033 260.102 Q157.033 257.396 155.395 255.664 Q153.757 253.931 151.028 253.931 Q147.752 253.931 145.924 255.806 Q144.12 257.657 144.12 260.981 L139.729 260.981 Q139.729 256.21 142.791 253.266 Q145.877 250.323 151.028 250.323 Q155.846 250.323 158.647 252.863 Q161.448 255.379 161.448 259.58 Q161.448 264.683 154.944 271.733 L145.687 281.773 L163.038 281.773 L163.038 285.358 Z" fill="#000000" fill-rule="nonzero" fill-opacity="1" /><path clip-path="url(#clip130)" d="M189.362 270.617 Q189.362 278.332 186.727 282.082 Q184.092 285.832 178.49 285.832 Q172.96 285.832 170.301 282.177 Q167.643 278.498 167.548 271.211 L167.548 265.348 Q167.548 257.729 170.183 254.026 Q172.818 250.323 178.443 250.323 Q184.021 250.323 186.656 253.907 Q189.29 257.468 189.362 264.921 L189.362 270.617 M184.97 264.612 Q184.97 259.034 183.404 256.494 Q181.837 253.931 178.443 253.931 Q175.072 253.931 173.53 256.471 Q171.987 259.01 171.939 264.28 L171.939 271.306 Q171.939 276.908 173.553 279.59 Q175.191 282.248 178.49 282.248 Q181.742 282.248 183.309 279.732 Q184.899 277.216 184.97 271.804 L184.97 264.612 Z" fill="#000000" fill-rule="nonzero" fill-opacity="1" /><path clip-path="url(#clip130)" d="M16.4842 1068.09 L16.4842 1061.79 L50.1333 1061.79 Q56.9545 1061.79 60.8057 1065.9 Q64.6569 1069.98 64.6569 1076.8 Q64.6569 1083.89 61.0342 1087.84 Q57.4114 1091.79 50.8839 1091.79 L50.8839 1085.52 Q54.9636 1085.52 57.2482 1083.3 Q59.5328 1081.05 59.5328 1076.8 Q59.5328 1072.92 57.085 1070.54 Q54.6372 1068.12 50.2312 1068.09 L16.4842 1068.09 Z" fill="#000000" fill-rule="nonzero" fill-opacity="1" /><path clip-path="url(#clip130)" d="M46.021 1053.66 Q40.8316 1053.66 36.6867 1051.64 Q32.5417 1049.58 30.2898 1045.96 Q28.0378 1042.31 28.0378 1037.64 Q28.0378 1030.43 33.0313 1025.99 Q38.0248 1021.52 46.3147 1021.52 L46.739 1021.52 Q51.8957 1021.52 56.008 1023.51 Q60.0877 1025.47 62.3723 1029.15 Q64.6569 1032.81 64.6569 1037.57 Q64.6569 1044.75 59.6634 1049.23 Q54.6699 1053.66 46.4453 1053.66 L46.021 1053.66 M46.739 1047.59 Q52.6137 1047.59 56.1712 1044.89 Q59.7287 1042.14 59.7287 1037.57 Q59.7287 1032.97 56.1386 1030.26 Q52.5158 1027.55 46.021 1027.55 Q40.2115 1027.55 36.6214 1030.33 Q32.9987 1033.07 32.9987 1037.64 Q32.9987 1042.11 36.5561 1044.85 Q40.1136 1047.59 46.739 1047.59 Z" fill="#000000" fill-rule="nonzero" fill-opacity="1" /><path clip-path="url(#clip130)" d="M64.0042 1007.38 L64.0042 1013.42 L28.6905 1013.42 L28.6905 1007.38 L64.0042 1007.38 M19.3236 1013.91 Q17.8549 1013.91 16.8432 1013.03 Q15.8314 1012.12 15.8314 1010.35 Q15.8314 1008.59 16.8432 1007.68 Q17.8549 1006.76 19.3236 1006.76 Q20.7923 1006.76 21.7714 1007.68 Q22.7505 1008.59 22.7505 1010.35 Q22.7505 1012.12 21.7714 1013.03 Q20.7923 1013.91 19.3236 1013.91 Z" fill="#000000" fill-rule="nonzero" fill-opacity="1" /><path clip-path="url(#clip130)" d="M28.6905 992.013 L33.1292 991.817 Q28.0378 987.77 28.0378 981.242 Q28.0378 970.048 40.6684 969.95 L64.0042 969.95 L64.0042 975.988 L40.6358 975.988 Q36.8172 976.02 34.9895 977.75 Q33.1618 979.447 33.1618 983.07 Q33.1618 986.007 34.7284 988.227 Q36.295 990.446 38.8408 991.686 L64.0042 991.686 L64.0042 997.724 L28.6905 997.724 L28.6905 992.013 Z" fill="#000000" fill-rule="nonzero" fill-opacity="1" /><path clip-path="url(#clip130)" d="M20.1395 952.652 L28.6905 952.652 L28.6905 946.059 L33.3577 946.059 L33.3577 952.652 L55.2573 952.652 Q57.3788 952.652 58.4558 951.771 Q59.5002 950.89 59.5002 948.768 Q59.5002 947.724 59.1086 945.896 L64.0042 945.896 Q64.6569 948.279 64.6569 950.531 Q64.6569 954.578 62.2091 956.634 Q59.7613 958.69 55.2573 958.69 L33.3577 958.69 L33.3577 965.119 L28.6905 965.119 L28.6905 958.69 L20.1395 958.69 L20.1395 952.652 Z" fill="#000000" fill-rule="nonzero" fill-opacity="1" /><path clip-path="url(#clip130)" d="M51.602 895.275 L51.602 915.184 L64.0042 919.656 L64.0042 926.118 L16.4842 907.971 L16.4842 902.488 L64.0042 884.309 L64.0042 890.739 L51.602 895.275 M46.4453 913.291 L46.4453 897.136 L24.2192 905.23 L46.4453 913.291 Z" fill="#000000" fill-rule="nonzero" fill-opacity="1" /><path clip-path="url(#clip130)" d="M28.6905 873.147 L33.1292 872.952 Q28.0378 868.905 28.0378 862.377 Q28.0378 851.182 40.6684 851.085 L64.0042 851.085 L64.0042 857.122 L40.6358 857.122 Q36.8172 857.155 34.9895 858.885 Q33.1618 860.582 33.1618 864.205 Q33.1618 867.142 34.7284 869.361 Q36.295 871.581 38.8408 872.821 L64.0042 872.821 L64.0042 878.859 L28.6905 878.859 L28.6905 873.147 Z" fill="#000000" fill-rule="nonzero" fill-opacity="1" /><path clip-path="url(#clip130)" d="M46.0536 843.415 Q37.7964 843.415 32.9334 839.596 Q28.0378 835.778 28.0378 829.479 Q28.0378 823.016 32.607 819.394 L28.6905 819.1 L28.6905 813.584 L63.1556 813.584 Q70.0094 813.584 73.9586 817.664 Q77.9077 821.711 77.9077 828.565 Q77.9077 832.383 76.2758 836.039 Q74.6439 839.694 71.8045 841.62 L68.1817 838.486 Q72.9794 834.603 72.9794 828.989 Q72.9794 824.583 70.499 822.135 Q68.0186 819.655 63.5146 819.655 L60.4793 819.655 Q64.6569 823.277 64.6569 829.544 Q64.6569 835.745 59.6634 839.596 Q54.6699 843.415 46.0536 843.415 M46.739 837.344 Q52.7116 837.344 56.1386 834.896 Q59.5328 832.449 59.5328 828.043 Q59.5328 822.331 54.3435 819.655 L38.2206 819.655 Q33.1618 822.429 33.1618 827.977 Q33.1618 832.383 36.5888 834.864 Q40.0157 837.344 46.739 837.344 Z" fill="#000000" fill-rule="nonzero" fill-opacity="1" /><path clip-path="url(#clip130)" d="M64.0042 797.918 L64.0042 803.956 L13.8732 803.956 L13.8732 797.918 L64.0042 797.918 Z" fill="#000000" fill-rule="nonzero" fill-opacity="1" /><path clip-path="url(#clip130)" d="M64.6569 773.603 Q64.6569 780.784 59.9571 785.288 Q55.2247 789.792 47.3265 789.792 L46.2168 789.792 Q40.9622 789.792 36.8499 787.801 Q32.7049 785.777 30.3877 782.187 Q28.0378 778.564 28.0378 774.354 Q28.0378 767.468 32.5744 763.649 Q37.111 759.83 45.564 759.83 L48.0771 759.83 L48.0771 783.754 Q53.2991 783.623 56.5302 780.718 Q59.7287 777.781 59.7287 773.277 Q59.7287 770.079 58.4232 767.859 Q57.1177 765.64 54.9636 763.975 L57.8357 760.287 Q64.6569 764.726 64.6569 773.603 M32.9987 774.354 Q32.9987 778.009 35.6749 780.49 Q38.3186 782.97 43.1162 783.558 L43.1162 765.868 L42.6593 765.868 Q38.0575 766.129 35.5444 768.349 Q32.9987 770.568 32.9987 774.354 Z" fill="#000000" fill-rule="nonzero" fill-opacity="1" /><path clip-path="url(#clip130)" d="M44.7155 736.527 Q37.3394 736.527 30.5509 734.569 Q23.7623 732.578 18.2139 728.662 Q12.6656 724.745 10.381 720.535 L14.3627 719.295 Q18.0181 724.06 25.5247 727.128 Q33.0313 730.163 42.3329 730.457 L45.1071 730.489 Q57.7051 730.489 66.9742 725.888 Q72.5225 723.113 75.6557 719.295 L79.3437 720.535 Q76.9286 724.876 71.2497 728.825 Q60.1529 736.527 44.7155 736.527 Z" fill="#000000" fill-rule="nonzero" fill-opacity="1" /><path clip-path="url(#clip130)" d="M64.0042 712.506 L16.4842 712.506 L16.4842 699.092 Q16.4842 692.891 19.2257 688.126 Q21.9672 683.361 27.026 680.783 Q32.0848 678.172 38.6449 678.139 L41.6802 678.139 Q48.4035 678.139 53.4623 680.75 Q58.5211 683.328 61.23 688.159 Q63.9389 692.956 64.0042 699.353 L64.0042 712.506 M21.6409 706.24 L58.8801 706.24 L58.8801 699.647 Q58.8801 692.402 54.3761 688.387 Q49.8722 684.34 41.5497 684.34 L38.7755 684.34 Q30.6814 684.34 26.2101 688.159 Q21.7061 691.945 21.6409 698.929 L21.6409 706.24 Z" fill="#000000" fill-rule="nonzero" fill-opacity="1" /><path clip-path="url(#clip130)" d="M64.6569 654.967 Q64.6569 662.147 59.9571 666.651 Q55.2247 671.155 47.3265 671.155 L46.2168 671.155 Q40.9622 671.155 36.8499 669.164 Q32.7049 667.14 30.3877 663.55 Q28.0378 659.927 28.0378 655.717 Q28.0378 648.831 32.5744 645.012 Q37.111 641.194 45.564 641.194 L48.0771 641.194 L48.0771 665.117 Q53.2991 664.986 56.5302 662.082 Q59.7287 659.144 59.7287 654.64 Q59.7287 651.442 58.4232 649.222 Q57.1177 647.003 54.9636 645.339 L57.8357 641.651 Q64.6569 646.089 64.6569 654.967 M32.9987 655.717 Q32.9987 659.373 35.6749 661.853 Q38.3186 664.334 43.1162 664.921 L43.1162 647.232 L42.6593 647.232 Q38.0575 647.493 35.5444 649.712 Q32.9987 651.931 32.9987 655.717 Z" fill="#000000" fill-rule="nonzero" fill-opacity="1" /><path clip-path="url(#clip130)" d="M46.0536 635.645 Q37.7964 635.645 32.9334 631.827 Q28.0378 628.008 28.0378 621.709 Q28.0378 615.247 32.607 611.624 L28.6905 611.33 L28.6905 605.815 L63.1556 605.815 Q70.0094 605.815 73.9586 609.894 Q77.9077 613.941 77.9077 620.795 Q77.9077 624.614 76.2758 628.269 Q74.6439 631.925 71.8045 633.85 L68.1817 630.717 Q72.9794 626.833 72.9794 621.22 Q72.9794 616.814 70.499 614.366 Q68.0186 611.885 63.5146 611.885 L60.4793 611.885 Q64.6569 615.508 64.6569 621.774 Q64.6569 627.975 59.6634 631.827 Q54.6699 635.645 46.0536 635.645 M46.739 629.575 Q52.7116 629.575 56.1386 627.127 Q59.5328 624.679 59.5328 620.273 Q59.5328 614.562 54.3435 611.885 L38.2206 611.885 Q33.1618 614.659 33.1618 620.208 Q33.1618 624.614 36.5888 627.094 Q40.0157 629.575 46.739 629.575 Z" fill="#000000" fill-rule="nonzero" fill-opacity="1" /><path clip-path="url(#clip130)" d="M34.1083 579.64 Q33.8799 581.01 33.8799 582.61 Q33.8799 588.55 38.9387 590.671 L64.0042 590.671 L64.0042 596.709 L28.6905 596.709 L28.6905 590.834 L32.7702 590.736 Q28.0378 587.766 28.0378 582.316 Q28.0378 580.553 28.4947 579.64 L34.1083 579.64 Z" fill="#000000" fill-rule="nonzero" fill-opacity="1" /><path clip-path="url(#clip130)" d="M64.6569 559.437 Q64.6569 566.617 59.9571 571.121 Q55.2247 575.625 47.3265 575.625 L46.2168 575.625 Q40.9622 575.625 36.8499 573.634 Q32.7049 571.611 30.3877 568.021 Q28.0378 564.398 28.0378 560.188 Q28.0378 553.301 32.5744 549.483 Q37.111 545.664 45.564 545.664 L48.0771 545.664 L48.0771 569.587 Q53.2991 569.457 56.5302 566.552 Q59.7287 563.615 59.7287 559.111 Q59.7287 555.912 58.4232 553.693 Q57.1177 551.474 54.9636 549.809 L57.8357 546.121 Q64.6569 550.56 64.6569 559.437 M32.9987 560.188 Q32.9987 563.843 35.6749 566.324 Q38.3186 568.804 43.1162 569.391 L43.1162 551.702 L42.6593 551.702 Q38.0575 551.963 35.5444 554.182 Q32.9987 556.402 32.9987 560.188 Z" fill="#000000" fill-rule="nonzero" fill-opacity="1" /><path clip-path="url(#clip130)" d="M64.6569 524.025 Q64.6569 531.206 59.9571 535.71 Q55.2247 540.214 47.3265 540.214 L46.2168 540.214 Q40.9622 540.214 36.8499 538.223 Q32.7049 536.199 30.3877 532.609 Q28.0378 528.986 28.0378 524.776 Q28.0378 517.89 32.5744 514.071 Q37.111 510.253 45.564 510.253 L48.0771 510.253 L48.0771 534.176 Q53.2991 534.045 56.5302 531.14 Q59.7287 528.203 59.7287 523.699 Q59.7287 520.501 58.4232 518.281 Q57.1177 516.062 54.9636 514.397 L57.8357 510.709 Q64.6569 515.148 64.6569 524.025 M32.9987 524.776 Q32.9987 528.432 35.6749 530.912 Q38.3186 533.392 43.1162 533.98 L43.1162 516.29 L42.6593 516.29 Q38.0575 516.552 35.5444 518.771 Q32.9987 520.99 32.9987 524.776 Z" fill="#000000" fill-rule="nonzero" fill-opacity="1" /><path clip-path="url(#clip130)" d="M54.6372 482.707 Q52.1894 482.707 50.8513 484.567 Q49.4805 486.395 48.5014 490.996 Q47.5223 495.566 46.1515 498.275 Q44.7808 500.951 42.8878 502.256 Q40.9948 503.529 38.3838 503.529 Q34.0431 503.529 31.0404 499.874 Q28.0378 496.186 28.0378 490.474 Q28.0378 484.469 31.1383 480.748 Q34.2389 476.995 39.0692 476.995 L39.0692 483.066 Q36.5888 483.066 34.7937 485.187 Q32.9987 487.276 32.9987 490.474 Q32.9987 493.771 34.4347 495.631 Q35.8708 497.491 38.188 497.491 Q40.3747 497.491 41.4844 495.762 Q42.594 494.032 43.6058 489.528 Q44.6176 484.991 46.021 482.184 Q47.4244 479.378 49.4153 478.039 Q51.3735 476.669 54.2129 476.669 Q58.9454 476.669 61.8175 480.455 Q64.6569 484.241 64.6569 490.278 Q64.6569 494.521 63.1556 497.785 Q61.6543 501.049 58.978 502.909 Q56.2691 504.737 53.1359 504.737 L53.1359 498.699 Q56.1712 498.536 57.9662 496.284 Q59.7287 493.999 59.7287 490.278 Q59.7287 486.852 58.3579 484.795 Q56.9545 482.707 54.6372 482.707 Z" fill="#000000" fill-rule="nonzero" fill-opacity="1" /><path clip-path="url(#clip130)" d="M45.0418 454.867 Q52.32 454.867 59.0106 456.793 Q65.6687 458.685 71.3149 462.635 Q76.9612 466.551 79.3437 470.859 L75.6557 472.132 Q71.8045 467.106 63.7104 464.071 Q55.5837 461.003 45.6946 460.937 L44.6502 460.937 Q37.7964 460.937 31.9216 462.374 Q26.0143 463.81 21.3471 466.388 Q16.68 468.934 14.069 472.132 L10.381 470.859 Q12.7635 466.551 18.3445 462.667 Q23.9255 458.751 30.6488 456.825 Q37.3721 454.867 45.0418 454.867 Z" fill="#000000" fill-rule="nonzero" fill-opacity="1" /><path clip-path="url(#clip130)" d="M882.688 12.096 L890.705 12.096 L890.705 54.9222 Q890.705 63.6037 885.471 68.5052 Q880.279 73.4068 871.597 73.4068 Q862.583 73.4068 857.557 68.796 Q852.531 64.1852 852.531 55.8775 L860.506 55.8775 Q860.506 61.0698 863.331 63.9775 Q866.197 66.8852 871.597 66.8852 Q876.54 66.8852 879.573 63.7698 Q882.646 60.6545 882.688 55.0468 L882.688 12.096 Z" fill="#000000" fill-rule="nonzero" fill-opacity="1" /><path clip-path="url(#clip130)" d="M901.048 49.6883 Q901.048 43.0837 903.623 37.8083 Q906.24 32.5329 910.851 29.6668 Q915.503 26.8006 921.443 26.8006 Q930.623 26.8006 936.273 33.156 Q941.963 39.5114 941.963 50.0622 L941.963 50.6022 Q941.963 57.1652 939.43 62.3991 Q936.937 67.5914 932.243 70.4991 Q927.591 73.4068 921.526 73.4068 Q912.388 73.4068 906.697 67.0514 Q901.048 60.696 901.048 50.2283 L901.048 49.6883 M908.774 50.6022 Q908.774 58.0791 912.222 62.6068 Q915.711 67.1345 921.526 67.1345 Q927.383 67.1345 930.831 62.5652 Q934.279 57.9545 934.279 49.6883 Q934.279 42.2945 930.748 37.7252 Q927.259 33.1145 921.443 33.1145 Q915.753 33.1145 912.263 37.6422 Q908.774 42.1698 908.774 50.6022 Z" fill="#000000" fill-rule="nonzero" fill-opacity="1" /><path clip-path="url(#clip130)" d="M959.95 72.576 L952.265 72.576 L952.265 27.6314 L959.95 27.6314 L959.95 72.576 M951.642 15.7098 Q951.642 13.8406 952.763 12.5529 Q953.926 11.2652 956.17 11.2652 Q958.413 11.2652 959.576 12.5529 Q960.739 13.8406 960.739 15.7098 Q960.739 17.5791 959.576 18.8252 Q958.413 20.0714 956.17 20.0714 Q953.926 20.0714 952.763 18.8252 Q951.642 17.5791 951.642 15.7098 Z" fill="#000000" fill-rule="nonzero" fill-opacity="1" /><path clip-path="url(#clip130)" d="M979.514 27.6314 L979.763 33.2806 Q984.914 26.8006 993.222 26.8006 Q1007.47 26.8006 1007.59 42.876 L1007.59 72.576 L999.91 72.576 L999.91 42.8345 Q999.868 37.9745 997.666 35.6483 Q995.506 33.3222 990.896 33.3222 Q987.157 33.3222 984.333 35.316 Q981.508 37.3098 979.93 40.5498 L979.93 72.576 L972.245 72.576 L972.245 27.6314 L979.514 27.6314 Z" fill="#000000" fill-rule="nonzero" fill-opacity="1" /><path clip-path="url(#clip130)" d="M1029.61 16.7483 L1029.61 27.6314 L1038 27.6314 L1038 33.5714 L1029.61 33.5714 L1029.61 61.4437 Q1029.61 64.1437 1030.73 65.5145 Q1031.85 66.8437 1034.55 66.8437 Q1035.88 66.8437 1038.21 66.3452 L1038.21 72.576 Q1035.18 73.4068 1032.31 73.4068 Q1027.16 73.4068 1024.54 70.2914 Q1021.92 67.176 1021.92 61.4437 L1021.92 33.5714 L1013.74 33.5714 L1013.74 27.6314 L1021.92 27.6314 L1021.92 16.7483 L1029.61 16.7483 Z" fill="#000000" fill-rule="nonzero" fill-opacity="1" /><path clip-path="url(#clip130)" d="M1102.63 56.7914 L1077.3 56.7914 L1071.6 72.576 L1063.38 72.576 L1086.48 12.096 L1093.45 12.096 L1116.59 72.576 L1108.41 72.576 L1102.63 56.7914 M1079.7 50.2283 L1100.27 50.2283 L1089.96 21.9406 L1079.7 50.2283 Z" fill="#000000" fill-rule="nonzero" fill-opacity="1" /><path clip-path="url(#clip130)" d="M1130.8 27.6314 L1131.05 33.2806 Q1136.2 26.8006 1144.5 26.8006 Q1158.75 26.8006 1158.88 42.876 L1158.88 72.576 L1151.19 72.576 L1151.19 42.8345 Q1151.15 37.9745 1148.95 35.6483 Q1146.79 33.3222 1142.18 33.3222 Q1138.44 33.3222 1135.62 35.316 Q1132.79 37.3098 1131.21 40.5498 L1131.21 72.576 L1123.53 72.576 L1123.53 27.6314 L1130.8 27.6314 Z" fill="#000000" fill-rule="nonzero" fill-opacity="1" /><path clip-path="url(#clip130)" d="M1168.64 49.7298 Q1168.64 39.2206 1173.5 33.0314 Q1178.36 26.8006 1186.38 26.8006 Q1194.6 26.8006 1199.21 32.616 L1199.58 27.6314 L1206.6 27.6314 L1206.6 71.496 Q1206.6 80.2191 1201.41 85.2452 Q1196.26 90.2714 1187.54 90.2714 Q1182.68 90.2714 1178.03 88.1945 Q1173.37 86.1175 1170.92 82.5037 L1174.91 77.8929 Q1179.85 83.9991 1187 83.9991 Q1192.61 83.9991 1195.72 80.8422 Q1198.88 77.6852 1198.88 71.9529 L1198.88 68.0898 Q1194.27 73.4068 1186.29 73.4068 Q1178.4 73.4068 1173.5 67.0514 Q1168.64 60.696 1168.64 49.7298 M1176.36 50.6022 Q1176.36 58.2037 1179.48 62.5652 Q1182.6 66.8852 1188.2 66.8852 Q1195.47 66.8852 1198.88 60.2806 L1198.88 39.7606 Q1195.35 33.3222 1188.29 33.3222 Q1182.68 33.3222 1179.52 37.6837 Q1176.36 42.0452 1176.36 50.6022 Z" fill="#000000" fill-rule="nonzero" fill-opacity="1" /><path clip-path="url(#clip130)" d="M1226.54 72.576 L1218.86 72.576 L1218.86 8.77292 L1226.54 8.77292 L1226.54 72.576 Z" fill="#000000" fill-rule="nonzero" fill-opacity="1" /><path clip-path="url(#clip130)" d="M1257.49 73.4068 Q1248.35 73.4068 1242.62 67.4252 Q1236.89 61.4022 1236.89 51.3498 L1236.89 49.9375 Q1236.89 43.2498 1239.42 38.016 Q1242 32.7406 1246.56 29.7914 Q1251.18 26.8006 1256.53 26.8006 Q1265.3 26.8006 1270.16 32.5745 Q1275.02 38.3483 1275.02 49.1068 L1275.02 52.3052 L1244.57 52.3052 Q1244.74 58.9514 1248.43 63.0637 Q1252.17 67.1345 1257.9 67.1345 Q1261.98 67.1345 1264.8 65.4729 Q1267.62 63.8114 1269.74 61.0698 L1274.44 64.7252 Q1268.79 73.4068 1257.49 73.4068 M1256.53 33.1145 Q1251.88 33.1145 1248.72 36.5206 Q1245.57 39.8852 1244.82 45.9914 L1267.33 45.9914 L1267.33 45.4098 Q1267 39.5529 1264.18 36.3545 Q1261.35 33.1145 1256.53 33.1145 Z" fill="#000000" fill-rule="nonzero" fill-opacity="1" /><path clip-path="url(#clip130)" d="M1310.08 60.6545 Q1310.08 57.5391 1307.71 55.836 Q1305.38 54.0914 1299.53 52.8452 Q1293.71 51.5991 1290.26 49.8545 Q1286.86 48.1098 1285.2 45.7006 Q1283.58 43.2914 1283.58 39.9683 Q1283.58 34.4437 1288.23 30.6222 Q1292.92 26.8006 1300.19 26.8006 Q1307.83 26.8006 1312.57 30.7468 Q1317.35 34.6929 1317.35 40.8406 L1309.62 40.8406 Q1309.62 37.6837 1306.92 35.3991 Q1304.26 33.1145 1300.19 33.1145 Q1296 33.1145 1293.63 34.9422 Q1291.26 36.7698 1291.26 39.7191 Q1291.26 42.5022 1293.46 43.9145 Q1295.66 45.3268 1301.4 46.6145 Q1307.17 47.9022 1310.74 49.6883 Q1314.31 51.4745 1316.02 54.0083 Q1317.76 56.5006 1317.76 60.1145 Q1317.76 66.1375 1312.94 69.7929 Q1308.12 73.4068 1300.44 73.4068 Q1295.04 73.4068 1290.89 71.496 Q1286.73 69.5852 1284.36 66.1791 Q1282.04 62.7314 1282.04 58.7437 L1289.72 58.7437 Q1289.93 62.6068 1292.8 64.8914 Q1295.7 67.1345 1300.44 67.1345 Q1304.8 67.1345 1307.42 65.3898 Q1310.08 63.6037 1310.08 60.6545 Z" fill="#000000" fill-rule="nonzero" fill-opacity="1" /><path clip-path="url(#clip130)" d="M1396.56 44.2883 Q1396.56 53.1775 1393.57 59.8237 Q1390.58 66.4283 1385.1 69.9175 Q1379.61 73.4068 1372.3 73.4068 Q1365.16 73.4068 1359.63 69.9175 Q1354.11 66.3868 1351.03 59.9068 Q1348 53.3852 1347.92 44.8283 L1347.92 40.4668 Q1347.92 31.7437 1350.95 25.056 Q1353.98 18.3683 1359.51 14.8375 Q1365.07 11.2652 1372.22 11.2652 Q1379.49 11.2652 1385.01 14.796 Q1390.58 18.2852 1393.57 24.9729 Q1396.56 31.6191 1396.56 40.4668 L1396.56 44.2883 M1388.63 40.3837 Q1388.63 29.6252 1384.31 23.8929 Q1379.99 18.1191 1372.22 18.1191 Q1364.66 18.1191 1360.3 23.8929 Q1355.98 29.6252 1355.85 39.8437 L1355.85 44.2883 Q1355.85 54.7145 1360.21 60.696 Q1364.62 66.636 1372.3 66.636 Q1380.03 66.636 1384.26 61.0283 Q1388.5 55.3791 1388.63 44.8698 L1388.63 40.3837 Z" fill="#000000" fill-rule="nonzero" fill-opacity="1" /><path clip-path="url(#clip130)" d="M1422.15 62.1498 L1433.28 27.6314 L1441.13 27.6314 L1425.01 72.576 L1419.16 72.576 L1402.87 27.6314 L1410.72 27.6314 L1422.15 62.1498 Z" fill="#000000" fill-rule="nonzero" fill-opacity="1" /><path clip-path="url(#clip130)" d="M1467.18 73.4068 Q1458.04 73.4068 1452.3 67.4252 Q1446.57 61.4022 1446.57 51.3498 L1446.57 49.9375 Q1446.57 43.2498 1449.11 38.016 Q1451.68 32.7406 1456.25 29.7914 Q1460.86 26.8006 1466.22 26.8006 Q1474.98 26.8006 1479.84 32.5745 Q1484.7 38.3483 1484.7 49.1068 L1484.7 52.3052 L1454.26 52.3052 Q1454.42 58.9514 1458.12 63.0637 Q1461.86 67.1345 1467.59 67.1345 Q1471.66 67.1345 1474.49 65.4729 Q1477.31 63.8114 1479.43 61.0698 L1484.12 64.7252 Q1478.47 73.4068 1467.18 73.4068 M1466.22 33.1145 Q1461.57 33.1145 1458.41 36.5206 Q1455.25 39.8852 1454.51 45.9914 L1477.02 45.9914 L1477.02 45.4098 Q1476.69 39.5529 1473.86 36.3545 Q1471.04 33.1145 1466.22 33.1145 Z" fill="#000000" fill-rule="nonzero" fill-opacity="1" /><path clip-path="url(#clip130)" d="M1515.32 34.5268 Q1513.57 34.236 1511.54 34.236 Q1503.98 34.236 1501.28 40.6745 L1501.28 72.576 L1493.59 72.576 L1493.59 27.6314 L1501.07 27.6314 L1501.2 32.8237 Q1504.98 26.8006 1511.91 26.8006 Q1514.16 26.8006 1515.32 27.3822 L1515.32 34.5268 Z" fill="#000000" fill-rule="nonzero" fill-opacity="1" /><path clip-path="url(#clip130)" d="M1586.43 18.6591 L1566.99 18.6591 L1566.99 72.576 L1559.06 72.576 L1559.06 18.6591 L1539.66 18.6591 L1539.66 12.096 L1586.43 12.096 L1586.43 18.6591 Z" fill="#000000" fill-rule="nonzero" fill-opacity="1" /><path clip-path="url(#clip130)" d="M1602.55 72.576 L1594.86 72.576 L1594.86 27.6314 L1602.55 27.6314 L1602.55 72.576 M1594.24 15.7098 Q1594.24 13.8406 1595.36 12.5529 Q1596.53 11.2652 1598.77 11.2652 Q1601.01 11.2652 1602.18 12.5529 Q1603.34 13.8406 1603.34 15.7098 Q1603.34 17.5791 1602.18 18.8252 Q1601.01 20.0714 1598.77 20.0714 Q1596.53 20.0714 1595.36 18.8252 Q1594.24 17.5791 1594.24 15.7098 Z" fill="#000000" fill-rule="nonzero" fill-opacity="1" /><path clip-path="url(#clip130)" d="M1622.07 27.6314 L1622.28 32.616 Q1627.22 26.8006 1635.61 26.8006 Q1645.04 26.8006 1648.45 34.0283 Q1650.69 30.7883 1654.26 28.7945 Q1657.88 26.8006 1662.78 26.8006 Q1677.57 26.8006 1677.82 42.4606 L1677.82 72.576 L1670.13 72.576 L1670.13 42.9175 Q1670.13 38.0991 1667.93 35.7314 Q1665.73 33.3222 1660.54 33.3222 Q1656.26 33.3222 1653.43 35.8975 Q1650.61 38.4314 1650.15 42.7514 L1650.15 72.576 L1642.43 72.576 L1642.43 43.1252 Q1642.43 33.3222 1632.83 33.3222 Q1625.27 33.3222 1622.49 39.7606 L1622.49 72.576 L1614.8 72.576 L1614.8 27.6314 L1622.07 27.6314 Z" fill="#000000" fill-rule="nonzero" fill-opacity="1" /><path clip-path="url(#clip130)" d="M1708.06 73.4068 Q1698.92 73.4068 1693.19 67.4252 Q1687.45 61.4022 1687.45 51.3498 L1687.45 49.9375 Q1687.45 43.2498 1689.99 38.016 Q1692.56 32.7406 1697.13 29.7914 Q1701.74 26.8006 1707.1 26.8006 Q1715.87 26.8006 1720.73 32.5745 Q1725.59 38.3483 1725.59 49.1068 L1725.59 52.3052 L1695.14 52.3052 Q1695.3 58.9514 1699 63.0637 Q1702.74 67.1345 1708.47 67.1345 Q1712.54 67.1345 1715.37 65.4729 Q1718.19 63.8114 1720.31 61.0698 L1725 64.7252 Q1719.36 73.4068 1708.06 73.4068 M1707.1 33.1145 Q1702.45 33.1145 1699.29 36.5206 Q1696.14 39.8852 1695.39 45.9914 L1717.9 45.9914 L1717.9 45.4098 Q1717.57 39.5529 1714.74 36.3545 Q1711.92 33.1145 1707.1 33.1145 Z" fill="#000000" fill-rule="nonzero" fill-opacity="1" /><polyline clip-path="url(#clip132)" style="stroke:#ff4747; stroke-linecap:round; stroke-linejoin:round; stroke-width:8; stroke-opacity:1; fill:none" points="285.571,1386.4 290.327,1369.34 295.083,1358.74 299.839,1340.47 304.594,1325.53 309.35,1299.34 314.106,1274.8 318.862,1257.05 323.618,1227.53 328.374,1202.75 333.13,1188.64 337.885,1183.78 342.641,1193.22 347.397,1196.82 352.153,1206.36 356.909,1214.34 361.665,1203.09 366.421,1186.41 371.177,1162.38 375.932,1139.6 380.688,1126.17 385.444,1119.34 390.2,1123.5 394.956,1133.62 399.712,1149.51 404.468,1173.77 409.223,1201.18 413.979,1203.34 418.735,1190.72 423.491,1169.95 428.247,1134.7 433.003,1083.45 437.759,1045.39 442.515,1031.35 447.27,1049.98 452.026,1049.52 456.782,1044.07 461.538,1046.61 466.294,1035.57 471.05,1007.44 475.806,987.705 480.561,987.609 485.317,988.502 490.073,967.956 494.829,946.287 499.585,941.689 504.341,920.41 509.097,899.459 513.853,901.245 518.608,929.929 523.364,954.795 528.12,981.904 532.876,1011.25 537.632,1040.7 542.388,1045.4 547.144,1045.68 551.899,1046.7 556.655,1048.12 561.411,1035.6 566.167,1021.38 570.923,1018.25 575.679,1000.63 580.435,972.911 585.191,954.647 589.946,946.21 594.702,937.607 599.458,932.509 604.214,943.048 608.97,971.255 613.726,984.222 618.482,993.479 623.237,1005.35 627.993,1020.59 632.749,1003.34 637.505,995.609 642.261,965.53 647.017,955.572 651.773,905.211 656.529,869.567 661.284,848.171 666.04,875.109 670.796,915.687 675.552,1006.34 680.308,1097.53 685.064,1199.42 689.82,1239.05 694.575,1256.65 699.331,1233.74 704.087,1200.92 708.843,1167.62 713.599,1157.12 718.355,1166.35 723.111,1210.39 727.867,1191.62 732.622,1188.54 737.378,1154.35 742.134,1035.9 746.89,912.838 751.646,776.564 756.402,698.709 761.158,686.71 765.913,662.852 770.669,733.833 775.425,799.88 780.181,817.045 784.937,850.155 789.693,864.337 794.449,903.309 799.205,953.722 803.96,983.002 808.716,1005.42 813.472,1006.65 818.228,997.915 822.984,1005.4 827.74,1023.55 832.496,1045.2 837.251,1070.79 842.007,1080.85 846.763,1080.81 851.519,1072.44 856.275,1068.73 861.031,1075.17 865.787,1081.24 870.543,1076.32 875.298,1060.62 880.054,1044.25 884.81,1017.69 889.566,995.207 894.322,982.2 899.078,980.387 903.834,974.47 908.589,974.242 913.345,986.267 918.101,1010.56 922.857,1031.75 927.613,1050.42 932.369,1047.8 937.125,1042.24 941.881,1031.85 946.636,1030.16 951.392,1040.72 956.148,1066.6 960.904,1112.49 965.66,1160.37 970.416,1192.9 975.172,1223.27 979.927,1244.83 984.683,1248.24 989.439,1239.74 994.195,1218.87 998.951,1215.55 1003.71,1213.15 1008.46,1215.67 1013.22,1208.65 1017.97,1197.09 1022.73,1175.06 1027.49,1147.86 1032.24,1096.38 1037,1062.41 1041.75,1047.43 1046.51,1050.2 1051.27,1053.11 1056.02,1055.69 1060.78,1050.62 1065.53,1040.87 1070.29,1010.72 1075.04,995.717 1079.8,1001.61 1084.56,1015.05 1089.31,1029.78 1094.07,1039.05 1098.82,1041.51 1103.58,1047.16 1108.34,1050.42 1113.09,1061.5 1117.85,1072.13 1122.6,1073.03 1127.36,1063.94 1132.12,1045.08 1136.87,1020.43 1141.63,1001.65 1146.38,988.294 1151.14,982.517 1155.89,980.78 1160.65,980.189 1165.41,977.409 1170.16,972.324 1174.92,961.358 1179.67,951.907 1184.43,947.669 1189.19,950.817 1193.94,962.881 1198.7,979.848 1203.45,978.155 1208.21,982.956 1212.96,960.011 1217.72,935.796 1222.48,941.893 1227.23,985.752 1231.99,1048.57 1236.74,1116.82 1241.5,1171.23 1246.26,1226.67 1251.01,1239.21 1255.77,1232.62 1260.52,1227.68 1265.28,1225.8 1270.04,1218.91 1274.79,1214.87 1279.55,1217.9 1284.3,1252.62 1289.06,1181.59 1293.81,1053.86 1298.57,943.345 1303.33,856.947 1308.08,783.585 1312.84,762.836 1317.59,794.714 1322.35,862.282 1327.11,858.132 1331.86,868.176 1336.62,912.556 1341.37,946.94 1346.13,953.892 1350.89,963.822 1355.64,964.996 1360.4,954.126 1365.15,949.352 1369.91,964.859 1374.66,981.741 1379.42,990.88 1384.18,1000.33 1388.93,1013.82 1393.69,1027.22 1398.44,1031.13 1403.2,1025.95 1407.96,1025.53 1412.71,1012.93 1417.47,997.101 1422.22,974.77 1426.98,950.334 1431.73,925.657 1436.49,904.193 1441.25,890.404 1446,885.817 1450.76,887.733 1455.51,905.305 1460.27,913.514 1465.03,915.621 1469.78,913.38 1474.54,922.844 1479.29,926.994 1484.05,924.831 1488.81,919.322 1493.56,924.571 1498.32,954.427 1503.07,1022.49 1507.83,974.186 1512.58,966.809 1517.34,978.002 1522.1,999.759 1526.85,1032.22 1531.61,1084.78 1536.36,1157.24 1541.12,1225.05 1545.88,1168.77 1550.63,1156.45 1555.39,1210.1 1560.14,1185.63 1564.9,1058.41 1569.65,940.163 1574.41,847.876 1579.17,816.743 1583.92,775.833 1588.68,815.259 1593.43,961.915 1598.19,1020.78 1602.95,1006.3 1607.7,1025.29 1612.46,1041.79 1617.21,1048.86 1621.97,997.134 1626.73,987.491 1631.48,989.671 1636.24,983.5 1640.99,974.171 1645.75,972.559 1650.5,968.153 1655.26,967.203 1660.02,981.264 1664.77,1008.75 1669.53,1037.89 1674.28,1064.42 1679.04,1077.5 1683.8,1072.38 1688.55,1051.73 1693.31,1023.47 1698.06,996.476 1702.82,983.335 1707.58,983.007 1712.33,990.311 1717.09,998.147 1721.84,1001.25 1726.6,1001.62 1731.35,994.597 1736.11,978.697 1740.87,968.815 1745.62,958.815 1750.38,944.515 1755.13,931.448 1759.89,927.535 1764.65,936.713 1769.4,936.817 1774.16,937.1 1778.91,937.508 1783.67,942.358 1788.42,957.213 1793.18,963.307 1797.94,989.295 1802.69,1039.93 1807.45,1090.64 1812.2,1135.3 1816.96,1165.07 1821.72,1184.5 1826.47,1193.1 1831.23,1172.14 1835.98,1163.57 1840.74,1167.54 1845.5,1174.16 1850.25,1212.86 1855.01,1205.69 1859.76,1169.44 1864.52,1077.21 1869.27,949.59 1874.03,823.824 1878.79,763.954 1883.54,764.199 1888.3,823.11 1893.05,872.648 1897.81,939.515 1902.57,970.154 1907.32,975.26 1912.08,973.857 1916.83,995.199 1921.59,1003.89 1926.34,991.241 1931.1,987.083 1935.86,990.468 1940.61,999.353 1945.37,1015.13 1950.12,1028.81 1954.88,1028.67 1959.64,1022.66 1964.39,1017.52 1969.15,1019.6 1973.9,1018.38 1978.66,1014.79 1983.42,1003.78 1988.17,981.196 1992.93,952.905 1997.68,929.068 2002.44,914.306 2007.19,919.707 2011.95,931.908 2016.71,950.813 2021.46,956.087 2026.22,957.993 2030.97,947.244 2035.73,925.919 2040.49,916.308 2045.24,922.071 2050,960.57 2054.75,982.332 2059.51,903.47 2064.27,814.768 2069.02,768.354 2073.78,757.178 2078.53,818.629 2083.29,937.922 2088.04,1104.96 2092.8,1217.96 2097.56,1232.69 2102.31,1226.68 2107.07,1223.29 2111.82,1200.63 2116.58,1186.17 2121.34,1175.71 2126.09,1170.89 2130.85,1163.21 2135.6,1175.18 2140.36,1162.06 2145.11,1125.59 2149.87,1059.16 2154.63,1010.23 2159.38,984.428 2164.14,990.866 2168.89,1014.22 2173.65,1052.77 2178.41,1065.02 2183.16,1056.49 2187.92,1030.35 2192.67,1026.15 2197.43,1033.16 2202.19,1048 2206.94,1053.81 2211.7,1052.57 2216.45,1042.74 2221.21,1032.16 2225.96,1024.61 2230.72,1009.39 2235.48,1009.19 2240.23,1005.43 2244.99,993.916 2249.74,978.952 2254.5,959.512 2259.26,946.717 2264.01,935.958 2268.77,929.928 2273.52,946.854 2278.28,962.269 2283.03,973.169 2287.79,980.29 2292.55,986.469 "/>
<polyline clip-path="url(#clip132)" style="stroke:#00bcb4; stroke-linecap:round; stroke-linejoin:round; stroke-width:8; stroke-opacity:1; fill:none" points="285.571,1243.22 290.327,1237.48 295.083,1245.65 299.839,1229.88 304.594,1199.72 309.35,1153.66 314.106,1113.64 318.862,1086.79 323.618,1032.41 328.374,980.979 333.13,949.951 337.885,932.839 342.641,925.805 347.397,920.747 352.153,925.174 356.909,932.575 361.665,911.404 366.421,879.377 371.177,845.692 375.932,815.083 380.688,791.854 385.444,789.249 390.2,800.425 394.956,819.922 399.712,832.072 404.468,838.29 409.223,845.827 413.979,830.175 418.735,804.216 423.491,782.11 428.247,742.388 433.003,690.934 437.759,658.238 442.515,649.881 447.27,672.02 452.026,682.753 456.782,690.24 461.538,704.478 466.294,699.212 471.05,678.574 475.806,671.111 480.561,675.15 485.317,671.597 490.073,642.291 494.829,608.409 499.585,588.019 504.341,560.725 509.097,544.247 513.853,550.633 518.608,580.161 523.364,604.111 528.12,622.879 532.876,639.262 537.632,647.471 542.388,634.696 547.144,622.289 551.899,609.012 556.655,601.048 561.411,590.743 566.167,582.381 570.923,580.819 575.679,559.609 580.435,527.644 585.191,497.412 589.946,472.518 594.702,450.029 599.458,438.241 604.214,443.738 608.97,465.731 613.726,476.18 618.482,489.15 623.237,501.794 627.993,524.402 632.749,521.328 637.505,531.682 642.261,511.11 647.017,470.144 651.773,427.407 656.529,375.472 661.284,362.338 666.04,404.585 670.796,467.875 675.552,565.081 680.308,628.614 685.064,671.428 689.82,690.755 694.575,666.737 699.331,645.153 704.087,625.917 708.843,610.03 713.599,607.316 718.355,615.344 723.111,637.91 727.867,659.182 732.622,667.678 737.378,698.252 742.134,681.914 746.89,625.76 751.646,537.392 756.402,455.406 761.158,381.275 765.913,315.837 770.669,296.454 775.425,333.823 780.181,355.013 784.937,390.651 789.693,428.347 794.449,475.823 799.205,514.884 803.96,537.673 808.716,556.756 813.472,552.851 818.228,538.074 822.984,538.048 827.74,544.84 832.496,546.639 837.251,548.435 842.007,548.582 846.763,545.941 851.519,539.571 856.275,537.814 861.031,545.795 865.787,549.484 870.543,540.854 875.298,521.556 880.054,500.518 884.81,471.524 889.566,448.3 894.322,434.668 899.078,432.393 903.834,431.342 908.589,441.094 913.345,457.985 918.101,486.283 922.857,508.752 927.613,535.216 932.369,525.621 937.125,508.893 941.881,490.18 946.636,490.87 951.392,510.24 956.148,546.445 960.904,595.65 965.66,649.467 970.416,668.139 975.172,678.616 979.927,676.534 984.683,669.237 989.439,660.865 994.195,640.017 998.951,624.659 1003.71,618.901 1008.46,624.449 1013.22,637.217 1017.97,655.314 1022.73,666.533 1027.49,673.554 1032.24,655.427 1037,633.729 1041.75,619.444 1046.51,611.442 1051.27,604.722 1056.02,598.32 1060.78,585.588 1065.53,579.799 1070.29,563.482 1075.04,555.689 1079.8,561.631 1084.56,571.801 1089.31,577.067 1094.07,576.57 1098.82,567.404 1103.58,559.818 1108.34,548.566 1113.09,546.077 1117.85,547.342 1122.6,543.483 1127.36,526.691 1132.12,499.026 1136.87,470.512 1141.63,446.91 1146.38,433.344 1151.14,433.018 1155.89,437.108 1160.65,441.872 1165.41,441.185 1170.16,435.189 1174.92,429.548 1179.67,423.271 1184.43,424.697 1189.19,435.437 1193.94,458.291 1198.7,492.01 1203.45,493.105 1208.21,492.034 1212.96,461.371 1217.72,412.291 1222.48,390.353 1227.23,407.947 1231.99,462.54 1236.74,541.337 1241.5,601.396 1246.26,658.416 1251.01,679.43 1255.77,674.055 1260.52,667.861 1265.28,671.032 1270.04,667.219 1274.79,661.219 1279.55,655.133 1284.3,646.756 1289.06,634.379 1293.81,630.768 1298.57,617.241 1303.33,601.415 1308.08,559.077 1312.84,514.634 1317.59,468.991 1322.35,421.301 1327.11,396.704 1331.86,421.535 1336.62,459.226 1341.37,498.866 1346.13,522.827 1350.89,544.205 1355.64,545.768 1360.4,523.528 1365.15,509.143 1369.91,513.37 1374.66,516.557 1379.42,513.744 1384.18,505.654 1388.93,503.333 1393.69,501.739 1398.44,494.09 1403.2,483.123 1407.96,479.674 1412.71,473.327 1417.47,467.312 1422.22,455.117 1426.98,440.325 1431.73,422.137 1436.49,404.024 1441.25,387.874 1446,378.727 1450.76,378.661 1455.51,384.407 1460.27,387.756 1465.03,393.32 1469.78,404.833 1474.54,422.293 1479.29,436.594 1484.05,429.262 1488.81,425.077 1493.56,412.685 1498.32,425.488 1503.07,469.315 1507.83,524.338 1512.58,582.031 1517.34,625.239 1522.1,637.187 1526.85,642.312 1531.61,629.317 1536.36,626.826 1541.12,637.435 1545.88,637.827 1550.63,630.066 1555.39,627.016 1560.14,627.719 1564.9,618.254 1569.65,604.67 1574.41,601.007 1579.17,614.138 1583.92,580.103 1588.68,554.751 1593.43,557.02 1598.19,551.303 1602.95,530.3 1607.7,523.741 1612.46,536.212 1617.21,551.278 1621.97,542.265 1626.73,559.988 1631.48,581.152 1636.24,578.236 1640.99,563.242 1645.75,546.935 1650.5,526.409 1655.26,507.351 1660.02,506.596 1664.77,512.724 1669.53,525.659 1674.28,541.298 1679.04,552.5 1683.8,550.686 1688.55,534.489 1693.31,510.092 1698.06,484.547 1702.82,470.144 1707.58,465.786 1712.33,467.176 1717.09,470.525 1721.84,471.403 1726.6,468.456 1731.35,460.57 1736.11,446.764 1740.87,439.742 1745.62,435.792 1750.38,432.64 1755.13,437.893 1759.89,444.588 1764.65,462.496 1769.4,453.25 1774.16,438.293 1778.91,416.195 1783.67,395.567 1788.42,405.867 1793.18,443.608 1797.94,496.373 1802.69,565.976 1807.45,609.99 1812.2,642.512 1816.96,650.632 1821.72,644.88 1826.47,649.16 1831.23,649.663 1835.98,652.679 1840.74,651.563 1845.5,641.953 1850.25,636.323 1855.01,632.229 1859.76,627.44 1864.52,628.998 1869.27,617.739 1874.03,584.326 1878.79,561.305 1883.54,530.228 1888.3,496.723 1893.05,474.752 1897.81,479.839 1902.57,505.027 1907.32,527.978 1912.08,540.856 1916.83,570.079 1921.59,574.963 1926.34,554.951 1931.1,541.281 1935.86,534.939 1940.61,529.908 1945.37,530.317 1950.12,528.79 1954.88,520.847 1959.64,509.103 1964.39,497.162 1969.15,495.558 1973.9,491.388 1978.66,484.337 1983.42,470.112 1988.17,449.566 1992.93,425.02 1997.68,405.029 2002.44,389.643 2007.19,392.443 2011.95,401.384 2016.71,418.628 2021.46,426.91 2026.22,433.538 2030.97,428.432 2035.73,426.676 2040.49,417.953 2045.24,430.041 2050,422.3 2054.75,414.85 2059.51,388.368 2064.27,365.995 2069.02,372.621 2073.78,422.71 2078.53,490.978 2083.29,577.641 2088.04,631.151 2092.8,664.399 2097.56,668.036 2102.31,651.904 2107.07,646.786 2111.82,648.339 2116.58,641.675 2121.34,628.455 2126.09,618.804 2130.85,618.059 2135.6,628.183 2140.36,640.886 2145.11,646.517 2149.87,628.018 2154.63,611.476 2159.38,594.864 2164.14,589.175 2168.89,587.408 2173.65,589.094 2178.41,591.444 2183.16,581.091 2187.92,560.07 2192.67,561.527 2197.43,566.871 2202.19,570.603 2206.94,567.704 2211.7,557.014 2216.45,539.105 2221.21,519.344 2225.96,503.54 2230.72,484.653 2235.48,481.682 2240.23,479.141 2244.99,469.547 2249.74,452.89 2254.5,432.435 2259.26,415.054 2264.01,399.62 2268.77,388.684 2273.52,401.227 2278.28,415.6 2283.03,423.845 2287.79,426.689 2292.55,428.536 "/>
<polyline clip-path="url(#clip132)" style="stroke:#ffb547; stroke-linecap:round; stroke-linejoin:round; stroke-width:8; stroke-opacity:1; fill:none" points="285.571,1016.12 290.327,1082.42 295.083,1097.18 299.839,1106.1 304.594,1095.56 309.35,1072.73 314.106,1043.62 318.862,1014.15 323.618,1022.23 328.374,1022.34 333.13,1028.56 337.885,1036.33 342.641,1043.5 347.397,1046.69 352.153,1038.89 356.909,1031.28 361.665,1019.11 366.421,1012.26 371.177,1008.24 375.932,1002.64 380.688,998.734 385.444,992.842 390.2,982.852 394.956,977.318 399.712,973.357 404.468,975.78 409.223,973.598 413.979,974.196 418.735,980.555 423.491,981.87 428.247,983.552 433.003,988.256 437.759,994.195 442.515,998.519 447.27,999.953 452.026,1003.25 456.782,1007.53 461.538,1008.15 466.294,1006.19 471.05,1005.88 475.806,990.228 480.561,956.863 485.317,922.222 490.073,895.203 494.829,886.644 499.585,887.52 504.341,892.421 509.097,900.593 513.853,903.965 518.608,907.443 523.364,914.737 528.12,917.029 532.876,927.677 537.632,930.516 542.388,923.534 547.144,910.943 551.899,904.538 556.655,894.781 561.411,883.086 566.167,867.541 570.923,864.801 575.679,865.105 580.435,869.6 585.191,879.827 589.946,890.728 594.702,893.707 599.458,894.774 604.214,898.87 608.97,901.805 613.726,903.927 618.482,909.859 623.237,913.705 627.993,916.283 632.749,913.439 637.505,913.282 642.261,904.023 647.017,874.393 651.773,837.198 656.529,822.946 661.284,792.31 666.04,806.152 670.796,786.116 675.552,735.665 680.308,665.045 685.064,592.737 689.82,544.182 694.575,531.447 699.331,545.536 704.087,638.942 708.843,711.267 713.599,686.917 718.355,631.288 723.111,594.923 727.867,509.207 732.622,496.454 737.378,479.325 742.134,543.892 746.89,631.497 751.646,670.099 756.402,724.04 761.158,780.779 765.913,759.43 770.669,791.511 775.425,756.727 780.181,771.556 784.937,783.119 789.693,805.939 794.449,843.65 799.205,868.192 803.96,883.596 808.716,897.549 813.472,903.601 818.228,913.441 822.984,913.875 827.74,916.019 832.496,914.492 837.251,907.272 842.007,914.137 846.763,911.679 851.519,912.511 856.275,911.994 861.031,913.346 865.787,919.596 870.543,917.587 875.298,914.815 880.054,915.48 884.81,916.833 889.566,922.236 894.322,922.748 899.078,930.535 903.834,935.5 908.589,941.361 913.345,942.918 918.101,943.295 922.857,937.144 927.613,924.769 932.369,905.246 937.125,883.545 941.881,823.061 946.636,785.582 951.392,735.319 956.148,696.339 960.904,665.047 965.66,578.438 970.416,513.634 975.172,495.945 979.927,495.784 984.683,537.356 989.439,558.968 994.195,638.322 998.951,657.912 1003.71,557.213 1008.46,446.624 1013.22,396.068 1017.97,408.97 1022.73,468.622 1027.49,549.918 1032.24,687.292 1037,760.002 1041.75,801.683 1046.51,774.83 1051.27,752.474 1056.02,743.277 1060.78,745.804 1065.53,752.664 1070.29,769.758 1075.04,796.486 1079.8,847.816 1084.56,864.571 1089.31,875.944 1094.07,883.9 1098.82,887.623 1103.58,895.644 1108.34,896.677 1113.09,900.891 1117.85,904.847 1122.6,907.05 1127.36,907.015 1132.12,910.246 1136.87,909.464 1141.63,911.498 1146.38,909.797 1151.14,916.214 1155.89,923.726 1160.65,932.945 1165.41,937.839 1170.16,937.02 1174.92,932.613 1179.67,930.25 1184.43,928.218 1189.19,921.719 1193.94,918.821 1198.7,908.787 1203.45,893.718 1208.21,871.621 1212.96,840.785 1217.72,799.844 1222.48,772.51 1227.23,734.821 1231.99,693.453 1236.74,615.588 1241.5,555.973 1246.26,520.808 1251.01,443.198 1255.77,366.565 1260.52,330.011 1265.28,282.194 1270.04,195.404 1274.79,172.397 1279.55,217.772 1284.3,317.677 1289.06,410.411 1293.81,499.097 1298.57,615.45 1303.33,690.827 1308.08,717.903 1312.84,801.256 1317.59,827.763 1322.35,826.95 1327.11,824.44 1331.86,793.107 1336.62,788.936 1341.37,784.51 1346.13,799.902 1350.89,846.344 1355.64,864.456 1360.4,873.003 1365.15,892.721 1369.91,908.524 1374.66,910.719 1379.42,903.972 1384.18,899.134 1388.93,900.778 1393.69,897.136 1398.44,894.396 1403.2,894.865 1407.96,897.021 1412.71,898.823 1417.47,903.964 1422.22,909.173 1426.98,915.579 1431.73,924.417 1436.49,934.084 1441.25,940.564 1446,941.544 1450.76,941.166 1455.51,939.664 1460.27,934.415 1465.03,932.913 1469.78,929.682 1474.54,924.181 1479.29,905.204 1484.05,869.211 1488.81,829.183 1493.56,781.206 1498.32,728.956 1503.07,692.633 1507.83,657.812 1512.58,655.181 1517.34,616.206 1522.1,559.041 1526.85,478.589 1531.61,395.815 1536.36,300.24 1541.12,239.974 1545.88,200.057 1550.63,200.8 1555.39,160.256 1560.14,185.725 1564.9,267.309 1569.65,392.755 1574.41,503.972 1579.17,625.179 1583.92,719.883 1588.68,760.675 1593.43,728.868 1598.19,721.666 1602.95,723.407 1607.7,727.931 1612.46,729.852 1617.21,749.131 1621.97,790.482 1626.73,834.531 1631.48,862.838 1636.24,882.303 1640.99,892.239 1645.75,900.541 1650.5,903.117 1655.26,903.67 1660.02,910.388 1664.77,914.824 1669.53,915.204 1674.28,916.307 1679.04,921.497 1683.8,927.126 1688.55,935.611 1693.31,941.867 1698.06,945.282 1702.82,941.313 1707.58,938.278 1712.33,935.566 1717.09,933.238 1721.84,932.9 1726.6,938.074 1731.35,944.827 1736.11,951.88 1740.87,954.363 1745.62,953.867 1750.38,954.209 1755.13,952.855 1759.89,949.186 1764.65,938.157 1769.4,921.347 1774.16,900.662 1778.91,857.861 1783.67,810.902 1788.42,779.978 1793.18,754.467 1797.94,704.788 1802.69,673.231 1807.45,595.245 1812.2,477.393 1816.96,388.197 1821.72,311.721 1826.47,252.832 1831.23,253.021 1835.98,240.911 1840.74,250.206 1845.5,178.664 1850.25,203.741 1855.01,302.784 1859.76,383.946 1864.52,468.45 1869.27,578.67 1874.03,653.729 1878.79,679.143 1883.54,659.999 1888.3,724.475 1893.05,765.929 1897.81,788.656 1902.57,811.04 1907.32,835.72 1912.08,865.241 1916.83,875.105 1921.59,876.379 1926.34,885.563 1931.1,892.857 1935.86,899.792 1940.61,904.305 1945.37,913.394 1950.12,914.84 1954.88,915.024 1959.64,914.4 1964.39,921.495 1969.15,925.531 1973.9,929.342 1978.66,930.645 1983.42,930.869 1988.17,932.096 1992.93,934.961 1997.68,933.888 2002.44,935.907 2007.19,935.348 2011.95,938.665 2016.71,940.101 2021.46,939.623 2026.22,941.372 2030.97,940.095 2035.73,935.094 2040.49,934.616 2045.24,938.454 2050,915.222 2054.75,867.116 2059.51,803.103 2064.27,746.636 2069.02,726.613 2073.78,697.191 2078.53,688.139 2083.29,698.688 2088.04,662.516 2092.8,589.495 2097.56,472.703 2102.31,358.943 2107.07,281.299 2111.82,212.896 2116.58,196.655 2121.34,186.23 2126.09,204.153 2130.85,233.193 2135.6,320.441 2140.36,429.504 2145.11,531.412 2149.87,627.968 2154.63,701.334 2159.38,713.885 2164.14,719.23 2168.89,722.351 2173.65,760.654 2178.41,789.713 2183.16,807.595 2187.92,825.146 2192.67,841.03 2197.43,854.972 2202.19,866.998 2206.94,878.746 2211.7,879.862 2216.45,891.028 2221.21,913.623 2225.96,928.936 2230.72,934.125 2235.48,935.495 2240.23,934.446 2244.99,926.037 2249.74,919.22 2254.5,913.279 2259.26,919.53 2264.01,922.145 2268.77,923.323 2273.52,925.219 2278.28,929.204 2283.03,934.996 2287.79,938.832 2292.55,942.087 "/>
<path clip-path="url(#clip130)" d="M296.275 374.156 L769.591 374.156 L769.591 166.796 L296.275 166.796  Z" fill="#ffffff" fill-rule="evenodd" fill-opacity="1"/>
<polyline clip-path="url(#clip130)" style="stroke:#000000; stroke-linecap:round; stroke-linejoin:round; stroke-width:4; stroke-opacity:1; fill:none" points="296.275,374.156 769.591,374.156 769.591,166.796 296.275,166.796 296.275,374.156 "/>
<polyline clip-path="url(#clip130)" style="stroke:#ff4747; stroke-linecap:round; stroke-linejoin:round; stroke-width:8; stroke-opacity:1; fill:none" points="319.913,218.636 461.739,218.636 "/>
<path clip-path="url(#clip130)" d="M494.159 219.846 L489.934 224.237 L489.934 235.916 L485.377 235.916 L485.377 201.356 L489.934 201.356 L489.934 218.446 L505.291 201.356 L510.798 201.356 L497.197 216.618 L511.866 235.916 L506.407 235.916 L494.159 219.846 Z" fill="#000000" fill-rule="nonzero" fill-opacity="1" /><path clip-path="url(#clip130)" d="M519.319 210.233 L519.462 213.461 Q522.405 209.758 527.152 209.758 Q535.294 209.758 535.365 218.944 L535.365 235.916 L530.974 235.916 L530.974 218.921 Q530.95 216.143 529.692 214.814 Q528.458 213.485 525.823 213.485 Q523.687 213.485 522.073 214.624 Q520.459 215.764 519.557 217.615 L519.557 235.916 L515.166 235.916 L515.166 210.233 L519.319 210.233 Z" fill="#000000" fill-rule="nonzero" fill-opacity="1" /><path clip-path="url(#clip130)" d="M552.645 236.39 Q547.423 236.39 544.148 232.972 Q540.872 229.531 540.872 223.786 L540.872 222.979 Q540.872 219.158 542.32 216.167 Q543.791 213.153 546.402 211.467 Q549.037 209.758 552.099 209.758 Q557.108 209.758 559.885 213.058 Q562.662 216.357 562.662 222.505 L562.662 224.332 L545.263 224.332 Q545.358 228.13 547.471 230.48 Q549.607 232.806 552.882 232.806 Q555.209 232.806 556.823 231.857 Q558.437 230.907 559.647 229.341 L562.33 231.43 Q559.101 236.39 552.645 236.39 M552.099 213.366 Q549.441 213.366 547.637 215.313 Q545.833 217.235 545.406 220.725 L558.271 220.725 L558.271 220.392 Q558.081 217.045 556.467 215.218 Q554.853 213.366 552.099 213.366 Z" fill="#000000" fill-rule="nonzero" fill-opacity="1" /><path clip-path="url(#clip130)" d="M578.399 236.39 Q573.177 236.39 569.901 232.972 Q566.626 229.531 566.626 223.786 L566.626 222.979 Q566.626 219.158 568.074 216.167 Q569.545 213.153 572.156 211.467 Q574.791 209.758 577.853 209.758 Q582.861 209.758 585.639 213.058 Q588.416 216.357 588.416 222.505 L588.416 224.332 L571.017 224.332 Q571.112 228.13 573.224 230.48 Q575.361 232.806 578.636 232.806 Q580.962 232.806 582.577 231.857 Q584.191 230.907 585.401 229.341 L588.083 231.43 Q584.855 236.39 578.399 236.39 M577.853 213.366 Q575.195 213.366 573.391 215.313 Q571.587 217.235 571.159 220.725 L584.024 220.725 L584.024 220.392 Q583.835 217.045 582.22 215.218 Q580.606 213.366 577.853 213.366 Z" fill="#000000" fill-rule="nonzero" fill-opacity="1" /><path clip-path="url(#clip130)" d="M625.302 226.896 L610.823 226.896 L607.571 235.916 L602.871 235.916 L616.068 201.356 L620.056 201.356 L633.277 235.916 L628.601 235.916 L625.302 226.896 M612.199 223.146 L623.949 223.146 L618.062 206.981 L612.199 223.146 Z" fill="#000000" fill-rule="nonzero" fill-opacity="1" /><path clip-path="url(#clip130)" d="M641.395 210.233 L641.537 213.461 Q644.481 209.758 649.228 209.758 Q657.37 209.758 657.441 218.944 L657.441 235.916 L653.05 235.916 L653.05 218.921 Q653.026 216.143 651.768 214.814 Q650.533 213.485 647.899 213.485 Q645.762 213.485 644.148 214.624 Q642.534 215.764 641.632 217.615 L641.632 235.916 L637.241 235.916 L637.241 210.233 L641.395 210.233 Z" fill="#000000" fill-rule="nonzero" fill-opacity="1" /><path clip-path="url(#clip130)" d="M663.019 222.861 Q663.019 216.855 665.796 213.319 Q668.573 209.758 673.154 209.758 Q677.854 209.758 680.489 213.081 L680.702 210.233 L684.714 210.233 L684.714 235.299 Q684.714 240.283 681.747 243.155 Q678.803 246.027 673.819 246.027 Q671.042 246.027 668.383 244.841 Q665.725 243.654 664.324 241.589 L666.603 238.954 Q669.428 242.443 673.51 242.443 Q676.715 242.443 678.495 240.639 Q680.299 238.835 680.299 235.56 L680.299 233.352 Q677.664 236.39 673.107 236.39 Q668.597 236.39 665.796 232.759 Q663.019 229.127 663.019 222.861 M667.434 223.359 Q667.434 227.703 669.214 230.195 Q670.994 232.664 674.199 232.664 Q678.352 232.664 680.299 228.89 L680.299 217.164 Q678.281 213.485 674.246 213.485 Q671.042 213.485 669.238 215.977 Q667.434 218.47 667.434 223.359 Z" fill="#000000" fill-rule="nonzero" fill-opacity="1" /><path clip-path="url(#clip130)" d="M696.107 235.916 L691.716 235.916 L691.716 199.457 L696.107 199.457 L696.107 235.916 Z" fill="#000000" fill-rule="nonzero" fill-opacity="1" /><path clip-path="url(#clip130)" d="M713.791 236.39 Q708.569 236.39 705.293 232.972 Q702.017 229.531 702.017 223.786 L702.017 222.979 Q702.017 219.158 703.465 216.167 Q704.937 213.153 707.548 211.467 Q710.183 209.758 713.245 209.758 Q718.253 209.758 721.03 213.058 Q723.807 216.357 723.807 222.505 L723.807 224.332 L706.409 224.332 Q706.504 228.13 708.616 230.48 Q710.752 232.806 714.028 232.806 Q716.354 232.806 717.968 231.857 Q719.582 230.907 720.793 229.341 L723.475 231.43 Q720.247 236.39 713.791 236.39 M713.245 213.366 Q710.586 213.366 708.782 215.313 Q706.978 217.235 706.551 220.725 L719.416 220.725 L719.416 220.392 Q719.226 217.045 717.612 215.218 Q715.998 213.366 713.245 213.366 Z" fill="#000000" fill-rule="nonzero" fill-opacity="1" /><polyline clip-path="url(#clip130)" style="stroke:#00bcb4; stroke-linecap:round; stroke-linejoin:round; stroke-width:8; stroke-opacity:1; fill:none" points="319.913,270.476 461.739,270.476 "/>
<path clip-path="url(#clip130)" d="M511.937 287.756 L507.356 287.756 L507.356 271.781 L489.934 271.781 L489.934 287.756 L485.377 287.756 L485.377 253.196 L489.934 253.196 L489.934 268.055 L507.356 268.055 L507.356 253.196 L511.937 253.196 L511.937 287.756 Z" fill="#000000" fill-rule="nonzero" fill-opacity="1" /><path clip-path="url(#clip130)" d="M524.114 287.756 L519.723 287.756 L519.723 262.073 L524.114 262.073 L524.114 287.756 M519.367 255.261 Q519.367 254.193 520.008 253.457 Q520.672 252.721 521.954 252.721 Q523.236 252.721 523.9 253.457 Q524.565 254.193 524.565 255.261 Q524.565 256.329 523.9 257.041 Q523.236 257.753 521.954 257.753 Q520.672 257.753 520.008 257.041 Q519.367 256.329 519.367 255.261 Z" fill="#000000" fill-rule="nonzero" fill-opacity="1" /><path clip-path="url(#clip130)" d="M552.835 275.199 Q552.835 281.062 550.153 284.646 Q547.471 288.23 542.89 288.23 Q538.213 288.23 535.531 285.263 L535.531 297.63 L531.14 297.63 L531.14 262.073 L535.151 262.073 L535.365 264.921 Q538.047 261.598 542.818 261.598 Q547.447 261.598 550.129 265.088 Q552.835 268.577 552.835 274.796 L552.835 275.199 M548.444 274.701 Q548.444 270.357 546.592 267.841 Q544.741 265.325 541.513 265.325 Q537.525 265.325 535.531 268.862 L535.531 281.133 Q537.501 284.646 541.56 284.646 Q544.717 284.646 546.569 282.154 Q548.444 279.638 548.444 274.701 Z" fill="#000000" fill-rule="nonzero" fill-opacity="1" /><path clip-path="url(#clip130)" d="M590.22 278.736 L575.74 278.736 L572.489 287.756 L567.789 287.756 L580.986 253.196 L584.974 253.196 L598.195 287.756 L593.519 287.756 L590.22 278.736 M577.117 274.986 L588.867 274.986 L582.98 258.821 L577.117 274.986 Z" fill="#000000" fill-rule="nonzero" fill-opacity="1" /><path clip-path="url(#clip130)" d="M606.313 262.073 L606.455 265.301 Q609.399 261.598 614.146 261.598 Q622.287 261.598 622.359 270.784 L622.359 287.756 L617.967 287.756 L617.967 270.761 Q617.944 267.983 616.686 266.654 Q615.451 265.325 612.817 265.325 Q610.68 265.325 609.066 266.464 Q607.452 267.604 606.55 269.455 L606.55 287.756 L602.159 287.756 L602.159 262.073 L606.313 262.073 Z" fill="#000000" fill-rule="nonzero" fill-opacity="1" /><path clip-path="url(#clip130)" d="M627.937 274.701 Q627.937 268.695 630.714 265.159 Q633.491 261.598 638.072 261.598 Q642.772 261.598 645.406 264.921 L645.62 262.073 L649.631 262.073 L649.631 287.139 Q649.631 292.123 646.664 294.995 Q643.721 297.867 638.737 297.867 Q635.959 297.867 633.301 296.681 Q630.642 295.494 629.242 293.429 L631.521 290.794 Q634.345 294.283 638.428 294.283 Q641.632 294.283 643.413 292.479 Q645.217 290.675 645.217 287.4 L645.217 285.192 Q642.582 288.23 638.024 288.23 Q633.515 288.23 630.714 284.599 Q627.937 280.967 627.937 274.701 M632.351 275.199 Q632.351 279.543 634.132 282.035 Q635.912 284.504 639.116 284.504 Q643.27 284.504 645.217 280.73 L645.217 269.004 Q643.199 265.325 639.164 265.325 Q635.959 265.325 634.155 267.817 Q632.351 270.31 632.351 275.199 Z" fill="#000000" fill-rule="nonzero" fill-opacity="1" /><path clip-path="url(#clip130)" d="M661.025 287.756 L656.634 287.756 L656.634 251.297 L661.025 251.297 L661.025 287.756 Z" fill="#000000" fill-rule="nonzero" fill-opacity="1" /><path clip-path="url(#clip130)" d="M678.708 288.23 Q673.486 288.23 670.211 284.812 Q666.935 281.371 666.935 275.626 L666.935 274.819 Q666.935 270.998 668.383 268.007 Q669.855 264.993 672.466 263.307 Q675.1 261.598 678.162 261.598 Q683.171 261.598 685.948 264.898 Q688.725 268.197 688.725 274.345 L688.725 276.172 L671.326 276.172 Q671.421 279.97 673.534 282.32 Q675.67 284.646 678.946 284.646 Q681.272 284.646 682.886 283.697 Q684.5 282.747 685.711 281.181 L688.393 283.27 Q685.165 288.23 678.708 288.23 M678.162 265.206 Q675.504 265.206 673.7 267.153 Q671.896 269.075 671.469 272.565 L684.334 272.565 L684.334 272.232 Q684.144 268.885 682.53 267.058 Q680.916 265.206 678.162 265.206 Z" fill="#000000" fill-rule="nonzero" fill-opacity="1" /><polyline clip-path="url(#clip130)" style="stroke:#ffb547; stroke-linecap:round; stroke-linejoin:round; stroke-width:8; stroke-opacity:1; fill:none" points="319.913,322.316 461.739,322.316 "/>
<path clip-path="url(#clip130)" d="M504.911 323.621 L489.934 323.621 L489.934 335.869 L507.333 335.869 L507.333 339.596 L485.377 339.596 L485.377 305.036 L507.095 305.036 L507.095 308.786 L489.934 308.786 L489.934 319.895 L504.911 319.895 L504.911 323.621 Z" fill="#000000" fill-rule="nonzero" fill-opacity="1" /><path clip-path="url(#clip130)" d="M517.088 339.596 L512.697 339.596 L512.697 303.137 L517.088 303.137 L517.088 339.596 Z" fill="#000000" fill-rule="nonzero" fill-opacity="1" /><path clip-path="url(#clip130)" d="M545.857 327.039 Q545.857 332.926 543.151 336.51 Q540.445 340.07 535.887 340.07 Q531.021 340.07 528.363 336.629 L528.149 339.596 L524.114 339.596 L524.114 303.137 L528.505 303.137 L528.505 316.738 Q531.164 313.438 535.84 313.438 Q540.516 313.438 543.174 316.975 Q545.857 320.512 545.857 326.659 L545.857 327.039 M541.465 326.541 Q541.465 322.055 539.733 319.61 Q538 317.165 534.748 317.165 Q530.404 317.165 528.505 321.2 L528.505 332.309 Q530.523 336.344 534.795 336.344 Q537.952 336.344 539.709 333.899 Q541.465 331.454 541.465 326.541 Z" fill="#000000" fill-rule="nonzero" fill-opacity="1" /><path clip-path="url(#clip130)" d="M550.224 326.517 Q550.224 322.743 551.696 319.728 Q553.191 316.714 555.826 315.076 Q558.484 313.438 561.879 313.438 Q567.124 313.438 570.352 317.07 Q573.604 320.702 573.604 326.731 L573.604 327.039 Q573.604 330.79 572.156 333.78 Q570.732 336.747 568.05 338.409 Q565.391 340.07 561.926 340.07 Q556.704 340.07 553.452 336.439 Q550.224 332.807 550.224 326.826 L550.224 326.517 M554.639 327.039 Q554.639 331.312 556.609 333.899 Q558.603 336.486 561.926 336.486 Q565.273 336.486 567.243 333.875 Q569.213 331.241 569.213 326.517 Q569.213 322.292 567.195 319.681 Q565.202 317.046 561.879 317.046 Q558.627 317.046 556.633 319.634 Q554.639 322.221 554.639 327.039 Z" fill="#000000" fill-rule="nonzero" fill-opacity="1" /><path clip-path="url(#clip130)" d="M601.85 333.543 L606.788 313.913 L611.179 313.913 L603.702 339.596 L600.141 339.596 L593.899 320.132 L587.822 339.596 L584.262 339.596 L576.809 313.913 L581.176 313.913 L586.232 333.139 L592.213 313.913 L595.75 313.913 L601.85 333.543 Z" fill="#000000" fill-rule="nonzero" fill-opacity="1" /><path clip-path="url(#clip130)" d="M647.448 330.576 L632.969 330.576 L629.717 339.596 L625.017 339.596 L638.214 305.036 L642.202 305.036 L655.423 339.596 L650.747 339.596 L647.448 330.576 M634.345 326.826 L646.095 326.826 L640.208 310.661 L634.345 326.826 Z" fill="#000000" fill-rule="nonzero" fill-opacity="1" /><path clip-path="url(#clip130)" d="M663.541 313.913 L663.683 317.141 Q666.627 313.438 671.374 313.438 Q679.515 313.438 679.587 322.624 L679.587 339.596 L675.195 339.596 L675.195 322.601 Q675.172 319.823 673.914 318.494 Q672.679 317.165 670.045 317.165 Q667.908 317.165 666.294 318.304 Q664.68 319.444 663.778 321.295 L663.778 339.596 L659.387 339.596 L659.387 313.913 L663.541 313.913 Z" fill="#000000" fill-rule="nonzero" fill-opacity="1" /><path clip-path="url(#clip130)" d="M685.165 326.541 Q685.165 320.535 687.942 316.999 Q690.719 313.438 695.3 313.438 Q700 313.438 702.635 316.761 L702.848 313.913 L706.86 313.913 L706.86 338.979 Q706.86 343.963 703.893 346.835 Q700.949 349.707 695.965 349.707 Q693.188 349.707 690.529 348.521 Q687.871 347.334 686.47 345.269 L688.749 342.634 Q691.573 346.123 695.656 346.123 Q698.86 346.123 700.641 344.319 Q702.445 342.515 702.445 339.24 L702.445 337.032 Q699.81 340.07 695.253 340.07 Q690.743 340.07 687.942 336.439 Q685.165 332.807 685.165 326.541 M689.58 327.039 Q689.58 331.383 691.36 333.875 Q693.14 336.344 696.344 336.344 Q700.498 336.344 702.445 332.57 L702.445 320.844 Q700.427 317.165 696.392 317.165 Q693.188 317.165 691.384 319.657 Q689.58 322.15 689.58 327.039 Z" fill="#000000" fill-rule="nonzero" fill-opacity="1" /><path clip-path="url(#clip130)" d="M718.253 339.596 L713.862 339.596 L713.862 303.137 L718.253 303.137 L718.253 339.596 Z" fill="#000000" fill-rule="nonzero" fill-opacity="1" /><path clip-path="url(#clip130)" d="M735.937 340.07 Q730.715 340.07 727.439 336.652 Q724.163 333.211 724.163 327.466 L724.163 326.659 Q724.163 322.838 725.611 319.847 Q727.083 316.833 729.694 315.147 Q732.329 313.438 735.391 313.438 Q740.399 313.438 743.176 316.738 Q745.953 320.037 745.953 326.185 L745.953 328.012 L728.555 328.012 Q728.65 331.81 730.762 334.16 Q732.898 336.486 736.174 336.486 Q738.5 336.486 740.114 335.537 Q741.728 334.587 742.939 333.021 L745.621 335.11 Q742.393 340.07 735.937 340.07 M735.391 317.046 Q732.732 317.046 730.928 318.993 Q729.124 320.915 728.697 324.405 L741.562 324.405 L741.562 324.072 Q741.372 320.725 739.758 318.898 Q738.144 317.046 735.391 317.046 Z" fill="#000000" fill-rule="nonzero" fill-opacity="1" /></svg>
